<?xml version="1.0" encoding="UTF-8"?>
<!DOCTYPE svg PUBLIC "-//W3C//DTD SVG 1.1//EN" "http://www.w3.org/Graphics/SVG/1.1/DTD/svg11.dtd">
<!-- Creator: CorelDRAW -->
<svg xmlns="http://www.w3.org/2000/svg" xml:space="preserve" width="2.93952cm" height="3.00002cm" version="1.1" style="shape-rendering:geometricPrecision; text-rendering:geometricPrecision; image-rendering:optimizeQuality; fill-rule:evenodd; clip-rule:evenodd"
viewBox="0 0 142.66 145.6"
 xmlns:xlink="http://www.w3.org/1999/xlink"
 xmlns:xodm="http://www.corel.com/coreldraw/odm/2003">
 <defs>
  <style type="text/css">
   <![CDATA[
    .fil0 {fill:#1945A0;fill-rule:nonzero}
   ]]>
  </style>
 </defs>
 <g id="Capa_x0020_1">
  <metadata id="CorelCorpID_0Corel-Layer"/>
  <path class="fil0" d="M140.83 80.84l-2.21 -3.01c-2.39,-3.28 -2.45,-7.73 -0.09,-11.07l2.15 -3.04c3.28,-4.65 1.76,-11.13 -3.28,-13.84l-3.28 -1.76c-3.58,-1.91 -5.55,-5.91 -4.86,-9.94l0.63 -3.67c0.96,-5.61 -3.25,-10.8 -8.95,-11.04l-3.73 -0.15c-4.06,-0.18 -7.58,-2.92 -8.71,-6.83l-1.04 -3.58c-1.58,-5.49 -7.61,-8.32 -12.86,-6.06l-3.43 1.46c-3.73,1.61 -8.08,0.66 -10.8,-2.39l-2.48 -2.77c-3.79,-4.24 -10.44,-4.21 -14.2,0.12l-2.45 2.8c-2.69,3.07 -7.01,4.09 -10.77,2.54l-3.46 -1.43c-5.28,-2.18 -11.25,0.78 -12.77,6.27l-0.98 3.61c-1.07,3.94 -4.53,6.74 -8.59,6.95l-3.73 0.21c-5.7,0.33 -9.82,5.58 -8.77,11.19l0.69 3.67c0.75,4 -1.16,8.03 -4.71,9.99l-3.25 1.82c-4.98,2.77 -6.41,9.28 -3.04,13.87l2.21 3.01c2.39,3.28 2.45,7.73 0.09,11.07l-2.15 3.04c-3.28,4.65 -1.76,11.13 3.28,13.84l3.28 1.76c3.58,1.91 5.55,5.91 4.86,9.94l-0.63 3.67c-0.96,5.61 3.25,10.8 8.95,11.04l3.73 0.15c4.06,0.18 7.58,2.92 8.71,6.83l1.04 3.58c1.58,5.49 7.61,8.32 12.86,6.06l3.43 -1.46c3.73,-1.61 8.08,-0.66 10.8,2.39l2.48 2.77c3.82,4.24 10.47,4.21 14.2,-0.12l2.45 -2.8c2.69,-3.07 7.01,-4.09 10.77,-2.54l3.46 1.43c5.28,2.18 11.25,-0.78 12.77,-6.27l0.98 -3.61c1.07,-3.94 4.53,-6.74 8.59,-6.95l3.73 -0.21c5.7,-0.33 9.82,-5.58 8.77,-11.19l-0.69 -3.67c-0.75,-4 1.16,-8.03 4.71,-9.99l3.25 -1.82c4.98,-2.74 6.41,-9.25 3.04,-13.87zm-69.5 39.69c-26.32,0 -47.73,-21.41 -47.73,-47.73 0,-26.32 21.41,-47.73 47.73,-47.73 26.32,0 47.73,21.41 47.73,47.73 0,26.32 -21.41,47.73 -47.73,47.73z"/>
  <path class="fil0" d="M71.33 33.6c-21.62,0 -39.2,17.59 -39.2,39.2 0,21.62 17.59,39.2 39.2,39.2 21.61,0 39.2,-17.59 39.2,-39.2 0,-21.61 -17.59,-39.2 -39.2,-39.2zm23.27 31.82l-28.08 28.08c-1.18,1.18 -2.72,1.77 -4.27,1.77 -1.54,0 -3.09,-0.59 -4.27,-1.77l-10.73 -10.73c-2.36,-2.36 -2.36,-6.18 0,-8.54 2.36,-2.36 6.18,-2.36 8.54,0l6.46 6.46 23.82 -23.82c2.36,-2.36 6.18,-2.36 8.54,0 2.36,2.36 2.36,6.18 0,8.54z"/>
 </g>
</svg>
