<?xml version="1.0" encoding="UTF-8"?>
<!DOCTYPE svg PUBLIC "-//W3C//DTD SVG 1.1//EN" "http://www.w3.org/Graphics/SVG/1.1/DTD/svg11.dtd">
<!-- Creator: CorelDRAW -->
<svg xmlns="http://www.w3.org/2000/svg" xml:space="preserve" width="4.41535cm" height="4.44501cm" version="1.1" style="shape-rendering:geometricPrecision; text-rendering:geometricPrecision; image-rendering:optimizeQuality; fill-rule:evenodd; clip-rule:evenodd"
viewBox="0 0 78.41 78.94"
 xmlns:xlink="http://www.w3.org/1999/xlink"
 xmlns:xodm="http://www.corel.com/coreldraw/odm/2003">
 <defs>
  <style type="text/css">
   <![CDATA[
    .fil3 {fill:#B2BCD2}
    .fil4 {fill:#6B809B}
    .fil0 {fill:#31476A}
    .fil1 {fill:#B2BCD2;fill-rule:nonzero}
    .fil2 {fill:#31476A;fill-rule:nonzero}
   ]]>
  </style>
 </defs>
 <g id="Capa_x0020_1">
  <metadata id="CorelCorpID_0Corel-Layer"/>
  <g id="_2496161636592">
   <path class="fil0" d="M9.12 63.28c-2.58,0 -4.27,0.81 -5.65,3.07 -0.25,0.41 -0.71,1.64 -0.71,2.25l0 9.46c0,0.36 0.53,0.89 0.89,0.89l20.39 0c0.71,0 1.18,-0.47 1.18,-1.18l0 -8.42c0,-2.69 -1.5,-4.64 -3.69,-5.61 -1.01,-0.45 -1.37,-0.44 -2.81,-0.44 0.55,-1.03 1.33,-2.09 1.33,-3.69 0,-2.52 -1.45,-4.56 -3.44,-5.57 -3.84,-1.94 -8.67,1.09 -8.67,5.13 0,2.96 0.91,2.99 1.18,4.14zm-4.14 6.21c0,-2.3 1.68,-3.99 3.99,-3.99l10.05 0c2.14,0 3.84,1.63 3.84,3.4l0 7.83 -2.51 0c0,-2.05 0.49,-5.32 -1.18,-5.32 -1.67,0 -1.18,3.27 -1.18,5.32l-8.13 0 0 -4.43c0,-1.04 -2.22,-1.36 -2.22,0.3l0 4.14 -2.66 0 0 -7.24zm11.57 -7.35c-2.41,2.43 -6.25,0.39 -6.25,-2.26l0 -0.89c0,-1.57 1.64,-3.25 3.69,-3.25 3.22,0 5.03,3.9 2.55,6.39z"/>
   <g>
    <path class="fil1" d="M6.57 20.92l-1.35 0c-0.4,0 -0.73,-0.33 -0.73,-0.73 0,-0.4 0.33,-0.73 0.73,-0.73l1.35 0c0.4,0 0.73,0.33 0.73,0.73 0,0.4 -0.33,0.73 -0.73,0.73z"/>
    <path class="fil1" d="M2.08 20.92l-1.35 0c-0.4,0 -0.73,-0.33 -0.73,-0.73 0,-0.4 0.33,-0.73 0.73,-0.73l1.35 0c0.4,0 0.73,0.33 0.73,0.73 0,0.4 -0.33,0.73 -0.73,0.73z"/>
    <path class="fil1" d="M3.65 23.84c-0.4,0 -0.73,-0.33 -0.73,-0.73l0 -1.35c0,-0.4 0.33,-0.73 0.73,-0.73 0.4,0 0.73,0.33 0.73,0.73l0 1.35c0,0.4 -0.33,0.73 -0.73,0.73z"/>
    <path class="fil1" d="M3.65 19.34c-0.4,0 -0.73,-0.33 -0.73,-0.73l0 -1.35c0,-0.4 0.33,-0.73 0.73,-0.73 0.4,0 0.73,0.33 0.73,0.73l0 1.35c0,0.4 -0.33,0.73 -0.73,0.73z"/>
   </g>
   <g>
    <path class="fil2" d="M56.46 4.38l-1.35 0c-0.4,0 -0.73,-0.33 -0.73,-0.73 0,-0.4 0.33,-0.73 0.73,-0.73l1.35 0c0.4,0 0.73,0.33 0.73,0.73 0,0.4 -0.33,0.73 -0.73,0.73z"/>
    <path class="fil2" d="M51.97 4.38l-1.35 0c-0.4,0 -0.73,-0.33 -0.73,-0.73 0,-0.4 0.33,-0.73 0.73,-0.73l1.35 0c0.4,0 0.73,0.33 0.73,0.73 0,0.4 -0.33,0.73 -0.73,0.73z"/>
    <path class="fil2" d="M53.54 7.3c-0.4,0 -0.73,-0.33 -0.73,-0.73l0 -1.35c0,-0.4 0.33,-0.73 0.73,-0.73 0.4,0 0.73,0.33 0.73,0.73l0 1.35c0,0.4 -0.33,0.73 -0.73,0.73z"/>
    <path class="fil2" d="M53.54 2.81c-0.4,0 -0.73,-0.33 -0.73,-0.73l0 -1.35c0,-0.4 0.33,-0.73 0.73,-0.73 0.4,0 0.73,0.33 0.73,0.73l0 1.35c0,0.4 -0.33,0.73 -0.73,0.73z"/>
   </g>
   <g>
    <path class="fil2" d="M51.18 59.06l-1.35 0c-0.4,0 -0.73,-0.33 -0.73,-0.73 0,-0.4 0.33,-0.73 0.73,-0.73l1.35 0c0.4,0 0.73,0.33 0.73,0.73 0,0.4 -0.33,0.73 -0.73,0.73z"/>
    <path class="fil2" d="M46.68 59.06l-1.35 0c-0.4,0 -0.73,-0.33 -0.73,-0.73 0,-0.4 0.33,-0.73 0.73,-0.73l1.35 0c0.4,0 0.73,0.33 0.73,0.73 0,0.4 -0.33,0.73 -0.73,0.73z"/>
    <path class="fil2" d="M48.25 61.98c-0.4,0 -0.73,-0.33 -0.73,-0.73l0 -1.35c0,-0.4 0.33,-0.73 0.73,-0.73 0.4,0 0.73,0.33 0.73,0.73l0 1.35c0,0.4 -0.33,0.73 -0.73,0.73z"/>
    <path class="fil2" d="M48.25 57.49c-0.4,0 -0.73,-0.33 -0.73,-0.73l0 -1.35c0,-0.4 0.33,-0.73 0.73,-0.73 0.4,0 0.73,0.33 0.73,0.73l0 1.35c0,0.4 -0.33,0.73 -0.73,0.73z"/>
   </g>
   <path class="fil0" d="M39.55 7.43c0,1.53 0.1,1.48 0.89,2.66 -1.63,0 -3.25,0 -4.88,0 -1.54,0 -3.84,-0.34 -3.84,1.18 0,0.58 0.67,1.18 1.33,1.18l10.05 0c0.8,0 1.33,-0.53 1.33,-1.33 0,-0.79 -2.26,-2.28 -2.55,-3.08 -0.24,-0.68 0.18,-1.48 0.97,-1.6 0.82,-0.12 1.31,0.65 1.76,1.09l4.21 4.21c1.81,1.81 2,1.92 -0.15,4.06 -0.63,0.63 -1.15,1.15 -1.77,1.77 -0.63,0.63 -1.15,1.15 -1.77,1.77 -0.43,0.43 -1.33,1.51 -2.03,1.51 -0.88,0 -2,-1.06 -0.71,-2.33 0.45,-0.44 2.04,-1.77 2.04,-2.4 0,-1.05 -0.86,-1.33 -1.92,-1.33l-21.28 0c-7.33,0 -6.06,5.44 -6.06,11.23l0 13c0,2.11 0.36,3.25 -1.48,3.25 -0.75,0 -1.03,-1.09 -1.03,-1.92l0 -19.35c0,-3.81 1.23,-6.92 4.83,-8.17 4.03,-1.4 11.42,0.96 11.42,-1.58 0,-0.58 -0.67,-1.18 -1.33,-1.18l-7.39 0c-5.35,0 -9.75,4.18 -9.75,9.31l0 21.72c0,4.19 6.25,4.96 7.04,0.54 0.5,-2.77 -0.5,-21.79 0.35,-23.29 0.37,-0.65 1.22,-1.14 2.21,-1.19 2.17,-0.1 4.6,0 6.8,0 4.53,0 9.06,0 13.59,0 -1.08,1.61 -1.37,3.39 0.1,4.92 0.6,0.62 1.11,0.91 2.21,1.04 1.88,0.22 3.01,-1.17 4.07,-2.23 1.12,-1.12 2.13,-2.13 3.25,-3.25 2.52,-2.52 3.73,-4.18 0.81,-7.09 -0.8,-0.8 -1.49,-1.49 -2.29,-2.29 -1.59,-1.59 -3.54,-4.1 -5.21,-4.1 -2.27,0 -3.84,1.36 -3.84,3.25z"/>
   <path class="fil3" d="M56.25 67.41c3.97,0 7.7,0.66 9.31,-2.95 0.84,-1.88 0.44,-5.53 0.44,-8.13l0 -12.85c0,-2.87 -0.26,-3.55 1.48,-3.55 0.75,0 1.03,1.09 1.03,1.92l0 19.35c0,3.64 -0.98,5.7 -3.08,7.26 -0.85,0.63 -2.4,1.3 -3.86,1.31l-20.84 -0.01c-0.81,0 -1.89,-0.06 -2.66,-0 -0.8,0.06 -1.33,0.48 -1.33,1.33 0,0.79 2.26,2.28 2.55,3.08 0.24,0.68 -0.18,1.48 -0.97,1.6 -0.82,0.12 -1.31,-0.65 -1.76,-1.09 -0.42,-0.42 -5.58,-5.32 -5.58,-5.8 0,-1.38 0.48,-1.44 1.51,-2.47 0.86,-0.86 4.66,-5.06 5.58,-5.06 0.62,0 1.05,0.36 1.22,0.86 0.52,1.5 -2.55,2.66 -2.55,3.87 0,1.05 0.86,1.33 1.92,1.33l11.08 0c2.47,0 2.76,-2.39 0.15,-2.37l-9.17 0.01c1.05,-1.57 1.36,-3.35 -0.03,-4.84 -0.6,-0.65 -1.06,-0.94 -2.16,-1.1 -1.95,-0.28 -3.05,1.06 -4.12,2.14 -1.09,1.1 -2.08,2.08 -3.18,3.18 -1.24,1.24 -2.62,2.16 -2.62,4.17 0,1.58 0.78,2.18 1.59,2.99l4.65 4.65c1.35,1.35 1.44,1.81 3.51,1.81 1.69,0 3.25,-1.48 3.25,-3.55 0,-1.23 -0.4,-1.64 -0.89,-2.36 6.55,0 13.1,-0.01 19.65,0 2.46,0.01 3.9,-0.33 5.81,-1.43 2.29,-1.32 4.53,-4.46 4.53,-7.88l0 -21.72c0,-1.21 -0.36,-1.78 -0.99,-2.41 -2.14,-2.12 -4.87,-1.01 -5.76,0.97 -0.58,1.28 -0.34,3.53 -0.34,5.28l0 16.55c0,1.02 0.08,1.79 -0.35,2.46 -1.52,2.35 -7.2,0.26 -8.35,1.4 -0.29,0.29 -0.42,0.55 -0.37,0.95 0.09,0.82 0.85,1.1 1.69,1.1z"/>
   <path class="fil4" d="M24.78 34.32c0,2.65 -0.5,5.32 1.18,5.32 1.74,0 1.13,-2.92 1.17,-5.47 0.05,-2.53 2.27,-2.06 4.59,-2.06l12.42 0.01c1.24,-0.02 1.37,-0.73 3.13,-2.49 0.63,-0.63 1.68,-1.82 2.33,-2.25 0,2.03 -0.38,4.34 0.79,4.67 0.78,0.22 3.64,-0.55 3.64,1.98l0 14.18c0,2.57 -3.11,1.92 -5.32,1.92l-10.79 -0c-2.04,-0.01 -1.52,-0.03 -2.62,1.07 -0.89,0.89 -2.86,3.08 -3.73,3.66 0,-1.05 0.25,-3.56 -0.19,-4.24 -0.66,-1.02 -2.33,0.01 -3.53,-0.9 -1.9,-1.43 0.69,-7.12 -1.89,-7.12 -1.69,0 -1.18,2.67 -1.18,5.32 0,2.96 1.82,4.35 4.58,4.58 0,2.41 -0.63,5.47 1.63,5.47 1.43,0 4.69,-3.99 5.93,-5.15 0.53,-0.49 0.94,-0.33 1.9,-0.32 2.8,0.01 11.64,0.17 13.26,-0.04 1.55,-0.2 2.17,-0.36 3.11,-1.32 0.79,-0.81 1.21,-1.67 1.21,-3.22l0 -13.59c0,-2.96 -1.82,-4.35 -4.58,-4.58 0,-2.41 0.63,-5.47 -1.63,-5.47 -1.43,0 -4.69,3.99 -5.93,5.15 -0.53,0.49 -0.94,0.33 -1.9,0.32 -2.8,-0.01 -11.64,-0.17 -13.26,0.04 -1.55,0.2 -2.17,0.36 -3.11,1.32 -0.79,0.81 -1.21,1.67 -1.21,3.22z"/>
   <path class="fil3" d="M60.83 22.5l0 3.99 -2.51 0 0 -7.83c0,-1.56 1.69,-3.25 3.25,-3.25l11.23 0c1.95,0 3.4,1.88 3.4,4.14l0 6.94 -2.66 0 0 -4.28c0,-1.02 -2.22,-1.43 -2.22,0.15l0 4.14 -8.13 0c0,-3.59 0.51,-5.17 -1.48,-5.17 -0.48,0 -0.89,0.64 -0.89,1.18zm5.84 -19.21l0.9 0c1.52,0.11 3.01,0.74 4,1.81 3.41,3.63 0.65,7.28 0.48,7.95 3.53,0 6.35,2.46 6.35,5.61l0 9.01c0,0.88 -0.6,1.18 -1.48,1.18l-19.65 0c-0.8,0 -1.33,-0.53 -1.33,-1.33l0 -8.42c0,-0.94 0.28,-2.04 0.6,-2.65 1.1,-2.13 3.09,-3.4 5.9,-3.4 -0.69,-1.04 -1.33,-2.11 -1.33,-3.84 0,-1.81 1.07,-3.64 2.49,-4.75 0.29,-0.23 0.58,-0.41 0.91,-0.57 0.66,-0.34 1.4,-0.53 2.16,-0.59zm-3.18 6.06c0,-3.47 4,-4.94 6.25,-2.85 2.38,2.21 1.05,6.54 -2.7,6.54 -1.78,0 -3.55,-1.56 -3.55,-3.69z"/>
   <path class="fil3" d="M30.54 40.82c0,0.49 -0.07,1.48 1.18,1.48l17.73 0c1.61,0 1.61,-2.36 0,-2.36l-17.73 0c-0.54,0 -1.18,0.41 -1.18,0.89z"/>
   <path class="fil0" d="M30.54 36.09c0,1.14 0.42,1.48 1.92,1.48l16.25 0c2.97,0 1.89,-2.36 1.03,-2.36l-18.32 0c-0.36,0 -0.89,0.53 -0.89,0.89z"/>
   <path class="fil0" d="M30.54 45.84c0,0.77 0.51,1.18 0.89,1.18l9.16 0c1.4,0 2,-2.36 -0.74,-2.36l-7.39 0c-1,0 -1.92,0.17 -1.92,1.18z"/>
  </g>
 </g>
</svg>
