<?xml version="1.0" encoding="UTF-8"?>
<!DOCTYPE svg PUBLIC "-//W3C//DTD SVG 1.1//EN" "http://www.w3.org/Graphics/SVG/1.1/DTD/svg11.dtd">
<!-- Creator: CorelDRAW -->
<svg xmlns="http://www.w3.org/2000/svg" xml:space="preserve" width="3cm" height="3cm" version="1.1" style="shape-rendering:geometricPrecision; text-rendering:geometricPrecision; image-rendering:optimizeQuality; fill-rule:evenodd; clip-rule:evenodd"
viewBox="0 0 88.57 88.57"
 xmlns:xlink="http://www.w3.org/1999/xlink"
 xmlns:xodm="http://www.corel.com/coreldraw/odm/2003">
 <defs>
  <style type="text/css">
   <![CDATA[
    .fil0 {fill:#1945A0}
    .fil1 {fill:#1945A0;fill-rule:nonzero}
   ]]>
  </style>
 </defs>
 <g id="Capa_x0020_1">
  <metadata id="CorelCorpID_0Corel-Layer"/>
  <path class="fil0" d="M51.38 0l0 0c11.89,0 21.62,9.73 21.62,21.62l0 0c0,11.89 -9.73,21.62 -21.62,21.62l0 0c-11.89,0 -21.62,-9.73 -21.62,-21.62l0 0c0,-11.89 9.73,-21.62 21.62,-21.62zm-4.14 19.9c-2.72,-1 -3.2,-1.69 -3.2,-2.75 0,-0.98 0.86,-1.97 2.79,-1.97 1.72,0 2.81,0.56 3.1,0.73 0.16,0.09 0.35,0.12 0.53,0.05 0.18,-0.06 0.32,-0.2 0.39,-0.38l0.65 -1.82c0.1,-0.28 -0.02,-0.59 -0.28,-0.74 -0.5,-0.28 -1.92,-0.93 -4.3,-0.93 -3.83,0 -6.5,2.18 -6.5,5.3 0,2.48 1.71,4.28 5.21,5.49 2.52,0.89 3.01,1.71 3.01,2.83 0,1.46 -1.18,2.33 -3.17,2.33 -1.36,0 -2.76,-0.38 -3.84,-1.03 -0.16,-0.1 -0.36,-0.12 -0.54,-0.06 -0.18,0.06 -0.33,0.21 -0.39,0.39l-0.62 1.87c-0.09,0.26 0.02,0.55 0.26,0.71 1.12,0.71 3.21,1.22 4.98,1.22 5.14,0 6.96,-3.02 6.96,-5.61 0,-2.67 -1.45,-4.31 -5.02,-5.64zm13.27 6.76c-1.14,0 -2,0.85 -2,1.97 0,1.13 0.84,1.97 1.94,1.97l0.03 0c1.16,0 2,-0.83 2,-1.97 0,-1.14 -0.83,-1.97 -1.97,-1.97zm2.18 -13.8l-7.4 17.78c-0.06,0.14 -0.2,0.24 -0.37,0.24l-1.79 -0c-0.13,0 -0.25,-0.06 -0.32,-0.16 -0.07,-0.1 -0.09,-0.23 -0.04,-0.34l7.34 -17.78c0.06,-0.14 0.2,-0.24 0.37,-0.24l1.85 0c0.13,0 0.25,0.06 0.32,0.16 0.07,0.1 0.09,0.23 0.04,0.34z"/>
  <path class="fil1" d="M79.01 54.36l-9.82 12.84c-1.96,2.57 -5.01,4.07 -8.25,4.07l-18.22 0c-1.43,0 -2.59,-1.16 -2.59,-2.59 0,-1.43 1.16,-2.59 2.59,-2.59l15.8 0c3.39,0 6.24,-2.78 6.17,-6.17 -0.06,-3.29 -2.75,-5.94 -6.05,-5.94l-18.16 0c-5.22,-5.01 -13.26,-5.6 -19.15,-1.4l-1.95 1.4 0 29.41 17.3 0 3.46 0 24.37 0c5.3,0 10.23,-2.69 13.1,-7.15l10.13 -15.75c0.55,-0.86 0.85,-1.86 0.85,-2.88 0,-5.09 -6.46,-7.28 -9.56,-3.24z"/>
  <path class="fil1" d="M11.59 48.78l-9 0c-1.43,0 -2.59,1.16 -2.59,2.59l0 34.6c0,1.43 1.16,2.59 2.59,2.59l9 0c1.43,0 2.59,-1.16 2.59,-2.59l0 -34.6c0,-1.43 -1.16,-2.59 -2.59,-2.59z"/>
 </g>
</svg>
