<?xml version="1.0" encoding="UTF-8"?>
<!DOCTYPE svg PUBLIC "-//W3C//DTD SVG 1.1//EN" "http://www.w3.org/Graphics/SVG/1.1/DTD/svg11.dtd">
<!-- Creator: CorelDRAW -->
<svg xmlns="http://www.w3.org/2000/svg" xml:space="preserve" width="4.45427cm" height="4.63321cm" version="1.1" style="shape-rendering:geometricPrecision; text-rendering:geometricPrecision; image-rendering:optimizeQuality; fill-rule:evenodd; clip-rule:evenodd"
viewBox="0 0 87.7 91.22"
 xmlns:xlink="http://www.w3.org/1999/xlink"
 xmlns:xodm="http://www.corel.com/coreldraw/odm/2003">
 <defs>
  <style type="text/css">
   <![CDATA[
    .fil5 {fill:#B2BCD2}
    .fil4 {fill:white}
    .fil1 {fill:#FEFEFE;fill-rule:nonzero}
    .fil0 {fill:#E0E4E5;fill-rule:nonzero}
    .fil2 {fill:#B2BCD2;fill-rule:nonzero}
    .fil3 {fill:#31476A;fill-rule:nonzero}
   ]]>
  </style>
 </defs>
 <g id="Capa_x0020_1">
  <metadata id="CorelCorpID_0Corel-Layer"/>
  <path class="fil0" d="M45.98 74.17c0,9.42 -7.63,17.05 -17.05,17.05 -9.42,0 -17.05,-7.63 -17.05,-17.05 0,-9.42 7.63,-17.05 17.05,-17.05 9.42,0 17.05,7.64 17.05,17.05z"/>
  <path class="fil0" d="M87.7 29.64c0,8.07 -6.54,14.62 -14.62,14.62 -8.07,0 -14.62,-6.54 -14.62,-14.62 0,-8.07 6.54,-14.62 14.62,-14.62 8.07,0 14.62,6.54 14.62,14.62z"/>
  <path class="fil0" d="M48.72 24.36c0,13.45 -10.91,24.36 -24.36,24.36 -13.45,0 -24.36,-10.91 -24.36,-24.36 0,-13.45 10.91,-24.36 24.36,-24.36 13.45,0 24.36,10.91 24.36,24.36z"/>
  <path class="fil1" d="M77.95 44.94c0,18.16 -14.72,32.89 -32.89,32.89 -18.16,0 -32.89,-14.72 -32.89,-32.89 0,-18.16 14.72,-32.89 32.89,-32.89 18.16,0 32.89,14.72 32.89,32.89z"/>
  <path class="fil2" d="M50.94 12.59c8.93,5.88 14.83,15.99 14.83,27.48 0,18.16 -14.72,32.89 -32.89,32.89 -2.01,0 -3.97,-0.19 -5.88,-0.53 5.19,3.41 11.39,5.41 18.06,5.41 18.16,0 32.89,-14.72 32.89,-32.89 0,-16.15 -11.65,-29.58 -27.01,-32.35z"/>
  <path class="fil3" d="M45.07 12.97c-17.63,0 -31.97,14.34 -31.97,31.97 0,17.63 14.34,31.97 31.97,31.97 17.63,0 31.97,-14.34 31.97,-31.97 0,-17.63 -14.34,-31.97 -31.97,-31.97zm0 65.77c-18.64,0 -33.8,-15.16 -33.8,-33.8 0,-18.64 15.16,-33.8 33.8,-33.8 18.64,0 33.8,15.16 33.8,33.8 0,18.64 -15.16,33.8 -33.8,33.8z"/>
  <path class="fil1" d="M59.55 32.89c-1.34,0 -2.44,-1.09 -2.44,-2.44 0,-1.35 1.09,-2.44 2.44,-2.44 1.35,0 2.44,1.09 2.44,2.44 0,1.34 -1.09,2.44 -2.44,2.44z"/>
  <path class="fil2" d="M47.5 81.48l-4.87 0c-0.67,0 -1.22,-0.54 -1.22,-1.22l0 -4.87c0,-0.67 0.55,-1.22 1.22,-1.22l4.87 0c0.67,0 1.22,0.55 1.22,1.22l0 4.87c0,0.67 -0.55,1.22 -1.22,1.22z"/>
  <path class="fil1" d="M45.07 79.04l-3.65 0 0 -3.65c0,-0.67 0.55,-1.22 1.22,-1.22l3.65 0 0 3.65c0,0.67 -0.54,1.22 -1.22,1.22z"/>
  <path class="fil3" d="M42.63 75.09c-0.17,0 -0.3,0.14 -0.3,0.3l0 4.87c0,0.17 0.14,0.3 0.3,0.3l4.87 0c0.17,0 0.3,-0.14 0.3,-0.3l0 -4.87c0,-0.17 -0.14,-0.3 -0.3,-0.3l-4.87 0zm4.87 7.31l-4.87 0c-1.18,0 -2.13,-0.96 -2.13,-2.13l0 -4.87c0,-1.18 0.96,-2.13 2.13,-2.13l4.87 0c1.18,0 2.13,0.96 2.13,2.13l0 4.87c0,1.18 -0.96,2.13 -2.13,2.13z"/>
  <path class="fil2" d="M47.5 15.7l-4.87 0c-0.67,0 -1.22,-0.55 -1.22,-1.22l0 -4.87c0,-0.67 0.55,-1.22 1.22,-1.22l4.87 0c0.67,0 1.22,0.55 1.22,1.22l0 4.87c0,0.67 -0.55,1.22 -1.22,1.22z"/>
  <path class="fil1" d="M45.07 13.27l-3.65 0 0 -3.65c0,-0.67 0.55,-1.22 1.22,-1.22l3.65 0 0 3.65c0,0.67 -0.54,1.22 -1.22,1.22z"/>
  <path class="fil3" d="M42.63 9.31c-0.17,0 -0.3,0.14 -0.3,0.3l0 4.87c0,0.17 0.14,0.3 0.3,0.3l4.87 0c0.17,0 0.3,-0.14 0.3,-0.3l0 -4.87c0,-0.17 -0.14,-0.3 -0.3,-0.3l-4.87 0zm4.87 7.31l-4.87 0c-1.18,0 -2.13,-0.96 -2.13,-2.13l0 -4.87c0,-1.18 0.96,-2.13 2.13,-2.13l4.87 0c1.18,0 2.13,0.96 2.13,2.13l0 4.87c0,1.18 -0.96,2.13 -2.13,2.13z"/>
  <path class="fil3" d="M13.4 20.27l-1.69 0c-0.5,0 -0.91,-0.41 -0.91,-0.91 0,-0.5 0.41,-0.91 0.91,-0.91l1.69 0c0.5,0 0.91,0.41 0.91,0.91 0,0.5 -0.41,0.91 -0.91,0.91z"/>
  <path class="fil3" d="M7.78 20.27l-1.69 0c-0.5,0 -0.91,-0.41 -0.91,-0.91 0,-0.5 0.41,-0.91 0.91,-0.91l1.69 0c0.5,0 0.91,0.41 0.91,0.91 0,0.5 -0.41,0.91 -0.91,0.91z"/>
  <path class="fil3" d="M9.74 23.92c-0.5,0 -0.91,-0.41 -0.91,-0.91l0 -1.69c0,-0.5 0.41,-0.91 0.91,-0.91 0.5,0 0.91,0.41 0.91,0.91l0 1.69c0,0.5 -0.41,0.91 -0.91,0.91z"/>
  <path class="fil3" d="M9.74 18.3c-0.5,0 -0.91,-0.41 -0.91,-0.91l0 -1.69c0,-0.5 0.41,-0.91 0.91,-0.91 0.5,0 0.91,0.41 0.91,0.91l0 1.69c0,0.5 -0.41,0.91 -0.91,0.91z"/>
  <path class="fil3" d="M9.54 60.61l-1.69 0c-0.5,0 -0.91,-0.41 -0.91,-0.91 0,-0.5 0.41,-0.91 0.91,-0.91l1.69 0c0.5,0 0.91,0.41 0.91,0.91 0,0.5 -0.41,0.91 -0.91,0.91z"/>
  <path class="fil3" d="M3.91 60.61l-1.69 0c-0.5,0 -0.91,-0.41 -0.91,-0.91 0,-0.5 0.41,-0.91 0.91,-0.91l1.69 0c0.5,0 0.91,0.41 0.91,0.91 0,0.5 -0.41,0.91 -0.91,0.91z"/>
  <path class="fil3" d="M5.88 64.27c-0.5,0 -0.91,-0.41 -0.91,-0.91l0 -1.69c0,-0.5 0.41,-0.91 0.91,-0.91 0.5,0 0.91,0.41 0.91,0.91l0 1.69c0,0.5 -0.41,0.91 -0.91,0.91z"/>
  <path class="fil3" d="M5.88 58.64c-0.5,0 -0.91,-0.41 -0.91,-0.91l0 -1.69c0,-0.5 0.41,-0.91 0.91,-0.91 0.5,0 0.91,0.41 0.91,0.91l0 1.69c0,0.5 -0.41,0.91 -0.91,0.91z"/>
  <path class="fil3" d="M40.2 27.59l-1.69 0c-0.5,0 -0.91,-0.41 -0.91,-0.91 0,-0.5 0.41,-0.91 0.91,-0.91l1.69 0c0.5,0 0.91,0.41 0.91,0.91 0,0.5 -0.41,0.91 -0.91,0.91z"/>
  <path class="fil3" d="M34.58 27.59l-1.69 0c-0.5,0 -0.91,-0.41 -0.91,-0.91 0,-0.5 0.41,-0.91 0.91,-0.91l1.69 0c0.5,0 0.91,0.41 0.91,0.91 0,0.5 -0.41,0.91 -0.91,0.91z"/>
  <path class="fil3" d="M36.54 31.24c-0.5,0 -0.91,-0.41 -0.91,-0.91l0 -1.69c0,-0.5 0.41,-0.91 0.91,-0.91 0.5,0 0.91,0.41 0.91,0.91l0 1.69c0,0.5 -0.41,0.91 -0.91,0.91z"/>
  <path class="fil3" d="M36.54 25.62c-0.5,0 -0.91,-0.41 -0.91,-0.91l0 -1.69c0,-0.5 0.41,-0.91 0.91,-0.91 0.5,0 0.91,0.41 0.91,0.91l0 1.69c0,0.5 -0.41,0.91 -0.91,0.91z"/>
  <path class="fil3" d="M83.6 63.69l-1.69 0c-0.5,0 -0.91,-0.41 -0.91,-0.91 0,-0.5 0.41,-0.91 0.91,-0.91l1.69 0c0.5,0 0.91,0.41 0.91,0.91 0,0.5 -0.41,0.91 -0.91,0.91z"/>
  <path class="fil3" d="M77.98 63.69l-1.69 0c-0.5,0 -0.91,-0.41 -0.91,-0.91 0,-0.5 0.41,-0.91 0.91,-0.91l1.69 0c0.5,0 0.91,0.41 0.91,0.91 0,0.5 -0.41,0.91 -0.91,0.91z"/>
  <path class="fil3" d="M79.95 67.35c-0.5,0 -0.91,-0.41 -0.91,-0.91l0 -1.69c0,-0.5 0.41,-0.91 0.91,-0.91 0.5,0 0.91,0.41 0.91,0.91l0 1.69c0,0.5 -0.41,0.91 -0.91,0.91z"/>
  <path class="fil3" d="M79.95 61.73c-0.5,0 -0.91,-0.41 -0.91,-0.91l0 -1.69c0,-0.5 0.41,-0.91 0.91,-0.91 0.5,0 0.91,0.41 0.91,0.91l0 1.69c0,0.5 -0.41,0.91 -0.91,0.91z"/>
  <path class="fil3" d="M81.6 24.06l-1.69 0c-0.5,0 -0.91,-0.41 -0.91,-0.91 0,-0.5 0.41,-0.91 0.91,-0.91l1.69 0c0.5,0 0.91,0.41 0.91,0.91 0,0.5 -0.41,0.91 -0.91,0.91z"/>
  <path class="fil3" d="M75.98 24.06l-1.69 0c-0.5,0 -0.91,-0.41 -0.91,-0.91 0,-0.5 0.41,-0.91 0.91,-0.91l1.69 0c0.5,0 0.91,0.41 0.91,0.91 0,0.5 -0.41,0.91 -0.91,0.91z"/>
  <path class="fil3" d="M77.94 27.72c-0.5,0 -0.91,-0.41 -0.91,-0.91l0 -1.69c0,-0.5 0.41,-0.91 0.91,-0.91 0.5,0 0.91,0.41 0.91,0.91l0 1.69c0,0.5 -0.41,0.91 -0.91,0.91z"/>
  <path class="fil3" d="M77.94 22.1c-0.5,0 -0.91,-0.41 -0.91,-0.91l0 -1.69c0,-0.5 0.41,-0.91 0.91,-0.91 0.5,0 0.91,0.41 0.91,0.91l0 1.69c0,0.5 -0.41,0.91 -0.91,0.91z"/>
  <polygon class="fil4" points="56.44,26.97 31.5,26.97 31.5,19.81 56.44,19.81 "/>
  <path class="fil5" d="M52.35 26.97l0 -2.21 0 -0.16 0 -0.46c0,-0.59 -0.48,-1.07 -1.07,-1.07l-1.47 0 -3.09 0 -15.22 0 0 -3.26 24.94 0 0 7.16 -4.09 0z"/>
  <polygon class="fil4" points="34.88,19.42 53.05,19.42 53.05,3.27 34.88,3.27 "/>
  <path class="fil5" d="M47.06 3.27l5.99 0 0 16.15 -5.99 0 0 -9.71 0 -1.28 0 -0.37c0,-0.4 -0.37,-0.74 -0.83,-0.74l-0.97 0 -4.14 0 -6.25 0 0 -4.06 12.18 0z"/>
  <polygon class="fil4" points="24.14,26.52 62.49,26.52 62.49,34.66 24.14,34.66 "/>
  <path class="fil5" d="M58.74 34.66l0 -2.79 0 -0.16 0 -0.46c0,-0.59 -0.48,-1.07 -1.07,-1.07l-1.47 0 -3.09 0 -28.97 0 0 -3.66 38.35 0 0 8.14 -3.76 0z"/>
  <polygon class="fil4" points="31.63,35.02 56.05,35.02 56.05,44.59 48.95,59.63 38.59,59.63 31.63,44.59 "/>
  <path class="fil5" d="M31.63 36.17l24.42 0 0 8.42 -7.1 15.04 -4.46 0 7.22 -15.17 0 -0.79 0 -2.9 0 -1.82c0,-0.43 -0.37,-0.79 -0.81,-0.79l-1 0 -18.27 0 0 -1.99z"/>
  <polygon class="fil4" points="1.51,87.96 86.26,87.96 77.04,69.59 11.34,69.59 "/>
  <path class="fil5" d="M4.02 83.26l59.15 0 10.78 0 2.69 0c0.81,0 1.16,-0.66 0.77,-1.47l-0.5 -1.05 0.01 -0.01 -5.2 -11.14 5.31 0 8.72 17.38 0 0.99 -84.26 0 2.51 -4.69z"/>
  <path class="fil3" d="M52 77.71c-0.62,0 -1.12,0.5 -1.12,1.12 0,0.62 0.5,1.13 1.12,1.13l3.84 0c0.62,0 1.13,-0.51 1.13,-1.13 0,-0.62 -0.51,-1.12 -1.13,-1.12l-3.84 0z"/>
  <path class="fil3" d="M31.86 77.71c-0.62,0 -1.12,0.5 -1.12,1.12 0,0.62 0.5,1.13 1.12,1.13l3.84 0c0.63,0 1.13,-0.51 1.13,-1.13 0,-0.62 -0.5,-1.12 -1.13,-1.12l-3.84 0z"/>
  <path class="fil3" d="M25.74 28.06l36.21 0 0 5.85 -36.21 0 0 -5.85zm-1.12 8.1l5.81 0 0 8.25c0,0.17 0.03,0.33 0.1,0.48l7.2 15.38c0.19,0.39 0.59,0.65 1.02,0.65l3.97 0 0 7.57 -2.67 0c-0.62,0 -1.13,0.5 -1.13,1.13 0,0.62 0.51,1.12 1.13,1.12l2.67 0 0 4.21c-2.17,0.51 -3.8,2.46 -3.8,4.79 0,0.62 0.51,1.13 1.13,1.13 0.62,0 1.13,-0.51 1.13,-1.13 0,-1.47 1.2,-2.67 2.67,-2.67 1.47,0 2.67,1.2 2.67,2.67 0,0.62 0.5,1.13 1.12,1.13 0.62,0 1.13,-0.51 1.13,-1.13 0,-2.33 -1.63,-4.28 -3.8,-4.79l0 -4.21 5.38 0 -1.91 1.92c-0.44,0.44 -0.44,1.15 0,1.59 0.22,0.22 0.5,0.33 0.79,0.33 0.29,0 0.58,-0.11 0.79,-0.33l7.21 -7.21c0.44,-0.44 0.44,-1.15 0,-1.59 -0.44,-0.44 -1.15,-0.44 -1.59,0l-3.04 3.05 -7.64 0 0 -7.57 3.98 0c0.44,0 0.84,-0.25 1.02,-0.65l7.2 -15.38c0.06,-0.15 0.1,-0.31 0.1,-0.48l0 -4.61c0,-0.62 -0.51,-1.13 -1.13,-1.13 -0.62,0 -1.12,0.51 -1.12,1.13l0 4.36 -6.79 14.5 -8.76 0 -6.79 -14.5 0 -7.99 30.4 0c0.62,0 1.13,-0.5 1.13,-1.12l0 -8.1c0,-0.62 -0.5,-1.12 -1.13,-1.12l-5.81 0 0 -6c0,-0.62 -0.51,-1.13 -1.13,-1.13l-2.25 0 0 -15.52c0,-0.62 -0.5,-1.12 -1.13,-1.12 -0.62,0 -1.13,0.5 -1.13,1.12l0 15.52 -15.59 0 0 -15.52c0,-0.62 -0.51,-1.12 -1.13,-1.12 -0.62,0 -1.12,0.5 -1.12,1.12l0 15.52 -2.25 0c-0.62,0 -1.12,0.51 -1.12,1.13 0,0.62 0.5,1.12 1.12,1.12l23.47 0 0 4.87 -30.4 0c-0.62,0 -1.13,0.5 -1.13,1.12l0 8.1c0,0.62 0.5,1.12 1.13,1.12z"/>
  <path class="fil3" d="M34.16 70.73l3.51 3.51c0.22,0.22 0.51,0.33 0.79,0.33 0.29,0 0.58,-0.11 0.79,-0.33 0.44,-0.44 0.44,-1.15 0,-1.59l-3.83 -3.83 -0.01 -0 -3.37 -3.37c-0.44,-0.44 -1.15,-0.44 -1.59,0 -0.44,0.44 -0.44,1.16 0,1.59l1.45 1.45 -20.6 0c-0.42,0 -0.8,0.23 -1,0.59l-9.89 18.44c-0.3,0.55 -0.09,1.23 0.46,1.52 0.17,0.09 0.35,0.14 0.53,0.14 0.4,0 0.79,-0.22 0.99,-0.59l9.58 -17.85 22.18 0z"/>
  <path class="fil3" d="M87.3 87.56l-8.99 -18.45c-0.19,-0.39 -0.59,-0.63 -1.01,-0.63l-17.59 0c-0.62,0 -1.13,0.5 -1.13,1.13 0,0.62 0.51,1.12 1.13,1.12l16.88 0 7.9 16.2 -77.53 0c-0.62,0 -1.12,0.51 -1.12,1.13 0,0.62 0.5,1.12 1.12,1.12l79.33 0c0.39,0 0.75,-0.2 0.96,-0.53 0.2,-0.33 0.23,-0.74 0.05,-1.09z"/>
 </g>
</svg>
