<?xml version="1.0" encoding="UTF-8"?>
<!DOCTYPE svg PUBLIC "-//W3C//DTD SVG 1.1//EN" "http://www.w3.org/Graphics/SVG/1.1/DTD/svg11.dtd">
<!-- Creator: CorelDRAW -->
<svg xmlns="http://www.w3.org/2000/svg" xml:space="preserve" width="4.45427cm" height="4.63321cm" version="1.1" style="shape-rendering:geometricPrecision; text-rendering:geometricPrecision; image-rendering:optimizeQuality; fill-rule:evenodd; clip-rule:evenodd"
viewBox="0 0 120.97 125.83"
 xmlns:xlink="http://www.w3.org/1999/xlink"
 xmlns:xodm="http://www.corel.com/coreldraw/odm/2003">
 <defs>
  <style type="text/css">
   <![CDATA[
    .fil1 {fill:#FEFEFE;fill-rule:nonzero}
    .fil0 {fill:#E0E4E5;fill-rule:nonzero}
    .fil2 {fill:#B2BCD2;fill-rule:nonzero}
    .fil3 {fill:#31476A;fill-rule:nonzero}
   ]]>
  </style>
 </defs>
 <g id="Capa_x0020_1">
  <metadata id="CorelCorpID_0Corel-Layer"/>
  <path class="fil0" d="M63.43 102.31c0,12.99 -10.53,23.52 -23.52,23.52 -12.99,0 -23.52,-10.53 -23.52,-23.52 0,-12.99 10.53,-23.52 23.52,-23.52 12.99,0 23.52,10.53 23.52,23.52z"/>
  <path class="fil0" d="M120.97 40.89c0,11.13 -9.03,20.16 -20.16,20.16 -11.14,0 -20.16,-9.03 -20.16,-20.16 0,-11.13 9.03,-20.16 20.16,-20.16 11.13,0 20.16,9.03 20.16,20.16z"/>
  <path class="fil0" d="M67.2 33.6c0,18.56 -15.04,33.6 -33.6,33.6 -18.56,0 -33.6,-15.05 -33.6,-33.6 0,-18.56 15.04,-33.6 33.6,-33.6 18.56,0 33.6,15.05 33.6,33.6z"/>
  <path class="fil1" d="M107.53 61.99c0,25.05 -20.31,45.36 -45.36,45.36 -25.05,0 -45.36,-20.31 -45.36,-45.36 0,-25.05 20.31,-45.36 45.36,-45.36 25.05,0 45.36,20.31 45.36,45.36z"/>
  <path class="fil2" d="M70.27 17.37c12.32,8.11 20.45,22.05 20.45,37.9 0,25.05 -20.31,45.36 -45.36,45.36 -2.77,0 -5.48,-0.26 -8.11,-0.74 7.15,4.71 15.71,7.46 24.91,7.46 25.05,0 45.36,-20.31 45.36,-45.36 0,-22.28 -16.07,-40.8 -37.25,-44.62z"/>
  <path class="fil3" d="M62.16 17.89c-24.32,0 -44.1,19.79 -44.1,44.1 0,24.32 19.78,44.1 44.1,44.1 24.32,0 44.1,-19.78 44.1,-44.1 0,-24.32 -19.78,-44.1 -44.1,-44.1zm0 90.73c-25.71,0 -46.62,-20.91 -46.62,-46.62 0,-25.71 20.92,-46.62 46.62,-46.62 25.71,0 46.62,20.92 46.62,46.62 0,25.71 -20.92,46.62 -46.62,46.62z"/>
  <path class="fil1" d="M55.36 83.07l-14.27 -14.27c-11.02,9.67 -25.09,13.2 -25.09,13.2l-7.6 33.76 33.76 -7.6c0,0 3.53,-14.07 13.2,-25.09z"/>
  <path class="fil2" d="M55.36 83.07l-14.27 -14.27c-1.53,1.35 -3.12,2.56 -4.73,3.67l10.13 10.13c1.19,1.19 1.32,3.09 0.28,4.42 -7.68,9.85 -10.88,21.13 -11.28,22.65l6.68 -1.5c0,0 3.53,-14.07 13.2,-25.09z"/>
  <path class="fil3" d="M17.06 83.01l-6.99 31.07 31.07 -6.99c0.86,-3.03 4.46,-14.35 12.5,-23.96l-12.62 -12.62c-9.61,8.05 -20.94,11.65 -23.96,12.51zm-8.66 34c-0.33,0 -0.65,-0.13 -0.89,-0.37 -0.31,-0.3 -0.43,-0.75 -0.34,-1.17l7.6 -33.76c0.11,-0.46 0.46,-0.83 0.92,-0.95 0.14,-0.03 13.92,-3.58 24.57,-12.93 0.5,-0.44 1.25,-0.41 1.72,0.06l14.27 14.27c0.47,0.47 0.49,1.22 0.06,1.72 -9.34,10.65 -12.89,24.43 -12.93,24.57 -0.12,0.46 -0.48,0.82 -0.95,0.92l-33.76 7.6c-0.09,0.02 -0.18,0.03 -0.28,0.03z"/>
  <path class="fil1" d="M30.06 99.98c-3.25,0 -5.88,-2.63 -5.88,-5.88 0,-3.25 2.63,-5.88 5.88,-5.88 3.25,0 5.88,2.63 5.88,5.88 0,3.25 -2.63,5.88 -5.88,5.88z"/>
  <path class="fil2" d="M30.06 88.21c-0.91,0 -1.75,0.22 -2.52,0.59 1.98,0.95 3.36,2.95 3.36,5.29 0,2.34 -1.38,4.35 -3.36,5.29 0.77,0.37 1.61,0.59 2.52,0.59 3.25,0 5.88,-2.63 5.88,-5.88 0,-3.24 -2.63,-5.88 -5.88,-5.88z"/>
  <path class="fil3" d="M30.06 89.47c-2.55,0 -4.62,2.07 -4.62,4.62 0,2.55 2.07,4.62 4.62,4.62 2.55,0 4.62,-2.07 4.62,-4.62 0,-2.55 -2.07,-4.62 -4.62,-4.62zm0 11.76c-3.94,0 -7.14,-3.2 -7.14,-7.14 0,-3.93 3.2,-7.14 7.14,-7.14 3.94,0 7.14,3.21 7.14,7.14 0,3.94 -3.2,7.14 -7.14,7.14z"/>
  <path class="fil3" d="M8.4 117.01c-0.32,0 -0.65,-0.12 -0.89,-0.37 -0.49,-0.49 -0.49,-1.29 0,-1.78l17.5 -17.5c0.49,-0.49 1.29,-0.49 1.78,0 0.49,0.49 0.49,1.29 0,1.78l-17.5 17.5c-0.25,0.25 -0.57,0.37 -0.89,0.37z"/>
  <polygon class="fil1" points="55.36,83.07 41.09,68.79 44.32,57.44 66.71,79.83 "/>
  <path class="fil2" d="M66.71 79.83l-22.39 -22.39 -1.49 5.23 13.46 13.46c0.91,0.91 0.51,2.45 -0.73,2.8l-3.37 0.96 3.17 3.17 11.35 -3.24z"/>
  <path class="fil3" d="M42.5 68.42l13.23 13.23 8.58 -2.45 -19.36 -19.35 -2.45 8.58zm12.86 15.9c-0.33,0 -0.65,-0.13 -0.89,-0.37l-14.27 -14.27c-0.32,-0.32 -0.45,-0.79 -0.32,-1.23l3.24 -11.35c0.12,-0.43 0.46,-0.76 0.9,-0.88 0.43,-0.11 0.89,0.01 1.21,0.33l22.39 22.39c0.32,0.31 0.44,0.77 0.33,1.21 -0.11,0.43 -0.45,0.77 -0.88,0.9l-11.35 3.24c-0.11,0.03 -0.23,0.05 -0.34,0.05z"/>
  <polygon class="fil1" points="115.92,23.49 115.93,8.23 100.66,8.23 93.49,14.5 109.66,30.66 "/>
  <path class="fil2" d="M110.88 8.23l-0 11.69c0,1.22 -0.44,2.4 -1.24,3.31l-3.46 3.96 3.47 3.48 6.27 -7.18 0 -15.26 -5.04 0z"/>
  <g>
   <path class="fil3" d="M115.92 23.49l0.02 0 -0.02 0zm-20.59 -8.93l14.26 14.26 5.07 -5.8 0 -13.53 -13.53 0 -5.8 5.07zm14.32 17.36c-0.33,0 -0.66,-0.13 -0.89,-0.37l-16.17 -16.17c-0.25,-0.25 -0.38,-0.59 -0.37,-0.93 0.01,-0.35 0.17,-0.68 0.43,-0.91l7.18 -6.27c0.23,-0.2 0.52,-0.31 0.83,-0.31l15.26 -0c0.33,0 0.66,0.13 0.89,0.37 0.24,0.23 0.37,0.56 0.37,0.89l-0 15.26c0,0.31 -0.11,0.6 -0.31,0.83l-6.27 7.18c-0.23,0.26 -0.56,0.42 -0.91,0.43 -0.01,0 -0.03,0 -0.04,0z"/>
  </g>
  <polygon class="fil2" points="93.49,14.5 44.32,57.44 66.71,79.83 109.66,30.66 "/>
  <path class="fil1" d="M89.9 17.63l-45.58 39.81 18.8 18.8 37.74 -43.21c1.16,-1.33 1.1,-3.34 -0.15,-4.59l-10.81 -10.81z"/>
  <path class="fil3" d="M46.17 57.5l20.48 20.48 41.28 -47.26 -14.5 -14.5 -47.26 41.28zm20.54 23.59c-0.33,0 -0.65,-0.13 -0.89,-0.37l-22.39 -22.39c-0.25,-0.25 -0.38,-0.59 -0.37,-0.93 0.01,-0.35 0.17,-0.68 0.43,-0.91l49.16 -42.94c0.5,-0.44 1.25,-0.41 1.72,0.06l16.17 16.17c0.47,0.47 0.49,1.22 0.06,1.72l-42.94 49.16c-0.23,0.26 -0.56,0.42 -0.91,0.43 -0.01,0 -0.03,0 -0.04,0z"/>
  <path class="fil1" d="M82.15 45.37c-1.85,0 -3.36,-1.51 -3.36,-3.36 0,-1.86 1.51,-3.36 3.36,-3.36 1.86,0 3.36,1.5 3.36,3.36 0,1.85 -1.5,3.36 -3.36,3.36z"/>
  <path class="fil3" d="M82.15 39.91c-1.16,0 -2.1,0.94 -2.1,2.1 0,1.16 0.94,2.1 2.1,2.1 1.16,0 2.1,-0.94 2.1,-2.1 0,-1.16 -0.94,-2.1 -2.1,-2.1zm0 6.72c-2.55,0 -4.62,-2.07 -4.62,-4.62 0,-2.55 2.07,-4.62 4.62,-4.62 2.55,0 4.62,2.07 4.62,4.62 0,2.55 -2.07,4.62 -4.62,4.62z"/>
  <path class="fil3" d="M84.52 40.89c-0.32,0 -0.64,-0.12 -0.89,-0.37 -0.49,-0.49 -0.49,-1.29 0,-1.78l17.05 -17.05c0.49,-0.49 1.29,-0.49 1.78,0 0.49,0.49 0.49,1.29 0,1.78l-17.05 17.05c-0.25,0.25 -0.57,0.37 -0.89,0.37z"/>
  <path class="fil2" d="M65.52 112.39l-6.72 0c-0.93,0 -1.68,-0.75 -1.68,-1.68l0 -6.72c0,-0.93 0.75,-1.68 1.68,-1.68l6.72 0c0.93,0 1.68,0.75 1.68,1.68l0 6.72c0,0.93 -0.75,1.68 -1.68,1.68z"/>
  <path class="fil1" d="M62.16 109.03l-5.04 0 0 -5.04c0,-0.93 0.75,-1.68 1.68,-1.68l5.04 0 0 5.04c0,0.93 -0.75,1.68 -1.68,1.68z"/>
  <path class="fil3" d="M58.8 103.57c-0.23,0 -0.42,0.19 -0.42,0.42l0 6.72c0,0.23 0.19,0.42 0.42,0.42l6.72 0c0.23,0 0.42,-0.19 0.42,-0.42l0 -6.72c0,-0.23 -0.19,-0.42 -0.42,-0.42l-6.72 0zm6.72 10.08l-6.72 0c-1.62,0 -2.94,-1.32 -2.94,-2.94l0 -6.72c0,-1.62 1.32,-2.94 2.94,-2.94l6.72 0c1.62,0 2.94,1.32 2.94,2.94l0 6.72c0,1.62 -1.32,2.94 -2.94,2.94z"/>
  <path class="fil2" d="M65.52 21.66l-6.72 0c-0.93,0 -1.68,-0.75 -1.68,-1.68l0 -6.72c0,-0.93 0.75,-1.68 1.68,-1.68l6.72 0c0.93,0 1.68,0.75 1.68,1.68l0 6.72c0,0.93 -0.75,1.68 -1.68,1.68z"/>
  <path class="fil1" d="M62.16 18.3l-5.04 0 0 -5.04c0,-0.93 0.75,-1.68 1.68,-1.68l5.04 0 0 5.04c0,0.93 -0.75,1.68 -1.68,1.68z"/>
  <path class="fil3" d="M58.8 12.84c-0.23,0 -0.42,0.19 -0.42,0.42l0 6.72c0,0.23 0.19,0.42 0.42,0.42l6.72 0c0.23,0 0.42,-0.19 0.42,-0.42l0 -6.72c0,-0.23 -0.19,-0.42 -0.42,-0.42l-6.72 0zm6.72 10.08l-6.72 0c-1.62,0 -2.94,-1.32 -2.94,-2.94l0 -6.72c0,-1.62 1.32,-2.94 2.94,-2.94l6.72 0c1.62,0 2.94,1.32 2.94,2.94l0 6.72c0,1.62 -1.32,2.94 -2.94,2.94z"/>
  <path class="fil3" d="M18.48 27.96l-2.33 0c-0.7,0 -1.26,-0.56 -1.26,-1.26 0,-0.7 0.56,-1.26 1.26,-1.26l2.33 0c0.7,0 1.26,0.56 1.26,1.26 0,0.7 -0.56,1.26 -1.26,1.26z"/>
  <path class="fil3" d="M10.73 27.96l-2.33 0c-0.7,0 -1.26,-0.56 -1.26,-1.26 0,-0.7 0.56,-1.26 1.26,-1.26l2.33 0c0.7,0 1.26,0.56 1.26,1.26 0,0.7 -0.56,1.26 -1.26,1.26z"/>
  <path class="fil3" d="M13.44 33c-0.7,0 -1.26,-0.56 -1.26,-1.26l0 -2.33c0,-0.7 0.56,-1.26 1.26,-1.26 0.7,0 1.26,0.56 1.26,1.26l0 2.33c0,0.7 -0.56,1.26 -1.26,1.26z"/>
  <path class="fil3" d="M13.44 25.24c-0.7,0 -1.26,-0.56 -1.26,-1.26l0 -2.33c0,-0.7 0.56,-1.26 1.26,-1.26 0.7,0 1.26,0.56 1.26,1.26l0 2.33c0,0.7 -0.56,1.26 -1.26,1.26z"/>
  <path class="fil3" d="M40.32 14.53l-2.33 0c-0.7,0 -1.26,-0.56 -1.26,-1.26 0,-0.7 0.56,-1.26 1.26,-1.26l2.33 0c0.7,0 1.26,0.56 1.26,1.26 0,0.7 -0.56,1.26 -1.26,1.26z"/>
  <path class="fil3" d="M32.57 14.53l-2.33 0c-0.7,0 -1.26,-0.56 -1.26,-1.26 0,-0.7 0.56,-1.26 1.26,-1.26l2.33 0c0.7,0 1.26,0.56 1.26,1.26 0,0.7 -0.56,1.26 -1.26,1.26z"/>
  <path class="fil3" d="M35.28 19.57c-0.7,0 -1.26,-0.56 -1.26,-1.26l0 -2.33c0,-0.7 0.56,-1.26 1.26,-1.26 0.7,0 1.26,0.56 1.26,1.26l0 2.33c0,0.7 -0.56,1.26 -1.26,1.26z"/>
  <path class="fil3" d="M35.28 11.81c-0.7,0 -1.26,-0.56 -1.26,-1.26l0 -2.33c0,-0.7 0.56,-1.26 1.26,-1.26 0.7,0 1.26,0.56 1.26,1.26l0 2.33c0,0.7 -0.56,1.26 -1.26,1.26z"/>
  <path class="fil3" d="M55.45 38.05l-2.33 0c-0.7,0 -1.26,-0.56 -1.26,-1.26 0,-0.7 0.56,-1.26 1.26,-1.26l2.33 0c0.7,0 1.26,0.56 1.26,1.26 0,0.7 -0.56,1.26 -1.26,1.26z"/>
  <path class="fil3" d="M47.69 38.05l-2.33 0c-0.7,0 -1.26,-0.56 -1.26,-1.26 0,-0.7 0.56,-1.26 1.26,-1.26l2.33 0c0.7,0 1.26,0.56 1.26,1.26 0,0.7 -0.56,1.26 -1.26,1.26z"/>
  <path class="fil3" d="M50.41 43.09c-0.7,0 -1.26,-0.56 -1.26,-1.26l0 -2.33c0,-0.7 0.56,-1.26 1.26,-1.26 0.7,0 1.26,0.56 1.26,1.26l0 2.33c0,0.7 -0.56,1.26 -1.26,1.26z"/>
  <path class="fil3" d="M50.41 35.34c-0.7,0 -1.26,-0.56 -1.26,-1.26l0 -2.33c0,-0.7 0.56,-1.26 1.26,-1.26 0.7,0 1.26,0.56 1.26,1.26l0 2.33c0,0.7 -0.56,1.26 -1.26,1.26z"/>
  <path class="fil3" d="M80.65 90.14l-2.33 0c-0.7,0 -1.26,-0.56 -1.26,-1.26 0,-0.7 0.56,-1.26 1.26,-1.26l2.33 0c0.7,0 1.26,0.56 1.26,1.26 0,0.7 -0.56,1.26 -1.26,1.26z"/>
  <path class="fil3" d="M72.9 90.14l-2.33 0c-0.7,0 -1.26,-0.56 -1.26,-1.26 0,-0.7 0.56,-1.26 1.26,-1.26l2.33 0c0.7,0 1.26,0.56 1.26,1.26 0,0.7 -0.56,1.26 -1.26,1.26z"/>
  <path class="fil3" d="M75.61 95.18c-0.7,0 -1.26,-0.56 -1.26,-1.26l0 -2.33c0,-0.7 0.56,-1.26 1.26,-1.26 0.7,0 1.26,0.56 1.26,1.26l0 2.33c0,0.7 -0.56,1.26 -1.26,1.26z"/>
  <path class="fil3" d="M75.61 87.43c-0.7,0 -1.26,-0.56 -1.26,-1.26l0 -2.33c0,-0.7 0.56,-1.26 1.26,-1.26 0.7,0 1.26,0.56 1.26,1.26l0 2.33c0,0.7 -0.56,1.26 -1.26,1.26z"/>
  <path class="fil3" d="M115.94 105.26l-2.33 0c-0.7,0 -1.26,-0.56 -1.26,-1.26 0,-0.7 0.56,-1.26 1.26,-1.26l2.33 0c0.7,0 1.26,0.56 1.26,1.26 0,0.7 -0.56,1.26 -1.26,1.26z"/>
  <path class="fil3" d="M108.18 105.26l-2.33 0c-0.7,0 -1.26,-0.56 -1.26,-1.26 0,-0.7 0.56,-1.26 1.26,-1.26l2.33 0c0.7,0 1.26,0.56 1.26,1.26 0,0.7 -0.56,1.26 -1.26,1.26z"/>
  <path class="fil3" d="M110.9 110.3c-0.7,0 -1.26,-0.56 -1.26,-1.26l0 -2.33c0,-0.7 0.56,-1.26 1.26,-1.26 0.7,0 1.26,0.56 1.26,1.26l0 2.33c0,0.7 -0.56,1.26 -1.26,1.26z"/>
  <path class="fil3" d="M110.9 102.55c-0.7,0 -1.26,-0.56 -1.26,-1.26l0 -2.33c0,-0.7 0.56,-1.26 1.26,-1.26 0.7,0 1.26,0.56 1.26,1.26l0 2.33c0,0.7 -0.56,1.26 -1.26,1.26z"/>
 </g>
</svg>
