<?xml version="1.0" encoding="UTF-8"?>
<!DOCTYPE svg PUBLIC "-//W3C//DTD SVG 1.1//EN" "http://www.w3.org/Graphics/SVG/1.1/DTD/svg11.dtd">
<!-- Creator: CorelDRAW -->
<svg xmlns="http://www.w3.org/2000/svg" xml:space="preserve" width="0.31978cm" height="0.4cm" version="1.1" style="shape-rendering:geometricPrecision; text-rendering:geometricPrecision; image-rendering:optimizeQuality; fill-rule:evenodd; clip-rule:evenodd"
viewBox="0 0 0.61 0.76"
 xmlns:xlink="http://www.w3.org/1999/xlink"
 xmlns:xodm="http://www.corel.com/coreldraw/odm/2003">
 <defs>
  <style type="text/css">
   <![CDATA[
    .fil0 {fill:#FA5F12}
    .fil1 {fill:#FA5F12;fill-rule:nonzero}
   ]]>
  </style>
 </defs>
 <g id="Capa_x0020_1">
  <metadata id="CorelCorpID_0Corel-Layer"/>
  <path class="fil0" d="M0.44 0.43l0 0c0.09,0 0.16,0.07 0.16,0.16l0 0c0,0.09 -0.07,0.16 -0.16,0.16l0 0c-0.09,0 -0.16,-0.07 -0.16,-0.16l0 0c0,-0.09 0.07,-0.16 0.16,-0.16zm-0.01 0.24l0 0c0,0 0,-0 0,-0l0 -0c0,-0.01 0.01,-0.03 0.02,-0.04 0.02,-0.03 0.04,-0.05 0.08,-0.06 0,-0 0,-0 0,-0 -0.01,-0.01 -0.02,-0.03 -0.03,-0.04 -0,-0 -0,-0 -0,-0 -0,-0 -0,-0 -0.01,-0 -0,0 -0,0 -0.01,0 -0.03,0.02 -0.06,0.05 -0.07,0.09l-0 0.01 -0.01 -0.01c-0.01,-0.01 -0.02,-0.01 -0.03,-0.01 -0,0 -0,0 -0,0 -0,0 -0,0 -0,0 0.02,0.01 0.04,0.04 0.04,0.06 0,0 0,0 0,0l0.03 0z"/>
  <path class="fil1" d="M0.45 0.41l0 -0.03 0 -0.02 0 -0.3c-0.01,0 -0.02,0.01 -0.02,0.01l-0.4 0c-0.01,0 -0.02,-0 -0.02,-0.01l0 0.5c0,0.03 0.02,0.05 0.05,0.05l0.21 0c-0,-0 -0,-0.01 -0,-0.01 0,-0.1 0.08,-0.19 0.19,-0.19 0,0 0,0 0,0zm-0.04 -0.26l-0.36 0c-0.01,0 -0.01,-0 -0.01,-0.01 0,-0.01 0,-0.01 0.01,-0.01l0.36 0c0.01,0 0.01,0 0.01,0.01 0,0.01 -0,0.01 -0.01,0.01zm-0.19 0.35l-0.17 0c-0.01,0 -0.01,-0 -0.01,-0.01 0,-0.01 0,-0.01 0.01,-0.01l0.17 0c0.01,0 0.01,0 0.01,0.01 0,0.01 -0,0.01 -0.01,0.01zm0.05 -0.07l-0.23 0c-0.01,0 -0.01,-0 -0.01,-0.01 0,-0.01 0,-0.01 0.01,-0.01l0.23 0c0.01,0 0.01,0 0.01,0.01 0,0.01 -0,0.01 -0.01,0.01zm0.14 -0.07l-0.36 0c-0.01,0 -0.01,-0 -0.01,-0.01 0,-0.01 0,-0.01 0.01,-0.01l0.36 0c0.01,0 0.01,0 0.01,0.01 0,0.01 -0,0.01 -0.01,0.01zm0 -0.07l-0.36 0c-0.01,0 -0.01,-0 -0.01,-0.01 0,-0.01 0,-0.01 0.01,-0.01l0.36 0c0.01,0 0.01,0 0.01,0.01 0,0.01 -0,0.01 -0.01,0.01zm0 -0.07l-0.36 0c-0.01,0 -0.01,-0 -0.01,-0.01 0,-0.01 0,-0.01 0.01,-0.01l0.36 0c0.01,0 0.01,0 0.01,0.01 0,0.01 -0,0.01 -0.01,0.01z"/>
  <path class="fil1" d="M0.11 0.04c-0.01,0 -0.01,-0.01 -0.01,-0.01 0,-0.01 0.01,-0.01 0.01,-0.01 0.01,0 0.01,0.01 0.01,0.01 0,0.01 -0.01,0.01 -0.01,0.01z"/>
  <path class="fil1" d="M0.34 0.04c-0.01,0 -0.01,-0.01 -0.01,-0.01 0,-0.01 0.01,-0.01 0.01,-0.01 0.01,0 0.01,0.01 0.01,0.01 0,0.01 -0.01,0.01 -0.01,0.01z"/>
  <path class="fil1" d="M0.22 0.04c-0.01,0 -0.01,-0.01 -0.01,-0.01 0,-0.01 0.01,-0.01 0.01,-0.01 0.01,0 0.01,0.01 0.01,0.01 0,0.01 -0.01,0.01 -0.01,0.01z"/>
  <path class="fil1" d="M0.02 0c-0.01,0 -0.02,0.01 -0.02,0.02 0,0 0,0 0,0l0 0c0,0.01 0.01,0.02 0.02,0.02l0.4 0c0.01,0 0.02,-0.01 0.02,-0.02 0,-0.01 -0.01,-0.02 -0.02,-0.02l-0.4 0z"/>
 </g>
</svg>
