<?xml version="1.0" encoding="UTF-8"?>
<!DOCTYPE svg PUBLIC "-//W3C//DTD SVG 1.1//EN" "http://www.w3.org/Graphics/SVG/1.1/DTD/svg11.dtd">
<!-- Creator: CorelDRAW -->
<svg xmlns="http://www.w3.org/2000/svg" xml:space="preserve" width="0.43473cm" height="0.39999cm" version="1.1" style="shape-rendering:geometricPrecision; text-rendering:geometricPrecision; image-rendering:optimizeQuality; fill-rule:evenodd; clip-rule:evenodd"
viewBox="0 0 1.18 1.09"
 xmlns:xlink="http://www.w3.org/1999/xlink"
 xmlns:xodm="http://www.corel.com/coreldraw/odm/2003">
 <defs>
  <style type="text/css">
   <![CDATA[
    .fil0 {fill:#FA5F12;fill-rule:nonzero}
   ]]>
  </style>
 </defs>
 <g id="Capa_x0020_1">
  <metadata id="CorelCorpID_0Corel-Layer"/>
  <path class="fil0" d="M1.04 0.61l-0.43 -0.38c-0.01,-0.01 -0.03,-0.01 -0.04,0l-0.43 0.38c-0,0 -0.01,0.01 -0.01,0.01l0 0.45c0,0.01 0.01,0.01 0.01,0.01l0.3 0c0.01,0 0.01,-0.01 0.01,-0.01l0 -0.29c0,-0.03 0.03,-0.06 0.06,-0.06l0.13 0c0.03,0 0.06,0.03 0.06,0.06l0 0.29c0,0.01 0.01,0.01 0.01,0.01l0.3 0c0.01,0 0.01,-0.01 0.01,-0.01l0 -0.45c0,-0 -0,-0.01 -0.01,-0.01z"/>
  <path class="fil0" d="M1.16 0.46l-0.49 -0.43c-0.04,-0.04 -0.11,-0.04 -0.16,0l-0.49 0.43c-0.02,0.02 -0.03,0.06 -0,0.08l0 0c0.02,0.02 0.05,0.02 0.08,0l0.46 -0.4c0.02,-0.02 0.06,-0.02 0.08,0l0.46 0.4c0.02,0.02 0.06,0.02 0.08,-0 0.02,-0.02 0.02,-0.06 -0,-0.08z"/>
 </g>
</svg>
