<?xml version="1.0" encoding="UTF-8"?>
<!DOCTYPE svg PUBLIC "-//W3C//DTD SVG 1.1//EN" "http://www.w3.org/Graphics/SVG/1.1/DTD/svg11.dtd">
<!-- Creator: CorelDRAW -->
<svg xmlns="http://www.w3.org/2000/svg" xml:space="preserve" width="3cm" height="3cm" version="1.1" style="shape-rendering:geometricPrecision; text-rendering:geometricPrecision; image-rendering:optimizeQuality; fill-rule:evenodd; clip-rule:evenodd"
viewBox="0 0 85.3 85.3"
 xmlns:xlink="http://www.w3.org/1999/xlink"
 xmlns:xodm="http://www.corel.com/coreldraw/odm/2003">
 <defs>
  <style type="text/css">
   <![CDATA[
    .fil0 {fill:#FA5F12;fill-rule:nonzero}
   ]]>
  </style>
 </defs>
 <g id="Capa_x0020_1">
  <metadata id="CorelCorpID_0Corel-Layer"/>
  <path class="fil0" d="M42.65 12.29c-1.47,0 -2.67,-1.19 -2.67,-2.67l0 -6.96c0,-1.47 1.19,-2.67 2.67,-2.67 1.47,0 2.67,1.19 2.67,2.67l0 6.96c0,1.47 -1.19,2.67 -2.67,2.67z"/>
  <path class="fil0" d="M66.01 21.96c-0.68,0 -1.36,-0.26 -1.88,-0.78 -1.04,-1.04 -1.04,-2.73 0,-3.77l4.92 -4.92c1.04,-1.04 2.73,-1.04 3.77,0 1.04,1.04 1.04,2.73 0,3.77l-4.92 4.92c-0.52,0.52 -1.21,0.78 -1.89,0.78z"/>
  <path class="fil0" d="M82.64 45.32l-6.96 0c-1.47,0 -2.67,-1.19 -2.67,-2.67 0,-1.47 1.19,-2.67 2.67,-2.67l6.96 0c1.47,0 2.67,1.19 2.67,2.67 0,1.47 -1.19,2.67 -2.67,2.67z"/>
  <path class="fil0" d="M70.93 73.59c-0.68,0 -1.36,-0.26 -1.88,-0.78l-4.92 -4.92c-1.04,-1.04 -1.04,-2.73 0,-3.77 1.04,-1.04 2.73,-1.04 3.77,0l4.92 4.92c1.04,1.04 1.04,2.73 0,3.77 -0.52,0.52 -1.21,0.78 -1.89,0.78z"/>
  <path class="fil0" d="M14.38 73.59c-0.68,0 -1.36,-0.26 -1.88,-0.78 -1.04,-1.04 -1.04,-2.73 0,-3.77l4.92 -4.92c1.04,-1.04 2.73,-1.04 3.77,0 1.04,1.04 1.04,2.73 0,3.77l-4.92 4.92c-0.52,0.52 -1.21,0.78 -1.89,0.78z"/>
  <path class="fil0" d="M9.62 45.32l-6.96 0c-1.47,0 -2.67,-1.19 -2.67,-2.67 0,-1.47 1.19,-2.67 2.67,-2.67l6.96 0c1.47,0 2.67,1.19 2.67,2.67 0,1.47 -1.19,2.67 -2.67,2.67z"/>
  <path class="fil0" d="M19.3 21.96c-0.68,0 -1.37,-0.26 -1.88,-0.78l-4.92 -4.92c-1.04,-1.04 -1.04,-2.73 0,-3.77 1.04,-1.04 2.73,-1.04 3.77,0l4.92 4.92c1.04,1.04 1.04,2.73 0,3.77 -0.53,0.52 -1.21,0.78 -1.89,0.78z"/>
  <path class="fil0" d="M53.31 74.64l0 4.44c0,3.41 -2.81,6.22 -6.22,6.22l-8.89 0c-2.99,0 -6.22,-2.27 -6.22,-7.25l0 -3.41 21.33 0z"/>
  <path class="fil0" d="M58.33 23.32c-5.83,-4.73 -13.51,-6.58 -21.01,-4.98 -9.42,1.95 -17.06,9.63 -19.02,19.05 -1.99,9.67 1.63,19.26 9.38,25.13 2.1,1.56 3.55,3.98 4.05,6.79l0 0.04c0.07,-0.04 0.18,-0.04 0.25,-0.04l21.33 0c0.07,0 0.11,0 0.18,0.04l0 -0.04c0.5,-2.7 2.1,-5.19 4.55,-7.11 6.01,-4.76 9.49,-11.87 9.49,-19.55 0,-7.54 -3.34,-14.57 -9.21,-19.34zm-2.35 21.11c-1.46,0 -2.67,-1.21 -2.67,-2.67 0,-5.4 -4.37,-9.77 -9.77,-9.77 -1.46,0 -2.67,-1.21 -2.67,-2.67 0,-1.46 1.21,-2.67 2.67,-2.67 8.32,0 15.11,6.79 15.11,15.11 0,1.46 -1.21,2.67 -2.67,2.67z"/>
  <path class="fil0" d="M31.74 69.31l0.25 0c-0.07,0 -0.18,0 -0.25,0.04l0 -0.04z"/>
  <path class="fil0" d="M53.49 69.31l0 0.04c-0.07,-0.04 -0.11,-0.04 -0.18,-0.04l0.18 0z"/>
 </g>
</svg>
