<?xml version="1.0" encoding="UTF-8"?>
<!DOCTYPE svg PUBLIC "-//W3C//DTD SVG 1.1//EN" "http://www.w3.org/Graphics/SVG/1.1/DTD/svg11.dtd">
<!-- Creator: CorelDRAW -->
<svg xmlns="http://www.w3.org/2000/svg" xml:space="preserve" width="75px" height="85px" version="1.1" style="shape-rendering:geometricPrecision; text-rendering:geometricPrecision; image-rendering:optimizeQuality; fill-rule:evenodd; clip-rule:evenodd"
viewBox="0 0 1.85 2.1"
 xmlns:xlink="http://www.w3.org/1999/xlink"
 xmlns:xodm="http://www.corel.com/coreldraw/odm/2003">
 <defs>
  <style type="text/css">
   <![CDATA[
    .fil0 {fill:#FF6600}
   ]]>
  </style>
 </defs>
 <g id="Capa_x0020_1">
  <metadata id="CorelCorpID_0Corel-Layer"/>
  <path class="fil0" d="M0.47 0.17c0.37,-0.25 0.82,-0.22 1.15,0.04 -0.3,-0.18 -0.7,-0.19 -1.02,0.02 -0.02,0.01 -0.04,0.02 -0.06,0.04 0.02,0 0.04,0 0.05,0.01l0.15 0.04c0.01,0.01 0.01,0.01 0.01,0.01 0,0 0.01,0 0.01,0 0,0 0,0 0,0l0.16 0.05c0.06,0.02 0.11,0.04 0.17,0.05 0.07,0.02 0.03,0.01 0.07,0.04 0.02,0.02 0.04,0.03 0.07,0.05 0.1,0.07 0.14,0.08 0.25,0.12 0.01,0.01 0.03,0.01 0.04,0.02 0.01,0.01 0.01,0.07 0.01,0.1 0,0.01 0.01,0.02 0.02,0.03l0.09 0.07c0.01,0.01 0.02,0.02 0.03,0.03l0.1 0.09c0,0.01 0.01,0.01 0.01,0.02 0,0 0.02,0.02 0.03,0.03 -0.02,-0.02 -0.04,-0.03 -0.05,-0.04 -0.02,-0.02 -0.04,-0.03 -0.06,-0.05 -0.06,-0.05 -0.09,-0.07 -0.15,-0.12 -0.02,-0.01 -0.04,-0.02 -0.06,-0.03 -0.01,-0.01 -0.02,-0.02 -0.02,-0.04 0.01,-0.04 0.03,-0.03 -0.05,-0.07 -0.02,-0.02 -0.04,-0.03 -0.05,-0.04 -0.02,-0.01 -0.05,-0.02 -0.07,-0.03 -0.05,-0.03 -0.14,-0.06 -0.2,-0.07 -0.12,-0.02 0,0.06 0.03,0.09 0.01,0 0.02,0.01 0.03,0.02l-0.14 -0.07c-0.02,-0.01 -0.05,-0.02 -0.07,-0.03 -0.01,-0.01 -0.03,-0.01 -0.04,-0.02 -0.01,0 -0.03,-0.01 -0.03,-0.01 0.03,-0.01 0.06,-0.01 0.09,-0.02 0.02,0 0.09,-0.02 0.09,-0.02 0,-0.01 -0.02,-0.01 -0.03,-0.01 -0.02,0 -0.03,-0.01 -0.05,-0.02 -0.01,0 0,0.01 -0.05,0.01 -0.03,0 -0.06,0 -0.09,0 -0.02,0 -0.06,-0.01 -0.08,0 0,0.02 0.06,0.06 0.08,0.08 0.02,0.01 0.05,0.03 0.08,0.04 0,0 0.02,0 0.02,0.01 -0.04,0 -0.14,-0.04 -0.18,-0.05 -0.03,-0.02 -0.05,-0.03 -0.08,-0.05 -0.01,-0.01 -0.04,-0.04 -0.05,-0.06 0.06,0 0.09,0.01 0.16,-0.01l0.01 0 0.01 0 0 -0.01 -0.02 0 -0.01 0c-0.03,-0.01 -0.09,-0.03 -0.12,-0.04 -0.02,-0.01 -0.11,-0.06 -0.15,-0.03 -0.02,0.01 0.01,0.02 -0.02,0.03 -0.06,0.03 0.14,0.14 0.17,0.15 0.02,0.02 0.17,0.1 0.19,0.12l-0.09 -0.03c-0.24,-0.09 -0.33,-0.18 -0.33,-0.24 -0.32,0.31 -0.38,0.81 -0.13,1.2 0.26,0.4 0.77,0.55 1.21,0.37l-0.01 0c-0.01,0 -0.06,0.01 -0.07,0.01l0 0c0,-0.02 0,-0.02 -0.01,-0.04 -0.02,0.01 -0.02,0.01 -0.04,0.02 0,-0.01 0,-0.02 0.01,-0.03 0,0 0,0 0,-0.01l0.01 -0.01c-0.01,0 -0.01,0.01 -0.02,0.01 0,-0.01 0,-0.02 -0.01,-0.04 -0.02,-0.01 -0.02,-0.01 -0.04,-0.01 0,-0.01 0,-0.01 0.01,-0.01 -0.01,-0.01 -0.02,-0.01 -0.03,-0.01 0,0 0.01,-0.04 0,-0.05 -0.01,0.01 0,0.01 -0.01,0.02l-0.01 -0.01c0,-0.01 0,-0.02 -0.01,-0.04 -0.01,0 -0.02,-0.02 -0.03,-0.03 -0.04,-0.03 -0.1,-0.04 -0.15,-0.03 -0.03,0 -0.05,0 -0.07,0.01 -0.25,0.02 -0.46,-0.12 -0.6,-0.35 0.15,0.16 0.37,0.36 0.6,0.27 0.06,-0.03 0.04,-0.04 0.06,-0.06 0,0.04 -0.04,0.08 -0.04,0.09 0.05,-0.01 0.08,-0.01 0.13,0 0.08,0.02 0.14,0.08 0.22,0.05 0.05,-0.02 0.07,-0.05 0.08,-0.06 0,0.05 -0.05,0.09 -0.09,0.11 -0.02,0 -0.05,0.01 -0.05,0.01 0,0.01 0.02,0.03 0.02,0.04 0.03,0.03 0.07,0.05 0.12,0.05 0,0.01 -0.01,0.02 -0.02,0.03 0.03,0 0.07,-0.01 0.09,-0.03 0.01,0 0.02,-0.01 0.02,-0.01 0,0.01 0,0.02 -0.01,0.03 0,0.01 -0.01,0.01 -0.02,0.02 0.08,-0.01 0.15,-0.1 0.18,-0.17l0.02 -0.04c0,0 0,-0.01 0,-0.01 0,0.08 -0.04,0.15 -0.09,0.2 0,0 0,0 0,0 0.02,-0.01 0.05,-0.03 0.07,-0.05 -0.05,0.05 -0.1,0.09 -0.15,0.13 -0.48,0.31 -1.11,0.16 -1.41,-0.32 -0.3,-0.49 -0.16,-1.14 0.31,-1.45zm1.04 0.66c-0.01,0 -0.03,-0.01 -0.04,-0.01 -0.22,-0.04 -0.37,-0.19 -0.66,-0.12 0.35,0.07 0.51,0.17 0.74,0.4 0.01,0.01 0.03,0.03 0.04,0.03 -0.03,-0.08 -0.11,-0.13 -0.16,-0.19 0.02,0 0.04,-0.01 0.06,-0.02 0.02,-0.01 0.02,0.04 0.04,0.05 0,-0.05 -0.02,-0.09 -0.02,-0.14zm-0.12 -0.01l0 0c0.02,0 0.03,0.02 0.04,0.05 0,-0.01 0,-0.04 0,-0.05 0.02,0.01 0.03,0.02 0.03,0.02 0.03,0.14 -0.14,0.05 -0.15,-0.02 0,-0.01 0,-0.01 0.01,-0.01 0.01,0 0.04,0 0.07,0.01zm-0.56 0.12c0.01,0 0.02,0.01 0.07,0.03 0.02,0.01 0.05,0.02 0.08,0.02 0.03,0.01 0.06,0.01 0.09,0.01 0.03,0 0.07,0 0.1,0l-0.01 0c0,0.01 0,0.01 0,0.01 -0.04,0 -0.08,0.01 -0.12,0.01 -0.12,0.01 -0.29,-0.01 -0.4,-0.05 0.01,0 0.05,-0.02 0.06,-0.03 0.02,0 0.02,-0.01 0.03,-0.01 0.01,-0.01 0.03,-0.02 0.03,-0.02 0,0 0.01,-0.01 0.01,-0.01 0.01,0 0.01,0 0.01,-0.01l0 0 0.01 -0.01c0.01,-0.01 0.01,-0.02 0.01,-0.04l0 -0.01c-0.01,-0.01 -0.01,-0.01 -0.01,-0.01 -0.01,-0.01 -0.01,-0.01 -0.02,-0.02 -0.04,-0.02 -0.1,-0.04 -0.14,-0.06 -0.02,0 -0.05,-0.01 -0.07,-0.01 0.07,-0.01 0.18,0.01 0.25,0.02 0.06,0.02 0.13,0.04 0.18,0.06 0.01,0.01 0.02,0.01 0.03,0.02 -0.01,0 -0.01,0 -0.01,0l-0.04 0c-0.05,0.01 -0.06,0.02 -0.11,0.03l-0.01 0.01c-0.01,0 -0.02,0.01 -0.03,0.02 0,0.01 0,0.01 0,0.02 0,0.01 0,0.01 0,0.02 0.01,0 0,0 0.01,0 0,0.01 0,0 0,0.01zm0.86 0.37l0.01 0c0.01,0 0.01,0 0.01,0.01 0.01,0 0,0 0.01,0 0,0 0,0 0.01,0 -0.01,0.01 -0.01,0.01 -0.02,0.01 0,0 0,0 -0.01,0 0,0.01 0,0 -0.01,0.01 0,0 0,0 0,0 0,0 0,0 -0.01,0 -0.01,0.01 -0.02,0.01 -0.03,0.01 0,0.01 -0.02,0.02 -0.02,0.02 -0.01,0 -0.03,-0.01 -0.03,-0.01 -0.04,-0.01 -0.07,-0.01 -0.11,0 -0.03,0 -0.05,0.01 -0.07,0.01l0.01 -0.01c0,0 0.01,0 0.01,0 0.02,-0.01 0.05,-0.02 0.07,-0.02 0.04,-0.01 0.07,-0.01 0.09,-0.01 0.01,0 0.01,-0.01 0.01,-0.02 0.01,0 0.02,0.01 0.03,0.01 0.01,0.01 0.01,0 0.02,0l0 -0.01 0.03 0zm0.1 0.12c0,0.01 0,0.01 -0.01,0.01 0,0.01 -0.02,0.03 -0.03,0.03l0.02 -0.04c0,0 0,-0.01 0.01,-0.01 0,-0.01 0,-0.02 0,-0.02 0,0 0.01,-0.02 0.01,-0.02 0.01,-0.04 0,-0.1 -0.01,-0.13 0,-0.03 -0.01,-0.03 -0.02,-0.04 -0.06,-0.07 -0.03,-0.11 -0.07,-0.1 -0.02,0 -0.03,0.01 -0.04,0.02 -0.01,-0.01 -0.01,-0.02 -0.01,-0.03 -0.02,-0.03 -0.02,-0.03 -0.04,-0.05 0.03,0 0.03,0.02 0.05,0.03 0.03,0.01 0.04,-0.02 0.07,-0.02 0.02,0.01 0.04,0.03 0.06,0.04 0.02,0.01 0.05,0.01 0.07,0.01l0 0c0,0.01 0,0.04 -0.03,0.08 0,0 -0.01,0 -0.01,0.01 0.01,0.01 0.01,0.02 0.01,0.02 0.01,0.05 0.01,0.1 0,0.14 -0.01,0.02 -0.02,0.07 -0.03,0.07zm-0.09 -0.14c0,0 0,0 0,0l-0.02 0.01c-0.01,0 -0.01,0 -0.02,0 -0.02,0 -0.04,0 -0.06,0 -0.04,0 -0.12,0.01 -0.17,0.03 -0.01,0 -0.04,0.01 -0.05,0.01 0.01,-0.02 0.04,-0.03 0.06,-0.04 0.01,-0.01 0.01,0 0.01,-0.02 0,0 0.02,0 0.03,0 0.01,0 0.02,0 0.03,0l0 -0.03c0.01,0 0.07,0.05 0.08,0.01 0.01,0 0.02,0.01 0.03,0.01 0.01,0 0.01,0 0.02,0 0.01,0 0.02,0.01 0.03,-0.03 0.01,0 0.02,0.02 0.02,0.02 0.01,0.01 0.02,0.01 0.02,0.02l-0.01 0.01zm-0.04 0.1c0,0 -0.03,0.01 -0.04,0.02 -0.01,0 -0.02,0.01 -0.03,0.02 -0.01,0 -0.02,-0.01 -0.03,-0.01 -0.02,0 -0.07,-0.01 -0.08,-0.02 0.04,-0.01 0.03,0 0.07,-0.02 0.02,0.01 0.02,0.01 0.05,0.01 0.02,0 0.04,0 0.06,0zm-0.56 -0.27c0.14,0.03 0.2,-0.06 0.34,-0.06 -0.02,0.02 -0.13,0.07 -0.16,0.08 -0.05,0.02 -0.11,0.03 -0.15,0.01 -0.02,-0.01 -0.03,-0.02 -0.03,-0.03zm0.24 0.29c-0.01,0.01 -0.03,0.02 -0.03,0.04 0,0.02 0.03,0.03 0.04,0.03 0.05,0 0.09,0 0.14,0 0.04,0 0.09,0 0.13,0 0.02,0.01 0.08,0.03 0.1,0.04l-0.07 -0.01c-0.03,-0.01 -0.07,-0.01 -0.11,-0.01 -0.02,0 -0.04,-0.01 -0.05,0.07 -0.01,-0.01 -0.03,-0.04 -0.03,-0.06 -0.03,0 -0.05,0 -0.07,0.01 -0.02,0 -0.06,0.02 -0.06,0.02 0,-0.01 0.01,-0.02 0.01,-0.02 -0.03,-0.01 -0.04,0 -0.05,0.01 -0.01,-0.01 -0.01,-0.02 -0.03,-0.02 -0.02,0 -0.06,0.02 -0.08,0.04 0,-0.02 0.02,-0.04 0.02,-0.05 0.03,-0.05 0.08,-0.08 0.14,-0.09zm-0.16 -0.16c0,0 0.07,-0.03 0.05,-0.04 0,-0.01 -0.03,-0.02 -0.04,-0.02 -0.01,0 -0.05,0 -0.05,0 0.02,-0.01 0.07,-0.02 0.09,-0.03 0.04,0 0.09,0.01 0.13,0 0.04,0 0.1,-0.04 0.14,-0.07 0,0 0.01,-0.01 0.02,-0.01 -0.01,0.02 -0.04,0.06 -0.06,0.08 -0.04,0.05 -0.09,0.08 -0.16,0.09 -0.03,0.01 -0.1,0.01 -0.12,0zm0.02 0.11c-0.04,0.01 -0.07,0.02 -0.1,0.03 -0.04,0.02 -0.04,0.03 -0.05,0.09 -0.01,0.03 -0.06,0.04 -0.1,0.04 -0.04,0 -0.08,-0.01 -0.12,-0.02 0.01,0 0.11,-0.01 0.15,-0.05 0.01,-0.01 0.02,-0.03 0.01,-0.05 -0.03,-0.01 -0.09,-0.01 -0.12,0 -0.02,0 -0.09,0.03 -0.1,0.03 0.01,-0.01 0.06,-0.04 0.08,-0.05 0.12,-0.07 0.21,-0.06 0.35,-0.06l0.01 0.01c0,0 0,0 0,0 0.01,-0.01 0.03,0 0.04,0l0.04 0 -0.05 0.01 -0.03 0.01c0,0 0,0 -0.01,0 0,0 0,0 0,0 0,0 0,0.01 0,0.01zm-0.45 -0.07c0,0 0,0 0,0 0,0 0,0 0,0 0,-0.01 0.01,-0.01 0.01,-0.01 0,0 0,0 0,0 0.02,-0.01 0.02,-0.01 0.04,-0.02 0.05,-0.02 0.11,-0.03 0.16,-0.03 0.04,0 0.08,0.01 0.11,0.02 0.02,0 0.08,0.02 0.09,0.03 -0.03,0 -0.05,-0.01 -0.09,-0.01 -0.2,0 -0.25,0.05 -0.27,0.05 0,0.01 0,0 0,0.01 0,0 -0.01,0 -0.01,0 0,0 0,0 -0.01,0l-0.01 0.01c0,0 0,0 0,0 -0.03,0.02 -0.06,0.04 -0.09,0.05 -0.03,0.01 -0.08,0.03 -0.11,0.01 0,0 0,0 0,0l0.04 -0.03c0.02,-0.01 0.11,-0.07 0.13,-0.07 0,-0.01 0,-0.01 0,-0.01 0.01,0 0.01,0 0.01,0z"/>
 </g>
</svg>
