<?xml version="1.0" encoding="UTF-8"?>
<!DOCTYPE svg PUBLIC "-//W3C//DTD SVG 1.1//EN" "http://www.w3.org/Graphics/SVG/1.1/DTD/svg11.dtd">
<!-- Creator: CorelDRAW -->
<svg xmlns="http://www.w3.org/2000/svg" xml:space="preserve" width="526px" height="547px" version="1.1" style="shape-rendering:geometricPrecision; text-rendering:geometricPrecision; image-rendering:optimizeQuality; fill-rule:evenodd; clip-rule:evenodd"
viewBox="0 0 15.81 16.45"
 xmlns:xlink="http://www.w3.org/1999/xlink"
 xmlns:xodm="http://www.corel.com/coreldraw/odm/2003">
 <defs>
  <style type="text/css">
   <![CDATA[
    .fil1 {fill:#FEFEFE;fill-rule:nonzero}
    .fil0 {fill:#E0E4E5;fill-rule:nonzero}
    .fil2 {fill:#B2BCD2;fill-rule:nonzero}
    .fil3 {fill:#31476A;fill-rule:nonzero}
   ]]>
  </style>
 </defs>
 <g id="Capa_x0020_1">
  <metadata id="CorelCorpID_0Corel-Layer"/>
  <path class="fil0" d="M8.29 13.37c0,1.7 -1.38,3.08 -3.07,3.08 -1.7,0 -3.08,-1.38 -3.08,-3.08 0,-1.7 1.38,-3.07 3.08,-3.07 1.69,0 3.07,1.37 3.07,3.07z"/>
  <path class="fil0" d="M15.81 5.34c0,1.46 -1.18,2.64 -2.63,2.64 -1.46,0 -2.64,-1.18 -2.64,-2.64 0,-1.45 1.18,-2.63 2.64,-2.63 1.45,0 2.63,1.18 2.63,2.63z"/>
  <path class="fil0" d="M8.78 4.39c0,2.43 -1.96,4.39 -4.39,4.39 -2.42,0 -4.39,-1.96 -4.39,-4.39 0,-2.42 1.97,-4.39 4.39,-4.39 2.43,0 4.39,1.97 4.39,4.39z"/>
  <path class="fil1" d="M14.05 8.1c0,3.28 -2.65,5.93 -5.93,5.93 -3.27,0 -5.92,-2.65 -5.92,-5.93 0,-3.27 2.65,-5.93 5.92,-5.93 3.28,0 5.93,2.66 5.93,5.93z"/>
  <path class="fil2" d="M9.18 2.27c1.61,1.06 2.68,2.88 2.68,4.95 0,3.28 -2.66,5.93 -5.93,5.93 -0.36,0 -0.72,-0.03 -1.06,-0.09 0.93,0.61 2.05,0.97 3.25,0.97 3.28,0 5.93,-2.65 5.93,-5.93 0,-2.91 -2.1,-5.33 -4.87,-5.83z"/>
  <path class="fil3" d="M8.12 2.34c-3.17,0 -5.76,2.58 -5.76,5.76 0,3.18 2.59,5.77 5.76,5.77 3.18,0 5.77,-2.59 5.77,-5.77 0,-3.18 -2.59,-5.76 -5.77,-5.76zm0 11.85c-3.36,0 -6.09,-2.73 -6.09,-6.09 0,-3.36 2.73,-6.09 6.09,-6.09 3.36,0 6.1,2.73 6.1,6.09 0,3.36 -2.74,6.09 -6.1,6.09z"/>
  <path class="fil1" d="M10.74 5.93c-0.25,0 -0.44,-0.2 -0.44,-0.44 0,-0.24 0.19,-0.44 0.44,-0.44 0.24,0 0.43,0.2 0.43,0.44 0,0.24 -0.19,0.44 -0.43,0.44z"/>
  <path class="fil1" d="M10.78 4.66c0,0.29 -0.23,0.51 -0.51,0.51 -0.28,0 -0.51,-0.22 -0.51,-0.51 0,-0.28 0.23,-0.51 0.51,-0.51 0.28,0 0.51,0.23 0.51,0.51z"/>
  <path class="fil3" d="M4.88 14.75l-0.3 0c-0.09,0 -0.17,-0.08 -0.17,-0.17 0,-0.09 0.08,-0.16 0.17,-0.16l0.3 0c0.09,0 0.17,0.07 0.17,0.16 0,0.09 -0.08,0.17 -0.17,0.17z"/>
  <path class="fil3" d="M3.87 14.75l-0.3 0c-0.1,0 -0.17,-0.08 -0.17,-0.17 0,-0.09 0.07,-0.16 0.17,-0.16l0.3 0c0.09,0 0.16,0.07 0.16,0.16 0,0.09 -0.07,0.17 -0.16,0.17z"/>
  <path class="fil3" d="M4.22 15.4c-0.09,0 -0.16,-0.07 -0.16,-0.16l0 -0.3c0,-0.1 0.07,-0.17 0.16,-0.17 0.1,0 0.17,0.07 0.17,0.17l0 0.3c0,0.09 -0.07,0.16 -0.17,0.16z"/>
  <path class="fil3" d="M4.22 14.39c-0.09,0 -0.16,-0.07 -0.16,-0.16l0 -0.31c0,-0.09 0.07,-0.16 0.16,-0.16 0.1,0 0.17,0.07 0.17,0.16l0 0.31c0,0.09 -0.07,0.16 -0.17,0.16z"/>
  <path class="fil3" d="M3.87 2.64l-0.3 0c-0.09,0 -0.16,-0.08 -0.16,-0.17 0,-0.09 0.07,-0.16 0.16,-0.16l0.3 0c0.1,0 0.17,0.07 0.17,0.16 0,0.09 -0.07,0.17 -0.17,0.17z"/>
  <path class="fil3" d="M2.86 2.64l-0.3 0c-0.09,0 -0.17,-0.08 -0.17,-0.17 0,-0.09 0.08,-0.16 0.17,-0.16l0.3 0c0.09,0 0.17,0.07 0.17,0.16 0,0.09 -0.08,0.17 -0.17,0.17z"/>
  <path class="fil3" d="M3.22 3.3c-0.1,0 -0.17,-0.08 -0.17,-0.17l0 -0.3c0,-0.09 0.07,-0.17 0.17,-0.17 0.09,0 0.16,0.08 0.16,0.17l0 0.3c0,0.09 -0.07,0.17 -0.16,0.17z"/>
  <path class="fil3" d="M3.22 2.28c-0.1,0 -0.17,-0.07 -0.17,-0.16l0 -0.31c0,-0.09 0.07,-0.16 0.17,-0.16 0.09,0 0.16,0.07 0.16,0.16l0 0.31c0,0.09 -0.07,0.16 -0.16,0.16z"/>
  <path class="fil3" d="M15.2 3.57l-0.3 0c-0.09,0 -0.17,-0.07 -0.17,-0.16 0,-0.09 0.08,-0.17 0.17,-0.17l0.3 0c0.09,0 0.17,0.08 0.17,0.17 0,0.09 -0.08,0.16 -0.17,0.16z"/>
  <path class="fil3" d="M14.19 3.57l-0.3 0c-0.1,0 -0.17,-0.07 -0.17,-0.16 0,-0.09 0.07,-0.17 0.17,-0.17l0.3 0c0.09,0 0.16,0.08 0.16,0.17 0,0.09 -0.07,0.16 -0.16,0.16z"/>
  <path class="fil3" d="M14.54 4.23c-0.09,0 -0.16,-0.07 -0.16,-0.16l0 -0.31c0,-0.09 0.07,-0.16 0.16,-0.16 0.09,0 0.17,0.07 0.17,0.16l0 0.31c0,0.09 -0.08,0.16 -0.17,0.16z"/>
  <path class="fil3" d="M14.54 3.22c-0.09,0 -0.16,-0.07 -0.16,-0.17l0 -0.3c0,-0.09 0.07,-0.16 0.16,-0.16 0.09,0 0.17,0.07 0.17,0.16l0 0.3c0,0.1 -0.08,0.17 -0.17,0.17z"/>
  <path class="fil2" d="M14.05 10.96l-11.85 0c-0.34,0 -0.62,-0.27 -0.62,-0.61l0 -4.5c0,-0.34 0.28,-0.61 0.62,-0.61l11.85 0c0.34,0 0.61,0.27 0.61,0.61l0 4.5c0,0.34 -0.27,0.61 -0.61,0.61z"/>
  <path class="fil1" d="M13.44 9.94l-11.24 0c-0.34,0 -0.62,-0.27 -0.62,-0.61l0 -3.48c0,-0.34 0.28,-0.61 0.62,-0.61l11.24 0c0.34,0 0.61,0.27 0.61,0.61l0 3.48c0,0.34 -0.27,0.61 -0.61,0.61z"/>
  <path class="fil3" d="M2.2 5.39c-0.26,0 -0.46,0.21 -0.46,0.46l0 4.5c0,0.25 0.2,0.46 0.46,0.46l11.85 0c0.26,0 0.46,-0.21 0.46,-0.46l0 -4.5c0,-0.25 -0.2,-0.46 -0.46,-0.46l-11.85 0zm11.85 5.73l-11.85 0c-0.43,0 -0.77,-0.35 -0.77,-0.77l0 -4.5c0,-0.42 0.34,-0.76 0.77,-0.76l11.85 0c0.42,0 0.77,0.34 0.77,0.76l0 4.5c0,0.42 -0.35,0.77 -0.77,0.77z"/>
  <path class="fil1" d="M11.82 8.11c-0.19,0 -0.34,-0.14 -0.34,-0.33 0,-0.16 0.12,-0.29 0.27,-0.32 -0.02,-0.04 -0.03,-0.09 -0.03,-0.14 0,-0.16 0.12,-0.28 0.28,-0.28 0.07,0 0.14,0.03 0.19,0.07 0.03,-0.25 0.24,-0.44 0.5,-0.44 0.28,0 0.51,0.23 0.51,0.51 0,0.03 -0.01,0.06 -0.01,0.09 0.02,-0.01 0.05,-0.01 0.08,-0.01 0.24,0 0.43,0.19 0.43,0.43 0,0.23 -0.19,0.42 -0.43,0.42l-1.45 0z"/>
  <path class="fil2" d="M13.27 7.26c-0.03,0 -0.06,0 -0.08,0.01 0,-0.03 0.01,-0.06 0.01,-0.09 0,-0.28 -0.23,-0.51 -0.51,-0.51 -0.22,0 -0.4,0.13 -0.47,0.32 0.27,0.01 0.49,0.23 0.49,0.51 0,0.03 0,0.06 0,0.09 0.02,-0.01 0.05,-0.01 0.08,-0.01 0.24,0 0.43,0.19 0.43,0.43 0,0.03 -0.01,0.07 -0.01,0.1l0.06 0c0.24,0 0.43,-0.19 0.43,-0.42 0,-0.24 -0.19,-0.43 -0.43,-0.43z"/>
  <path class="fil3" d="M12 7.16c-0.09,0 -0.16,0.07 -0.16,0.16 0,0.03 0,0.05 0.02,0.08 0.02,0.03 0.02,0.07 0,0.11 -0.01,0.03 -0.05,0.06 -0.08,0.07 -0.1,0.01 -0.18,0.1 -0.18,0.2 0,0.12 0.1,0.21 0.22,0.21l1.45 0c0.17,0 0.31,-0.13 0.31,-0.3 0,-0.19 -0.17,-0.35 -0.37,-0.3 -0.04,0.01 -0.08,-0.01 -0.11,-0.03 -0.03,-0.03 -0.04,-0.07 -0.03,-0.11 0,-0.03 0.01,-0.05 0.01,-0.07 0,-0.22 -0.18,-0.39 -0.39,-0.39 -0.19,0 -0.36,0.14 -0.38,0.34 -0.01,0.04 -0.04,0.08 -0.08,0.09 -0.04,0.02 -0.09,0.01 -0.12,-0.02 -0.03,-0.03 -0.07,-0.04 -0.11,-0.04zm1.27 1.07l-1.45 0c-0.25,0 -0.46,-0.2 -0.46,-0.45 0,-0.17 0.1,-0.32 0.24,-0.4 0,-0.02 0,-0.04 0,-0.06 0,-0.22 0.18,-0.4 0.4,-0.4 0.04,0 0.07,0 0.11,0.01 0.1,-0.22 0.32,-0.38 0.58,-0.38 0.33,0 0.61,0.26 0.62,0.59 0.29,0.02 0.51,0.26 0.51,0.55 0,0.3 -0.24,0.54 -0.55,0.54z"/>
  <polygon class="fil2" points="10.36,7.95 8.24,10.84 12.47,10.84 "/>
  <polygon class="fil1" points="10.36,7.95 8.24,10.84 9.8,10.84 "/>
  <path class="fil3" d="M8.48 10.72l3.75 0 -1.87 -2.56 -1.88 2.56zm3.99 0.24l-4.23 0c-0.04,0 -0.08,-0.02 -0.1,-0.06 -0.02,-0.04 -0.02,-0.09 0.01,-0.13l2.11 -2.89c0.05,-0.06 0.15,-0.06 0.19,0l2.12 2.89c0.02,0.04 0.03,0.09 0.01,0.13 -0.02,0.04 -0.07,0.06 -0.11,0.06z"/>
  <polygon class="fil2" points="12.22,8.97 10.85,10.84 13.58,10.84 "/>
  <polygon class="fil1" points="12.22,8.97 10.85,10.84 12.02,10.84 "/>
  <path class="fil3" d="M11.09 10.72l2.25 0 -1.12 -1.54 -1.13 1.54zm2.49 0.24l-2.73 0c-0.05,0 -0.09,-0.02 -0.11,-0.06 -0.02,-0.04 -0.01,-0.09 0.01,-0.13l1.37 -1.87c0.04,-0.06 0.15,-0.06 0.19,0l1.37 1.87c0.02,0.04 0.03,0.09 0.01,0.13 -0.02,0.04 -0.06,0.06 -0.11,0.06z"/>
  <path class="fil1" d="M4.43 8.11c0.19,0 0.33,-0.14 0.33,-0.33 0,-0.16 -0.11,-0.29 -0.26,-0.32 0.02,-0.04 0.03,-0.09 0.03,-0.14 0,-0.16 -0.12,-0.28 -0.28,-0.28 -0.07,0 -0.14,0.03 -0.19,0.07 -0.03,-0.25 -0.24,-0.44 -0.5,-0.44 -0.28,0 -0.51,0.23 -0.51,0.51 0,0.03 0.01,0.06 0.01,0.09 -0.03,-0.01 -0.06,-0.01 -0.09,-0.01 -0.23,0 -0.42,0.19 -0.42,0.43 0,0.23 0.19,0.42 0.42,0.42l1.46 0z"/>
  <path class="fil2" d="M2.97 7.26c0.03,0 0.06,0 0.09,0.01 0,-0.03 -0.01,-0.06 -0.01,-0.09 0,-0.28 0.23,-0.51 0.51,-0.51 0.21,0 0.4,0.13 0.47,0.32 -0.27,0.01 -0.5,0.23 -0.5,0.51 0,0.03 0.01,0.06 0.01,0.09 -0.02,-0.01 -0.05,-0.01 -0.08,-0.01 -0.24,0 -0.43,0.19 -0.43,0.43 0,0.03 0,0.07 0.01,0.1l-0.07 0c-0.23,0 -0.42,-0.19 -0.42,-0.42 0,-0.24 0.19,-0.43 0.42,-0.43z"/>
  <path class="fil3" d="M4.25 7.16c0.09,0 0.16,0.07 0.16,0.16 0,0.03 -0.01,0.05 -0.02,0.08 -0.02,0.03 -0.02,0.07 0,0.11 0.01,0.03 0.04,0.06 0.08,0.07 0.1,0.01 0.17,0.1 0.17,0.2 0,0.12 -0.09,0.21 -0.21,0.21l-1.46 0c-0.16,0 -0.3,-0.13 -0.3,-0.3 0,-0.19 0.16,-0.35 0.37,-0.3 0.04,0.01 0.08,-0.01 0.11,-0.03 0.02,-0.03 0.04,-0.07 0.03,-0.11 0,-0.03 -0.01,-0.05 -0.01,-0.07 0,-0.22 0.18,-0.39 0.39,-0.39 0.19,0 0.36,0.14 0.38,0.34 0.01,0.04 0.04,0.08 0.08,0.09 0.04,0.02 0.09,0.01 0.12,-0.02 0.03,-0.03 0.07,-0.04 0.11,-0.04zm-1.28 1.07l1.46 0c0.25,0 0.45,-0.2 0.45,-0.45 0,-0.17 -0.09,-0.32 -0.23,-0.4 0,-0.02 0,-0.04 0,-0.06 0,-0.22 -0.18,-0.4 -0.4,-0.4 -0.04,0 -0.08,0 -0.11,0.01 -0.1,-0.22 -0.32,-0.38 -0.58,-0.38 -0.33,0 -0.61,0.26 -0.63,0.59 -0.28,0.02 -0.5,0.26 -0.5,0.55 0,0.3 0.24,0.54 0.54,0.54z"/>
  <polygon class="fil2" points="5.89,7.95 8,10.84 3.78,10.84 "/>
  <polygon class="fil1" points="5.89,7.95 8,10.84 6.45,10.84 "/>
  <path class="fil3" d="M7.77 10.72l-3.75 0 1.87 -2.56 1.88 2.56zm-3.99 0.24l4.22 0c0.05,0 0.09,-0.02 0.11,-0.06 0.02,-0.04 0.02,-0.09 -0.01,-0.13l-2.11 -2.89c-0.05,-0.06 -0.15,-0.06 -0.2,0l-2.11 2.89c-0.02,0.04 -0.03,0.09 -0.01,0.13 0.02,0.04 0.06,0.06 0.11,0.06z"/>
  <polygon class="fil2" points="4.03,8.97 5.4,10.84 2.67,10.84 "/>
  <polygon class="fil1" points="4.03,8.97 5.4,10.84 4.22,10.84 "/>
  <path class="fil3" d="M5.16 10.72l-2.26 0 1.13 -1.54 1.13 1.54zm-2.49 0.24l2.73 0c0.04,0 0.09,-0.02 0.11,-0.06 0.02,-0.04 0.01,-0.09 -0.01,-0.13l-1.37 -1.87c-0.04,-0.06 -0.15,-0.06 -0.19,0l-1.37 1.87c-0.03,0.04 -0.03,0.09 -0.01,0.13 0.02,0.04 0.06,0.06 0.11,0.06z"/>
  <path class="fil3" d="M8.76 3.95l-0.3 0c-0.09,0 -0.17,-0.07 -0.17,-0.16 0,-0.09 0.08,-0.17 0.17,-0.17l0.3 0c0.09,0 0.17,0.08 0.17,0.17 0,0.09 -0.08,0.16 -0.17,0.16z"/>
  <path class="fil3" d="M7.75 3.95l-0.31 0c-0.09,0 -0.16,-0.07 -0.16,-0.16 0,-0.09 0.07,-0.17 0.16,-0.17l0.31 0c0.09,0 0.16,0.08 0.16,0.17 0,0.09 -0.07,0.16 -0.16,0.16z"/>
  <path class="fil3" d="M8.1 4.61c-0.09,0 -0.16,-0.07 -0.16,-0.16l0 -0.31c0,-0.09 0.07,-0.16 0.16,-0.16 0.09,0 0.17,0.07 0.17,0.16l0 0.31c0,0.09 -0.08,0.16 -0.17,0.16z"/>
  <path class="fil3" d="M8.1 3.6c-0.09,0 -0.16,-0.08 -0.16,-0.17l0 -0.3c0,-0.09 0.07,-0.17 0.16,-0.17 0.09,0 0.17,0.08 0.17,0.17l0 0.3c0,0.09 -0.08,0.17 -0.17,0.17z"/>
  <path class="fil3" d="M13.33 14.24l-0.3 0c-0.09,0 -0.17,-0.08 -0.17,-0.17 0,-0.09 0.08,-0.16 0.17,-0.16l0.3 0c0.09,0 0.17,0.07 0.17,0.16 0,0.09 -0.08,0.17 -0.17,0.17z"/>
  <path class="fil3" d="M12.32 14.24l-0.31 0c-0.09,0 -0.16,-0.08 -0.16,-0.17 0,-0.09 0.07,-0.16 0.16,-0.16l0.31 0c0.09,0 0.16,0.07 0.16,0.16 0,0.09 -0.07,0.17 -0.16,0.17z"/>
  <path class="fil3" d="M12.67 14.9c-0.09,0 -0.16,-0.08 -0.16,-0.17l0 -0.3c0,-0.09 0.07,-0.17 0.16,-0.17 0.09,0 0.17,0.08 0.17,0.17l0 0.3c0,0.09 -0.08,0.17 -0.17,0.17z"/>
  <path class="fil3" d="M12.67 13.88c-0.09,0 -0.16,-0.07 -0.16,-0.16l0 -0.3c0,-0.1 0.07,-0.17 0.16,-0.17 0.09,0 0.17,0.07 0.17,0.17l0 0.3c0,0.09 -0.08,0.16 -0.17,0.16z"/>
 </g>
</svg>
