<?xml version="1.0" encoding="UTF-8"?>
<!DOCTYPE svg PUBLIC "-//W3C//DTD SVG 1.1//EN" "http://www.w3.org/Graphics/SVG/1.1/DTD/svg11.dtd">
<!-- Creator: CorelDRAW -->
<svg xmlns="http://www.w3.org/2000/svg" xml:space="preserve" width="4.75916cm" height="4.52135cm" version="1.1" style="shape-rendering:geometricPrecision; text-rendering:geometricPrecision; image-rendering:optimizeQuality; fill-rule:evenodd; clip-rule:evenodd"
viewBox="0 0 101.42 96.35"
 xmlns:xlink="http://www.w3.org/1999/xlink"
 xmlns:xodm="http://www.corel.com/coreldraw/odm/2003">
 <defs>
  <style type="text/css">
   <![CDATA[
    .str2 {stroke:#31476A;stroke-width:1.74;stroke-miterlimit:22.9256}
    .str0 {stroke:#31476A;stroke-width:1.74;stroke-miterlimit:22.9256}
    .str1 {stroke:#31476A;stroke-width:1.74;stroke-linecap:round;stroke-linejoin:round;stroke-miterlimit:22.9256}
    .fil8 {fill:none}
    .fil4 {fill:#FEFEFE}
    .fil3 {fill:#E0E4E5}
    .fil2 {fill:#B2BCD2}
    .fil9 {fill:white}
    .fil6 {fill:#FEFEFE;fill-rule:nonzero}
    .fil0 {fill:#E0E4E5;fill-rule:nonzero}
    .fil7 {fill:#B2BCD2;fill-rule:nonzero}
    .fil5 {fill:#31476A;fill-rule:nonzero}
    .fil1 {fill:#31476A;fill-rule:nonzero}
   ]]>
  </style>
     <clipPath id="id0">
      <path d="M13.96 32.78l79.62 0 0 52.15 -79.62 0 0 -52.15z"/>
     </clipPath>
 </defs>
 <g id="Capa_x0020_1">
  <metadata id="CorelCorpID_0Corel-Layer"/>
  <g id="_2497193258224">
   <path class="fil0" d="M70.29 74.57c0,11.2 -9.08,20.28 -20.28,20.28 -11.2,0 -20.28,-9.08 -20.28,-20.28 0,-11.2 9.08,-20.28 20.28,-20.28 11.2,0 20.28,9.08 20.28,20.28z"/>
   <path class="fil0" d="M95.65 41.07c0,9.6 -7.78,17.39 -17.39,17.39 -9.6,0 -17.38,-7.78 -17.38,-17.39 0,-9.6 7.78,-17.38 17.38,-17.38 9.6,0 17.39,7.78 17.39,17.38z"/>
   <path class="fil0" d="M66.73 28.98c0,16 -12.97,28.97 -28.97,28.97 -16,0 -28.97,-12.97 -28.97,-28.97 0,-16 12.97,-28.98 28.97,-28.98 16,0 28.97,12.97 28.97,28.98z"/>
   <g>
    <g style="clip-path:url(#id0)">
     <image x="13.96" y="32.78" width="79.62" height="52.15" xlink:href="LETREROS_Images\LETREROS_ImgID1.png"/>
    </g>
   </g>
   <g>
    <path class="fil1" d="M88.39 35.73l-68.58 0 0 -2.44 68.58 0 0 0 0 2.44zm5.34 2.9l-2.44 0 0 0 -0 -0.15 -0.01 -0.15 -0.02 -0.14 -0.03 -0.14 -0.03 -0.14 -0.04 -0.14 -0.05 -0.13 -0.05 -0.13 -0.06 -0.13 -0.06 -0.13 -0.07 -0.12 -0.08 -0.12 -0.08 -0.11 -0.09 -0.11 -0.09 -0.11 -0.1 -0.1 -0.1 -0.1 -0.11 -0.09 -0.11 -0.09 -0.11 -0.08 -0.12 -0.08 -0.12 -0.07 -0.13 -0.06 -0.13 -0.06 -0.13 -0.05 -0.13 -0.05 -0.14 -0.04 -0.14 -0.03 -0.14 -0.03 -0.14 -0.02 -0.15 -0.01 -0.15 -0 0 -2.44 0.27 0.01 0.27 0.02 0.27 0.03 0.26 0.05 0.26 0.06 0.25 0.07 0.25 0.08 0.24 0.1 0.24 0.11 0.23 0.12 0.22 0.13 0.22 0.14 0.21 0.15 0.2 0.16 0.19 0.17 0.18 0.18 0.18 0.18 0.17 0.19 0.16 0.2 0.15 0.21 0.14 0.22 0.13 0.22 0.12 0.23 0.11 0.24 0.1 0.24 0.08 0.25 0.07 0.25 0.06 0.26 0.05 0.26 0.03 0.27 0.02 0.27 0.01 0.27 0 0zm-2.44 40.44l0 -40.44 2.44 0 0 40.44 0 0 -2.44 0zm-2.9 5.34l0 -2.44 0 0 0.15 -0 0.15 -0.01 0.14 -0.02 0.14 -0.03 0.14 -0.03 0.14 -0.04 0.13 -0.05 0.13 -0.05 0.13 -0.06 0.13 -0.06 0.12 -0.07 0.12 -0.08 0.11 -0.08 0.11 -0.09 0.11 -0.09 0.1 -0.1 0.1 -0.1 0.09 -0.11 0.09 -0.11 0.08 -0.11 0.08 -0.12 0.07 -0.12 0.06 -0.13 0.06 -0.13 0.05 -0.13 0.05 -0.13 0.04 -0.14 0.03 -0.14 0.03 -0.14 0.02 -0.14 0.01 -0.15 0 -0.15 2.44 0 -0.01 0.27 -0.02 0.27 -0.03 0.27 -0.05 0.26 -0.06 0.26 -0.07 0.25 -0.08 0.25 -0.1 0.24 -0.11 0.24 -0.12 0.23 -0.13 0.22 -0.14 0.22 -0.15 0.21 -0.16 0.2 -0.17 0.19 -0.18 0.18 -0.18 0.18 -0.19 0.17 -0.2 0.16 -0.21 0.15 -0.22 0.14 -0.22 0.13 -0.23 0.12 -0.24 0.11 -0.24 0.1 -0.25 0.08 -0.25 0.07 -0.26 0.06 -0.26 0.05 -0.27 0.03 -0.27 0.02 -0.27 0.01 0 0zm-68.58 -2.44l68.58 0 0 2.44 -68.58 0 0 0 0 -2.44zm-5.34 -2.9l2.44 0 0 0 0 0.15 0.01 0.15 0.02 0.14 0.03 0.14 0.03 0.14 0.04 0.14 0.05 0.13 0.05 0.13 0.06 0.13 0.06 0.13 0.07 0.12 0.08 0.12 0.08 0.11 0.09 0.11 0.09 0.11 0.1 0.1 0.1 0.1 0.11 0.09 0.11 0.09 0.11 0.08 0.12 0.08 0.12 0.07 0.13 0.06 0.13 0.06 0.13 0.05 0.13 0.05 0.14 0.04 0.14 0.03 0.14 0.03 0.14 0.02 0.15 0.01 0.15 0 0 2.44 -0.27 -0.01 -0.27 -0.02 -0.27 -0.03 -0.26 -0.05 -0.26 -0.06 -0.25 -0.07 -0.25 -0.08 -0.24 -0.1 -0.24 -0.11 -0.23 -0.12 -0.22 -0.13 -0.22 -0.14 -0.21 -0.15 -0.2 -0.16 -0.19 -0.17 -0.18 -0.18 -0.18 -0.18 -0.17 -0.19 -0.16 -0.2 -0.15 -0.21 -0.14 -0.22 -0.13 -0.22 -0.12 -0.23 -0.11 -0.24 -0.1 -0.24 -0.08 -0.25 -0.07 -0.25 -0.06 -0.26 -0.05 -0.26 -0.03 -0.27 -0.02 -0.27 -0.01 -0.27 0 0zm2.44 -40.44l0 40.44 -2.44 0 0 -40.44 0 0 2.44 0zm2.9 -5.34l0 2.44 0 0 -0.15 0 -0.15 0.01 -0.14 0.02 -0.14 0.03 -0.14 0.03 -0.14 0.04 -0.13 0.05 -0.13 0.05 -0.13 0.06 -0.13 0.06 -0.12 0.07 -0.12 0.08 -0.11 0.08 -0.11 0.09 -0.11 0.09 -0.1 0.1 -0.1 0.1 -0.09 0.11 -0.09 0.11 -0.08 0.11 -0.08 0.12 -0.07 0.12 -0.06 0.13 -0.06 0.13 -0.05 0.13 -0.05 0.13 -0.04 0.14 -0.03 0.14 -0.03 0.14 -0.02 0.14 -0.01 0.15 -0 0.15 -2.44 0 0.01 -0.27 0.02 -0.27 0.03 -0.27 0.05 -0.26 0.06 -0.26 0.07 -0.25 0.08 -0.25 0.1 -0.24 0.11 -0.24 0.12 -0.23 0.13 -0.22 0.14 -0.22 0.15 -0.21 0.16 -0.2 0.17 -0.19 0.18 -0.18 0.18 -0.18 0.19 -0.17 0.2 -0.16 0.21 -0.15 0.22 -0.14 0.22 -0.13 0.23 -0.12 0.24 -0.11 0.24 -0.1 0.25 -0.08 0.25 -0.07 0.26 -0.06 0.26 -0.05 0.27 -0.03 0.27 -0.02 0.27 -0.01 0 0z"/>
    <path id="_1" class="fil2" d="M19.81 34.51l68.58 0c2.27,0 4.12,1.86 4.12,4.12l0 40.44c0,2.27 -1.86,4.12 -4.12,4.12l-68.58 0c-2.27,0 -4.12,-1.86 -4.12,-4.12l0 -40.44c0,-2.27 1.86,-4.12 4.12,-4.12z"/>
   </g>
   <g>
    <path class="fil1" d="M82.33 41.74l-57.83 0 0 -2.44 57.83 0 0 0 0 2.44zm4.31 1.87l-2.45 0 0 0 -0 -0.1 -0.01 -0.09 -0.01 -0.09 -0.02 -0.09 -0.02 -0.09 -0.02 -0.09 -0.03 -0.09 -0.03 -0.08 -0.04 -0.08 -0.04 -0.08 -0.05 -0.08 -0.05 -0.08 -0.05 -0.07 -0.06 -0.07 -0.06 -0.07 -0.06 -0.07 -0.07 -0.06 -0.07 -0.06 -0.07 -0.06 -0.07 -0.05 -0.08 -0.05 -0.08 -0.04 -0.08 -0.04 -0.08 -0.04 -0.08 -0.03 -0.09 -0.03 -0.09 -0.02 -0.09 -0.02 -0.09 -0.02 -0.09 -0.01 -0.09 -0.01 -0.1 -0 0 -2.44 0.22 0.01 0.22 0.02 0.22 0.03 0.21 0.04 0.21 0.05 0.21 0.06 0.2 0.07 0.2 0.08 0.19 0.09 0.19 0.1 0.18 0.1 0.17 0.11 0.17 0.12 0.16 0.13 0.16 0.14 0.15 0.14 0.14 0.15 0.14 0.16 0.13 0.16 0.12 0.17 0.11 0.17 0.1 0.18 0.1 0.19 0.09 0.19 0.08 0.2 0.07 0.2 0.06 0.21 0.05 0.21 0.04 0.21 0.03 0.22 0.02 0.22 0.01 0.22 0 0zm-2.45 30.28l0 -30.28 2.45 0 0 30.28 0 0 -2.45 0zm-1.86 4.31l0 -2.44 0 0 0.1 -0 0.09 -0.01 0.09 -0.01 0.09 -0.02 0.09 -0.02 0.09 -0.02 0.09 -0.03 0.08 -0.03 0.08 -0.04 0.08 -0.04 0.08 -0.05 0.08 -0.05 0.07 -0.05 0.07 -0.06 0.07 -0.06 0.07 -0.06 0.06 -0.07 0.06 -0.07 0.06 -0.07 0.05 -0.07 0.05 -0.08 0.05 -0.08 0.04 -0.08 0.04 -0.08 0.03 -0.09 0.03 -0.09 0.02 -0.09 0.02 -0.09 0.02 -0.09 0.01 -0.09 0.01 -0.09 0 -0.1 2.45 0 -0.01 0.22 -0.02 0.22 -0.03 0.22 -0.04 0.21 -0.05 0.21 -0.06 0.21 -0.07 0.2 -0.08 0.19 -0.09 0.19 -0.1 0.19 -0.1 0.18 -0.11 0.17 -0.12 0.17 -0.13 0.16 -0.14 0.16 -0.14 0.15 -0.15 0.14 -0.16 0.14 -0.16 0.13 -0.17 0.12 -0.17 0.11 -0.18 0.1 -0.19 0.1 -0.19 0.09 -0.2 0.08 -0.2 0.07 -0.21 0.06 -0.21 0.05 -0.21 0.04 -0.22 0.03 -0.22 0.02 -0.22 0.01 0 0zm-57.83 -2.44l57.83 0 0 2.44 -57.83 0 0 0 0 -2.44zm-4.31 -1.87l2.45 0 0 0 0 0.1 0.01 0.09 0.01 0.09 0.02 0.09 0.02 0.09 0.02 0.09 0.03 0.09 0.03 0.09 0.04 0.08 0.04 0.08 0.05 0.08 0.05 0.08 0.05 0.07 0.06 0.07 0.06 0.07 0.06 0.07 0.07 0.06 0.07 0.06 0.07 0.06 0.07 0.05 0.08 0.05 0.08 0.05 0.08 0.04 0.08 0.04 0.08 0.03 0.09 0.03 0.09 0.02 0.09 0.02 0.09 0.02 0.09 0.01 0.09 0.01 0.1 0 0 2.44 -0.22 -0.01 -0.22 -0.02 -0.22 -0.03 -0.21 -0.04 -0.21 -0.05 -0.21 -0.06 -0.2 -0.07 -0.2 -0.08 -0.19 -0.09 -0.19 -0.1 -0.18 -0.1 -0.17 -0.11 -0.17 -0.12 -0.16 -0.13 -0.16 -0.14 -0.15 -0.14 -0.14 -0.15 -0.14 -0.16 -0.13 -0.16 -0.12 -0.17 -0.11 -0.17 -0.1 -0.18 -0.1 -0.19 -0.09 -0.19 -0.08 -0.19 -0.07 -0.2 -0.06 -0.21 -0.05 -0.21 -0.04 -0.21 -0.03 -0.22 -0.02 -0.22 -0.01 -0.22 0 0zm2.45 -30.28l0 30.28 -2.45 0 0 -30.28 0 0 2.45 0zm1.86 -4.31l0 2.44 0 0 -0.1 0 -0.09 0.01 -0.09 0.01 -0.09 0.02 -0.09 0.02 -0.09 0.02 -0.09 0.03 -0.08 0.03 -0.08 0.04 -0.08 0.04 -0.08 0.04 -0.08 0.05 -0.07 0.05 -0.07 0.06 -0.07 0.06 -0.07 0.06 -0.06 0.07 -0.06 0.07 -0.06 0.07 -0.05 0.07 -0.05 0.08 -0.05 0.08 -0.04 0.08 -0.04 0.08 -0.03 0.08 -0.03 0.09 -0.02 0.09 -0.02 0.09 -0.02 0.09 -0.01 0.09 -0.01 0.09 -0 0.1 -2.45 0 0.01 -0.22 0.02 -0.22 0.03 -0.22 0.04 -0.21 0.05 -0.21 0.06 -0.21 0.07 -0.2 0.08 -0.2 0.09 -0.19 0.1 -0.19 0.1 -0.18 0.11 -0.17 0.12 -0.17 0.13 -0.16 0.14 -0.16 0.14 -0.15 0.15 -0.14 0.16 -0.14 0.16 -0.13 0.17 -0.12 0.17 -0.11 0.18 -0.1 0.19 -0.1 0.19 -0.09 0.2 -0.08 0.2 -0.07 0.21 -0.06 0.21 -0.05 0.21 -0.04 0.22 -0.03 0.22 -0.02 0.22 -0.01 0 0z"/>
    <path id="_1_0" class="fil3" d="M24.5 40.52l57.83 0c1.7,0 3.09,1.39 3.09,3.09l0 30.28c0,1.7 -1.39,3.09 -3.09,3.09l-57.83 0c-1.7,0 -3.09,-1.39 -3.09,-3.09l0 -30.28c0,-1.7 1.39,-3.09 3.09,-3.09z"/>
   </g>
   <rect class="fil4" x="25.32" y="43.99" width="56.44" height="29.52" rx="2.82" ry="2.5"/>
   <g>
    <path class="fil5" d="M74.45 92.01l-2.01 0c-0.6,0 -1.09,-0.49 -1.09,-1.09 0,-0.6 0.49,-1.09 1.09,-1.09l2.01 0c0.6,0 1.09,0.49 1.09,1.09 0,0.6 -0.49,1.09 -1.09,1.09z"/>
    <path class="fil5" d="M67.76 92.01l-2 0c-0.6,0 -1.09,-0.49 -1.09,-1.09 0,-0.6 0.49,-1.09 1.09,-1.09l2 0c0.6,0 1.09,0.49 1.09,1.09 0,0.6 -0.49,1.09 -1.09,1.09z"/>
    <path class="fil5" d="M70.11 96.35c-0.6,0 -1.09,-0.49 -1.09,-1.09l0 -2c0,-0.6 0.49,-1.09 1.09,-1.09 0.6,0 1.09,0.49 1.09,1.09l0 2c0,0.6 -0.49,1.09 -1.09,1.09z"/>
    <path class="fil5" d="M70.11 89.67c-0.6,0 -1.09,-0.49 -1.09,-1.09l0 -2.01c0,-0.6 0.49,-1.09 1.09,-1.09 0.6,0 1.09,0.49 1.09,1.09l0 2.01c0,0.6 -0.49,1.09 -1.09,1.09z"/>
   </g>
   <g>
    <path class="fil6" d="M21.24 38.32c0,0.76 -0.62,1.38 -1.38,1.38 -0.76,0 -1.38,-0.62 -1.38,-1.38 0,-0.76 0.62,-1.38 1.38,-1.38 0.76,0 1.38,0.62 1.38,1.38z"/>
    <path class="fil7" d="M20.69 37.22c-0,0.76 -0.62,1.38 -1.38,1.38 -0.31,0 -0.6,-0.11 -0.83,-0.28 0,0 -0,0 -0,0.01 0,0.76 0.62,1.38 1.38,1.38 0.76,0 1.38,-0.62 1.38,-1.38 0,-0.45 -0.22,-0.85 -0.55,-1.1z"/>
    <path class="fil5" d="M19.86 37.35c-0.53,0 -0.97,0.43 -0.97,0.97 0,0.53 0.43,0.97 0.97,0.97 0.53,0 0.97,-0.43 0.97,-0.97 0,-0.53 -0.43,-0.97 -0.97,-0.97zm0 2.77c-0.99,0 -1.8,-0.81 -1.8,-1.8 0,-0.99 0.81,-1.8 1.8,-1.8 0.99,0 1.8,0.81 1.8,1.8 0,0.99 -0.81,1.8 -1.8,1.8z"/>
   </g>
   <g>
    <path class="fil5" d="M9.78 69.14l-2.01 0c-0.6,0 -1.09,-0.49 -1.09,-1.09 0,-0.6 0.49,-1.09 1.09,-1.09l2.01 0c0.6,0 1.09,0.49 1.09,1.09 0,0.6 -0.49,1.09 -1.09,1.09z"/>
    <path class="fil5" d="M3.09 69.14l-2 0c-0.6,0 -1.09,-0.49 -1.09,-1.09 0,-0.6 0.49,-1.09 1.09,-1.09l2 0c0.6,0 1.09,0.49 1.09,1.09 0,0.6 -0.49,1.09 -1.09,1.09z"/>
    <path class="fil5" d="M5.43 73.49c-0.6,0 -1.09,-0.49 -1.09,-1.09l0 -2c0,-0.6 0.49,-1.09 1.09,-1.09 0.6,0 1.09,0.49 1.09,1.09l0 2c0,0.6 -0.49,1.09 -1.09,1.09z"/>
    <path class="fil5" d="M5.43 66.8c-0.6,0 -1.09,-0.49 -1.09,-1.09l0 -2.01c0,-0.6 0.49,-1.09 1.09,-1.09 0.6,0 1.09,0.49 1.09,1.09l0 2.01c0,0.6 -0.49,1.09 -1.09,1.09z"/>
   </g>
   <g>
    <path class="fil5" d="M100.34 26.36l-2.01 0c-0.6,0 -1.09,-0.49 -1.09,-1.09 0,-0.6 0.49,-1.09 1.09,-1.09l2.01 0c0.6,0 1.09,0.49 1.09,1.09 0,0.6 -0.49,1.09 -1.09,1.09z"/>
    <path class="fil5" d="M93.65 26.36l-2 0c-0.6,0 -1.09,-0.49 -1.09,-1.09 0,-0.6 0.49,-1.09 1.09,-1.09l2 0c0.6,0 1.09,0.49 1.09,1.09 0,0.6 -0.49,1.09 -1.09,1.09z"/>
    <path class="fil5" d="M95.99 30.7c-0.6,0 -1.09,-0.49 -1.09,-1.09l0 -2c0,-0.6 0.49,-1.09 1.09,-1.09 0.6,0 1.09,0.49 1.09,1.09l0 2c0,0.6 -0.49,1.09 -1.09,1.09z"/>
    <path class="fil5" d="M95.99 24.02c-0.6,0 -1.09,-0.49 -1.09,-1.09l0 -2.01c0,-0.6 0.49,-1.09 1.09,-1.09 0.6,0 1.09,0.49 1.09,1.09l0 2.01c0,0.6 -0.49,1.09 -1.09,1.09z"/>
   </g>
   <g>
    <path class="fil5" d="M15.92 24.24l-2.01 0c-0.6,0 -1.09,-0.49 -1.09,-1.09 0,-0.6 0.49,-1.09 1.09,-1.09l2.01 0c0.6,0 1.09,0.49 1.09,1.09 0,0.6 -0.49,1.09 -1.09,1.09z"/>
    <path class="fil5" d="M9.23 24.24l-2 0c-0.6,0 -1.09,-0.49 -1.09,-1.09 0,-0.6 0.49,-1.09 1.09,-1.09l2 0c0.6,0 1.09,0.49 1.09,1.09 0,0.6 -0.49,1.09 -1.09,1.09z"/>
    <path class="fil5" d="M11.57 28.58c-0.6,0 -1.09,-0.49 -1.09,-1.09l0 -2c0,-0.6 0.49,-1.09 1.09,-1.09 0.6,0 1.09,0.49 1.09,1.09l0 2c0,0.6 -0.49,1.09 -1.09,1.09z"/>
    <path class="fil5" d="M11.57 21.9c-0.6,0 -1.09,-0.49 -1.09,-1.09l0 -2.01c0,-0.6 0.49,-1.09 1.09,-1.09 0.6,0 1.09,0.49 1.09,1.09l0 2.01c0,0.6 -0.49,1.09 -1.09,1.09z"/>
   </g>
   <g>
    <path class="fil1" d="M76.15 12.6l0 0 0 0 0 0 0 0.87 0 -0.87zm-3.28 2.41l0 0 0 -0.17 0.01 -0.17 0.02 -0.16 0.03 -0.16 0.04 -0.16 0.04 -0.16 0.05 -0.15 0.06 -0.15 0.07 -0.14 0.07 -0.14 0.08 -0.14 0.08 -0.13 0.09 -0.13 0.1 -0.12 0.1 -0.12 0.11 -0.11 0.11 -0.11 0.12 -0.1 0.12 -0.1 0.13 -0.09 0.13 -0.09 0.14 -0.08 0.14 -0.07 0.14 -0.07 0.15 -0.06 0.15 -0.05 0.16 -0.04 0.16 -0.04 0.16 -0.03 0.16 -0.02 0.17 -0.01 0.17 -0 0 1.74 -0.08 0 -0.08 0.01 -0.08 0.01 -0.08 0.01 -0.07 0.02 -0.07 0.02 -0.07 0.02 -0.07 0.03 -0.07 0.03 -0.07 0.03 -0.06 0.04 -0.06 0.04 -0.06 0.04 -0.06 0.05 -0.06 0.05 -0.05 0.05 -0.05 0.05 -0.05 0.06 -0.05 0.06 -0.04 0.06 -0.04 0.06 -0.04 0.06 -0.03 0.07 -0.03 0.07 -0.03 0.07 -0.02 0.07 -0.02 0.07 -0.02 0.07 -0.01 0.07 -0.01 0.08 -0.01 0.08 -0 0.08 0 0 -1.74 0zm1.74 24.62l-1.74 0 0 -24.62 1.74 0 0 24.62zm1.54 3.28l0 0 -0.17 -0 -0.17 -0.01 -0.16 -0.02 -0.16 -0.03 -0.16 -0.04 -0.16 -0.04 -0.15 -0.05 -0.15 -0.06 -0.15 -0.07 -0.14 -0.07 -0.14 -0.08 -0.13 -0.09 -0.13 -0.09 -0.12 -0.1 -0.12 -0.1 -0.11 -0.11 -0.11 -0.11 -0.1 -0.12 -0.1 -0.12 -0.09 -0.13 -0.09 -0.13 -0.08 -0.14 -0.07 -0.14 -0.07 -0.14 -0.06 -0.15 -0.05 -0.15 -0.04 -0.16 -0.04 -0.16 -0.03 -0.16 -0.02 -0.16 -0.01 -0.17 -0 -0.17 1.74 0 0 0.08 0.01 0.08 0.01 0.08 0.01 0.08 0.02 0.07 0.02 0.07 0.02 0.07 0.03 0.07 0.03 0.07 0.03 0.07 0.04 0.06 0.04 0.06 0.04 0.06 0.05 0.06 0.05 0.06 0.05 0.05 0.05 0.05 0.06 0.05 0.06 0.05 0.06 0.04 0.06 0.04 0.06 0.04 0.07 0.03 0.07 0.03 0.07 0.03 0.07 0.02 0.07 0.02 0.07 0.02 0.08 0.01 0.08 0.01 0.08 0.01 0.08 0 0 0 0 1.74zm0 -0.87l0 0 0 0 0 0 0 -0.87 0 0.87zm3.28 -2.41l0 0 -0 0.17 -0.01 0.17 -0.02 0.16 -0.03 0.16 -0.04 0.16 -0.04 0.16 -0.05 0.15 -0.06 0.15 -0.07 0.14 -0.07 0.14 -0.08 0.14 -0.09 0.13 -0.09 0.13 -0.1 0.12 -0.1 0.12 -0.11 0.11 -0.11 0.11 -0.12 0.1 -0.12 0.1 -0.13 0.09 -0.13 0.09 -0.14 0.08 -0.14 0.07 -0.15 0.07 -0.15 0.06 -0.15 0.05 -0.16 0.04 -0.16 0.04 -0.16 0.03 -0.16 0.02 -0.17 0.01 -0.17 0 0 -1.74 0.08 -0 0.08 -0.01 0.08 -0.01 0.08 -0.01 0.07 -0.02 0.07 -0.02 0.07 -0.02 0.07 -0.03 0.07 -0.03 0.07 -0.03 0.06 -0.04 0.06 -0.04 0.06 -0.04 0.06 -0.05 0.06 -0.05 0.05 -0.05 0.05 -0.05 0.05 -0.06 0.05 -0.06 0.04 -0.06 0.04 -0.06 0.04 -0.06 0.03 -0.07 0.03 -0.07 0.03 -0.07 0.02 -0.07 0.02 -0.07 0.02 -0.07 0.01 -0.08 0.01 -0.08 0.01 -0.08 0 -0.08 0 0 1.74 0zm-1.74 -24.62l1.74 0 0 24.62 -1.74 0 0 -24.62zm-1.54 -3.28l0 0 0.17 0 0.17 0.01 0.16 0.02 0.16 0.03 0.16 0.04 0.16 0.04 0.15 0.05 0.15 0.06 0.14 0.07 0.14 0.07 0.14 0.08 0.13 0.09 0.13 0.09 0.12 0.1 0.12 0.1 0.11 0.11 0.11 0.11 0.1 0.12 0.1 0.12 0.09 0.13 0.08 0.13 0.08 0.14 0.07 0.14 0.07 0.14 0.06 0.15 0.05 0.15 0.04 0.16 0.04 0.16 0.03 0.16 0.02 0.16 0.01 0.17 0 0.17 -1.74 0 -0 -0.08 -0.01 -0.08 -0.01 -0.08 -0.01 -0.07 -0.02 -0.07 -0.02 -0.07 -0.02 -0.07 -0.03 -0.07 -0.03 -0.07 -0.03 -0.07 -0.04 -0.06 -0.04 -0.06 -0.04 -0.06 -0.05 -0.06 -0.05 -0.06 -0.05 -0.05 -0.05 -0.05 -0.06 -0.05 -0.06 -0.05 -0.06 -0.04 -0.06 -0.04 -0.06 -0.04 -0.07 -0.03 -0.07 -0.03 -0.07 -0.03 -0.07 -0.02 -0.07 -0.02 -0.07 -0.02 -0.08 -0.01 -0.08 -0.01 -0.08 -0.01 -0.08 -0 0 0 0 -1.74z"/>
    <path id="_1_1" class="fil2" d="M76.15 12.6l0 0c-1.33,0 -2.41,1.08 -2.41,2.41l0 24.62c0,1.33 1.08,2.41 2.41,2.41l0 0c1.33,0 2.41,-1.08 2.41,-2.41l0 -24.62c0,-1.33 -1.08,-2.41 -2.41,-2.41z"/>
   </g>
   <g>
    <path class="fil8 str0" d="M76.15 12.6l-0 0c-1.15,0 -2.12,0.81 -2.35,1.89 0.27,1.38 1.46,2.41 2.89,2.41 0.71,0 1.37,-0.26 1.88,-0.69l0 -1.21c0,-1.33 -1.08,-2.41 -2.41,-2.41z"/>
    <path id="_1_2" class="fil9" d="M76.15 12.6l-0 0c-1.15,0 -2.12,0.81 -2.35,1.89 0.27,1.38 1.46,2.41 2.89,2.41 0.71,0 1.37,-0.26 1.88,-0.69l0 -1.21c0,-1.33 -1.08,-2.41 -2.41,-2.41z"/>
   </g>
   <path class="fil8 str1" d="M24.88 16.87l-4.97 0 0 -10.44 68.5 0 0 10.44 -5.5 0m-14.17 0l-30.61 0"/>
   <path class="fil1" d="M41.47 60.34c0,0.34 -0.06,0.64 -0.19,0.91 -0.13,0.26 -0.3,0.49 -0.52,0.68 -0.22,0.18 -0.48,0.32 -0.78,0.42 -0.3,0.09 -0.63,0.14 -0.97,0.14 -0.24,0 -0.47,-0.02 -0.68,-0.06 -0.21,-0.04 -0.39,-0.09 -0.56,-0.15 -0.16,-0.06 -0.3,-0.12 -0.41,-0.19 -0.11,-0.06 -0.19,-0.12 -0.23,-0.16 -0.04,-0.04 -0.07,-0.1 -0.1,-0.17 -0.02,-0.07 -0.03,-0.16 -0.03,-0.28 0,-0.08 0,-0.15 0.01,-0.2 0.01,-0.05 0.02,-0.1 0.03,-0.13 0.02,-0.03 0.03,-0.06 0.06,-0.07 0.02,-0.01 0.05,-0.02 0.08,-0.02 0.05,0 0.13,0.03 0.22,0.1 0.09,0.06 0.22,0.13 0.37,0.21 0.15,0.07 0.33,0.14 0.54,0.21 0.21,0.06 0.46,0.1 0.73,0.1 0.21,0 0.4,-0.03 0.58,-0.08 0.17,-0.06 0.32,-0.13 0.45,-0.24 0.13,-0.1 0.22,-0.23 0.29,-0.38 0.07,-0.15 0.1,-0.32 0.1,-0.51 0,-0.2 -0.05,-0.38 -0.14,-0.53 -0.09,-0.15 -0.22,-0.27 -0.37,-0.38 -0.15,-0.11 -0.33,-0.21 -0.52,-0.3 -0.2,-0.09 -0.4,-0.18 -0.6,-0.28 -0.2,-0.1 -0.41,-0.2 -0.6,-0.32 -0.19,-0.11 -0.37,-0.25 -0.52,-0.41 -0.15,-0.16 -0.28,-0.34 -0.37,-0.55 -0.1,-0.21 -0.14,-0.46 -0.14,-0.76 0,-0.3 0.06,-0.57 0.16,-0.81 0.11,-0.24 0.26,-0.43 0.46,-0.59 0.2,-0.16 0.43,-0.28 0.7,-0.37 0.27,-0.08 0.56,-0.13 0.88,-0.13 0.16,0 0.32,0.01 0.48,0.04 0.16,0.03 0.32,0.07 0.46,0.11 0.14,0.05 0.27,0.1 0.38,0.16 0.11,0.06 0.19,0.11 0.22,0.14 0.04,0.04 0.06,0.06 0.07,0.08 0.01,0.02 0.02,0.05 0.03,0.08 0.01,0.03 0.01,0.07 0.02,0.12 0,0.04 0.01,0.1 0.01,0.17 0,0.07 -0,0.13 -0.01,0.18 -0.01,0.05 -0.02,0.1 -0.03,0.13 -0.01,0.03 -0.03,0.06 -0.05,0.08 -0.02,0.02 -0.04,0.02 -0.07,0.02 -0.04,0 -0.11,-0.03 -0.19,-0.08 -0.09,-0.05 -0.2,-0.11 -0.32,-0.18 -0.13,-0.06 -0.28,-0.12 -0.45,-0.18 -0.17,-0.06 -0.37,-0.08 -0.59,-0.08 -0.2,0 -0.38,0.03 -0.53,0.08 -0.15,0.06 -0.27,0.13 -0.37,0.22 -0.1,0.09 -0.17,0.19 -0.22,0.32 -0.05,0.12 -0.07,0.25 -0.07,0.39 0,0.2 0.05,0.37 0.14,0.52 0.09,0.15 0.22,0.27 0.37,0.39 0.16,0.11 0.33,0.21 0.53,0.31 0.2,0.09 0.4,0.19 0.61,0.28 0.2,0.1 0.41,0.2 0.6,0.31 0.2,0.11 0.38,0.25 0.53,0.4 0.15,0.15 0.28,0.34 0.37,0.55 0.1,0.21 0.14,0.46 0.14,0.75zm9.19 1.89c0,0.03 -0.01,0.06 -0.02,0.08 -0.02,0.02 -0.04,0.04 -0.08,0.05 -0.04,0.01 -0.09,0.02 -0.15,0.03 -0.06,0.01 -0.14,0.01 -0.23,0.01 -0.1,0 -0.18,-0 -0.24,-0.01 -0.06,-0.01 -0.11,-0.02 -0.15,-0.03 -0.04,-0.01 -0.06,-0.03 -0.08,-0.05 -0.02,-0.02 -0.02,-0.05 -0.02,-0.08l0 -3.22 -3.29 0 0 3.22c0,0.03 -0.01,0.06 -0.02,0.08 -0.02,0.02 -0.04,0.04 -0.08,0.05 -0.04,0.01 -0.09,0.02 -0.15,0.03 -0.06,0.01 -0.14,0.01 -0.23,0.01 -0.09,0 -0.17,-0 -0.23,-0.01 -0.06,-0.01 -0.11,-0.02 -0.15,-0.03 -0.04,-0.01 -0.06,-0.03 -0.08,-0.05 -0.02,-0.02 -0.02,-0.05 -0.02,-0.08l0 -6.96c0,-0.03 0.01,-0.06 0.02,-0.08 0.02,-0.02 0.04,-0.04 0.08,-0.05 0.04,-0.01 0.09,-0.02 0.15,-0.03 0.06,-0.01 0.14,-0.01 0.23,-0.01 0.09,0 0.17,0 0.23,0.01 0.06,0.01 0.11,0.02 0.15,0.03 0.04,0.01 0.06,0.03 0.08,0.05 0.02,0.02 0.02,0.05 0.02,0.08l0 2.91 3.29 0 0 -2.91c0,-0.03 0.01,-0.06 0.02,-0.08 0.02,-0.02 0.04,-0.04 0.08,-0.05 0.04,-0.01 0.09,-0.02 0.15,-0.03 0.06,-0.01 0.14,-0.01 0.24,-0.01 0.09,0 0.16,0 0.23,0.01 0.06,0.01 0.11,0.02 0.15,0.03 0.04,0.01 0.06,0.03 0.08,0.05 0.02,0.02 0.02,0.05 0.02,0.08l0 6.96zm10.59 -3.57c0,0.59 -0.07,1.11 -0.21,1.59 -0.14,0.47 -0.35,0.87 -0.62,1.2 -0.28,0.33 -0.62,0.58 -1.03,0.76 -0.41,0.18 -0.9,0.27 -1.45,0.27 -0.55,0 -1.02,-0.08 -1.41,-0.24 -0.4,-0.16 -0.73,-0.4 -0.99,-0.71 -0.26,-0.31 -0.45,-0.69 -0.58,-1.15 -0.13,-0.46 -0.19,-0.99 -0.19,-1.58 0,-0.57 0.07,-1.09 0.21,-1.56 0.14,-0.47 0.35,-0.86 0.62,-1.19 0.28,-0.33 0.62,-0.58 1.04,-0.76 0.41,-0.18 0.9,-0.27 1.45,-0.27 0.53,0 1,0.08 1.39,0.24 0.4,0.16 0.73,0.39 0.99,0.7 0.26,0.31 0.46,0.69 0.59,1.14 0.13,0.45 0.19,0.97 0.19,1.56zm-1.02 0.07c0,-0.41 -0.04,-0.79 -0.11,-1.14 -0.07,-0.35 -0.19,-0.66 -0.36,-0.92 -0.17,-0.26 -0.4,-0.46 -0.68,-0.61 -0.28,-0.15 -0.64,-0.22 -1.05,-0.22 -0.42,0 -0.77,0.08 -1.05,0.24 -0.28,0.16 -0.51,0.37 -0.69,0.63 -0.18,0.26 -0.3,0.57 -0.38,0.92 -0.08,0.35 -0.11,0.71 -0.11,1.1 0,0.43 0.04,0.82 0.11,1.17 0.07,0.36 0.19,0.67 0.36,0.93 0.17,0.26 0.39,0.46 0.67,0.6 0.28,0.14 0.64,0.22 1.06,0.22 0.42,0 0.78,-0.08 1.06,-0.24 0.29,-0.16 0.52,-0.37 0.69,-0.64 0.17,-0.27 0.3,-0.58 0.37,-0.93 0.07,-0.35 0.11,-0.72 0.11,-1.11zm9.6 -1.48c0,0.36 -0.06,0.69 -0.18,0.98 -0.12,0.29 -0.29,0.54 -0.51,0.75 -0.22,0.2 -0.49,0.36 -0.82,0.48 -0.32,0.11 -0.71,0.17 -1.16,0.17l-0.82 0 0 2.61c0,0.03 -0.01,0.06 -0.02,0.08 -0.02,0.02 -0.04,0.04 -0.08,0.05 -0.04,0.01 -0.08,0.02 -0.15,0.03 -0.06,0.01 -0.14,0.01 -0.23,0.01 -0.09,0 -0.17,-0 -0.23,-0.01 -0.06,-0.01 -0.11,-0.02 -0.15,-0.03 -0.04,-0.01 -0.06,-0.03 -0.08,-0.05 -0.02,-0.02 -0.02,-0.05 -0.02,-0.08l0 -6.69c0,-0.15 0.04,-0.26 0.12,-0.32 0.08,-0.06 0.16,-0.1 0.26,-0.1l1.55 0c0.16,0 0.31,0.01 0.45,0.02 0.14,0.01 0.31,0.04 0.51,0.08 0.2,0.04 0.4,0.12 0.6,0.24 0.2,0.12 0.37,0.26 0.52,0.44 0.14,0.17 0.25,0.37 0.33,0.6 0.08,0.23 0.11,0.48 0.11,0.75zm-1.01 0.08c0,-0.3 -0.06,-0.54 -0.16,-0.74 -0.11,-0.2 -0.25,-0.35 -0.41,-0.44 -0.16,-0.1 -0.33,-0.16 -0.5,-0.18 -0.17,-0.03 -0.34,-0.04 -0.51,-0.04l-0.89 0 0 2.92 0.87 0c0.29,0 0.53,-0.04 0.72,-0.11 0.19,-0.07 0.35,-0.18 0.49,-0.31 0.13,-0.13 0.23,-0.29 0.3,-0.48 0.07,-0.19 0.1,-0.39 0.1,-0.6z"/>
   <g>
    <path class="fil6" d="M89.07 38.32c0,0.76 -0.62,1.38 -1.38,1.38 -0.76,0 -1.38,-0.62 -1.38,-1.38 0,-0.76 0.62,-1.38 1.38,-1.38 0.76,0 1.38,0.62 1.38,1.38z"/>
    <path class="fil7" d="M88.52 37.22c-0,0.76 -0.62,1.38 -1.38,1.38 -0.31,0 -0.6,-0.11 -0.83,-0.28 0,0 -0,0 -0,0.01 0,0.76 0.62,1.38 1.38,1.38 0.76,0 1.38,-0.62 1.38,-1.38 0,-0.45 -0.22,-0.85 -0.55,-1.1z"/>
    <path class="fil5" d="M87.69 37.35c-0.53,0 -0.97,0.43 -0.97,0.97 0,0.53 0.43,0.97 0.97,0.97 0.53,0 0.97,-0.43 0.97,-0.97 0,-0.53 -0.43,-0.97 -0.97,-0.97zm0 2.77c-0.99,0 -1.8,-0.81 -1.8,-1.8 0,-0.99 0.81,-1.8 1.8,-1.8 0.99,0 1.8,0.81 1.8,1.8 0,0.99 -0.81,1.8 -1.8,1.8z"/>
   </g>
   <g>
    <path class="fil1" d="M31.45 12.6l0 0 0 0 0 0 0 0.87 0 -0.87zm-3.28 2.41l0 0 0 -0.17 0.01 -0.17 0.02 -0.16 0.03 -0.16 0.04 -0.16 0.04 -0.16 0.05 -0.15 0.06 -0.15 0.07 -0.14 0.07 -0.14 0.08 -0.14 0.08 -0.13 0.09 -0.13 0.1 -0.12 0.1 -0.12 0.11 -0.11 0.11 -0.11 0.12 -0.1 0.12 -0.1 0.13 -0.09 0.13 -0.09 0.14 -0.08 0.14 -0.07 0.14 -0.07 0.15 -0.06 0.15 -0.05 0.16 -0.04 0.16 -0.04 0.16 -0.03 0.16 -0.02 0.17 -0.01 0.17 -0 0 1.74 -0.08 0 -0.08 0.01 -0.08 0.01 -0.08 0.01 -0.07 0.02 -0.07 0.02 -0.07 0.02 -0.07 0.03 -0.07 0.03 -0.07 0.03 -0.06 0.04 -0.06 0.04 -0.06 0.04 -0.06 0.05 -0.06 0.05 -0.05 0.05 -0.05 0.05 -0.05 0.06 -0.05 0.06 -0.04 0.06 -0.04 0.06 -0.04 0.06 -0.03 0.07 -0.03 0.07 -0.03 0.07 -0.02 0.07 -0.02 0.07 -0.02 0.07 -0.01 0.07 -0.01 0.08 -0.01 0.08 -0 0.08 0 0 -1.74 0zm1.74 24.62l-1.74 0 0 -24.62 1.74 0 0 24.62zm1.54 3.28l0 0 -0.17 -0 -0.17 -0.01 -0.16 -0.02 -0.16 -0.03 -0.16 -0.04 -0.16 -0.04 -0.15 -0.05 -0.15 -0.06 -0.15 -0.07 -0.14 -0.07 -0.14 -0.08 -0.13 -0.09 -0.13 -0.09 -0.12 -0.1 -0.12 -0.1 -0.11 -0.11 -0.11 -0.11 -0.1 -0.12 -0.1 -0.12 -0.09 -0.13 -0.09 -0.13 -0.08 -0.14 -0.07 -0.14 -0.07 -0.14 -0.06 -0.15 -0.05 -0.15 -0.04 -0.16 -0.04 -0.16 -0.03 -0.16 -0.02 -0.16 -0.01 -0.17 -0 -0.17 1.74 0 0 0.08 0.01 0.08 0.01 0.08 0.01 0.08 0.02 0.07 0.02 0.07 0.02 0.07 0.03 0.07 0.03 0.07 0.03 0.07 0.04 0.06 0.04 0.06 0.04 0.06 0.05 0.06 0.05 0.06 0.05 0.05 0.05 0.05 0.06 0.05 0.06 0.05 0.06 0.04 0.06 0.04 0.06 0.04 0.07 0.03 0.07 0.03 0.07 0.03 0.07 0.02 0.07 0.02 0.07 0.02 0.08 0.01 0.08 0.01 0.08 0.01 0.08 0 0 0 0 1.74zm0 -0.87l0 0 0 0 0 0 0 -0.87 0 0.87zm3.28 -2.41l0 0 -0 0.17 -0.01 0.17 -0.02 0.16 -0.03 0.16 -0.04 0.16 -0.04 0.16 -0.05 0.15 -0.06 0.15 -0.07 0.14 -0.07 0.14 -0.08 0.14 -0.09 0.13 -0.09 0.13 -0.1 0.12 -0.1 0.12 -0.11 0.11 -0.11 0.11 -0.12 0.1 -0.12 0.1 -0.13 0.09 -0.13 0.09 -0.14 0.08 -0.14 0.07 -0.15 0.07 -0.15 0.06 -0.15 0.05 -0.16 0.04 -0.16 0.04 -0.16 0.03 -0.16 0.02 -0.17 0.01 -0.17 0 0 -1.74 0.08 -0 0.08 -0.01 0.08 -0.01 0.08 -0.01 0.07 -0.02 0.07 -0.02 0.07 -0.02 0.07 -0.03 0.07 -0.03 0.07 -0.03 0.06 -0.04 0.06 -0.04 0.06 -0.04 0.06 -0.05 0.06 -0.05 0.05 -0.05 0.05 -0.05 0.05 -0.06 0.05 -0.06 0.04 -0.06 0.04 -0.06 0.04 -0.06 0.03 -0.07 0.03 -0.07 0.03 -0.07 0.02 -0.07 0.02 -0.07 0.02 -0.07 0.01 -0.08 0.01 -0.08 0.01 -0.08 0 -0.08 0 0 1.74 0zm-1.74 -24.62l1.74 0 0 24.62 -1.74 0 0 -24.62zm-1.54 -3.28l0 0 0.17 0 0.17 0.01 0.16 0.02 0.16 0.03 0.16 0.04 0.16 0.04 0.15 0.05 0.15 0.06 0.14 0.07 0.14 0.07 0.14 0.08 0.13 0.09 0.13 0.09 0.12 0.1 0.12 0.1 0.11 0.11 0.11 0.11 0.1 0.12 0.1 0.12 0.09 0.13 0.08 0.13 0.08 0.14 0.07 0.14 0.07 0.14 0.06 0.15 0.05 0.15 0.04 0.16 0.04 0.16 0.03 0.16 0.02 0.16 0.01 0.17 0 0.17 -1.74 0 -0 -0.08 -0.01 -0.08 -0.01 -0.08 -0.01 -0.07 -0.02 -0.07 -0.02 -0.07 -0.02 -0.07 -0.03 -0.07 -0.03 -0.07 -0.03 -0.07 -0.04 -0.06 -0.04 -0.06 -0.04 -0.06 -0.05 -0.06 -0.05 -0.06 -0.05 -0.05 -0.05 -0.05 -0.06 -0.05 -0.06 -0.05 -0.06 -0.04 -0.06 -0.04 -0.06 -0.04 -0.07 -0.03 -0.07 -0.03 -0.07 -0.03 -0.07 -0.02 -0.07 -0.02 -0.07 -0.02 -0.08 -0.01 -0.08 -0.01 -0.08 -0.01 -0.08 -0 0 0 0 -1.74z"/>
    <path id="_1_3" class="fil2" d="M31.45 12.6l0 0c-1.33,0 -2.41,1.08 -2.41,2.41l0 24.62c0,1.33 1.08,2.41 2.41,2.41l0 0c1.33,0 2.41,-1.08 2.41,-2.41l0 -24.62c0,-1.33 -1.08,-2.41 -2.41,-2.41z"/>
   </g>
   <g>
    <path class="fil8 str2" d="M31.45 12.6l-0 0c-1.33,0 -2.41,1.08 -2.41,2.41l0 1.53c0.43,0.16 0.9,0.24 1.39,0.24 1.43,0 2.69,-0.73 3.43,-1.84 -0.03,-1.3 -1.1,-2.35 -2.41,-2.35z"/>
    <path id="_1_4" class="fil9" d="M31.45 12.6l-0 0c-1.33,0 -2.41,1.08 -2.41,2.41l0 1.53c0.43,0.16 0.9,0.24 1.39,0.24 1.43,0 2.69,-0.73 3.43,-1.84 -0.03,-1.3 -1.1,-2.35 -2.41,-2.35z"/>
   </g>
  </g>
 </g>
</svg>
