<?xml version="1.0" encoding="UTF-8"?>
<!DOCTYPE svg PUBLIC "-//W3C//DTD SVG 1.1//EN" "http://www.w3.org/Graphics/SVG/1.1/DTD/svg11.dtd">
<!-- Creator: CorelDRAW -->
<svg xmlns="http://www.w3.org/2000/svg" xml:space="preserve" width="554px" height="547px" version="1.1" style="shape-rendering:geometricPrecision; text-rendering:geometricPrecision; image-rendering:optimizeQuality; fill-rule:evenodd; clip-rule:evenodd"
viewBox="0 0 21.18 20.94"
 xmlns:xlink="http://www.w3.org/1999/xlink"
 xmlns:xodm="http://www.corel.com/coreldraw/odm/2003">
 <defs>
  <style type="text/css">
   <![CDATA[
    .fil1 {fill:#FEFEFE;fill-rule:nonzero}
    .fil0 {fill:#E0E4E5;fill-rule:nonzero}
    .fil2 {fill:#B2BCD2;fill-rule:nonzero}
    .fil3 {fill:#31476A;fill-rule:nonzero}
   ]]>
  </style>
 </defs>
 <g id="Capa_x0020_1">
  <metadata id="CorelCorpID_0Corel-Layer"/>
  <path class="fil0" d="M10.55 17.03c0,2.16 -1.75,3.91 -3.91,3.91 -2.16,0 -3.91,-1.75 -3.91,-3.91 0,-2.17 1.75,-3.92 3.91,-3.92 2.16,0 3.91,1.75 3.91,3.92z"/>
  <path class="fil0" d="M20.13 6.8c0,1.86 -1.5,3.36 -3.35,3.36 -1.86,0 -3.36,-1.5 -3.36,-3.36 0,-1.85 1.5,-3.35 3.36,-3.35 1.85,0 3.35,1.5 3.35,3.35z"/>
  <path class="fil0" d="M11.18 5.59c0,3.09 -2.5,5.59 -5.59,5.59 -3.09,0 -5.59,-2.5 -5.59,-5.59 0,-3.09 2.5,-5.59 5.59,-5.59 3.09,0 5.59,2.5 5.59,5.59z"/>
  <path class="fil1" d="M17.89 10.32c0,4.16 -3.38,7.54 -7.55,7.54 -4.16,0 -7.54,-3.38 -7.54,-7.54 0,-4.17 3.38,-7.55 7.54,-7.55 4.17,0 7.55,3.38 7.55,7.55z"/>
  <path class="fil2" d="M11.69 2.89c2.05,1.35 3.41,3.67 3.41,6.31 0,4.17 -3.38,7.55 -7.55,7.55 -0.46,0 -0.91,-0.05 -1.35,-0.13 1.19,0.79 2.61,1.24 4.14,1.24 4.17,0 7.55,-3.38 7.55,-7.54 0,-3.71 -2.67,-6.79 -6.2,-7.43z"/>
  <path class="fil3" d="M10.34 2.98c-4.04,0 -7.33,3.29 -7.33,7.34 0,4.04 3.29,7.33 7.33,7.33 4.05,0 7.34,-3.29 7.34,-7.33 0,-4.05 -3.29,-7.34 -7.34,-7.34zm0 15.09c-4.27,0 -7.75,-3.48 -7.75,-7.75 0,-4.28 3.48,-7.76 7.75,-7.76 4.28,0 7.76,3.48 7.76,7.76 0,4.27 -3.48,7.75 -7.76,7.75z"/>
  <path class="fil1" d="M13.67 7.55c-0.31,0 -0.56,-0.25 -0.56,-0.56 0,-0.31 0.25,-0.56 0.56,-0.56 0.31,0 0.56,0.25 0.56,0.56 0,0.31 -0.25,0.56 -0.56,0.56z"/>
  <path class="fil3" d="M20.01 15.69l-0.38 0c-0.12,0 -0.21,-0.09 -0.21,-0.21 0,-0.12 0.09,-0.21 0.21,-0.21l0.38 0c0.12,0 0.21,0.09 0.21,0.21 0,0.12 -0.09,0.21 -0.21,0.21z"/>
  <path class="fil3" d="M18.72 15.69l-0.38 0c-0.12,0 -0.21,-0.09 -0.21,-0.21 0,-0.12 0.09,-0.21 0.21,-0.21l0.38 0c0.12,0 0.21,0.09 0.21,0.21 0,0.12 -0.09,0.21 -0.21,0.21z"/>
  <path class="fil3" d="M19.18 16.53c-0.12,0 -0.21,-0.1 -0.21,-0.21l0 -0.39c0,-0.11 0.09,-0.21 0.21,-0.21 0.11,0 0.21,0.1 0.21,0.21l0 0.39c0,0.11 -0.1,0.21 -0.21,0.21z"/>
  <path class="fil3" d="M19.18 15.24c-0.12,0 -0.21,-0.1 -0.21,-0.21l0 -0.39c0,-0.11 0.09,-0.21 0.21,-0.21 0.11,0 0.21,0.1 0.21,0.21l0 0.39c0,0.11 -0.1,0.21 -0.21,0.21z"/>
  <path class="fil1" d="M13.73 5.94c0,0.36 -0.29,0.65 -0.65,0.65 -0.36,0 -0.65,-0.29 -0.65,-0.65 0,-0.36 0.29,-0.65 0.65,-0.65 0.36,0 0.65,0.29 0.65,0.65z"/>
  <path class="fil3" d="M2 12.97l-0.38 0c-0.12,0 -0.21,-0.09 -0.21,-0.21 0,-0.12 0.09,-0.21 0.21,-0.21l0.38 0c0.12,0 0.21,0.09 0.21,0.21 0,0.12 -0.09,0.21 -0.21,0.21z"/>
  <path class="fil3" d="M0.71 12.97l-0.38 0c-0.12,0 -0.21,-0.09 -0.21,-0.21 0,-0.12 0.09,-0.21 0.21,-0.21l0.38 0c0.12,0 0.21,0.09 0.21,0.21 0,0.12 -0.09,0.21 -0.21,0.21z"/>
  <path class="fil3" d="M1.16 13.81c-0.11,0 -0.21,-0.1 -0.21,-0.21l0 -0.39c0,-0.11 0.1,-0.21 0.21,-0.21 0.12,0 0.21,0.1 0.21,0.21l0 0.39c0,0.11 -0.09,0.21 -0.21,0.21z"/>
  <path class="fil3" d="M1.16 12.52c-0.11,0 -0.21,-0.1 -0.21,-0.21l0 -0.39c0,-0.11 0.1,-0.21 0.21,-0.21 0.12,0 0.21,0.1 0.21,0.21l0 0.39c0,0.11 -0.09,0.21 -0.21,0.21z"/>
  <path class="fil3" d="M6.06 2.5l-0.39 0c-0.11,0 -0.21,-0.1 -0.21,-0.21 0,-0.12 0.1,-0.21 0.21,-0.21l0.39 0c0.11,0 0.21,0.09 0.21,0.21 0,0.11 -0.1,0.21 -0.21,0.21z"/>
  <path class="fil3" d="M4.77 2.5l-0.39 0c-0.12,0 -0.21,-0.1 -0.21,-0.21 0,-0.12 0.09,-0.21 0.21,-0.21l0.39 0c0.11,0 0.21,0.09 0.21,0.21 0,0.11 -0.1,0.21 -0.21,0.21z"/>
  <path class="fil3" d="M5.22 3.34c-0.12,0 -0.21,-0.1 -0.21,-0.21l0 -0.39c0,-0.12 0.09,-0.21 0.21,-0.21 0.12,0 0.21,0.09 0.21,0.21l0 0.39c0,0.11 -0.09,0.21 -0.21,0.21z"/>
  <path class="fil3" d="M5.22 2.05c-0.12,0 -0.21,-0.1 -0.21,-0.21l0 -0.39c0,-0.12 0.09,-0.21 0.21,-0.21 0.12,0 0.21,0.09 0.21,0.21l0 0.39c0,0.11 -0.09,0.21 -0.21,0.21z"/>
  <path class="fil3" d="M20.97 5.78l-0.39 0c-0.11,0 -0.21,-0.09 -0.21,-0.21 0,-0.11 0.1,-0.21 0.21,-0.21l0.39 0c0.12,0 0.21,0.1 0.21,0.21 0,0.12 -0.09,0.21 -0.21,0.21z"/>
  <path class="fil3" d="M19.68 5.78l-0.39 0c-0.11,0 -0.21,-0.09 -0.21,-0.21 0,-0.11 0.1,-0.21 0.21,-0.21l0.39 0c0.12,0 0.21,0.1 0.21,0.21 0,0.12 -0.09,0.21 -0.21,0.21z"/>
  <path class="fil3" d="M20.13 6.62c-0.11,0 -0.21,-0.09 -0.21,-0.21l0 -0.38c0,-0.12 0.1,-0.21 0.21,-0.21 0.12,0 0.21,0.09 0.21,0.21l0 0.38c0,0.12 -0.09,0.21 -0.21,0.21z"/>
  <path class="fil3" d="M20.13 5.33c-0.11,0 -0.21,-0.09 -0.21,-0.21l0 -0.38c0,-0.12 0.1,-0.21 0.21,-0.21 0.12,0 0.21,0.09 0.21,0.21l0 0.38c0,0.12 -0.09,0.21 -0.21,0.21z"/>
  <path class="fil3" d="M9.17 18.55c-1.32,0 -2.01,-0.49 -2.04,-0.51 -0.08,-0.05 -0.12,-0.14 -0.12,-0.23l0 -7.07c0,-1.23 0.69,-2.2 1.56,-2.2l9.59 0c0.88,0 1.56,0.97 1.56,2.2 0,1.23 -0.68,2.19 -1.56,2.19l-1.64 0 0 4.88c0,0.09 -0.04,0.17 -0.1,0.22 -0.07,0.06 -0.16,0.08 -0.25,0.06 0,0 -0.87,-0.19 -2.01,-0.19 -0.7,0 -1.47,0.14 -2.36,0.3 -0.6,0.11 -1.22,0.22 -1.91,0.31 -0.26,0.03 -0.5,0.04 -0.72,0.04z"/>
  <path class="fil1" d="M7.58 17.65c0.28,0.14 1.03,0.44 2.24,0.29 0.67,-0.08 1.29,-0.2 1.88,-0.3 0.92,-0.17 1.71,-0.32 2.46,-0.32 0.77,0 1.42,0.09 1.79,0.15l0 -6.73c0,-0.65 0.19,-1.23 0.5,-1.63l-7.88 0c-0.53,0 -0.99,0.75 -0.99,1.63l0 6.91z"/>
  <path class="fil1" d="M16.52 12.36l1.64 0c0.54,0 0.99,-0.74 0.99,-1.62 0,-0.88 -0.45,-1.63 -0.99,-1.63l-0.65 0c-0.53,0 -0.99,0.75 -0.99,1.63l0 1.62z"/>
  <path class="fil3" d="M18.16 10.08c-0.07,0.14 -0.14,0.35 -0.14,0.66 0,0.3 0.07,0.52 0.14,0.65 0.07,-0.13 0.15,-0.35 0.15,-0.65 0,-0.31 -0.08,-0.52 -0.15,-0.66zm0.11 1.46l0 0 0 0zm-0.11 0.55c-0.33,0 -0.72,-0.59 -0.72,-1.35 0,-0.76 0.39,-1.35 0.72,-1.35 0.33,0 0.72,0.59 0.72,1.35 0,0.76 -0.39,1.35 -0.72,1.35z"/>
  <path class="fil3" d="M11.93 14.36l-0.03 1.09 -2.4 0c0,-0.33 0.02,-0.59 0.07,-0.77 0.06,-0.18 0.15,-0.35 0.27,-0.52 0.12,-0.17 0.29,-0.35 0.51,-0.55 0.28,-0.27 0.47,-0.46 0.56,-0.58 0.09,-0.13 0.14,-0.26 0.14,-0.42 0,-0.11 -0.03,-0.21 -0.1,-0.28 -0.07,-0.08 -0.16,-0.12 -0.26,-0.12 -0.15,0 -0.26,0.07 -0.33,0.19 -0.07,0.12 -0.11,0.33 -0.12,0.61l-0.7 -0.04c0,-0.36 0.06,-0.63 0.17,-0.82 0.11,-0.18 0.25,-0.31 0.44,-0.4 0.18,-0.08 0.39,-0.12 0.6,-0.12 0.36,0 0.65,0.1 0.85,0.3 0.2,0.19 0.31,0.44 0.31,0.73 0,0.16 -0.03,0.31 -0.1,0.44 -0.06,0.14 -0.14,0.25 -0.23,0.34 -0.1,0.09 -0.26,0.22 -0.5,0.39 -0.36,0.26 -0.59,0.46 -0.68,0.61 -0.09,0.15 -0.15,0.29 -0.16,0.4l1.09 0 0 -0.48 0.6 0zm0.98 1.09l0 -0.61 0.52 0 0 -2.55 -0.55 0 0 -0.6 1.38 0 0 3.15 0.49 0 0 0.61 -1.84 0z"/>
  <path class="fil3" d="M4.49 13.34c-1.32,0 -2,-0.49 -2.04,-0.51 -0.07,-0.06 -0.11,-0.14 -0.11,-0.23l0 -7.08c0,-1.23 0.68,-2.19 1.56,-2.19l9.59 0c0.87,0 1.56,0.96 1.56,2.19 0,1.23 -0.69,2.2 -1.56,2.2l-1.64 0 0 4.88c0,0.08 -0.04,0.16 -0.11,0.22 -0.07,0.05 -0.15,0.07 -0.24,0.05 -0.01,0 -0.87,-0.19 -2.02,-0.19 -0.69,0 -1.46,0.14 -2.35,0.31 -0.6,0.1 -1.23,0.22 -1.91,0.3 -0.26,0.04 -0.5,0.05 -0.73,0.05z"/>
  <path class="fil1" d="M2.91 12.43c0.27,0.15 1.02,0.45 2.24,0.3 0.67,-0.09 1.28,-0.2 1.88,-0.31 0.92,-0.16 1.71,-0.31 2.45,-0.31 0.78,0 1.42,0.08 1.8,0.14l0 -6.73c0,-0.65 0.19,-1.22 0.5,-1.62l-7.88 0c-0.54,0 -0.99,0.74 -0.99,1.62l0 6.91z"/>
  <path class="fil2" d="M2.91 12.43c0.27,0.15 1.02,0.45 2.24,0.3 0.67,-0.09 1.28,-0.2 1.88,-0.31 0.92,-0.16 1.71,-0.31 2.45,-0.31 0.78,0 1.42,0.08 1.8,0.14l0 -6.73c0,-0.65 0.19,-1.22 0.5,-1.62l-0.81 0c-0.17,0.28 -0.36,0.78 -0.36,1.62 0,1.48 0,5.95 0,5.95 0,0 -2.69,-0.06 -4.47,0.41 -1.51,0.39 -2.85,0.01 -3.23,-0.12l0 0.67z"/>
  <path class="fil1" d="M11.85 7.15l1.64 0c0.53,0 0.99,-0.75 0.99,-1.63 0,-0.88 -0.46,-1.62 -0.99,-1.62l-0.65 0c-0.54,0 -0.99,0.74 -0.99,1.62l0 1.63z"/>
  <path class="fil3" d="M13.49 4.87c-0.07,0.13 -0.15,0.35 -0.15,0.65 0,0.31 0.08,0.52 0.15,0.66 0.07,-0.14 0.14,-0.35 0.14,-0.66 0,-0.3 -0.07,-0.52 -0.14,-0.65zm0.1 1.46l0.01 0 -0.01 0zm-0.1 0.54c-0.33,0 -0.72,-0.59 -0.72,-1.35 0,-0.76 0.39,-1.35 0.72,-1.35 0.33,0 0.71,0.59 0.71,1.35 0,0.76 -0.38,1.35 -0.71,1.35z"/>
  <path class="fil3" d="M6.99 9.3l-0.03 1.09 -2.41 0c0,-0.32 0.03,-0.58 0.08,-0.76 0.06,-0.18 0.14,-0.35 0.27,-0.52 0.12,-0.17 0.29,-0.35 0.51,-0.56 0.28,-0.26 0.47,-0.45 0.56,-0.57 0.09,-0.13 0.14,-0.27 0.14,-0.42 0,-0.12 -0.04,-0.21 -0.1,-0.29 -0.07,-0.07 -0.16,-0.11 -0.26,-0.11 -0.15,0 -0.26,0.06 -0.33,0.19 -0.07,0.12 -0.11,0.32 -0.12,0.6l-0.7 -0.03c0,-0.36 0.06,-0.63 0.17,-0.82 0.1,-0.18 0.25,-0.32 0.44,-0.4 0.18,-0.08 0.38,-0.12 0.6,-0.12 0.36,0 0.64,0.1 0.85,0.29 0.2,0.2 0.31,0.45 0.31,0.74 0,0.16 -0.04,0.31 -0.1,0.44 -0.06,0.13 -0.14,0.25 -0.23,0.34 -0.1,0.09 -0.26,0.22 -0.5,0.39 -0.36,0.26 -0.59,0.46 -0.68,0.61 -0.09,0.15 -0.15,0.29 -0.16,0.4l1.09 0 0 -0.49 0.6 0zm0.98 1.09l0 -0.6 0.52 0 0 -2.55 -0.55 0 0 -0.6 1.38 0 0 3.15 0.49 0 0 0.6 -1.84 0z"/>
  <path class="fil2" d="M7.58 17.65c0.28,0.14 1.03,0.44 2.24,0.29 0.67,-0.08 1.29,-0.2 1.88,-0.3 0.92,-0.17 1.71,-0.32 2.46,-0.32 0.77,0 1.42,0.09 1.79,0.15l0 -6.73c0,-0.65 0.19,-1.23 0.5,-1.63l-0.81 0c-0.17,0.28 -0.36,0.78 -0.36,1.62 0,1.49 0,5.96 0,5.96 0,0 -2.69,-0.07 -4.47,0.4 -1.5,0.39 -2.84,0.01 -3.23,-0.12l0 0.68z"/>
 </g>
</svg>
