<?xml version="1.0" encoding="UTF-8"?>
<!DOCTYPE svg PUBLIC "-//W3C//DTD SVG 1.1//EN" "http://www.w3.org/Graphics/SVG/1.1/DTD/svg11.dtd">
<!-- Creator: CorelDRAW -->
<svg xmlns="http://www.w3.org/2000/svg" xml:space="preserve" width="3.33989cm" height="3.18569cm" version="1.1" style="shape-rendering:geometricPrecision; text-rendering:geometricPrecision; image-rendering:optimizeQuality; fill-rule:evenodd; clip-rule:evenodd"
viewBox="0 0 136.9 130.58"
 xmlns:xlink="http://www.w3.org/1999/xlink"
 xmlns:xodm="http://www.corel.com/coreldraw/odm/2003">
 <defs>
  <style type="text/css">
   <![CDATA[
    .str0 {stroke:#FEFEFE;stroke-width:15.23;stroke-miterlimit:10}
    .fil2 {fill:none;fill-rule:nonzero}
    .fil0 {fill:white}
    .fil1 {fill:#FA5F12;fill-rule:nonzero}
   ]]>
  </style>
 </defs>
 <g id="Capa_x0020_1">
  <metadata id="CorelCorpID_0Corel-Layer"/>
  <path class="fil0" d="M50.96 98.1l-10.62 0c-1.28,0 -2.33,-1.05 -2.33,-2.33l0 -10.62c0,-1.28 1.05,-2.33 2.33,-2.33l10.62 0c1.28,0 2.33,1.05 2.33,2.33l0 10.62c0,1.28 -1.05,2.33 -2.33,2.33zm28.82 -28.82l-10.62 0c-1.28,0 -2.33,-1.05 -2.33,-2.33l0 -10.62c0,-1.28 1.05,-2.33 2.33,-2.33l10.62 0c1.28,0 2.33,1.05 2.33,2.33l0 10.62c0,1.28 -1.05,2.33 -2.33,2.33zm-28.82 0l-10.62 0c-1.28,0 -2.33,-1.05 -2.33,-2.33l0 -10.62c0,-1.28 1.05,-2.33 2.33,-2.33l10.62 0c1.28,0 2.33,1.05 2.33,2.33l0 10.62c0,1.28 -1.05,2.33 -2.33,2.33zm-28.82 0l-10.62 0c-1.28,0 -2.33,-1.05 -2.33,-2.33l0 -10.62c0,-1.28 1.05,-2.33 2.33,-2.33l10.62 0c1.28,0 2.33,1.05 2.33,2.33l0 10.62c0,1.28 -1.05,2.33 -2.33,2.33zm0 28.82l-10.62 0c-1.28,0 -2.33,-1.05 -2.33,-2.33l0 -10.62c0,-1.28 1.05,-2.33 2.33,-2.33l10.62 0c1.28,0 2.33,1.05 2.33,2.33l0 10.62c0,1.28 -1.05,2.33 -2.33,2.33z"/>
  <path class="fil1" d="M33.67 62.9l-11.22 0c-1.55,0 -2.81,1.25 -2.81,2.81l0 14.03c0,1.55 1.26,2.81 2.81,2.81l11.22 0c1.55,0 2.81,-1.26 2.81,-2.81l0 -14.03c0,-1.55 -1.25,-2.81 -2.81,-2.81zm52.61 18.24c0,-1.94 -1.57,-3.51 -3.51,-3.51l-33.67 0c-1.94,0 -3.51,1.57 -3.51,3.51 0,1.94 1.57,3.51 3.51,3.51l33.67 0c1.94,0 3.51,-1.57 3.51,-3.51zm-72.25 26.66c-1.55,0 -2.81,-1.26 -2.81,-2.81l0 -47.7c0,-1.55 1.26,-2.81 2.81,-2.81l72.96 0c1.55,0 2.81,1.25 2.81,2.81l0 26.44 11.22 -11.22 0 -34.86c0,-6.2 -5.03,-11.22 -11.22,-11.22l-78.57 0c-6.2,0 -11.22,5.03 -11.22,11.22l0 70.15c0,6.2 5.03,11.22 11.22,11.22l45.79 0c0.24,-1.83 1.04,-3.55 2.34,-4.85 1.02,-1.02 3.85,-3.84 3.85,-3.84l2.53 -2.53 -51.7 0zm19.64 -71.55l11.22 0c2.33,0 4.21,1.88 4.21,4.21 0,2.32 -1.88,4.21 -4.21,4.21l-11.22 0c-2.32,0 -4.21,-1.89 -4.21,-4.21 0,-2.33 1.89,-4.21 4.21,-4.21zm-16.84 -1.4c3.1,0 5.61,2.51 5.61,5.61 0,3.1 -2.51,5.61 -5.61,5.61 -3.1,0 -5.61,-2.51 -5.61,-5.61 0,-3.1 2.51,-5.61 5.61,-5.61zm89.98 59.87l-8.05 -8.05c-0.55,-0.55 -1.44,-0.55 -1.98,0l-22.55 22.55c-0.55,0.55 -0.55,1.44 0,1.99l8.05 8.05c0.55,0.55 1.44,0.55 1.98,0l22.55 -22.55c0.55,-0.55 0.55,-1.44 0,-1.98zm-37.66 21.56c-0.55,-0.55 -1.43,-0.55 -1.98,-0.01 -0.92,0.91 -2.23,2.22 -2.85,2.85 -0.23,0.24 -0.37,0.54 -0.39,0.87l-0.7 9.08c-0.07,0.88 0.68,1.6 1.56,1.5l8.73 -1c0.31,-0.04 0.61,-0.18 0.83,-0.4l2.85 -2.85c0.55,-0.55 0.55,-1.44 0,-1.98l-8.05 -8.05zm-48.11 -24.61c-1.94,0 -3.51,1.57 -3.51,3.51 0,1.94 1.57,3.51 3.51,3.51l50.51 0c1.94,0 3.51,-1.57 3.51,-3.51 0,-1.94 -1.57,-3.51 -3.51,-3.51l-50.51 0zm61.73 -28.06l-33.67 0c-1.94,0 -3.51,1.57 -3.51,3.51 0,1.94 1.57,3.51 3.51,3.51l33.67 0c1.94,0 3.51,-1.57 3.51,-3.51 0,-1.94 -1.57,-3.51 -3.51,-3.51zm35.13 20.02l-8.05 -8.05c-0.55,-0.55 -1.44,-0.55 -1.98,0l-4.23 4.23c-0.55,0.55 -0.55,1.44 0,1.98l8.05 8.05c0.55,0.55 1.43,0.55 1.98,0l4.23 -4.23c0.55,-0.55 0.55,-1.43 0,-1.98z"/>
  <path class="fil2 str0" d="M119.58 29.45l-1.82 0c-1,0 -1.82,0.81 -1.82,1.82 0,1 0.81,1.82 1.82,1.82l1.82 0c1,0 1.82,-0.81 1.82,-1.82 0,-1 -0.81,-1.82 -1.82,-1.82zm-13.95 -21.83c-13.06,0 -23.65,10.59 -23.65,23.65 0,13.06 10.59,23.65 23.65,23.65 13.06,0 23.65,-10.59 23.65,-23.65 0,-13.06 -10.59,-23.65 -23.65,-23.65zm0 41.23c-9.7,0 -17.58,-7.89 -17.58,-17.58 0,-9.7 7.89,-17.58 17.58,-17.58 9.7,0 17.58,7.89 17.58,17.58 0,9.7 -7.89,17.58 -17.58,17.58zm7.93 -27.7l-7.16 7.17c-0.25,-0.05 -0.5,-0.08 -0.77,-0.08 -0.38,0 -0.75,0.08 -1.1,0.19l-5.55 -5.55c-0.71,-0.71 -1.86,-0.71 -2.57,0 -0.71,0.71 -0.71,1.86 0,2.57l5.67 5.67c-0.05,0.25 -0.09,0.5 -0.09,0.77 0,2.01 1.63,3.64 3.64,3.64 2.01,0 3.64,-1.63 3.64,-3.64 0,-0.38 -0.08,-0.75 -0.19,-1.1l7.05 -7.05c0.71,-0.71 0.71,-1.86 0,-2.57 -0.71,-0.71 -1.86,-0.71 -2.57,0zm-7.93 20.42c-1,0 -1.82,0.81 -1.82,1.82l0 1.82c0,1 0.82,1.82 1.82,1.82 1,0 1.82,-0.82 1.82,-1.82l0 -1.82c0,-1 -0.82,-1.82 -1.82,-1.82zm-12.13 -12.13l-1.82 0c-1,0 -1.82,0.81 -1.82,1.82 0,1 0.81,1.82 1.82,1.82l1.82 0c1,0 1.82,-0.81 1.82,-1.82 0,-1 -0.82,-1.82 -1.82,-1.82zm12.13 -13.95c-1,0 -1.82,0.81 -1.82,1.82l0 1.82c0,1 0.82,1.82 1.82,1.82 1,0 1.82,-0.81 1.82,-1.82l0 -1.82c0,-1 -0.82,-1.82 -1.82,-1.82z"/>
  <path class="fil1" d="M119.58 29.44l-1.82 0c-1,0 -1.82,0.81 -1.82,1.82 0,1 0.81,1.82 1.82,1.82l1.82 0c1,0 1.82,-0.81 1.82,-1.82 0,-1 -0.81,-1.82 -1.82,-1.82zm-13.95 -21.83c-13.06,0 -23.65,10.59 -23.65,23.65 0,13.06 10.59,23.65 23.65,23.65 13.06,0 23.65,-10.59 23.65,-23.65 0,-13.06 -10.59,-23.65 -23.65,-23.65zm0 41.23c-9.7,0 -17.58,-7.89 -17.58,-17.58 0,-9.7 7.89,-17.58 17.58,-17.58 9.7,0 17.58,7.89 17.58,17.58 0,9.7 -7.89,17.58 -17.58,17.58zm7.93 -27.7l-7.16 7.17c-0.25,-0.05 -0.5,-0.08 -0.77,-0.08 -0.38,0 -0.75,0.08 -1.1,0.19l-5.55 -5.55c-0.71,-0.71 -1.86,-0.71 -2.57,0 -0.71,0.71 -0.71,1.86 0,2.57l5.67 5.67c-0.05,0.25 -0.08,0.5 -0.08,0.77 0,2.01 1.63,3.64 3.64,3.64 2.01,0 3.64,-1.63 3.64,-3.64 0,-0.38 -0.08,-0.75 -0.19,-1.1l7.05 -7.05c0.71,-0.71 0.71,-1.86 0,-2.57 -0.71,-0.71 -1.86,-0.71 -2.57,0zm-7.93 20.42c-1,0 -1.82,0.81 -1.82,1.82l0 1.82c0,1 0.81,1.82 1.82,1.82 1,0 1.82,-0.81 1.82,-1.82l0 -1.82c0,-1 -0.82,-1.82 -1.82,-1.82zm-12.13 -12.13l-1.82 0c-1,0 -1.82,0.81 -1.82,1.82 0,1 0.81,1.82 1.82,1.82l1.82 0c1,0 1.82,-0.81 1.82,-1.82 0,-1 -0.81,-1.82 -1.82,-1.82zm12.13 -13.95c-1,0 -1.82,0.81 -1.82,1.82l0 1.82c0,1 0.81,1.82 1.82,1.82 1,0 1.82,-0.81 1.82,-1.82l0 -1.82c0,-1 -0.82,-1.82 -1.82,-1.82z"/>
 </g>
</svg>
