<?xml version="1.0" encoding="UTF-8"?>
<!DOCTYPE svg PUBLIC "-//W3C//DTD SVG 1.1//EN" "http://www.w3.org/Graphics/SVG/1.1/DTD/svg11.dtd">
<!-- Creator: CorelDRAW -->
<svg xmlns="http://www.w3.org/2000/svg" xml:space="preserve" width="557px" height="547px" version="1.1" style="shape-rendering:geometricPrecision; text-rendering:geometricPrecision; image-rendering:optimizeQuality; fill-rule:evenodd; clip-rule:evenodd"
viewBox="0 0 21.41 21.02"
 xmlns:xlink="http://www.w3.org/1999/xlink"
 xmlns:xodm="http://www.corel.com/coreldraw/odm/2003">
 <defs>
  <style type="text/css">
   <![CDATA[
    .str1 {stroke:#31476A;stroke-width:0.68;stroke-miterlimit:10}
    .str2 {stroke:#31476A;stroke-width:0.45;stroke-linecap:round;stroke-linejoin:round;stroke-miterlimit:22.9256}
    .str0 {stroke:#31476A;stroke-width:0.42;stroke-linecap:round;stroke-linejoin:round;stroke-miterlimit:10}
    .fil6 {fill:none}
    .fil4 {fill:none;fill-rule:nonzero}
    .fil5 {fill:#B2BCD2}
    .fil1 {fill:#FEFEFE;fill-rule:nonzero}
    .fil0 {fill:#E0E4E5;fill-rule:nonzero}
    .fil2 {fill:#B2BCD2;fill-rule:nonzero}
    .fil3 {fill:#31476A;fill-rule:nonzero}
   ]]>
  </style>
 </defs>
 <g id="Capa_x0020_1">
  <metadata id="CorelCorpID_0Corel-Layer"/>
  <path class="fil0" d="M21.14 6.83c0,1.86 -1.51,3.37 -3.37,3.37 -1.86,0 -3.37,-1.51 -3.37,-3.37 0,-1.86 1.51,-3.37 3.37,-3.37 1.86,0 3.37,1.51 3.37,3.37z"/>
  <path class="fil0" d="M11.52 17.09c0,2.17 -1.76,3.93 -3.93,3.93 -2.17,0 -3.93,-1.76 -3.93,-3.93 0,-2.17 1.76,-3.93 3.93,-3.93 2.17,0 3.93,1.76 3.93,3.93z"/>
  <path class="fil0" d="M12.16 5.61c0,3.1 -2.52,5.62 -5.62,5.62 -3.1,0 -5.61,-2.52 -5.61,-5.62 0,-3.1 2.51,-5.61 5.61,-5.61 3.1,0 5.62,2.51 5.62,5.61z"/>
  <path class="fil1" d="M18.89 10.36c0,4.18 -3.39,7.57 -7.58,7.57 -4.18,0 -7.58,-3.39 -7.58,-7.57 0,-4.19 3.4,-7.58 7.58,-7.58 4.19,0 7.58,3.39 7.58,7.58z"/>
  <path class="fil2" d="M12.67 2.9c2.06,1.36 3.41,3.69 3.41,6.33 0,4.19 -3.39,7.58 -7.57,7.58 -0.47,0 -0.92,-0.04 -1.36,-0.12 1.2,0.79 2.63,1.24 4.16,1.24 4.19,0 7.58,-3.39 7.58,-7.57 0,-3.73 -2.68,-6.82 -6.22,-7.46z"/>
  <path class="fil3" d="M11.31 2.99c-4.06,0 -7.36,3.3 -7.36,7.37 0,4.06 3.3,7.36 7.36,7.36 4.07,0 7.37,-3.3 7.37,-7.36 0,-4.07 -3.3,-7.37 -7.37,-7.37zm0 15.16c-4.29,0 -7.79,-3.5 -7.79,-7.79 0,-4.3 3.5,-7.79 7.79,-7.79 4.3,0 7.79,3.49 7.79,7.79 0,4.29 -3.49,7.79 -7.79,7.79z"/>
  <path class="fil2" d="M11.87 18.78l-1.12 0c-0.15,0 -0.28,-0.13 -0.28,-0.28l0 -1.13c0,-0.15 0.13,-0.28 0.28,-0.28l1.12 0c0.16,0 0.29,0.13 0.29,0.28l0 1.13c0,0.15 -0.13,0.28 -0.29,0.28z"/>
  <path class="fil1" d="M11.31 18.22l-0.84 0 0 -0.85c0,-0.15 0.13,-0.28 0.28,-0.28l0.84 0 0 0.84c0,0.16 -0.12,0.29 -0.28,0.29z"/>
  <path class="fil3" d="M10.75 17.3c-0.04,0 -0.07,0.04 -0.07,0.07l0 1.13c0,0.04 0.03,0.07 0.07,0.07l1.12 0c0.04,0 0.07,-0.03 0.07,-0.07l0 -1.13c0,-0.03 -0.03,-0.07 -0.07,-0.07l-1.12 0zm1.12 1.69l-1.12 0c-0.27,0 -0.49,-0.22 -0.49,-0.49l0 -1.13c0,-0.27 0.22,-0.49 0.49,-0.49l1.12 0c0.28,0 0.5,0.22 0.5,0.49l0 1.13c0,0.27 -0.22,0.49 -0.5,0.49z"/>
  <path class="fil2" d="M11.87 3.62l-1.12 0c-0.15,0 -0.28,-0.13 -0.28,-0.28l0 -1.13c0,-0.15 0.13,-0.28 0.28,-0.28l1.12 0c0.16,0 0.29,0.13 0.29,0.28l0 1.13c0,0.15 -0.13,0.28 -0.29,0.28z"/>
  <path class="fil1" d="M11.31 3.06l-0.84 0 0 -0.85c0,-0.15 0.13,-0.28 0.28,-0.28l0.84 0 0 0.85c0,0.15 -0.12,0.28 -0.28,0.28z"/>
  <path class="fil3" d="M10.75 2.14c-0.04,0 -0.07,0.04 -0.07,0.07l0 1.13c0,0.04 0.03,0.07 0.07,0.07l1.12 0c0.04,0 0.07,-0.03 0.07,-0.07l0 -1.13c0,-0.03 -0.03,-0.07 -0.07,-0.07l-1.12 0zm1.12 1.69l-1.12 0c-0.27,0 -0.49,-0.22 -0.49,-0.49l0 -1.13c0,-0.27 0.22,-0.49 0.49,-0.49l1.12 0c0.28,0 0.5,0.22 0.5,0.49l0 1.13c0,0.27 -0.22,0.49 -0.5,0.49z"/>
  <path class="fil1" d="M15.72 7.64c-0.37,0 -0.68,-0.31 -0.68,-0.69 0,-0.38 0.31,-0.68 0.68,-0.68 0.38,0 0.69,0.3 0.69,0.68 0,0.38 -0.31,0.69 -0.69,0.69z"/>
  <path class="fil3" d="M10.28 6.15l-0.48 0c-0.14,0 -0.25,-0.12 -0.25,-0.26 0,-0.14 0.11,-0.26 0.25,-0.26l0.48 0c0.14,0 0.26,0.12 0.26,0.26 0,0.14 -0.12,0.26 -0.26,0.26z"/>
  <path class="fil3" d="M8.7 6.15l-0.48 0c-0.14,0 -0.25,-0.12 -0.25,-0.26 0,-0.14 0.11,-0.26 0.25,-0.26l0.48 0c0.14,0 0.25,0.12 0.25,0.26 0,0.14 -0.11,0.26 -0.25,0.26z"/>
  <path class="fil3" d="M9.25 7.17c-0.14,0 -0.26,-0.11 -0.26,-0.25l0 -0.48c0,-0.14 0.12,-0.26 0.26,-0.26 0.14,0 0.26,0.12 0.26,0.26l0 0.48c0,0.14 -0.12,0.25 -0.26,0.25z"/>
  <path class="fil3" d="M9.25 5.59c-0.14,0 -0.26,-0.11 -0.26,-0.26l0 -0.47c0,-0.14 0.12,-0.26 0.26,-0.26 0.14,0 0.26,0.12 0.26,0.26l0 0.47c0,0.15 -0.12,0.26 -0.26,0.26z"/>
  <polygon class="fil1 str0" points="4.57,12.55 7.94,12.55 7.94,3.15 4.57,3.15 "/>
  <path class="fil4 str0" d="M6.98 7.13c0,0.4 -0.33,0.72 -0.72,0.72 -0.4,0 -0.72,-0.32 -0.72,-0.72 0,-0.4 0.72,-1.41 0.72,-1.41 0,0 0.72,1.01 0.72,1.41z"/>
  <line class="fil4 str0" x1="4.57" y1="9.19" x2="7.94" y2= "9.19" />
  <polyline class="fil4 str0" points="6.66,10.09 5.85,10.09 5.85,11.64 6.66,11.64 "/>
  <polygon class="fil1 str0" points="7.94,12.55 11.31,12.55 11.31,3.15 7.94,3.15 "/>
  <path class="fil4 str0" d="M10.34 7.13c0,0.4 -0.32,0.72 -0.72,0.72 -0.4,0 -0.72,-0.32 -0.72,-0.72 0,-0.4 0.72,-1.41 0.72,-1.41 0,0 0.72,1.01 0.72,1.41z"/>
  <line class="fil4 str0" x1="7.94" y1="9.19" x2="11.31" y2= "9.19" />
  <polygon class="fil1 str0" points="11.31,12.55 14.67,12.55 14.67,3.15 11.31,3.15 "/>
  <path class="fil4 str0" d="M13.71 7.13c0,0.4 -0.32,0.72 -0.72,0.72 -0.4,0 -0.72,-0.32 -0.72,-0.72 0,-0.4 0.72,-1.41 0.72,-1.41 0,0 0.72,1.01 0.72,1.41z"/>
  <line class="fil4 str0" x1="11.31" y1="9.19" x2="14.67" y2= "9.19" />
  <polygon class="fil1 str0" points="14.67,12.55 18.04,12.55 18.04,3.15 14.67,3.15 "/>
  <path class="fil4 str0" d="M17.08 7.13c0,0.4 -0.33,0.72 -0.72,0.72 -0.4,0 -0.73,-0.32 -0.73,-0.72 0,-0.4 0.73,-1.41 0.73,-1.41 0,0 0.72,1.01 0.72,1.41z"/>
  <line class="fil4 str0" x1="14.67" y1="9.19" x2="18.04" y2= "9.19" />
  <polyline class="fil4 str0" points="8.85,11.64 8.85,10.09 9.62,10.57 10.4,10.09 10.4,11.64 "/>
  <polyline class="fil4 str0" points="12.21,10.09 12.99,10.84 13.77,10.09 "/>
  <line class="fil4 str0" x1="12.99" y1="10.84" x2="12.99" y2= "11.64" />
  <line class="fil4 str0" x1="15.85" y1="10.09" x2="15.85" y2= "11.64" />
  <polyline class="fil4 str0" points="16.86,10.09 15.85,10.86 16.86,11.64 "/>
  <polygon class="fil5" points="7.31,3.15 7.31,12.55 7.94,12.26 7.94,3.15 "/>
  <polygon class="fil5" points="17.37,3.15 17.37,12.55 18,12.26 18,3.15 "/>
  <polygon class="fil5" points="14.03,3.15 14.03,12.55 14.66,12.26 14.66,3.15 "/>
  <polygon class="fil5" points="10.65,3.15 10.65,12.55 11.28,12.26 11.28,3.15 "/>
  <polygon class="fil6 str0" points="4.57,12.55 7.94,12.55 7.94,3.15 4.57,3.15 "/>
  <polygon class="fil6 str0" points="7.94,12.55 11.31,12.55 11.31,3.15 7.94,3.15 "/>
  <polygon class="fil6 str0" points="11.31,12.55 14.67,12.55 14.67,3.15 11.31,3.15 "/>
  <polygon class="fil6 str0" points="14.67,12.55 18.04,12.55 18.04,3.15 14.67,3.15 "/>
  <path class="fil3" d="M15.42 16.77l-0.47 0c-0.15,0 -0.26,-0.11 -0.26,-0.26 0,-0.14 0.11,-0.25 0.26,-0.25l0.47 0c0.14,0 0.26,0.11 0.26,0.25 0,0.15 -0.12,0.26 -0.26,0.26z"/>
  <path class="fil3" d="M13.84 16.77l-0.48 0c-0.14,0 -0.25,-0.11 -0.25,-0.26 0,-0.14 0.11,-0.25 0.25,-0.25l0.48 0c0.14,0 0.25,0.11 0.25,0.25 0,0.15 -0.11,0.26 -0.25,0.26z"/>
  <path class="fil3" d="M14.39 16.22c-0.14,0 -0.26,-0.12 -0.26,-0.26l0 -0.47c0,-0.15 0.12,-0.26 0.26,-0.26 0.14,0 0.26,0.11 0.26,0.26l0 0.47c0,0.14 -0.12,0.26 -0.26,0.26z"/>
  <path class="fil1" d="M19.01 11.21l-15.55 1.36c-0.42,0.04 -0.8,0.33 -1.07,0.84 -0.3,0.55 -0.43,1.27 -0.37,2.03 0.07,0.75 0.32,1.44 0.71,1.94 0.36,0.44 0.79,0.67 1.2,0.63l15.56 -1.36c0.41,-0.03 0.79,-0.33 1.07,-0.83 0.3,-0.56 0.43,-1.28 0.36,-2.03 -0.13,-1.48 -1.02,-2.66 -1.91,-2.58z"/>
  <path class="fil5" d="M19.01 11.21c0,0 1.57,1.8 0.73,3.98l-16.27 2.39c0,0 -0.81,0.55 1.16,0.37 1.97,-0.17 15.23,-1.4 15.23,-1.4 0,0 1.58,-1.11 1.06,-2.76 -0.52,-1.66 -0.43,-2.57 -1.91,-2.58z"/>
  <path class="fil1 str1" d="M3.56 13.71c-0.15,0.12 -0.5,0.67 -0.41,1.63 0.08,0.96 0.52,1.44 0.68,1.53 0.15,-0.12 0.5,-0.67 0.41,-1.62 -0.08,-0.96 -0.52,-1.44 -0.68,-1.54z"/>
  <path class="fil4 str2" d="M19.01 11.21l-15.55 1.36c-0.42,0.04 -0.8,0.33 -1.07,0.84 -0.3,0.55 -0.43,1.27 -0.37,2.03 0.07,0.75 0.32,1.44 0.71,1.94 0.36,0.44 0.79,0.67 1.2,0.63l15.56 -1.36c0.41,-0.03 0.79,-0.33 1.07,-0.83 0.3,-0.56 0.43,-1.28 0.36,-2.03 -0.13,-1.48 -1.02,-2.66 -1.91,-2.58z"/>
  <path class="fil3" d="M16.85 19.72c-0.12,0 -0.21,-0.1 -0.21,-0.21l0 -0.39c0,-0.12 0.09,-0.21 0.21,-0.21 0.12,0 0.21,0.09 0.21,0.21l0 0.39c0,0.11 -0.09,0.21 -0.21,0.21z"/>
  <path class="fil3" d="M17.69 18.88l-0.39 0c-0.11,0 -0.21,-0.1 -0.21,-0.21 0,-0.12 0.1,-0.22 0.21,-0.22l0.39 0c0.12,0 0.21,0.1 0.21,0.22 0,0.11 -0.09,0.21 -0.21,0.21z"/>
  <path class="fil3" d="M16.4 18.88l-0.39 0c-0.12,0 -0.21,-0.1 -0.21,-0.21 0,-0.12 0.09,-0.22 0.21,-0.22l0.39 0c0.11,0 0.21,0.1 0.21,0.22 0,0.11 -0.1,0.21 -0.21,0.21z"/>
  <path class="fil3" d="M16.85 18.42c-0.12,0 -0.21,-0.09 -0.21,-0.21l0 -0.39c0,-0.11 0.09,-0.21 0.21,-0.21 0.12,0 0.21,0.1 0.21,0.21l0 0.39c0,0.12 -0.09,0.21 -0.21,0.21z"/>
  <path class="fil3" d="M1.05 12.23c-0.11,0 -0.21,-0.1 -0.21,-0.21l0 -0.39c0,-0.12 0.1,-0.21 0.21,-0.21 0.12,0 0.21,0.09 0.21,0.21l0 0.39c0,0.11 -0.09,0.21 -0.21,0.21z"/>
  <path class="fil3" d="M1.89 11.38l-0.38 0c-0.12,0 -0.21,-0.09 -0.21,-0.21 0,-0.11 0.09,-0.21 0.21,-0.21l0.38 0c0.12,0 0.22,0.1 0.22,0.21 0,0.12 -0.1,0.21 -0.22,0.21z"/>
  <path class="fil3" d="M0.6 11.38l-0.39 0c-0.12,0 -0.21,-0.09 -0.21,-0.21 0,-0.11 0.09,-0.21 0.21,-0.21l0.39 0c0.12,0 0.21,0.1 0.21,0.21 0,0.12 -0.09,0.21 -0.21,0.21z"/>
  <path class="fil3" d="M1.05 10.93c-0.11,0 -0.21,-0.09 -0.21,-0.21l0 -0.39c0,-0.12 0.1,-0.21 0.21,-0.21 0.12,0 0.21,0.09 0.21,0.21l0 0.39c0,0.12 -0.09,0.21 -0.21,0.21z"/>
  <path class="fil3" d="M20.36 7.24c-0.11,0 -0.21,-0.1 -0.21,-0.21l0 -0.39c0,-0.12 0.1,-0.21 0.21,-0.21 0.12,0 0.21,0.09 0.21,0.21l0 0.39c0,0.11 -0.09,0.21 -0.21,0.21z"/>
  <path class="fil3" d="M21.2 6.39l-0.38 0c-0.12,0 -0.21,-0.09 -0.21,-0.21 0,-0.11 0.09,-0.21 0.21,-0.21l0.38 0c0.12,0 0.21,0.1 0.21,0.21 0,0.12 -0.09,0.21 -0.21,0.21z"/>
  <path class="fil3" d="M19.91 6.39l-0.39 0c-0.12,0 -0.21,-0.09 -0.21,-0.21 0,-0.11 0.09,-0.21 0.21,-0.21l0.39 0c0.11,0 0.21,0.1 0.21,0.21 0,0.12 -0.1,0.21 -0.21,0.21z"/>
  <path class="fil3" d="M20.36 5.94c-0.11,0 -0.21,-0.09 -0.21,-0.21l0 -0.39c0,-0.11 0.1,-0.21 0.21,-0.21 0.12,0 0.21,0.1 0.21,0.21l0 0.39c0,0.12 -0.09,0.21 -0.21,0.21z"/>
  <path class="fil3" d="M9.68 2.18c-0.12,0 -0.21,-0.09 -0.21,-0.21l0 -0.39c0,-0.11 0.09,-0.21 0.21,-0.21 0.11,0 0.21,0.1 0.21,0.21l0 0.39c0,0.12 -0.1,0.21 -0.21,0.21z"/>
  <path class="fil3" d="M10.52 1.34l-0.39 0c-0.12,0 -0.21,-0.09 -0.21,-0.21 0,-0.12 0.09,-0.21 0.21,-0.21l0.39 0c0.11,0 0.21,0.09 0.21,0.21 0,0.12 -0.1,0.21 -0.21,0.21z"/>
  <path class="fil3" d="M9.22 1.34l-0.39 0c-0.11,0 -0.21,-0.09 -0.21,-0.21 0,-0.12 0.1,-0.21 0.21,-0.21l0.39 0c0.12,0 0.21,0.09 0.21,0.21 0,0.12 -0.09,0.21 -0.21,0.21z"/>
  <path class="fil3" d="M9.68 0.89c-0.12,0 -0.21,-0.1 -0.21,-0.21l0 -0.39c0,-0.12 0.09,-0.21 0.21,-0.21 0.11,0 0.21,0.09 0.21,0.21l0 0.39c0,0.11 -0.1,0.21 -0.21,0.21z"/>
 </g>
</svg>
