<?xml version="1.0" encoding="UTF-8"?>
<!DOCTYPE svg PUBLIC "-//W3C//DTD SVG 1.1//EN" "http://www.w3.org/Graphics/SVG/1.1/DTD/svg11.dtd">
<!-- Creator: CorelDRAW -->
<svg xmlns="http://www.w3.org/2000/svg" xml:space="preserve" width="521px" height="194px" version="1.1" style="shape-rendering:geometricPrecision; text-rendering:geometricPrecision; image-rendering:optimizeQuality; fill-rule:evenodd; clip-rule:evenodd"
viewBox="0 0 770.62 286.95"
 xmlns:xlink="http://www.w3.org/1999/xlink"
 xmlns:xodm="http://www.corel.com/coreldraw/odm/2003">
 <defs>
  <style type="text/css">
   <![CDATA[
    .str0 {stroke:#373435;stroke-width:1.33;stroke-miterlimit:22.9256}
    .fil1 {fill:#F58634}
    .fil2 {fill:#ED3237}
    .fil0 {fill:#373435;fill-rule:nonzero}
   ]]>
  </style>
 </defs>
 <g id="Capa_x0020_1">
  <metadata id="CorelCorpID_0Corel-Layer"/>
  <g id="_2211571836352">
   <path class="fil0 str0" d="M109.34 280.96c0,2.14 1.16,4.03 3.61,4.03 3.99,0 4.96,-1.11 4.96,-4.03 0,-0.86 -0.45,-1.72 -0.71,-2.32l0 -14.96c16.48,-2.49 33.35,-12.54 33.35,-24.74 0,-6.62 -3.74,-9.71 -11.65,-9.71 -9.86,0 -17.97,4.38 -21.77,6.44l0 -1.2c0.65,-2.84 -0.7,-4.9 -3.73,-4.9 -1.35,0 -3.73,1.63 -3.73,4.21 0,0.86 0.19,1.72 0.38,2.24l0 2.92c-1.09,0.77 -1.86,2.23 -1.86,4.98 0,2.15 0.77,3.52 1.86,3.78l0 30.25c-0.51,1.03 -0.71,1.72 -0.71,3.01zm7.86 -37.38c6.44,-3.96 13.84,-6.45 19.57,-6.45 4.31,0 6.31,1.29 6.31,3.7 0,5.67 -11.97,13.14 -25.88,15.29l0 -12.54zm53.24 2.49c-13,0 -23.88,11.17 -23.88,26.38 0,9.28 6.89,13.66 11.91,13.66 7.66,0 11.78,-1.63 18.47,-8.16 2.06,-2.07 6.64,-8.42 6.64,-15.64 0,-6.19 -2.51,-16.24 -13.14,-16.24zm-1.16 7.13c5.22,0 7.21,4.3 7.21,9.62 0,3.96 -1.99,8.51 -5.66,11.78 -3.35,3 -6.5,4.38 -10.82,4.38 -3.09,0 -6.37,-2.84 -6.37,-7.91 0,-9.71 7.85,-17.87 15.64,-17.87zm21.51 24.92c-0.45,0.77 -0.71,1.46 -0.71,2.23 0,3.18 2.12,4.64 4.57,4.64 2.64,0 4.31,-2.4 4.31,-3.86 0,-1.12 -0.38,-1.98 -1.22,-2.92l0 -41.85c0.51,-1.12 0.97,-2.15 0.97,-3.78 0,-2.75 -2.07,-4.38 -3.93,-4.38 -3.74,0 -4.7,1.28 -4.7,5.15 0,1.03 0.38,2.24 0.71,3.1l0 41.67zm16.41 0c-0.45,0.77 -0.7,1.46 -0.7,2.23 0,3.18 2.12,4.64 4.57,4.64 2.64,0 4.31,-2.4 4.31,-3.86 0,-1.12 -0.39,-1.98 -1.22,-2.92l0 -41.85c0.51,-1.12 0.96,-2.15 0.96,-3.78 0,-2.75 -2.06,-4.38 -3.92,-4.38 -3.74,0 -4.7,1.28 -4.7,5.15 0,1.03 0.38,2.24 0.7,3.1l0 41.67zm37.79 -32.05c-13,0 -23.88,11.17 -23.88,26.38 0,9.28 6.89,13.66 11.91,13.66 7.66,0 11.78,-1.63 18.48,-8.16 2.06,-2.07 6.63,-8.42 6.63,-15.64 0,-6.19 -2.51,-16.24 -13.14,-16.24zm-1.15 7.13c5.21,0 7.21,4.3 7.21,9.62 0,3.96 -2,8.51 -5.67,11.78 -3.35,3 -6.5,4.38 -10.82,4.38 -3.09,0 -6.37,-2.84 -6.37,-7.91 0,-9.71 7.86,-17.87 15.65,-17.87zm41.97 -7.56c-9.53,0 -22.21,5.58 -22.21,15.9 0,5.07 2.96,8.07 7.15,8.07 3.67,0 6.69,-0.86 10.81,-1.97 3.93,-1.03 6.31,-1.98 8.44,-1.98 2.64,0 3.92,1.12 3.92,3.18 0,6.36 -10.3,10.14 -17.77,10.14 -2.57,0 -4.82,-1.38 -5.73,-2.32 0.07,-0.26 0.13,-0.52 0.13,-0.95 0,-0.68 -0.45,-2.14 -2.64,-2.14 -2.44,0 -3.54,1.89 -3.54,4.21 0,4.29 5.41,7.99 11.59,7.99 7.21,0 24.98,-4.3 24.98,-18.39 0,-6.02 -4.25,-8.68 -8.95,-8.68 -3.28,0 -6.18,0.95 -10.36,1.98 -3.74,1.03 -6.57,1.97 -8.57,1.97 -1.73,0 -2.44,-0.77 -2.44,-2.06 0,-4.21 7.4,-8.25 15.06,-8.25 5.09,0 5.54,0.69 5.86,1.29 0.32,0.52 0.58,1.03 2.13,1.03 1.86,0 2.89,-1.72 2.89,-3.69 0,-3.36 -4.12,-5.33 -10.75,-5.33zm60.07 6.7c5.92,-3.44 10.04,-8.25 10.04,-14.35 0,-6.27 -4.51,-10.14 -14.48,-10.14 -7.09,0 -12.24,4.04 -12.24,9.88 0,5.07 2.32,8.86 4.96,12.03 -6.44,3.61 -13.45,9.03 -13.45,20.37 0,11.6 6.37,16.15 14.09,16.15 8.89,0 15.91,-4.21 21.38,-11.17l5.86 7.13c0.13,1.81 1.22,2.5 2.38,2.5 2.96,0 7.02,-5.76 7.02,-8.68 0,-2.06 -1.03,-3.18 -2.38,-3.18 -1.49,0 -2.64,2.06 -3.35,2.06 -0.65,0 -4.06,-4.3 -5.35,-5.76 1.55,-2.23 3.09,-5.32 4,-7.64 1.15,-0.26 1.73,-1.81 1.73,-2.93 0,-2.23 -2.06,-4.55 -4.57,-4.55 -1.54,0 -2.38,1.12 -2.38,2.49 0.06,1.81 -0.64,3.61 -3.09,7.56l-10.17 -11.77zm-4.31 -17.7c4.76,0 7.4,1.12 7.4,3.7 0,3 -2.38,6.53 -7.6,9.02 -2.96,-3.18 -5.21,-6.36 -5.21,-8.85 0,-2.24 2.25,-3.87 5.41,-3.87zm10.36 35.4c-4.38,5.5 -10.75,8.51 -16.22,8.51 -3.74,0 -7.73,-3.09 -7.73,-9.02 0,-7.65 5.15,-11.26 10.69,-14.01l13.26 14.52zm39.98 10.92c0,2.14 1.16,4.03 3.61,4.03 3.99,0 4.95,-1.11 4.95,-4.03 0,-0.86 -0.45,-1.72 -0.71,-2.32l0 -14.96c16.49,-2.49 33.35,-12.54 33.35,-24.74 0,-6.62 -3.73,-9.71 -11.65,-9.71 -9.85,0 -17.96,4.38 -21.76,6.44l0 -1.2c0.64,-2.84 -0.71,-4.9 -3.73,-4.9 -1.36,0 -3.74,1.63 -3.74,4.21 0,0.86 0.2,1.72 0.39,2.24l0 2.92c-1.1,0.77 -1.87,2.23 -1.87,4.98 0,2.15 0.77,3.52 1.87,3.78l0 30.25c-0.52,1.03 -0.71,1.72 -0.71,3.01zm7.85 -37.38c6.44,-3.96 13.85,-6.45 19.58,-6.45 4.31,0 6.31,1.29 6.31,3.7 0,5.67 -11.98,13.14 -25.89,15.29l0 -12.54zm56.98 16.15c-19.57,1.03 -28.39,10.83 -28.39,19.08 0,5.24 3.99,7.3 7.92,7.3 7.53,0 13.78,-3.44 20.21,-10.57l0.2 0 0 3.95c-0.33,0.86 -0.65,1.47 -0.65,2.41 0,1.89 0.9,3.09 3.09,3.09 2.58,0 4.96,-0.94 4.96,-3.43 0,-0.95 -0.26,-1.98 -0.58,-2.32l0 -24.75c0,-5.24 -3.35,-8.59 -8.37,-8.59 -7.79,0 -13.9,1.97 -18.54,5.32 -1.35,-0.43 -3.03,1.98 -3.03,3.87 0,1.63 1.23,4.13 2.71,4.13 2.06,0 3.22,-1.72 3.09,-2.41 3.67,-2.41 8.24,-4.21 13.97,-4.21 2.32,0 3.41,1.2 3.41,3.61l0 3.52zm-0.06 8.08c0,3.01 -11.2,11.25 -17.97,11.25 -1.93,0 -3.15,-0.6 -3.15,-1.97 0,-3.78 7.73,-11 21.12,-11.77l0 2.49zm16.61 11.43c-0.52,0.43 -0.9,1.37 -0.9,2.32 0,2.14 1.15,3.43 3.6,3.43 3.74,0 5.02,-1.29 5.02,-3.95 0,-0.77 -0.38,-1.98 -0.77,-2.66l0 -14.09c5.02,-6.19 9.85,-9.29 11.72,-9.29 0.64,0 0.9,1.04 0.9,2.15 -0.13,0.6 -0.26,1.46 -0.26,2.32 0,1.29 1.22,2.41 3.41,2.41 2.38,0 3.8,-1.63 3.8,-4.38 0,-7.48 -2.25,-10.57 -4.63,-10.57 -4.83,0 -10.18,4.12 -14.81,8.85l-0.13 0 0 -3.87c0.39,-0.69 0.51,-1.37 0.51,-2.06 0,-2.06 -1.35,-3.26 -3.92,-3.26 -2.26,0 -4.12,1.63 -4.12,3.52l0.58 2.49 0 26.64zm31.41 0c-0.51,0.43 -0.9,1.37 -0.9,2.32 0,2.14 1.16,3.43 3.61,3.43 3.73,0 5.02,-1.29 5.02,-3.95 0,-0.77 -0.39,-1.98 -0.77,-2.66l0 -14.09c5.02,-6.19 9.85,-9.29 11.72,-9.29 0.64,0 0.9,1.04 0.9,2.15 -0.13,0.6 -0.26,1.46 -0.26,2.32 0,1.29 1.22,2.41 3.41,2.41 2.38,0 3.8,-1.63 3.8,-4.38 0,-7.48 -2.25,-10.57 -4.64,-10.57 -4.82,0 -10.17,4.12 -14.8,8.85l-0.13 0 0 -3.87c0.38,-0.69 0.51,-1.37 0.51,-2.06 0,-2.06 -1.35,-3.26 -3.92,-3.26 -2.26,0 -4.12,1.63 -4.12,3.52l0.57 2.49 0 26.64zm35.61 -49.15c-2.58,0 -4.12,3.43 -4.12,8.25 0,2.4 1.09,4.21 3.28,4.21 2.32,0 4.25,-2.93 4.25,-8.34 0,-2.58 -1.1,-4.12 -3.41,-4.12zm3.47 20.96c0,-1.97 -1.99,-4.12 -3.54,-4.12 -4.57,0 -4.7,2.58 -4.7,5.07 0,0.86 0.26,1.72 0.58,2.15l0 23.37c-0.26,0.43 -0.83,1.46 -0.83,3.18 0,3.09 1.41,4.29 3.21,4.29 2.32,0 5.54,-1.11 5.54,-4.38 0,-1.2 -0.51,-2.32 -0.96,-2.83l0 -23.72c0.12,-0.69 0.7,-1.63 0.7,-3.01zm8.76 27.07c-0.45,0.77 -0.71,1.46 -0.71,2.23 0,3.18 2.12,4.64 4.57,4.64 2.64,0 4.32,-2.4 4.32,-3.86 0,-1.12 -0.39,-1.98 -1.23,-2.92l0 -41.85c0.52,-1.12 0.97,-2.15 0.97,-3.78 0,-2.75 -2.06,-4.38 -3.93,-4.38 -3.73,0 -4.7,1.28 -4.7,5.15 0,1.03 0.39,2.24 0.71,3.1l0 41.67zm16.42 0c-0.45,0.77 -0.71,1.46 -0.71,2.23 0,3.18 2.12,4.64 4.57,4.64 2.64,0 4.31,-2.4 4.31,-3.86 0,-1.12 -0.38,-1.98 -1.22,-2.92l0 -41.85c0.51,-1.12 0.96,-2.15 0.96,-3.78 0,-2.75 -2.06,-4.38 -3.92,-4.38 -3.74,0 -4.7,1.28 -4.7,5.15 0,1.03 0.38,2.24 0.71,3.1l0 41.67zm41.33 -18.39c-19.57,1.03 -28.39,10.83 -28.39,19.08 0,5.24 3.99,7.3 7.92,7.3 7.53,0 13.77,-3.44 20.21,-10.57l0.19 0 0 3.95c-0.32,0.86 -0.64,1.47 -0.64,2.41 0,1.89 0.9,3.09 3.09,3.09 2.58,0 4.96,-0.94 4.96,-3.43 0,-0.95 -0.26,-1.98 -0.58,-2.32l0 -24.75c0,-5.24 -3.35,-8.59 -8.37,-8.59 -7.79,0 -13.91,1.97 -18.54,5.32 -1.36,-0.43 -3.03,1.98 -3.03,3.87 0,1.63 1.22,4.13 2.71,4.13 2.06,0 3.21,-1.72 3.09,-2.41 3.67,-2.41 8.24,-4.21 13.97,-4.21 2.31,0 3.41,1.2 3.41,3.61l0 3.52zm-0.07 8.08c0,3.01 -11.2,11.25 -17.96,11.25 -1.93,0 -3.15,-0.6 -3.15,-1.97 0,-3.78 7.72,-11 21.11,-11.77l0 2.49zm37.09 -22.17c-9.53,0 -22.21,5.58 -22.21,15.9 0,5.07 2.96,8.07 7.14,8.07 3.67,0 6.7,-0.86 10.82,-1.97 3.92,-1.03 6.31,-1.98 8.43,-1.98 2.64,0 3.93,1.12 3.93,3.18 0,6.36 -10.3,10.14 -17.77,10.14 -2.58,0 -4.83,-1.38 -5.73,-2.32 0.06,-0.26 0.13,-0.52 0.13,-0.95 0,-0.68 -0.45,-2.14 -2.64,-2.14 -2.45,0 -3.54,1.89 -3.54,4.21 0,4.29 5.41,7.99 11.59,7.99 7.21,0 24.98,-4.3 24.98,-18.39 0,-6.02 -4.25,-8.68 -8.95,-8.68 -3.29,0 -6.18,0.95 -10.37,1.98 -3.73,1.03 -6.57,1.97 -8.56,1.97 -1.74,0 -2.45,-0.77 -2.45,-2.06 0,-4.21 7.41,-8.25 15.07,-8.25 5.08,0 5.54,0.69 5.86,1.29 0.32,0.52 0.58,1.03 2.12,1.03 1.87,0 2.9,-1.72 2.9,-3.69 0,-3.36 -4.12,-5.33 -10.75,-5.33z"/>
   <path class="fil1" d="M713.62 154.96c-13.56,36.19 -31.27,71.57 -76.37,71.57 -19.92,0 -43.44,-10.07 -43.44,-32.65 0,-13.61 10.52,-25.04 24.63,-25.04 25.73,0 18.54,28.84 29.88,28.84 7.47,0 10.79,-7.07 10.79,-13.33 0,-7.62 -5.53,-17.96 -8.85,-24.77l-38.74 -79.73c-5.25,-10.89 -21.03,-7.62 -21.03,-20.14 0,-8.16 4.98,-20.14 63.37,-20.14 10.51,0 35.41,1.09 35.41,16.6 0,7.35 -6.36,9.53 -6.36,16.06 0,10.34 12.17,29.39 16.88,29.39 8.3,0 14.11,-18.78 14.11,-25.31 0,-12.25 -8.86,-11.43 -8.86,-20.68 0,-14.43 26.02,-16.06 35.98,-16.06 9.12,0 29.6,1.36 29.6,13.88 0,16.05 -16.6,8.98 -26.28,25.03 -6.09,9.53 -10.52,21.5 -14.39,32.12l-16.33 44.36z"/>
   <path class="fil2" d="M105.98 110.02c2.56,0 10.24,0.51 10.24,-3.33 0,-3.85 -7.42,-17.19 -9.47,-20.78 -2.31,-4.1 -6.66,-13.59 -12.29,-13.59 -6.14,0 -10.49,15.39 -11.52,18.21 -1.03,2.82 -5.38,12.82 -5.38,15.9 0,4.36 6.41,3.59 9.22,3.59l19.2 0zm-53.76 -18.47c7.94,-17.69 18.43,-40.26 18.43,-60.52 0,-17.69 8.2,-31.03 30.98,-31.03 22.27,0 36.35,22.82 46.33,39.75 4.35,7.44 43.01,85.91 52.23,106.94 8.44,19.5 22.27,7.7 22.27,22.32 0,18.72 -36.36,17.95 -49.16,17.95 -36.6,0 -58.62,-0.26 -58.62,-16.16 0,-12.31 15.62,-7.69 15.62,-16.67 0,-11.54 -6.4,-12.57 -47.61,-12.57 -13.32,0 -21.25,0.52 -21.25,13.08 0,10 16.38,3.34 16.38,16.67 0,15.39 -27.65,15.65 -37.89,15.65 -36.6,0 -39.93,-6.93 -39.93,-15.13 0,-12.06 13.82,-8.47 21.25,-17.7 5.63,-6.92 11,-19.23 14.84,-27.44l16.13 -35.14z"/>
   <path class="fil2" d="M329.35 99.8c-11.76,0 -13.09,9.41 -13.09,18.3 0,50.73 2.94,54.91 13.62,54.91 17.64,0 20.57,-19.61 20.57,-32.94 0,-12.3 -3.47,-40.27 -21.1,-40.27zm-13.63 -28.24c0,1.3 -0.26,4.18 1.87,4.18 1.34,0 5.61,-4.18 12.56,-8.11 6.95,-4.18 16.3,-8.1 28.05,-8.1 28.32,0 52.36,23.27 52.36,57.79 0,44.71 -34.19,79.49 -80.14,79.49 -33.66,0 -49.43,-17 -53.7,-17 -4.27,0 -8.55,3.92 -17.36,3.92 -3.75,0 -8.02,-1.04 -8.02,-5.23 0,-4.18 5.34,-12.55 5.34,-46.54l0 -69.55c0,-15.17 -20.04,-8.37 -20.04,-23.28 0,-17.52 51.83,-29.28 74.01,-29.28 7.21,0 6.94,5.48 6.68,11.24l-1.61 50.47z"/>
   <path class="fil1" d="M500.15 102.41c-11.76,0 -13.1,9.41 -13.1,18.3 0,50.73 2.94,54.92 13.63,54.92 17.63,0 20.57,-19.62 20.57,-32.95 0,-12.29 -3.47,-40.27 -21.1,-40.27zm-13.63 -28.24c0,1.31 -0.27,4.18 1.87,4.18 1.34,0 5.61,-4.18 12.55,-8.1 6.95,-4.19 16.3,-8.11 28.06,-8.11 28.31,0 52.36,23.28 52.36,57.79 0,44.71 -34.19,79.49 -80.15,79.49 -33.66,0 -49.42,-16.99 -53.7,-16.99 -4.27,0 -8.54,3.92 -17.36,3.92 -3.74,0 -8.01,-1.05 -8.01,-5.23 0,-4.19 5.34,-12.56 5.34,-46.55l0 -69.55c0,-15.17 -20.04,-8.37 -20.04,-23.28 0,-17.51 51.83,-29.28 74,-29.28 7.22,0 6.95,5.49 6.68,11.24l-1.6 50.47z"/>
  </g>
 </g>
</svg>
