<?xml version="1.0" encoding="UTF-8"?>
<!DOCTYPE svg PUBLIC "-//W3C//DTD SVG 1.1//EN" "http://www.w3.org/Graphics/SVG/1.1/DTD/svg11.dtd">
<!-- Creator: CorelDRAW -->
<svg xmlns="http://www.w3.org/2000/svg" xml:space="preserve" width="582px" height="204px" version="1.1" style="shape-rendering:geometricPrecision; text-rendering:geometricPrecision; image-rendering:optimizeQuality; fill-rule:evenodd; clip-rule:evenodd"
viewBox="0 0 155.95 54.58"
 xmlns:xlink="http://www.w3.org/1999/xlink"
 xmlns:xodm="http://www.corel.com/coreldraw/odm/2003">
 <defs>
  <style type="text/css">
   <![CDATA[
    .fil1 {fill:#ED3237}
    .fil0 {fill:#5D5D5E;fill-rule:nonzero}
   ]]>
  </style>
 </defs>
 <g id="Capa_x0020_1">
  <metadata id="CorelCorpID_0Corel-Layer"/>
  <g id="_2211567501440">
   <path class="fil0" d="M71.02 17.86c-0.29,0.12 -0.69,0.24 -1.16,0.36 -0.48,0.1 -0.95,0.16 -1.41,0.16 -1.07,0 -1.92,-0.3 -2.56,-0.92 -0.64,-0.61 -0.96,-1.48 -0.96,-2.61 0,-1.07 0.32,-1.91 0.96,-2.55 0.64,-0.64 1.49,-0.97 2.61,-0.97 0.57,0 1.03,0.06 1.39,0.17 0.36,0.11 0.72,0.25 1.11,0.44l0 1.58 -0.16 0c-0.09,-0.06 -0.2,-0.15 -0.35,-0.26 -0.16,-0.13 -0.31,-0.22 -0.46,-0.31 -0.16,-0.09 -0.36,-0.17 -0.59,-0.24 -0.22,-0.08 -0.45,-0.11 -0.71,-0.11 -0.3,0 -0.56,0.04 -0.8,0.14 -0.24,0.08 -0.46,0.23 -0.65,0.41 -0.17,0.19 -0.32,0.42 -0.42,0.7 -0.1,0.28 -0.16,0.6 -0.16,0.98 0,0.78 0.2,1.37 0.6,1.74 0.4,0.38 0.94,0.57 1.64,0.57 0.06,0 0.13,0 0.22,-0.01 0.08,0 0.15,0 0.2,-0.02l0 -1.32 -1.31 0 0 -1.27 2.97 0 0 3.34z"/>
   <path class="fil0" d="M81.17 14.01c-0.05,0.12 -0.13,0.22 -0.24,0.31 -0.12,0.08 -0.26,0.15 -0.43,0.18 -0.17,0.03 -0.36,0.04 -0.6,0.04l-0.49 0 0 -1.82 0.57 0c0.19,0 0.35,0 0.49,0.01 0.13,0.01 0.25,0.04 0.35,0.09 0.15,0.07 0.26,0.16 0.33,0.28 0.06,0.13 0.09,0.28 0.09,0.44 0,0.19 -0.02,0.35 -0.07,0.47zm0.54 1.35c0.39,-0.19 0.71,-0.45 0.95,-0.77 0.23,-0.33 0.34,-0.74 0.34,-1.27 0,-0.36 -0.07,-0.66 -0.21,-0.9 -0.14,-0.24 -0.34,-0.43 -0.58,-0.59 -0.24,-0.15 -0.49,-0.25 -0.77,-0.29 -0.29,-0.05 -0.62,-0.07 -0.99,-0.07l-2.75 0 0 6.78 1.71 0 0 -2.49 0.61 0 1.89 2.49 2.09 0 -2.29 -2.89z"/>
   <path class="fil0" d="M93.73 18.38c-0.91,0 -1.62,-0.21 -2.11,-0.66 -0.5,-0.43 -0.74,-1.08 -0.74,-1.92l0 -4.33 1.71 0 0 4.23c0,0.47 0.09,0.82 0.27,1.04 0.17,0.24 0.47,0.35 0.87,0.35 0.39,0 0.69,-0.11 0.87,-0.33 0.18,-0.22 0.27,-0.57 0.27,-1.06l0 -4.23 1.72 0 0 4.32c0,0.84 -0.25,1.48 -0.73,1.93 -0.48,0.45 -1.19,0.66 -2.13,0.66z"/>
   <path class="fil0" d="M107.41 14.14c-0.05,0.12 -0.12,0.24 -0.23,0.35 -0.06,0.06 -0.14,0.1 -0.24,0.15 -0.11,0.04 -0.2,0.07 -0.29,0.08 -0.11,0.02 -0.24,0.03 -0.38,0.03 -0.15,0.01 -0.3,0.01 -0.45,0.01l-0.12 0 0 -2.03 0.24 0c0.25,0 0.45,0 0.6,0.01 0.15,0.01 0.3,0.06 0.46,0.13 0.13,0.05 0.24,0.14 0.34,0.28 0.08,0.14 0.13,0.31 0.13,0.5 0,0.21 -0.02,0.37 -0.06,0.49zm1.61 -1.55c-0.14,-0.28 -0.35,-0.51 -0.6,-0.67 -0.23,-0.16 -0.49,-0.27 -0.77,-0.35 -0.29,-0.07 -0.63,-0.1 -1.02,-0.1l-2.64 0 0 6.78 1.71 0 0 -2.23 0.89 0c0.24,0 0.46,-0.01 0.67,-0.05 0.19,-0.03 0.38,-0.1 0.54,-0.17 0.17,-0.07 0.32,-0.15 0.46,-0.25 0.14,-0.1 0.27,-0.21 0.39,-0.33 0.18,-0.18 0.32,-0.43 0.42,-0.71 0.11,-0.29 0.16,-0.59 0.16,-0.9 0,-0.4 -0.08,-0.73 -0.21,-1.02z"/>
   <path class="fil0" d="M120.9 15.88c-0.08,0.27 -0.19,0.49 -0.34,0.69 -0.14,0.19 -0.3,0.32 -0.49,0.41 -0.19,0.08 -0.37,0.13 -0.58,0.13 -0.19,0 -0.39,-0.04 -0.58,-0.13 -0.19,-0.07 -0.35,-0.21 -0.49,-0.39 -0.15,-0.19 -0.27,-0.42 -0.35,-0.7 -0.08,-0.27 -0.12,-0.62 -0.12,-1.03 0,-0.41 0.04,-0.75 0.13,-1.05 0.09,-0.29 0.21,-0.52 0.34,-0.7 0.16,-0.19 0.33,-0.32 0.49,-0.39 0.18,-0.08 0.36,-0.12 0.58,-0.12 0.19,0 0.39,0.04 0.58,0.12 0.18,0.08 0.34,0.22 0.49,0.41 0.14,0.18 0.25,0.41 0.33,0.69 0.09,0.29 0.12,0.63 0.12,1.03 0,0.43 -0.03,0.77 -0.11,1.03zm1 -3.61c-0.58,-0.63 -1.39,-0.94 -2.41,-0.94 -1.03,0 -1.84,0.32 -2.42,0.94 -0.59,0.64 -0.89,1.5 -0.89,2.59 0,1.08 0.3,1.94 0.89,2.57 0.58,0.64 1.39,0.95 2.42,0.95 1.02,0 1.83,-0.3 2.41,-0.93 0.59,-0.63 0.89,-1.49 0.89,-2.59 0,-1.1 -0.3,-1.96 -0.89,-2.59z"/>
   <path class="fil0" d="M152.23 37.48l0.77 -5.48c0.63,-3.84 2,-8.34 0.82,-11.65 -0.81,-2.23 -4.38,-3.51 -7.52,-4.05 -4.4,-0.75 -6.4,-0.99 -10.04,-1.41 -1.16,-0.14 -2.49,-0.3 -4.13,-0.5l-0.27 -0.03 -0.14 -0.25c-5.28,-10.38 -18.92,-12.84 -31.7,-13.25l-4.05 -0.27 4.06 -0.41c1.87,-0.04 3.48,-0.2 5.09,-0.18 10.18,0.17 22.97,2.74 28.17,12.64 1.54,0.19 2.84,0.34 4,0.49 3.74,0.42 6,0.68 10.1,1.41 3.07,0.63 6.89,2.01 7.78,4 1.97,4.4 -0.3,10.75 -1.13,13.65l-1.81 5.29z"/>
   <path class="fil0" d="M131.82 54.58c-4.33,0 -8.34,-2.53 -10.08,-6.32l-52.01 -1.19 15.36 -0.84 35.44 -0.01c0.04,0 0.73,0.05 0.93,0.02 0.22,-0.05 0.81,-0.14 0.81,-0.14l0.45 -0.06 0.13 0.43c1.09,3.58 5.03,6.38 8.97,6.38 3.61,0 7.36,-1.1 10.42,-6.02 -0.94,4.27 -5.62,7.75 -10.42,7.75z"/>
   <path class="fil1" d="M13.81 31.02l3.21 -6.61 0.88 6.61 -4.09 0zm93.76 2.96l0 1.12c0,0.95 0.53,1.39 1.5,1.39 2.08,0 3.17,-3.07 3.17,-5.29l0 -0.74c0,-0.7 -0.24,-1.39 -0.94,-1.39l-0.74 0c-1.8,0 -2.99,3.01 -2.99,4.91zm4.48 8.55c-2.48,0.84 -5.33,0.8 -7.74,-0.29 -0.95,-0.42 -1.38,-0.86 -2.07,-1.55 -1.05,-1.04 -2.12,-3.01 -2.12,-5.04l0 -1.57c0,-4.87 3.46,-9.89 7.97,-11.25 1.85,-0.55 4.72,-0.62 6.54,0.03 1.33,0.48 2.59,1.32 3.21,2.01 1.12,1.21 1.94,3.3 1.94,5.59 0,3.41 -1.18,6.72 -2.77,8.56 -0.9,1.04 -1.8,1.97 -3.01,2.67 -0.6,0.34 -1.2,0.59 -1.95,0.84zm33.53 0.14c-2.35,0.48 -4.81,0.75 -7.09,-0.21 -0.46,-0.2 -1.31,-0.78 -1.57,-1.13 -0.8,-1.01 -1.38,-2.14 -1.38,-3.91l0 -0.09 1.18 -8.08c-0.66,-0.01 -1.46,-0.61 -1.46,-1.3 0,-0.99 0.29,-2.53 0.48,-3.5 0.27,-1.36 0.46,-1.78 2.13,-1.78 0,-0.36 0.29,-1.87 0.4,-2.2 0.29,-0.84 0.6,-0.89 1.41,-1.2 0.32,-0.12 1.42,-0.52 2.37,-0.84 0.96,-0.31 2.47,-0.84 3.26,0.08 0.26,0.3 0.44,0.68 0.39,1.01l-0.46 3.24 2.79 0c2.14,0 1.1,3.29 0.95,4.43 -0.14,1.01 -0.38,2.06 -1.69,2.06l-3.18 0 -0.95 5.7c-0.1,0.63 -0.42,1.36 0.37,1.36l0.3 0c0.47,0 0.86,-0.21 1.22,-0.39 0.52,-0.27 1.29,-0.42 1.84,-0.14 0.45,0.23 0.85,0.74 0.85,1.18l0 0.74c0,0.7 -0.51,3.68 -0.74,4.08 -0.3,0.54 -0.84,0.77 -1.42,0.89zm-56.83 -19.45c-0.29,-0.15 -0.66,-0.46 -1.03,-0.46l-3.26 0c-1.75,0 -1.66,2.14 -1.92,3.66 -0.3,1.66 -2.16,12.72 -2.37,14.62l0 0.37c0,0.58 0.72,1.3 1.3,1.3l4.38 0c1.98,0 1.94,-4.02 2.27,-5.82 0.18,-1.08 0.4,-2.36 0.6,-3.49 0.16,-0.91 0.39,-1.82 0.49,-2.75 0.07,-0.59 0.13,-0.85 0.93,-1.26 0.26,-0.12 0.54,-0.23 0.75,-0.23l0.68 0c1.45,0 0.77,2.05 0.61,3.04l-1.12 6.82c-0.16,1 -0.88,3.69 1.04,3.69l4.38 0c1.41,0 1.45,-1.23 1.72,-2.37 0.26,-1.13 0.37,-2.45 0.57,-3.61 0.26,-1.46 0.67,-3.31 0.89,-5.05 0.2,-1.52 0.46,-3.68 -0.15,-5.14 -0.42,-0.98 -1.14,-1.86 -1.7,-2.41 -0.78,-0.78 -1.83,-1.34 -3.19,-1.56 -1.4,-0.22 -3.21,-0.19 -4.57,0.17 -0.48,0.13 -0.91,0.29 -1.3,0.48zm-52.77 19.86c-2.02,0 -4.42,0 -5.99,-1.56 -2.16,-2.12 -1.81,-5.38 -1.37,-8.12 0.25,-1.58 0.61,-3.24 0.81,-4.45 0.21,-1.24 0.4,-2.36 0.6,-3.58 0.17,-1.09 0.32,-2.61 1.58,-2.61l4.46 0c0.77,0 1.4,0.77 1.4,1.57l0 0.47 -1.47 8.89c-0.2,1.21 -0.66,2.51 0.2,2.69 0.7,0.15 2.38,-0.5 2.74,-1.15 0.94,-1.7 1.45,-7.41 1.61,-9.32 0.11,-1.2 0.42,-3.15 1.68,-3.15l4.48 0c0.7,0 1.4,0.7 1.4,1.48l0 0.28c0,1.3 -0.55,3.52 -0.75,4.83 -0.25,1.55 -1.34,8.02 -1.58,9.48 -0.19,1.18 -0.39,3.88 -1.59,3.88l-4.76 0c-0.36,0 -0.64,-0.2 -0.83,-0.37l-2.62 0.74zm92.57 -20.04c-0.31,0 -0.4,-0.28 -0.84,-0.28l-4.48 0c-1.59,0 -1.45,2.26 -1.79,3.6 -0.33,1.29 -0.57,3.32 -0.81,4.67 -0.27,1.63 -0.5,3.11 -0.76,4.71 -0.15,0.88 -0.43,2.18 -0.61,3.33 -0.17,1.15 -0.58,3.64 1.27,3.64l4.29 0c1.4,0 1.57,-1.65 1.77,-2.88 0.21,-1.36 0.44,-2.74 0.65,-4.08 0.21,-1.33 0.43,-2.64 0.66,-3.99 0.12,-0.73 0.82,-1.95 1.57,-2.41 0.4,-0.26 1.29,-0.3 1.72,-0.07 0.13,0.06 0.24,0.14 0.37,0.23 0.5,0.3 1.37,0.33 1.85,-0.04 1.23,-0.96 1.34,-2.04 1.58,-3.45l0.36 -2.15 0 -0.46c0,-0.36 -0.64,-0.63 -1.3,-0.79 -1.13,-0.27 -2.72,-0.29 -3.87,-0.05 -0.75,0.15 -1.55,0.47 -1.63,0.47zm-59.9 10.97l0 1.12c0,0.95 0.54,1.39 1.5,1.39 2.08,0 3.17,-3.08 3.17,-5.29l0 -0.74c0,-0.7 -0.24,-1.39 -0.94,-1.39l-0.74 0c-1.8,0 -2.99,3.01 -2.99,4.91zm4.49 8.55c-2.49,0.83 -5.34,0.79 -7.75,-0.29 -0.94,-0.42 -1.38,-0.87 -2.07,-1.56 -1.05,-1.04 -2.12,-3 -2.12,-5.03l0 -1.57c0,-4.87 3.46,-9.89 7.97,-11.25 1.85,-0.55 4.72,-0.63 6.55,0.02 1.33,0.48 2.59,1.33 3.21,2.02 1.11,1.21 1.93,3.3 1.93,5.59 0,3.41 -1.18,6.72 -2.77,8.56 -0.89,1.03 -1.79,1.97 -3,2.66 -0.61,0.35 -1.21,0.6 -1.95,0.85zm-14.54 0.11c0.59,-0.12 1.14,-0.35 1.44,-0.89 0.23,-0.4 0.74,-3.38 0.74,-4.08l0 -0.74c0,-0.44 -0.41,-0.95 -0.86,-1.18 -0.55,-0.28 -1.32,-0.13 -1.84,0.14 -0.36,0.18 -0.76,0.39 -1.22,0.39l-0.3 0c-0.79,0 -0.47,-0.73 -0.37,-1.36l0.95 -5.7 3.18 0c1.31,0 1.55,-1.05 1.69,-2.06 0.15,-1.14 1.18,-4.43 -0.95,-4.43l-2.78 0 0.45 -3.24c0.05,-0.33 -0.13,-0.71 -0.39,-1.01 -0.8,-0.92 -2.3,-0.39 -3.26,-0.08 -0.96,0.32 -2.05,0.72 -2.37,0.84 -0.81,0.31 -1.13,0.36 -1.4,1.2 -0.12,0.33 -0.41,1.84 -0.41,2.2 -1.67,0 -1.86,0.42 -2.12,1.78 -0.19,0.97 -0.49,2.51 -0.49,3.5 0,0.69 0.8,1.29 1.46,1.3l-1.18 8.08 0 0.09c0,1.77 0.58,2.9 1.38,3.91 0.27,0.35 1.12,0.93 1.57,1.13 2.28,0.96 4.74,0.69 7.08,0.21zm-58.23 0.41l7.46 0c0.6,-0.82 2.65,-4.75 2.89,-5.75l8.02 0c0.01,0.71 0.73,4.71 1.12,5.75l7.64 0c0.17,-0.14 0.37,-0.2 0.37,-0.46l0 -0.1c0,-0.9 -0.35,-2.69 -0.52,-3.66 -0.22,-1.24 -0.39,-2.42 -0.59,-3.67 -0.38,-2.37 -0.81,-4.5 -1.22,-7.23 -0.15,-1.09 -2.12,-13.36 -2.7,-14.2l-8.01 0c-0.75,0.64 -6.59,12.35 -7.52,14.23 -0.78,1.55 -7.31,14.02 -7.31,14.44l0 0.19c0,0.26 0.21,0.32 0.37,0.46z"/>
  </g>
 </g>
</svg>
