<?xml version="1.0" encoding="UTF-8"?>
<!DOCTYPE svg PUBLIC "-//W3C//DTD SVG 1.1//EN" "http://www.w3.org/Graphics/SVG/1.1/DTD/svg11.dtd">
<!-- Creator: CorelDRAW -->
<svg xmlns="http://www.w3.org/2000/svg" xml:space="preserve" width="530px" height="77px" version="1.1" style="shape-rendering:geometricPrecision; text-rendering:geometricPrecision; image-rendering:optimizeQuality; fill-rule:evenodd; clip-rule:evenodd"
viewBox="0 0 257.29 37.31"
 xmlns:xlink="http://www.w3.org/1999/xlink"
 xmlns:xodm="http://www.corel.com/coreldraw/odm/2003">
 <defs>
  <style type="text/css">
   <![CDATA[
    .fil0 {fill:#FEFEFE}
    .fil3 {fill:#2C824A}
    .fil2 {fill:#109091}
    .fil1 {fill:url(#id5)}
   ]]>
  </style>
     <clipPath id="id0">
      <rect x="128.8" y="0.85" width="15.95" height="35.34"/>
     </clipPath>
      <clipPath id="id1">
       <rect x="128.8" y="0.85" width="15.95" height="35.34"/>
      </clipPath>
     <clipPath id="id2">
      <path d="M133.41 11.68l6.74 0 0 23.32c-0.88,0.02 -1.8,0.03 -2.75,0.03 -1.41,0 -2.75,-0.02 -3.99,-0.05l0 -23.3z"/>
     </clipPath>
     <clipPath id="id3">
      <path d="M132.56 8.95l1.7 0 0 26.05c-0.59,-0.01 -1.16,-0.03 -1.7,-0.04l0 -26.01z"/>
     </clipPath>
     <clipPath id="id4">
      <path d="M132.89 10.86l7.86 0 0 24.13c-1.05,0.02 -2.18,0.04 -3.35,0.04 -1.61,0 -3.14,-0.03 -4.51,-0.06l0 -24.11z"/>
     </clipPath>
  <linearGradient id="id5" gradientUnits="userSpaceOnUse" x1="133.41" y1="23.42" x2="140.15" y2="23.42">
   <stop offset="0" style="stop-opacity:1; stop-color:#088286"/>
   <stop offset="0.129412" style="stop-opacity:1; stop-color:#007479"/>
   <stop offset="0.490196" style="stop-opacity:1; stop-color:#007075"/>
   <stop offset="0.741176" style="stop-opacity:1; stop-color:#007177"/>
   <stop offset="1" style="stop-opacity:1; stop-color:#00767C"/>
  </linearGradient>
 </defs>
 <g id="Capa_x0020_1">
  <metadata id="CorelCorpID_0Corel-Layer"/>
  <g id="_2211565218176">
   <path class="fil0" d="M130.96 1.24c-0.44,0.07 -1.26,0.5 -1.42,0.86 -0.09,0 -0.03,-0.06 -0.13,0.04 -0.13,0.14 -0.06,0.01 -0.09,0.24 -0.12,0 -0.05,-0.1 -0.2,0.15 -0.41,0.66 0.18,0.73 1.17,1.54 0.55,0.45 1.36,1.13 1.69,1.78 0,0.36 0.05,0.49 0.06,0.79 0.05,1.8 0,4.58 0,6.42l0 14.72c0,0.97 0.11,6.98 -0.06,7.33 -0.09,0.13 -0.15,0.13 -0.33,0.18 -0.1,0.03 -0.32,0.07 -0.42,0.09 -0.52,0.1 -1.71,0.28 -2.12,0.43 -0.19,0.07 -0.26,0.08 -0.31,0.27 0.25,0.05 1.14,0.09 2.32,0.11l9.66 0 2.91 0c0.4,-0.02 0.75,-0.05 1.01,-0.11l0 -0.18c-0.22,-0.05 -0.29,-0.12 -0.75,-0.22 -0.63,-0.13 -1.9,-0.26 -2.38,-0.51 0,-11.19 -0.05,-22.52 0,-33.7 0,-0.48 0.03,-0.22 0.13,-0.45 0.05,-0.12 0.02,-0.16 -0.06,-0.17l-0.29 0 -0.08 0 -0.08 0 -0.09 0 -0.08 0 -0.09 0 -0.08 0 -0.09 0 -0.08 0 -0.08 0 -0.09 0 -0.08 0 -0.09 0 -0.08 0 -0.09 0 -0.08 0 -0.09 0 -0.08 0 -0.08 0 -0.09 0 -0.08 0 -0.09 0 -0.08 0 -0.09 0 -0.08 0 -0.08 0 -0.09 0 -0.08 0 -0.09 0 -0.08 0 -0.09 0 -0.08 0 -0.08 0 -0.09 0 -0.08 0 -0.09 0 -0.08 0 -0.09 0 -0.08 0 -0.09 0 -0.08 0 -0.08 0 -0.09 0 -0.08 0 -0.09 0 -0.08 0 -0.09 0 -0.08 0 -0.08 0 -0.09 0 -0.08 0 -0.09 0 -0.08 0 -0.09 0 -0.08 0 -0.09 0 -0.08 0 -0.08 0 -0.09 0 -0.08 0 -0.09 0 -0.08 0 -0.09 0 -0.08 0 -0.08 0 -0.05 0c-0.88,0 -1.76,0 -2.65,0l-0.06 0c-0.58,0 -2.03,0.16 -2.24,0.39z"/>
   <g>
    <g style="clip-path:url(#id0)">
     <image id="_1000.psd" style="clip-path:url(#id1)" x="125.7" y="0.85" width="19.05" height="35.34" xlink:href="CADILAD_Images\CADILAD_ImgID1.png"/>
    </g>
    <path class="fil1" d="M133.41 11.39c2.25,0 4.5,0 6.74,0 -0.95,6.28 -0.69,15.69 -0.68,23.62 -0.67,0.01 -1.36,0.02 -2.07,0.02 -1.41,0 -2.75,-0.02 -3.99,-0.05l0 -23.59z"/>
    <image x="133.41" y="11.39" width="6.74" height="23.64" xlink:href="CADILAD_Images\CADILAD_ImgID2.png"/>
    <g style="clip-path:url(#id2)">
     <image x="133.41" y="11.68" width="6.74" height="23.77" xlink:href="CADILAD_Images\CADILAD_ImgID3.png"/>
    </g>
    <g style="clip-path:url(#id3)">
     <image x="132.56" y="8.95" width="1.7" height="26.51" xlink:href="CADILAD_Images\CADILAD_ImgID4.png"/>
    </g>
    <g style="clip-path:url(#id4)">
     <image x="132.89" y="10.86" width="7.87" height="25.35" xlink:href="CADILAD_Images\CADILAD_ImgID5.png"/>
    </g>
   </g>
   <path class="fil2" d="M9.68 24.4c-0.81,-1.99 -1.27,-4.16 -1.34,-6.32 -0.08,-2.2 0.23,-4.39 0.95,-6.4 0.68,-1.88 1.73,-3.6 3.16,-5.01l0.04 -0.04c0.69,-0.68 1.36,-1.27 2.04,-1.78 0.69,-0.5 1.38,-0.92 2.14,-1.25 0.75,-0.33 1.56,-0.58 2.47,-0.75 0.91,-0.17 1.93,-0.25 3.09,-0.25 0.93,0 1.89,0.05 2.83,0.16 0.92,0.11 1.83,0.27 2.69,0.48 0.82,0.2 1.59,0.45 2.3,0.74 0.66,0.28 1.26,0.59 1.77,0.95 0.58,0.39 1.1,0.83 1.57,1.3 0.47,0.47 0.89,0.98 1.26,1.52 0.38,0.55 0.7,1.13 0.97,1.75 0.28,0.62 0.5,1.28 0.67,1.98 0.04,0.14 0.12,0.26 0.23,0.34 0.09,0.08 0.21,0.13 0.33,0.14 0.02,0 0.04,0 0.05,0l0.81 0c0.18,0 0.33,-0.07 0.45,-0.18l0 -0.01c0.11,-0.11 0.18,-0.27 0.18,-0.44 0,-0.02 0,-0.04 0,-0.06 0,0 0,-0.02 0,-0.04l-1.02 -10.66c-0.01,-0.16 -0.09,-0.3 -0.2,-0.4 -0.1,-0.1 -0.23,-0.15 -0.37,-0.17 -0.02,0 -0.03,0 -0.05,0l-0.81 0c-0.14,0 -0.27,0.05 -0.37,0.12 -0.1,0.07 -0.18,0.17 -0.22,0.29l0 0.01c-0.1,0.24 -0.21,0.45 -0.32,0.62 -0.12,0.17 -0.23,0.31 -0.36,0.42 -0.11,0.09 -0.23,0.16 -0.36,0.21 -0.13,0.05 -0.27,0.07 -0.42,0.07 -0.24,0 -0.53,-0.01 -0.85,-0.04 -0.33,-0.03 -0.72,-0.08 -1.16,-0.15 -0.46,-0.07 -0.95,-0.15 -1.47,-0.24 -0.52,-0.09 -1.1,-0.2 -1.72,-0.33l0 0 -0.02 -0.01c-0.66,-0.13 -1.27,-0.24 -1.83,-0.34 -0.57,-0.09 -1.11,-0.18 -1.63,-0.24 -0.53,-0.07 -1.01,-0.12 -1.44,-0.16 -0.46,-0.03 -0.87,-0.05 -1.25,-0.05 -1.97,0 -3.84,0.16 -5.6,0.49 -1.76,0.32 -3.41,0.8 -4.94,1.45 -1.53,0.65 -2.95,1.46 -4.25,2.43 -1.3,0.97 -2.49,2.1 -3.55,3.4 -0.36,0.43 -0.68,0.86 -0.98,1.29 -0.3,0.43 -0.58,0.87 -0.84,1.33 -0.27,0.46 -0.5,0.91 -0.72,1.37 -0.2,0.46 -0.39,0.92 -0.56,1.39 0,0.01 -0.01,0.02 -0.01,0.03 -0.17,0.47 -0.32,0.95 -0.45,1.45 -0.13,0.49 -0.23,0.98 -0.32,1.48 -0.08,0.51 -0.15,1.01 -0.19,1.52 -0.04,0.51 -0.06,1.02 -0.06,1.54 0,0.34 0.01,0.69 0.03,1.04 0.02,0.35 0.04,0.69 0.08,1.03 0.04,0.33 0.08,0.66 0.13,0.99 0.06,0.32 0.12,0.65 0.19,0.97 0.14,0.61 0.31,1.21 0.53,1.8 0.21,0.59 0.47,1.17 0.76,1.73 0.29,0.56 0.63,1.11 1,1.66 0.37,0.53 0.78,1.05 1.22,1.57l0.01 0.01c0.24,0.27 0.47,0.53 0.71,0.79 0.24,0.25 0.48,0.49 0.72,0.72 0.24,0.23 0.48,0.45 0.72,0.65 0.24,0.21 0.49,0.4 0.73,0.59l0.02 0.02 0 -0.01c0.97,0.74 1.98,1.38 3.05,1.92 1.08,0.56 2.2,1.01 3.38,1.38 1.17,0.37 2.4,0.64 3.69,0.82 1.28,0.19 2.61,0.28 3.99,0.28 2.08,0 4.01,-0.19 5.79,-0.56 1.78,-0.37 3.4,-0.94 4.88,-1.68 1.48,-0.76 2.81,-1.7 3.98,-2.83 1.16,-1.13 2.17,-2.44 3.02,-3.94 0.09,-0.16 0.11,-0.33 0.06,-0.48 -0.04,-0.16 -0.14,-0.3 -0.29,-0.38 -0.02,-0.01 -0.04,-0.02 -0.05,-0.03 -0.02,0 -0.03,-0.01 -0.05,-0.02l0 0 -1 -0.42c-0.14,-0.06 -0.29,-0.06 -0.43,-0.02 -0.14,0.04 -0.26,0.13 -0.34,0.25l0 0c-0.82,1.17 -1.71,2.2 -2.67,3.08 -0.95,0.88 -1.98,1.61 -3.07,2.19 -1.09,0.59 -2.25,1.02 -3.48,1.32 -1.24,0.29 -2.54,0.43 -3.91,0.43 -1.18,0 -2.22,-0.09 -3.17,-0.29 -0.94,-0.19 -1.8,-0.48 -2.61,-0.86 -0.81,-0.39 -1.57,-0.87 -2.32,-1.46 -0.76,-0.58 -1.51,-1.27 -2.29,-2.06l-0.04 -0.04c-1.41,-1.44 -2.51,-3.19 -3.29,-5.11z"/>
   <path class="fil2" d="M56.7 6.08l4.99 12.7 -10.15 0 5.16 -12.7zm-0.85 -5.49l-11.54 28.5c-0.2,0.49 -0.41,0.95 -0.62,1.37 -0.21,0.42 -0.43,0.81 -0.66,1.16 -0.22,0.35 -0.45,0.67 -0.68,0.94 -0.23,0.27 -0.47,0.51 -0.71,0.72l0 0c-0.01,0.01 -0.01,0.01 -0.02,0.02l0 0c-0.2,0.17 -0.42,0.32 -0.65,0.45 -0.23,0.13 -0.46,0.24 -0.71,0.33 -0.26,0.09 -0.52,0.15 -0.8,0.2 -0.28,0.04 -0.57,0.07 -0.89,0.07 -0.17,0 -0.33,0.07 -0.44,0.18 -0.12,0.11 -0.19,0.27 -0.19,0.45l0 0.85c0,0.17 0.07,0.33 0.19,0.44 0.11,0.12 0.27,0.19 0.44,0.19l0.04 0c0,0 0.01,0 0.02,-0.01l3.14 -0.06c0.01,0.01 0.02,0.01 0.03,0.01l2.17 0c0.01,0 0,0 0.03,0l0.01 -0.01 5.8 0.07c0.18,0 0.34,-0.07 0.45,-0.18 0.1,-0.11 0.17,-0.24 0.18,-0.4 0.01,-0.01 0.01,-0.03 0.01,-0.05l0 -0.85c0,-0.18 -0.07,-0.34 -0.19,-0.45 -0.11,-0.11 -0.27,-0.18 -0.44,-0.18 -0.3,0 -0.57,-0.02 -0.82,-0.04 -0.25,-0.03 -0.49,-0.06 -0.7,-0.11 -0.21,-0.05 -0.4,-0.11 -0.57,-0.17 -0.16,-0.07 -0.31,-0.14 -0.44,-0.22 -0.11,-0.09 -0.2,-0.2 -0.28,-0.3 -0.09,-0.12 -0.16,-0.24 -0.22,-0.37 -0.05,-0.12 -0.1,-0.26 -0.13,-0.41 -0.02,-0.14 -0.04,-0.29 -0.04,-0.45l0.11 -0.88 3.58 -9.53 12.61 0 3.35 8.32 0 0.01 0.18 0.5c0.09,0.25 0.17,0.47 0.22,0.65 0.06,0.19 0.11,0.36 0.16,0.52 0.04,0.15 0.07,0.28 0.08,0.37 0.02,0.09 0.03,0.16 0.03,0.21 0,0.3 -0.06,0.55 -0.17,0.76 -0.11,0.21 -0.28,0.38 -0.51,0.52 0,0.01 -0.01,0.01 -0.03,0.03 -0.02,0.01 -0.03,0.02 -0.04,0.02l0 0c-0.11,0.09 -0.23,0.17 -0.38,0.23 -0.14,0.07 -0.31,0.13 -0.49,0.18 -0.19,0.05 -0.41,0.09 -0.64,0.12 -0.23,0.02 -0.48,0.04 -0.76,0.04 -0.17,0 -0.33,0.07 -0.44,0.18 -0.12,0.11 -0.19,0.27 -0.19,0.45l0 0.85c0,0.17 0.07,0.33 0.19,0.44 0.11,0.12 0.27,0.19 0.44,0.19l0.03 0 0.02 -0.01 7.17 -0.06 6.94 0.07c0.17,0 0.33,-0.07 0.45,-0.18 0.1,-0.11 0.17,-0.24 0.18,-0.4 0,-0.01 0.01,-0.03 0.01,-0.05l0 -0.85c0,-0.18 -0.07,-0.33 -0.19,-0.45l0 0c-0.11,-0.11 -0.27,-0.18 -0.44,-0.18 -0.03,0 0.01,0 -0.01,0l-0.02 0 -0.28 -0.01c-0.02,0 -0.03,0 -0.05,0 -0.3,0 -0.58,-0.03 -0.85,-0.07 -0.26,-0.04 -0.51,-0.1 -0.74,-0.18 -0.22,-0.09 -0.43,-0.19 -0.64,-0.31 -0.19,-0.12 -0.38,-0.26 -0.55,-0.42 -0.01,-0.01 -0.02,-0.02 -0.03,-0.03 -0.01,-0.02 -0.03,-0.02 -0.04,-0.03 -0.16,-0.13 -0.32,-0.29 -0.48,-0.48 -0.17,-0.2 -0.33,-0.43 -0.51,-0.71 -0.17,-0.28 -0.35,-0.59 -0.52,-0.95 -0.18,-0.36 -0.35,-0.75 -0.53,-1.18l-11.81 -29.4c-0.05,-0.12 -0.13,-0.22 -0.23,-0.29 -0.09,-0.06 -0.19,-0.1 -0.3,-0.1 -0.02,-0.01 -0.04,-0.01 -0.05,-0.01l-4.01 0c-0.13,0 -0.26,0.05 -0.36,0.12 -0.1,0.07 -0.17,0.16 -0.22,0.27 0,0.01 0,0.01 -0.01,0.02z"/>
   <path class="fil2" d="M85.93 7.27c0.05,0.44 0.07,0.91 0.07,1.43l0 20.02c0,0.99 -0.09,1.86 -0.28,2.6 -0.18,0.71 -0.45,1.31 -0.81,1.79 -0.19,0.21 -0.41,0.4 -0.65,0.55 -0.24,0.17 -0.51,0.3 -0.81,0.41 -0.31,0.11 -0.64,0.2 -0.99,0.25 -0.36,0.06 -0.75,0.09 -1.18,0.09 -0.17,0 -0.33,0.07 -0.44,0.18l0 0c-0.12,0.12 -0.19,0.27 -0.19,0.45l0 0.79c0,0.17 0.07,0.33 0.19,0.44 0.11,0.12 0.27,0.19 0.44,0.19l19.99 0c1.55,0 3.03,-0.08 4.46,-0.23 1.42,-0.15 2.79,-0.38 4.08,-0.69 1.31,-0.3 2.55,-0.69 3.73,-1.14 1.18,-0.47 2.29,-1 3.34,-1.62l0.02 -0.01 0.02 -0.01c1.29,-0.76 2.42,-1.6 3.38,-2.54 0.98,-0.94 1.79,-1.97 2.45,-3.08 0.65,-1.13 1.14,-2.34 1.47,-3.64 0.33,-1.3 0.49,-2.68 0.49,-4.15 0,-1.59 -0.18,-3.09 -0.53,-4.5 -0.35,-1.4 -0.88,-2.71 -1.59,-3.93 -0.71,-1.21 -1.59,-2.32 -2.65,-3.33 -1.05,-1.01 -2.27,-1.91 -3.66,-2.72 -0.01,-0.01 -0.02,-0.01 -0.02,-0.01 -1.13,-0.65 -2.34,-1.22 -3.61,-1.71 -1.27,-0.48 -2.61,-0.89 -4.03,-1.21 -1.41,-0.32 -2.88,-0.56 -4.43,-0.73 -1.55,-0.16 -3.17,-0.24 -4.85,-0.24l-18.06 0c-0.17,0 -0.33,0.07 -0.44,0.19 -0.12,0.11 -0.19,0.27 -0.19,0.44l0 0.83c0,0.18 0.07,0.34 0.19,0.45 0.11,0.11 0.27,0.18 0.44,0.18 0.44,0 0.85,0.03 1.22,0.09 0.37,0.06 0.71,0.14 1.01,0.25 0.29,0.11 0.55,0.25 0.78,0.41 0.23,0.16 0.43,0.34 0.6,0.55 0.18,0.22 0.34,0.47 0.48,0.75 0.13,0.29 0.25,0.61 0.34,0.96 0.1,0.37 0.17,0.77 0.22,1.2zm6.62 20.96l0 -24.35 2.64 -0.19c0.01,0 0.02,0 0.02,0l0.01 0 0 0 2.65 -0.14c0.01,0 0.01,0 0.02,0 0.13,-0.01 0.25,-0.02 0.35,-0.02 0.12,-0.01 0.23,-0.01 0.33,-0.01 0.1,-0.01 0.21,-0.01 0.32,-0.01 0.03,0 0.16,0 0.36,0 1.35,0 2.64,0.09 3.86,0.26 1.23,0.18 2.39,0.44 3.48,0.79 1.09,0.35 2.12,0.78 3.1,1.3 0.97,0.53 1.88,1.14 2.74,1.83 0.84,0.69 1.58,1.45 2.21,2.27 0.64,0.83 1.16,1.72 1.58,2.69 0.43,0.97 0.74,2.01 0.95,3.12 0.22,1.11 0.32,2.3 0.32,3.56 0,1.26 -0.11,2.44 -0.33,3.53 -0.22,1.09 -0.55,2.1 -0.99,3.04 -0.44,0.93 -0.99,1.78 -1.65,2.56 -0.65,0.77 -1.42,1.48 -2.3,2.1 -0.77,0.55 -1.61,1.03 -2.52,1.44 -0.91,0.41 -1.89,0.75 -2.93,1.03 -1.05,0.28 -2.18,0.48 -3.37,0.62 -1.19,0.14 -2.46,0.21 -3.8,0.21 -0.64,0 -1.23,-0.02 -1.78,-0.07 -0.55,-0.05 -1.04,-0.11 -1.48,-0.21 -0.43,-0.08 -0.82,-0.19 -1.15,-0.32 -0.32,-0.13 -0.6,-0.27 -0.83,-0.43 -0.01,0 -0.02,-0.01 -0.03,-0.01 -0.28,-0.2 -0.54,-0.44 -0.76,-0.72 -0.22,-0.28 -0.4,-0.61 -0.55,-0.98 -0.15,-0.38 -0.27,-0.81 -0.35,-1.29 -0.08,-0.48 -0.12,-1.02 -0.12,-1.6z"/>
   <path class="fil3" d="M153.55 6.01c0.1,0.36 0.17,0.77 0.22,1.22 0.05,0.45 0.08,0.94 0.08,1.49l0 19.98c0,0.54 -0.03,1.04 -0.08,1.49 -0.05,0.45 -0.13,0.86 -0.23,1.24 -0.09,0.36 -0.21,0.68 -0.35,0.97 -0.14,0.28 -0.3,0.52 -0.48,0.73l-0.01 0.01c-0.18,0.2 -0.39,0.38 -0.62,0.54 -0.23,0.15 -0.49,0.28 -0.77,0.39 -0.29,0.11 -0.62,0.19 -0.97,0.24 -0.35,0.06 -0.73,0.09 -1.15,0.09 -0.18,0 -0.33,0.07 -0.45,0.18l0 0c-0.11,0.12 -0.18,0.27 -0.18,0.45l0 0.8c0,0.17 0.07,0.33 0.18,0.44 0.12,0.12 0.27,0.19 0.45,0.19l30.66 0c0.15,0 0.29,-0.06 0.4,-0.15 0.1,-0.09 0.18,-0.21 0.21,-0.36l2.1 -7.19c0.04,-0.17 0.02,-0.34 -0.06,-0.48 -0.07,-0.14 -0.2,-0.25 -0.37,-0.3 -0.03,-0.01 -0.06,-0.02 -0.09,-0.02 -0.01,0 -0.02,0 -0.04,0 -0.01,-0.01 -0.03,-0.01 -0.05,-0.01l-1.03 0c-0.15,0 -0.29,0.06 -0.4,0.15 -0.11,0.09 -0.19,0.22 -0.22,0.37 -0.48,1.78 -1.82,2.99 -3.51,3.8 -2.35,1.13 -5.38,1.47 -7.73,1.47l-3.35 0c-0.52,0 -1,-0.02 -1.42,-0.06 -0.43,-0.04 -0.81,-0.09 -1.15,-0.17 -0.33,-0.07 -0.61,-0.16 -0.86,-0.27 -0.24,-0.1 -0.44,-0.21 -0.59,-0.34 -0.01,-0.01 -0.02,-0.01 -0.03,-0.02 0,0 0,0 0,0 -0.14,-0.12 -0.27,-0.27 -0.38,-0.45 -0.12,-0.19 -0.22,-0.42 -0.31,-0.69 -0.09,-0.29 -0.15,-0.62 -0.2,-0.99 -0.05,-0.37 -0.07,-0.79 -0.07,-1.24l0 -20.81c0,-1.06 0.1,-1.95 0.3,-2.67 0.19,-0.7 0.48,-1.23 0.85,-1.61 0.01,-0.01 0.03,-0.03 0.04,-0.04 0.01,-0.01 0.02,-0.03 0.03,-0.04 0.17,-0.2 0.37,-0.38 0.59,-0.53 0.24,-0.16 0.5,-0.29 0.8,-0.4 0.31,-0.11 0.65,-0.2 1.03,-0.26 0.38,-0.06 0.8,-0.09 1.25,-0.09l0 0 0.02 0 0.58 0.02c0.17,0.01 0.33,-0.06 0.45,-0.17 0.11,-0.1 0.18,-0.24 0.2,-0.4 0,-0.02 0,-0.04 0,-0.06l0 -0.79c0,-0.17 -0.07,-0.33 -0.19,-0.44 -0.11,-0.12 -0.27,-0.19 -0.44,-0.19l-17.02 0c-0.18,0 -0.33,0.07 -0.45,0.19l0 0c-0.11,0.11 -0.18,0.27 -0.18,0.44l0 0.79c0,0.18 0.07,0.34 0.18,0.45 0.12,0.11 0.27,0.18 0.45,0.18 0.45,0 0.85,0.03 1.22,0.09 0.36,0.06 0.69,0.14 0.99,0.26 0.28,0.11 0.53,0.24 0.75,0.4 0.22,0.15 0.4,0.34 0.56,0.54l0 0.01c0.01,0 0.01,0.01 0.02,0.02l0.01 0.01c0,0 0.01,0.01 0.01,0.02 0.17,0.18 0.33,0.4 0.46,0.66 0.13,0.27 0.25,0.57 0.34,0.92z"/>
   <path class="fil3" d="M200.35 6.08l5 12.7 -10.15 0 5.15 -12.7zm-0.84 -5.49l-11.54 28.5c-0.21,0.49 -0.41,0.95 -0.62,1.37 -0.22,0.42 -0.44,0.81 -0.66,1.16 -0.23,0.35 -0.46,0.67 -0.69,0.94 -0.23,0.27 -0.46,0.51 -0.71,0.72 0,0.01 -0.01,0.01 -0.02,0.02 -0.2,0.17 -0.41,0.32 -0.64,0.45 -0.23,0.13 -0.47,0.24 -0.72,0.33 -0.25,0.09 -0.52,0.15 -0.8,0.2 -0.27,0.04 -0.57,0.07 -0.88,0.07 -0.18,0 -0.33,0.07 -0.45,0.18 -0.11,0.11 -0.18,0.27 -0.18,0.45l0 0.85c0,0.17 0.07,0.33 0.18,0.44 0.12,0.12 0.27,0.19 0.45,0.19l0.03 0c0.01,0 0.02,0 0.03,-0.01l3.14 -0.06c0.01,0.01 0.02,0.01 0.03,0.01l2.17 0c0.01,0 0,0 0.02,0l0.02 -0.01 5.8 0.07c0.17,0 0.33,-0.07 0.44,-0.18 0.11,-0.11 0.18,-0.24 0.19,-0.4 0,-0.01 0,-0.03 0,-0.05l0 -0.85c0,-0.18 -0.07,-0.33 -0.18,-0.45l0 0c-0.12,-0.11 -0.27,-0.18 -0.45,-0.18 -0.29,0 -0.56,-0.02 -0.81,-0.04 -0.25,-0.03 -0.49,-0.06 -0.71,-0.11 -0.2,-0.05 -0.39,-0.11 -0.57,-0.17 -0.16,-0.07 -0.3,-0.14 -0.43,-0.22 -0.11,-0.09 -0.21,-0.2 -0.29,-0.3 -0.08,-0.12 -0.15,-0.24 -0.21,-0.37 -0.06,-0.12 -0.1,-0.26 -0.13,-0.41 -0.03,-0.14 -0.04,-0.29 -0.05,-0.45l0.11 -0.88 3.59 -9.53 12.61 0 3.34 8.32 0 0.01 0.19 0.5c0.09,0.25 0.16,0.47 0.22,0.65 0.06,0.19 0.11,0.36 0.15,0.52 0.04,0.15 0.07,0.28 0.09,0.37 0.02,0.09 0.02,0.16 0.02,0.21 0,0.3 -0.05,0.55 -0.16,0.76 -0.12,0.21 -0.28,0.38 -0.51,0.52 -0.01,0.01 -0.02,0.01 -0.04,0.03 -0.01,0.01 -0.03,0.02 -0.03,0.02l0 0c-0.11,0.09 -0.24,0.17 -0.38,0.23 -0.15,0.07 -0.31,0.13 -0.5,0.18 -0.19,0.05 -0.4,0.09 -0.63,0.12 -0.23,0.02 -0.49,0.04 -0.76,0.04 -0.18,0 -0.33,0.07 -0.45,0.18l0 0 0 0c-0.11,0.12 -0.18,0.27 -0.18,0.45l0 0.85c0,0.16 0.06,0.31 0.16,0.42 0.01,0.01 0.01,0.01 0.02,0.02 0.12,0.12 0.27,0.19 0.45,0.19l0.03 0 0.01 -0.01 7.17 -0.06 6.95 0.07c0.17,0 0.33,-0.07 0.44,-0.18 0.1,-0.11 0.17,-0.24 0.19,-0.4 0,-0.01 0,-0.03 0,-0.05l0 -0.85c0,-0.18 -0.07,-0.34 -0.18,-0.45 -0.12,-0.11 -0.28,-0.18 -0.45,-0.18 -0.02,0 0.01,0 -0.01,0l-0.01 0 -0.29 -0.01c-0.01,0 -0.03,0 -0.04,0 -0.31,0 -0.59,-0.03 -0.85,-0.07 -0.27,-0.04 -0.51,-0.1 -0.74,-0.18 -0.23,-0.09 -0.44,-0.19 -0.64,-0.31 -0.2,-0.12 -0.38,-0.26 -0.55,-0.42 -0.01,-0.01 -0.02,-0.02 -0.04,-0.03 -0.01,-0.02 -0.02,-0.02 -0.03,-0.03 -0.16,-0.13 -0.32,-0.29 -0.48,-0.48 -0.17,-0.2 -0.34,-0.43 -0.51,-0.71 -0.18,-0.28 -0.35,-0.59 -0.53,-0.95 -0.17,-0.36 -0.35,-0.75 -0.52,-1.18l-11.81 -29.4c-0.05,-0.12 -0.13,-0.22 -0.24,-0.29 -0.08,-0.06 -0.19,-0.1 -0.3,-0.1 -0.01,-0.01 -0.03,-0.01 -0.05,-0.01l-4 0c-0.13,0 -0.26,0.05 -0.36,0.12 -0.1,0.07 -0.18,0.16 -0.22,0.27 0,0.01 -0.01,0.01 -0.01,0.02z"/>
   <path class="fil3" d="M228.44 6.01c0.1,0.36 0.17,0.77 0.22,1.22 0.05,0.45 0.08,0.94 0.08,1.49l0 20c0,0.53 -0.03,1.03 -0.08,1.48 -0.05,0.45 -0.13,0.86 -0.23,1.24 -0.09,0.36 -0.21,0.68 -0.35,0.97 -0.14,0.28 -0.3,0.52 -0.48,0.73l-0.01 0.01c-0.18,0.2 -0.39,0.38 -0.62,0.54 -0.23,0.15 -0.49,0.28 -0.77,0.39 -0.29,0.11 -0.62,0.19 -0.97,0.24 -0.35,0.06 -0.73,0.09 -1.15,0.09 -0.18,0 -0.33,0.07 -0.45,0.18l0 0c-0.11,0.12 -0.18,0.27 -0.18,0.45l0 0.79c0,0.17 0.07,0.33 0.18,0.44 0.12,0.12 0.27,0.19 0.45,0.19l15.69 0c2.86,0 5.36,-0.19 7.52,-0.57 2.16,-0.38 3.98,-0.96 5.44,-1.73 1.51,-0.79 2.65,-1.79 3.41,-2.99 0.77,-1.21 1.15,-2.62 1.15,-4.22 0,-0.61 -0.07,-1.2 -0.21,-1.78 -0.14,-0.58 -0.34,-1.13 -0.62,-1.66 -0.27,-0.52 -0.6,-1.02 -1.01,-1.5 0,0 -0.01,-0.01 -0.01,-0.02 -0.4,-0.48 -0.88,-0.93 -1.41,-1.37 -0.54,-0.44 -1.12,-0.83 -1.74,-1.19 -0.62,-0.36 -1.3,-0.68 -2.02,-0.96 -0.54,-0.22 -1.12,-0.41 -1.72,-0.59 -0.26,-0.07 -0.54,-0.14 -0.81,-0.21 0.13,-0.06 0.27,-0.11 0.39,-0.16 0.01,0 0.02,-0.01 0.02,-0.01 0.46,-0.19 0.88,-0.39 1.27,-0.58 0.4,-0.2 0.77,-0.4 1.12,-0.61 0.36,-0.21 0.68,-0.42 0.98,-0.64 0.3,-0.22 0.58,-0.44 0.82,-0.66l0 0 0.01 -0.01c0.4,-0.37 0.75,-0.76 1.06,-1.16 0.3,-0.4 0.56,-0.82 0.76,-1.25 0.21,-0.44 0.37,-0.89 0.47,-1.36 0.11,-0.47 0.16,-0.94 0.16,-1.43 0,-0.74 -0.1,-1.44 -0.29,-2.1 -0.19,-0.66 -0.48,-1.28 -0.87,-1.84 -0.38,-0.56 -0.86,-1.08 -1.42,-1.54 -0.56,-0.46 -1.21,-0.87 -1.96,-1.23 -0.73,-0.36 -1.55,-0.67 -2.45,-0.94 -0.9,-0.26 -1.9,-0.48 -2.98,-0.66 -1.08,-0.17 -2.24,-0.3 -3.48,-0.39 -1.26,-0.08 -2.59,-0.13 -4.01,-0.13l-13.26 0c-0.18,0 -0.33,0.07 -0.45,0.19 -0.11,0.11 -0.18,0.27 -0.18,0.44l0 0.85c0,0.18 0.07,0.34 0.18,0.45 0.12,0.11 0.27,0.18 0.45,0.18 0.44,0 0.85,0.03 1.22,0.09 0.36,0.06 0.69,0.14 0.99,0.26 0.28,0.11 0.53,0.24 0.75,0.4 0.22,0.15 0.4,0.34 0.56,0.54 0,0.01 0.01,0.01 0.02,0.02 0,0.01 0.01,0.03 0.02,0.04 0.17,0.18 0.32,0.4 0.46,0.66 0.13,0.27 0.25,0.57 0.34,0.92zm6.97 23.2l0 -9.89 3.38 0c0.94,0 1.82,0.04 2.64,0.12 0.82,0.09 1.58,0.22 2.28,0.39 0.7,0.17 1.34,0.38 1.92,0.64 0.57,0.25 1.1,0.54 1.57,0.87 0.46,0.33 0.86,0.7 1.21,1.09 0.34,0.39 0.63,0.81 0.86,1.26 0.22,0.45 0.39,0.94 0.51,1.47 0.11,0.52 0.17,1.08 0.17,1.68 0,0.62 -0.06,1.21 -0.17,1.75 -0.12,0.53 -0.29,1.03 -0.51,1.49 -0.23,0.45 -0.51,0.87 -0.85,1.25 -0.34,0.38 -0.73,0.72 -1.17,1.02 -0.01,0.01 -0.02,0.01 -0.02,0.02l-0.01 0 0 0c-0.4,0.28 -0.83,0.52 -1.29,0.73 -0.47,0.2 -0.97,0.38 -1.5,0.52 -0.53,0.14 -1.1,0.24 -1.71,0.32 -0.6,0.07 -1.24,0.1 -1.92,0.1 -0.58,0 -1.11,-0.02 -1.59,-0.06 -0.48,-0.04 -0.91,-0.11 -1.28,-0.19 -0.36,-0.08 -0.67,-0.17 -0.93,-0.28 -0.25,-0.11 -0.45,-0.23 -0.6,-0.36 -0.15,-0.13 -0.28,-0.31 -0.4,-0.52 -0.13,-0.22 -0.23,-0.49 -0.32,-0.8 -0.09,-0.34 -0.16,-0.72 -0.2,-1.16 -0.05,-0.43 -0.07,-0.92 -0.07,-1.46zm0 -12.43l0 -13.14 0 0c0.11,-0.01 0.21,-0.02 0.3,-0.03 0.15,-0.01 0.27,-0.02 0.37,-0.02 0.1,-0.01 0.19,-0.02 0.27,-0.02l0.01 0 1.46 0c0,0 0.01,0 0.03,0 0.02,0 0.03,0 0.04,0 0.78,-0.04 1.54,-0.02 2.26,0.04 0.73,0.05 1.41,0.16 2.06,0.3 0.65,0.15 1.26,0.34 1.83,0.58 0.58,0.24 1.11,0.52 1.61,0.84 0.44,0.28 0.82,0.6 1.15,0.94 0.32,0.34 0.59,0.71 0.8,1.11 0.22,0.4 0.38,0.83 0.49,1.3 0.1,0.46 0.16,0.97 0.16,1.5 0,0.6 -0.06,1.15 -0.18,1.66 -0.12,0.5 -0.3,0.97 -0.54,1.39 -0.24,0.43 -0.54,0.81 -0.9,1.17 -0.37,0.35 -0.79,0.67 -1.28,0.95 -0.4,0.24 -0.84,0.44 -1.3,0.62 -0.47,0.18 -0.97,0.33 -1.5,0.45 -0.54,0.12 -1.11,0.21 -1.72,0.27 -0.6,0.06 -1.24,0.09 -1.92,0.09l-3.5 0z"/>
  </g>
 </g>
</svg>
