<?xml version="1.0" encoding="UTF-8"?>
<!DOCTYPE svg PUBLIC "-//W3C//DTD SVG 1.1//EN" "http://www.w3.org/Graphics/SVG/1.1/DTD/svg11.dtd">
<!-- Creator: CorelDRAW -->
<svg xmlns="http://www.w3.org/2000/svg" xml:space="preserve" width="426px" height="170px" version="1.1" style="shape-rendering:geometricPrecision; text-rendering:geometricPrecision; image-rendering:optimizeQuality; fill-rule:evenodd; clip-rule:evenodd"
viewBox="0 0 151.83 60.47"
 xmlns:xlink="http://www.w3.org/1999/xlink"
 xmlns:xodm="http://www.corel.com/coreldraw/odm/2003">
 <defs>
  <style type="text/css">
   <![CDATA[
    .fil0 {fill:#FEFEFE;fill-rule:nonzero}
    .fil1 {fill:#373435;fill-rule:nonzero}
    .fil2 {fill:#EE3B48;fill-rule:nonzero}
    .fil3 {fill:#2C2A2C;fill-rule:nonzero}
   ]]>
  </style>
 </defs>
 <g id="Capa_x0020_1">
  <metadata id="CorelCorpID_0Corel-Layer"/>
  <g id="_2209945105120">
   <path class="fil0" d="M138.6 55.56c-49.09,6.69 -93.85,6.26 -134.99,-0.12 -2.32,-0.36 -3.89,-2.56 -3.48,-4.88l7.44 -40.27c0.58,-3.15 3.04,-5.7 6.21,-6.13 44.57,-6.08 88.63,-4.83 133.15,0.07 3.16,0.35 5.29,3.41 4.76,6.55l-6.46 38.39c-0.58,3.35 -3.26,5.94 -6.63,6.39z"/>
   <g>
    <path class="fil1" d="M3.6 55.51l0.02 -0.13 0 0 3.87 0.58 3.88 0.54 3.91 0.51 3.94 0.48 3.95 0.44 3.97 0.4 4 0.37 4.02 0.33 4.04 0.29 4.06 0.26 4.09 0.22 4.11 0.18 4.13 0.15 4.15 0.1 4.18 0.07 4.2 0.04 4.23 -0.01 4.24 -0.05 4.27 -0.08 4.3 -0.12 4.32 -0.16 4.34 -0.2 4.37 -0.24 4.39 -0.28 4.41 -0.32 4.44 -0.36 4.47 -0.4 4.48 -0.45 4.52 -0.48 4.54 -0.52 4.56 -0.56 4.59 -0.61 0.02 0.13 -4.59 0.61 -4.57 0.56 -4.54 0.52 -4.51 0.48 -4.49 0.45 -4.47 0.4 -4.44 0.36 -4.41 0.32 -4.4 0.28 -4.36 0.24 -4.35 0.2 -4.32 0.16 -4.29 0.12 -4.27 0.09 -4.25 0.04 -4.23 0.01 -4.2 -0.04 -4.18 -0.07 -4.15 -0.1 -4.14 -0.15 -4.11 -0.18 -4.08 -0.22 -4.07 -0.26 -4.04 -0.29 -4.02 -0.33 -4 -0.37 -3.98 -0.4 -3.95 -0.44 -3.93 -0.48 -3.91 -0.51 -3.89 -0.54 -3.87 -0.58 0 0zm-3.53 -4.96l0.13 0.02 0 0 -0.04 0.22 -0.02 0.21 -0.01 0.21 0 0.21 0.01 0.21 0.02 0.2 0.04 0.2 0.04 0.21 0.05 0.19 0.06 0.2 0.07 0.19 0.08 0.18 0.08 0.18 0.1 0.18 0.11 0.17 0.11 0.17 0.12 0.16 0.13 0.15 0.13 0.15 0.14 0.14 0.15 0.14 0.16 0.13 0.16 0.12 0.17 0.11 0.18 0.1 0.18 0.1 0.19 0.09 0.19 0.07 0.2 0.07 0.2 0.06 0.21 0.05 0.21 0.04 -0.02 0.13 -0.22 -0.04 -0.21 -0.05 -0.21 -0.06 -0.21 -0.07 -0.2 -0.08 -0.19 -0.09 -0.19 -0.1 -0.18 -0.11 -0.17 -0.12 -0.17 -0.12 -0.16 -0.13 -0.16 -0.14 -0.14 -0.15 -0.14 -0.15 -0.14 -0.16 -0.12 -0.17 -0.12 -0.17 -0.1 -0.18 -0.1 -0.18 -0.09 -0.18 -0.08 -0.2 -0.08 -0.19 -0.06 -0.2 -0.05 -0.2 -0.04 -0.21 -0.04 -0.21 -0.02 -0.21 -0.01 -0.22 0 -0.21 0.01 -0.22 0.02 -0.22 0.04 -0.22 0 0zm0 0l0 0 0 -0.01 0 0.01zm7.56 -40.25l-7.43 40.27 -0.13 -0.02 7.43 -40.28 0.13 0.03zm6.14 -6.21l0.02 0.13 0 0 -0.29 0.05 -0.29 0.05 -0.29 0.07 -0.27 0.09 -0.28 0.09 -0.27 0.1 -0.26 0.12 -0.26 0.12 -0.25 0.14 -0.24 0.14 -0.24 0.16 -0.24 0.16 -0.22 0.17 -0.22 0.18 -0.22 0.19 -0.2 0.2 -0.2 0.21 -0.19 0.21 -0.18 0.22 -0.18 0.23 -0.16 0.23 -0.16 0.24 -0.15 0.25 -0.14 0.25 -0.13 0.26 -0.12 0.27 -0.11 0.26 -0.1 0.28 -0.09 0.28 -0.08 0.28 -0.07 0.29 -0.06 0.29 -0.13 -0.03 0.06 -0.29 0.07 -0.29 0.08 -0.29 0.1 -0.28 0.1 -0.28 0.11 -0.28 0.13 -0.27 0.13 -0.26 0.14 -0.26 0.15 -0.25 0.16 -0.24 0.17 -0.24 0.18 -0.23 0.18 -0.23 0.19 -0.21 0.2 -0.21 0.21 -0.2 0.22 -0.2 0.22 -0.18 0.23 -0.18 0.24 -0.16 0.25 -0.16 0.25 -0.15 0.25 -0.14 0.27 -0.12 0.26 -0.12 0.28 -0.1 0.28 -0.1 0.28 -0.08 0.29 -0.07 0.29 -0.06 0.3 -0.05 0 0zm133.17 0.07l-0.02 0.14 0 0 -4.17 -0.45 -4.17 -0.43 -4.17 -0.4 -4.16 -0.38 -4.16 -0.36 -4.16 -0.33 -4.16 -0.31 -4.16 -0.27 -4.16 -0.26 -4.15 -0.22 -4.16 -0.2 -4.15 -0.17 -4.16 -0.14 -4.15 -0.11 -4.15 -0.08 -4.16 -0.04 -4.15 -0.02 -4.15 0.02 -4.16 0.05 -4.15 0.09 -4.16 0.12 -4.15 0.15 -4.16 0.19 -4.16 0.23 -4.16 0.27 -4.16 0.3 -4.17 0.35 -4.16 0.38 -4.17 0.42 -4.17 0.47 -4.18 0.5 -4.17 0.55 -0.02 -0.13 4.18 -0.55 4.17 -0.5 4.17 -0.47 4.17 -0.42 4.17 -0.38 4.17 -0.35 4.16 -0.3 4.16 -0.27 4.16 -0.23 4.16 -0.19 4.16 -0.15 4.16 -0.13 4.15 -0.08 4.16 -0.05 4.15 -0.02 4.16 0.01 4.15 0.05 4.15 0.08 4.16 0.11 4.15 0.14 4.16 0.17 4.15 0.19 4.16 0.23 4.16 0.25 4.16 0.28 4.16 0.31 4.16 0.33 4.16 0.36 4.17 0.38 4.16 0.4 4.17 0.43 4.18 0.44 0 0zm4.81 6.63l-0.13 -0.02 0 0 0.05 -0.29 0.02 -0.29 0.01 -0.29 0 -0.28 -0.02 -0.29 -0.03 -0.28 -0.04 -0.28 -0.06 -0.27 -0.07 -0.27 -0.09 -0.27 -0.09 -0.26 -0.11 -0.25 -0.12 -0.25 -0.13 -0.24 -0.15 -0.24 -0.15 -0.22 -0.17 -0.22 -0.17 -0.21 -0.19 -0.2 -0.19 -0.19 -0.21 -0.19 -0.21 -0.17 -0.22 -0.16 -0.23 -0.14 -0.24 -0.14 -0.25 -0.13 -0.26 -0.11 -0.26 -0.1 -0.27 -0.08 -0.28 -0.07 -0.28 -0.05 -0.29 -0.04 0.02 -0.14 0.29 0.05 0.29 0.05 0.29 0.07 0.27 0.09 0.27 0.1 0.26 0.12 0.26 0.12 0.24 0.14 0.24 0.16 0.23 0.16 0.22 0.17 0.21 0.19 0.2 0.2 0.19 0.2 0.18 0.22 0.17 0.22 0.15 0.23 0.15 0.24 0.13 0.25 0.13 0.25 0.11 0.26 0.1 0.27 0.08 0.27 0.08 0.28 0.06 0.28 0.04 0.28 0.03 0.29 0.02 0.29 0 0.29 -0.01 0.3 -0.02 0.3 -0.05 0.29 0 0zm-6.59 38.37l6.46 -38.39 0.13 0.02 -6.46 38.39 0 0 -0.13 -0.02zm0.13 0.02l0 0 0 0 0 0zm-6.68 6.45l-0.02 -0.13 0 0 0.31 -0.05 0.31 -0.06 0.3 -0.07 0.3 -0.09 0.29 -0.09 0.29 -0.11 0.28 -0.12 0.27 -0.13 0.27 -0.13 0.27 -0.15 0.26 -0.16 0.25 -0.17 0.24 -0.18 0.24 -0.19 0.22 -0.19 0.22 -0.21 0.22 -0.21 0.2 -0.22 0.2 -0.23 0.18 -0.24 0.18 -0.24 0.17 -0.25 0.16 -0.26 0.14 -0.26 0.14 -0.28 0.13 -0.27 0.12 -0.29 0.1 -0.29 0.1 -0.29 0.08 -0.3 0.07 -0.3 0.06 -0.31 0.13 0.02 -0.06 0.31 -0.07 0.31 -0.09 0.31 -0.09 0.3 -0.11 0.29 -0.12 0.29 -0.13 0.28 -0.14 0.28 -0.15 0.27 -0.16 0.26 -0.17 0.25 -0.18 0.25 -0.19 0.24 -0.2 0.24 -0.21 0.22 -0.21 0.22 -0.23 0.21 -0.23 0.2 -0.24 0.19 -0.25 0.18 -0.25 0.17 -0.26 0.16 -0.27 0.15 -0.28 0.14 -0.28 0.13 -0.28 0.12 -0.3 0.11 -0.29 0.1 -0.31 0.08 -0.31 0.08 -0.31 0.06 -0.31 0.05 0 0z"/>
   </g>
   <path class="fil2" d="M137.29 53.9c-45.58,5.45 -89.48,5.09 -131.89,-0.36 -1.63,-0.21 -2.75,-1.73 -2.46,-3.35l7.04 -38.9c0.4,-2.24 2.22,-3.94 4.48,-4.2 45.72,-5.23 90.2,-6.19 132.59,0.04 1.48,0.22 2.48,1.61 2.21,3.08l-7.15 39.16c-0.44,2.4 -2.4,4.24 -4.82,4.53z"/>
   <path class="fil3" d="M42.94 14.67c0,0 1.25,-0.05 1.25,1.34 0,1.39 -1.94,7.54 -1.94,7.54 0,0 -0.45,2 -1.81,2 -1.35,0 -1.52,-0.63 -1.52,-2.21 0,-1.58 -1.52,-6.36 -5.31,-6.36 -3.79,0 -4.19,1.9 -4.55,2.82 -0.37,0.91 -5.07,17.86 -5.07,17.86 0,0 -0.66,2.23 3.31,2.23 3.97,0 7.66,-2.63 9.77,-5.37 0.23,-0.37 0.6,-0.46 1.03,-0.46 0.43,0 1.06,0.23 1.06,1.06 0,0.83 -4.29,7.48 -12.91,7.48 -8.63,0 -12.29,-4.71 -12.29,-9.45 0,-7.81 6.3,-18.78 19.55,-18.78 5.26,0 6.28,2.25 6.99,2.25 0.71,0 1.23,-1.95 2.44,-1.95z"/>
   <path class="fil3" d="M50.34 32.25l6.63 -10.58 0.34 10.58 -6.97 0zm20.41 7.32c-1.3,-0.03 -1.97,-2.37 -1.97,-2.37l-0.75 -22.48 -9.99 0c0,0 -13.49,22.59 -14.8,23.61 -2.08,1.62 -4.04,0.71 -4.04,2.27 0,0.95 1.4,1.12 1.4,1.12 0,0 6.37,0 7.55,0 1.19,0 1.43,-1.2 1.43,-1.46 0,-0.26 -0.17,-0.39 -1.47,-1.03 -1.3,-0.63 -0.73,-1.95 -0.73,-1.95l1.12 -2.03 9.01 0c0,0 0,2.52 0,3.21 0,0.7 -2.73,1.11 -2.73,2.43 0,0.78 0.73,0.83 0.73,0.83 0,0 13.67,0 14.72,0 1.06,0 1.67,-0.6 1.67,-1.24 0,-0.1 0.15,-0.88 -1.15,-0.91z"/>
   <path class="fil3" d="M81.3 14.83l12.85 0 1.77 10.28 5.92 -10.28 13.59 0c0,0 0.89,-0.11 0.89,0.91 0,1.03 -2.97,2.12 -2.97,2.12l-5.74 19.17c0,0 -0.43,1.48 0.05,1.85 0.49,0.37 1.75,1 1.75,1.52 0,0.51 -0.29,1.4 -1.29,1.4 -1,0 -14.25,0 -14.25,0 0,0 -1.15,-0.15 -1.15,-1 0,-0.86 2.66,-1.37 3.29,-2.09 0.63,-0.71 0.97,-2.28 0.97,-2.28l3.69 -14.03 -12.32 18.91 -1.71 0 -2.2 -14.2 -2.77 9.56c0,0 -0.24,1.17 0.31,1.58 0.56,0.42 2.43,1.86 2.43,2.46 0,0.6 -0.47,1.09 -1.16,1.09 -0.68,0 -8.46,0 -8.46,0 0,0 -1.28,0.08 -1.28,-0.97 0,-1.06 2.39,-1.36 3.92,-2.32 0.88,-0.56 2.25,-5.33 2.25,-5.33l3.27 -12.41c0,0 0.26,-0.68 0.26,-1.25 0,-0.58 -0.2,-1.89 -1.85,-2.52 -0.92,-0.31 -1.35,-0.93 -1.35,-1.18 0,-0.25 0.15,-0.99 1.29,-0.99z"/>
   <path class="fil3" d="M124.76 18.37c0,0 2.2,0.28 2.2,2.45 0,2.18 -2.63,4.78 -6.06,4.78 -3.43,0 -4.08,-2.38 -4.08,-3.31 0,-0.93 1.69,-7.26 13.2,-7.26 8.97,0 9.63,4.71 9.63,6.08 0,2.89 -3.12,8.37 -7.92,9.37 -4.17,0.87 -8.82,3.14 -9.34,4.31 5.23,0 6.43,1.17 8.86,1.17 4.23,0 3.66,-3 4.86,-3 0,0 1.17,-0.02 1.17,1.32 0,3.63 -6.26,8.43 -10.83,8.43 -3.14,0 -7.6,-2.18 -10.17,-2.18 -1.08,0 -2.6,1.55 -3.37,1.55 -0.77,0 -1.14,-0.63 -1.14,-1.15 0,-0.51 2.63,-6.57 6.65,-8.74 4.02,-2.17 13.37,-5.18 13.37,-10.94 0,-2.27 -1.68,-4.02 -3.88,-4.02 -2.2,0 -3.15,1.14 -3.15,1.14z"/>
   <path class="fil0" d="M49.05 31.26l6.62 -10.58 0.35 10.58 -6.97 0zm20.4 7.32c-1.3,-0.03 -1.97,-2.37 -1.97,-2.37l-0.74 -22.48 -10 0c0,0 -13.48,22.58 -14.8,23.61 -2.07,1.62 -4.04,0.71 -4.04,2.27 0,0.95 1.4,1.12 1.4,1.12 0,0 6.37,0 7.56,0 1.18,0 1.43,-1.2 1.43,-1.46 0,-0.26 -0.18,-0.39 -1.48,-1.03 -1.3,-0.63 -0.72,-1.95 -0.72,-1.95l1.11 -2.03 9.02 0c0,0 0,2.52 0,3.21 0,0.7 -2.74,1.11 -2.74,2.43 0,0.78 0.74,0.83 0.74,0.83 0,0 13.66,0 14.72,0 1.06,0 1.67,-0.6 1.67,-1.24 0,-0.1 0.14,-0.88 -1.16,-0.91z"/>
   <path class="fil0" d="M41.75 13.48c0,0 1.26,-0.06 1.26,1.33 0,1.39 -1.94,7.54 -1.94,7.54 0,0 -0.46,2 -1.81,2 -1.35,0 -1.52,-0.63 -1.52,-2.21 0,-1.58 -1.53,-6.36 -5.32,-6.36 -3.79,0 -4.19,1.91 -4.55,2.82 -0.36,0.92 -5.06,17.86 -5.06,17.86 0,0 -0.66,2.23 3.31,2.23 3.97,0 7.65,-2.63 9.77,-5.37 0.23,-0.37 0.6,-0.46 1.03,-0.46 0.43,0 1.05,0.23 1.05,1.06 0,0.83 -4.28,7.49 -12.91,7.49 -8.62,0 -12.28,-4.72 -12.28,-9.46 0,-7.81 6.29,-18.78 19.55,-18.78 5.26,0 6.27,2.26 6.99,2.26 0.71,0 1.23,-1.95 2.43,-1.95z"/>
   <path class="fil0" d="M79.96 13.73l12.86 0 1.77 10.28 5.91 -10.28 13.6 0c0,0 0.89,-0.12 0.89,0.91 0,1.03 -2.97,2.11 -2.97,2.11l-5.75 19.17c0,0 -0.42,1.49 0.06,1.86 0.49,0.37 1.74,1 1.74,1.51 0,0.52 -0.28,1.4 -1.28,1.4 -1,0 -14.26,0 -14.26,0 0,0 -1.14,-0.14 -1.14,-1 0,-0.86 2.66,-1.37 3.29,-2.08 0.62,-0.72 0.97,-2.29 0.97,-2.29l3.68 -14.02 -12.31 18.91 -1.71 0 -2.2 -14.2 -2.77 9.55c0,0 -0.25,1.18 0.31,1.59 0.56,0.41 2.43,1.86 2.43,2.46 0,0.6 -0.47,1.08 -1.16,1.08 -0.68,0 -8.47,0 -8.47,0 0,0 -1.27,0.09 -1.27,-0.97 0,-1.06 2.39,-1.36 3.92,-2.31 0.88,-0.56 2.25,-5.33 2.25,-5.33l3.27 -12.41c0,0 0.26,-0.69 0.26,-1.26 0,-0.57 -0.2,-1.89 -1.86,-2.51 -0.91,-0.32 -1.34,-0.94 -1.34,-1.18 0,-0.25 0.14,-0.99 1.28,-0.99z"/>
   <path class="fil0" d="M123.47 17.21c0,0 2.19,0.29 2.19,2.46 0,2.17 -2.63,4.78 -6.06,4.78 -3.42,0 -4.07,-2.38 -4.07,-3.32 0,-0.93 1.68,-7.26 13.2,-7.26 8.97,0 9.62,4.71 9.62,6.08 0,2.89 -3.11,8.37 -7.91,9.37 -4.18,0.87 -8.83,3.14 -9.34,4.32 5.23,0 6.43,1.17 8.85,1.17 4.23,0 3.66,-3 4.86,-3 0,0 1.17,-0.03 1.17,1.31 0,3.63 -6.25,8.43 -10.82,8.43 -3.15,0 -7.6,-2.17 -10.17,-2.17 -1.09,0 -2.6,1.54 -3.37,1.54 -0.78,0 -1.15,-0.63 -1.15,-1.14 0,-0.52 2.64,-6.57 6.66,-8.74 4.02,-2.17 13.37,-5.18 13.37,-10.94 0,-2.28 -1.69,-4.03 -3.89,-4.03 -2.2,0 -3.14,1.14 -3.14,1.14z"/>
   <path class="fil0" d="M140.96 12.27l0.45 0c0.48,0 0.78,-0.26 0.78,-0.65 0,-0.44 -0.32,-0.63 -0.79,-0.64 -0.22,0 -0.37,0.02 -0.44,0.04l0 1.25zm-0.44 -1.56c0.22,-0.04 0.54,-0.07 0.85,-0.07 0.47,0 0.78,0.09 0.99,0.28 0.17,0.15 0.27,0.39 0.27,0.65 0,0.46 -0.29,0.76 -0.65,0.88l0 0.01c0.27,0.09 0.43,0.34 0.51,0.7 0.11,0.47 0.19,0.8 0.26,0.94l-0.46 0c-0.05,-0.1 -0.13,-0.4 -0.22,-0.82 -0.11,-0.48 -0.29,-0.65 -0.69,-0.67l-0.42 0 0 1.49 -0.44 0 0 -3.39z"/>
   <path class="fil0" d="M141.63 9.64c-1.5,0 -2.72,1.22 -2.72,2.73 0,1.5 1.22,2.73 2.72,2.73 1.51,0 2.73,-1.23 2.73,-2.73 0,-1.51 -1.22,-2.73 -2.73,-2.73zm0 5.91c-1.75,0 -3.18,-1.42 -3.18,-3.18 0,-1.76 1.43,-3.19 3.18,-3.19 1.76,0 3.19,1.43 3.19,3.19 0,1.76 -1.43,3.18 -3.19,3.18z"/>
   <polygon class="fil0" points="84.35,50.9 85.95,44.17 87.51,44.17 86.19,49.78 90.07,49.78 89.81,50.9 "/>
   <path class="fil0" d="M91.96 46.03l1.49 0 -0.68 2.88c-0.08,0.35 -0.13,0.57 -0.13,0.65 0,0.14 0.06,0.26 0.18,0.36 0.12,0.11 0.27,0.16 0.46,0.16 0.13,0 0.26,-0.03 0.39,-0.07 0.12,-0.05 0.26,-0.11 0.39,-0.2 0.14,-0.09 0.26,-0.2 0.37,-0.31 0.1,-0.12 0.2,-0.27 0.3,-0.46 0.06,-0.14 0.14,-0.37 0.21,-0.69l0.55 -2.32 1.5 0 -1.16 4.87 -1.39 0 0.15 -0.66c-0.61,0.52 -1.27,0.78 -1.99,0.78 -0.46,0 -0.81,-0.12 -1.08,-0.35 -0.26,-0.23 -0.39,-0.53 -0.39,-0.92 0,-0.17 0.06,-0.5 0.18,-1.01l0.65 -2.71z"/>
   <path class="fil0" d="M99.3 48.91c0,0.33 0.11,0.6 0.32,0.8 0.21,0.21 0.45,0.31 0.74,0.31 0.25,0 0.49,-0.08 0.72,-0.24 0.22,-0.16 0.41,-0.41 0.56,-0.76 0.15,-0.35 0.23,-0.7 0.23,-1.06 0,-0.34 -0.1,-0.61 -0.3,-0.81 -0.21,-0.2 -0.45,-0.3 -0.74,-0.3 -0.38,0 -0.7,0.16 -0.97,0.46 -0.37,0.42 -0.56,0.96 -0.56,1.6zm-2.01 1.99l1.59 -6.73 1.5 0 -0.54 2.25c0.28,-0.18 0.53,-0.31 0.77,-0.39 0.24,-0.08 0.5,-0.12 0.78,-0.12 0.58,0 1.05,0.18 1.4,0.52 0.35,0.34 0.53,0.84 0.53,1.5 0,0.45 -0.08,0.88 -0.25,1.29 -0.16,0.42 -0.39,0.76 -0.66,1.02 -0.28,0.26 -0.57,0.46 -0.87,0.59 -0.3,0.12 -0.62,0.19 -0.96,0.19 -0.79,0 -1.37,-0.31 -1.74,-0.92l-0.19 0.8 -1.36 0z"/>
   <path class="fil0" d="M104.92 46.03l1.39 0 -0.22 0.94c0.52,-0.7 1.08,-1.06 1.69,-1.06 0.22,0 0.45,0.05 0.69,0.15l-0.57 1.07c-0.13,-0.04 -0.28,-0.06 -0.43,-0.06 -0.26,0 -0.52,0.09 -0.78,0.26 -0.27,0.17 -0.48,0.4 -0.63,0.68 -0.15,0.29 -0.29,0.74 -0.44,1.36l-0.36 1.53 -1.5 0 1.16 -4.87z"/>
   <path class="fil0" d="M109.59 44.17l1.49 0 -0.28 1.2 -1.49 0 0.28 -1.2zm-0.44 1.86l1.5 0 -1.16 4.87 -1.49 0 1.15 -4.87z"/>
   <path class="fil0" d="M114.71 49.07l1.45 0.2c-0.24,0.57 -0.59,1 -1.06,1.3 -0.47,0.3 -1.01,0.45 -1.63,0.45 -0.7,0 -1.26,-0.19 -1.68,-0.56 -0.41,-0.37 -0.62,-0.88 -0.62,-1.53 0,-0.53 0.13,-1.03 0.38,-1.5 0.25,-0.47 0.62,-0.84 1.13,-1.11 0.5,-0.27 1.05,-0.41 1.65,-0.41 0.66,0 1.18,0.15 1.57,0.45 0.39,0.3 0.6,0.7 0.65,1.19l-1.42 0.13c-0.03,-0.27 -0.13,-0.47 -0.28,-0.6 -0.16,-0.13 -0.36,-0.19 -0.61,-0.19 -0.29,0 -0.56,0.09 -0.81,0.28 -0.25,0.19 -0.44,0.47 -0.57,0.85 -0.14,0.38 -0.2,0.73 -0.2,1.06 0,0.29 0.08,0.51 0.24,0.67 0.16,0.16 0.36,0.23 0.6,0.23 0.24,0 0.47,-0.07 0.69,-0.23 0.22,-0.15 0.39,-0.38 0.52,-0.68z"/>
   <path class="fil0" d="M120.42 48.63c-0.09,0.02 -0.21,0.04 -0.36,0.06 -0.75,0.08 -1.24,0.2 -1.46,0.35 -0.17,0.11 -0.25,0.26 -0.25,0.44 0,0.16 0.06,0.29 0.19,0.39 0.12,0.11 0.29,0.16 0.49,0.16 0.23,0 0.44,-0.05 0.64,-0.14 0.2,-0.1 0.35,-0.23 0.45,-0.38 0.1,-0.15 0.19,-0.38 0.26,-0.71l0.04 -0.17zm-1.42 -1.22l-1.46 -0.11c0.17,-0.44 0.46,-0.77 0.88,-1.02 0.41,-0.24 0.96,-0.37 1.64,-0.37 0.72,0 1.24,0.13 1.58,0.38 0.34,0.25 0.51,0.56 0.51,0.93 0,0.14 -0.01,0.3 -0.04,0.46 -0.03,0.17 -0.13,0.6 -0.31,1.31 -0.15,0.58 -0.22,0.99 -0.22,1.22 0,0.21 0.04,0.44 0.13,0.69l-1.46 0c-0.06,-0.18 -0.09,-0.36 -0.11,-0.55 -0.22,0.21 -0.47,0.38 -0.75,0.49 -0.29,0.12 -0.57,0.18 -0.86,0.18 -0.46,0 -0.84,-0.14 -1.14,-0.4 -0.3,-0.27 -0.45,-0.61 -0.45,-1.02 0,-0.47 0.17,-0.84 0.5,-1.12 0.32,-0.28 0.91,-0.44 1.75,-0.5 0.72,-0.05 1.19,-0.12 1.43,-0.19 0.06,-0.18 0.1,-0.33 0.1,-0.44 0,-0.14 -0.07,-0.26 -0.2,-0.35 -0.13,-0.1 -0.32,-0.15 -0.57,-0.15 -0.27,0 -0.48,0.05 -0.63,0.15 -0.16,0.1 -0.26,0.23 -0.32,0.41z"/>
   <path class="fil0" d="M124 46.03l1.42 0 -0.15 0.63c0.36,-0.27 0.69,-0.46 1,-0.57 0.3,-0.12 0.63,-0.18 0.97,-0.18 0.45,0 0.81,0.12 1.07,0.35 0.26,0.23 0.4,0.53 0.4,0.91 0,0.17 -0.06,0.5 -0.18,0.97l-0.65 2.76 -1.49 0 0.65 -2.77c0.1,-0.41 0.15,-0.65 0.15,-0.73 0,-0.17 -0.06,-0.3 -0.17,-0.4 -0.11,-0.1 -0.27,-0.15 -0.47,-0.15 -0.22,0 -0.46,0.09 -0.73,0.25 -0.27,0.16 -0.48,0.37 -0.63,0.64 -0.11,0.19 -0.24,0.58 -0.38,1.16l-0.47 2 -1.49 0 1.15 -4.87z"/>
   <path class="fil0" d="M129.72 47.01l0.23 -0.98 0.72 0 0.19 -0.78 1.71 -0.91 -0.4 1.69 0.91 0 -0.23 0.98 -0.91 0 -0.49 2.04c-0.09,0.37 -0.13,0.58 -0.13,0.63 0,0.1 0.04,0.18 0.11,0.24 0.07,0.05 0.2,0.08 0.4,0.08 0.06,0 0.23,-0.01 0.49,-0.03l-0.23 0.98c-0.26,0.04 -0.53,0.07 -0.8,0.07 -0.52,0 -0.91,-0.09 -1.15,-0.27 -0.24,-0.18 -0.36,-0.43 -0.36,-0.75 0,-0.15 0.07,-0.49 0.2,-1.03l0.46 -1.96 -0.72 0z"/>
   <path class="fil0" d="M132.7 49.54l1.45 -0.2c0.13,0.27 0.29,0.46 0.48,0.57 0.19,0.11 0.45,0.17 0.78,0.17 0.34,0 0.61,-0.07 0.82,-0.21 0.14,-0.09 0.21,-0.2 0.21,-0.33 0,-0.09 -0.03,-0.17 -0.11,-0.24 -0.07,-0.07 -0.28,-0.15 -0.62,-0.25 -0.9,-0.26 -1.46,-0.47 -1.67,-0.62 -0.34,-0.24 -0.51,-0.55 -0.51,-0.94 0,-0.38 0.16,-0.72 0.49,-0.99 0.45,-0.39 1.13,-0.59 2.02,-0.59 0.72,0 1.26,0.12 1.62,0.35 0.36,0.23 0.59,0.54 0.69,0.93l-1.38 0.21c-0.07,-0.18 -0.19,-0.31 -0.35,-0.4 -0.22,-0.12 -0.49,-0.18 -0.8,-0.18 -0.32,0 -0.54,0.05 -0.68,0.14 -0.14,0.09 -0.2,0.2 -0.2,0.32 0,0.12 0.06,0.22 0.2,0.3 0.09,0.05 0.37,0.13 0.84,0.26 0.73,0.18 1.22,0.37 1.47,0.55 0.34,0.25 0.52,0.56 0.52,0.91 0,0.47 -0.22,0.87 -0.66,1.21 -0.44,0.34 -1.07,0.51 -1.87,0.51 -0.8,0 -1.42,-0.13 -1.85,-0.39 -0.44,-0.26 -0.73,-0.62 -0.89,-1.09z"/>
  </g>
 </g>
</svg>
