<?xml version="1.0" encoding="UTF-8"?>
<!DOCTYPE svg PUBLIC "-//W3C//DTD SVG 1.1//EN" "http://www.w3.org/Graphics/SVG/1.1/DTD/svg11.dtd">
<!-- Creator: CorelDRAW -->
<svg xmlns="http://www.w3.org/2000/svg" xml:space="preserve" width="350px" height="217px" version="1.1" style="shape-rendering:geometricPrecision; text-rendering:geometricPrecision; image-rendering:optimizeQuality; fill-rule:evenodd; clip-rule:evenodd"
viewBox="0 0 675.37 418.5"
 xmlns:xlink="http://www.w3.org/1999/xlink"
 xmlns:xodm="http://www.corel.com/coreldraw/odm/2003">
 <defs>
  <style type="text/css">
   <![CDATA[
    .fil1 {fill:#FEFEFE}
    .fil13 {fill:#373435}
    .fil0 {fill:#950C00}
    .fil2 {fill:#FFD070}
    .fil3 {fill:#FFD487}
    .fil16 {fill:#FEFEFE;fill-rule:nonzero}
    .fil12 {fill:#373435;fill-rule:nonzero}
    .fil10 {fill:#000306;fill-rule:nonzero}
    .fil15 {fill:#440006;fill-rule:nonzero}
    .fil9 {fill:#5E5751;fill-rule:nonzero}
    .fil8 {fill:#7C6D66;fill-rule:nonzero}
    .fil7 {fill:#90867C;fill-rule:nonzero}
    .fil14 {fill:#950C00;fill-rule:nonzero}
    .fil6 {fill:#E2E300;fill-rule:nonzero}
    .fil5 {fill:#FD8B00;fill-rule:nonzero}
    .fil4 {fill:#FE2F00;fill-rule:nonzero}
    .fil11 {fill:#FEFF9A;fill-rule:nonzero}
   ]]>
  </style>
 </defs>
 <g id="Capa_x0020_1">
  <metadata id="CorelCorpID_0Corel-Layer"/>
  <g id="_2211567465920">
   <path class="fil0" d="M337.96 0c97.3,0 176.17,78.87 176.17,176.17 0,97.3 -78.87,176.17 -176.17,176.17 -97.3,0 -176.17,-78.87 -176.17,-176.17 0,-97.3 78.87,-176.17 176.17,-176.17z"/>
   <path class="fil1" d="M337.96 15.17c88.92,0 161.01,72.08 161.01,161 0,88.92 -72.09,161.01 -161.01,161.01 -88.92,0 -161,-72.09 -161,-161.01 0,-88.92 72.08,-161 161,-161z"/>
   <path class="fil2" d="M337.96 23.65c84.24,0 152.53,68.28 152.53,152.52 0,84.24 -68.29,152.53 -152.53,152.53 -84.24,0 -152.53,-68.29 -152.53,-152.53 0,-84.24 68.29,-152.52 152.53,-152.52z"/>
   <polygon class="fil3" points="368.81,147.39 442.66,88.4 371.68,150.82 451.35,99.95 374.17,154.52 458.77,112.36 376.26,158.47 464.83,125.48 377.91,162.61 469.48,139.17 379.12,166.91 472.65,153.27 379.87,171.31 474.32,167.63 379.31,175.84 474.44,182.51 376.03,180.27 472.66,199.01 379.13,185.41 469.5,213.11 377.92,189.71 464.86,226.8 371.89,192.23 457.56,242.21 373.76,198.49 449.91,254.48 371.2,202.15 441.01,265.87 368.27,205.51 430.96,276.26 365,208.55 419.86,285.52 361.43,211.23 407.85,293.56 357.6,213.51 395.06,300.29 353.54,215.38 381.62,305.63 349.31,216.8 367.7,309.52 344.95,217.77 353.44,311.91 340.52,218.28 339.02,312.79 336.05,218.31 324.58,312.14 331.61,217.88 310.28,309.96 327.24,216.97 296.3,306.29 322.99,215.61 282.79,301.16 318.91,213.81 269.89,294.63 315.04,211.59 257.76,286.78 311.42,208.97 246.52,277.68 308.11,205.98 236.31,267.45 305.12,202.66 227.23,256.2 302.51,199.04 219.39,244.05 300.29,195.17 212.89,231.15 298.49,191.08 207.78,217.62 297.14,186.83 204.13,203.64 296.24,182.45 201.97,189.34 295.81,178.01 201.34,174.9 295.85,173.55 202.24,160.47 296.37,169.11 204.66,146.22 297.34,164.76 208.57,132.3 298.78,160.53 213.93,118.88 300.65,156.48 220.68,106.1 302.94,152.65 228.74,94.1 305.62,149.08 238.02,83.01 308.66,145.81 248.42,72.98 312.04,142.89 259.83,64.1 315.7,140.33 272.11,56.47 319.61,138.18 285.12,50.18 323.72,136.45 298.73,45.3 328,135.17 312.78,41.89 332.39,134.35 327.11,39.98 336.84,134 341.55,39.59 341.3,134.11 355.96,40.74 345.73,134.7 370.17,43.4 350.06,135.75 384.02,47.55 354.27,137.26 397.35,53.13 358.29,139.2 410.02,60.09 362.08,141.55 421.88,68.36 365.6,144.3 432.8,77.83 "/>
   <g>
    <path class="fil4" d="M285.59 68.99c0,0 13.83,19.49 22.66,43.07 8.84,23.57 11,30.03 11,30.03 0,0 19.04,-87.16 36.72,-103.25 0,0 -9.46,34.4 6.86,83.02 0,0 23.96,-45.05 57.97,-57.29 0,0 -36.04,27.71 -28.57,65.79 7.49,38.08 20.75,41.65 10.55,71.23 -10.2,29.58 -48.45,25.33 -48.45,25.33l-53.73 0.51c0,0 -12.41,0.51 -20.91,-15.47 -8.5,-15.98 -16.49,-33.49 -3.91,-67.15 12.59,-33.66 12.13,-57.29 9.81,-75.82z"/>
    <path class="fil5" d="M296.13 121.69c0,0 19.04,35.93 23.8,55.19 0,0 16.2,-80.18 27.94,-100.75 0,0 -11.05,59.84 11.22,84.32 0,0 9.91,-35.02 26.57,-48.39 0,0 -9.23,17.62 -3.11,46.69 6.12,29.07 17.73,49.42 1.98,63.13 -15.75,13.71 -22.44,13.15 -22.44,13.15l-43.3 1.92 -14.28 -6.68c0,0 -21.07,-21.65 -21.19,-36.73 -0.11,-15.07 13.6,-32.64 13.83,-46.46 0.22,-13.83 -1.02,-25.39 -1.02,-25.39z"/>
    <path class="fil6" d="M304.17 156.54c0,0 -2.15,17.62 -4.98,26.01 -2.84,8.39 -7.71,25.39 10.43,40.35 18.13,14.96 37.06,24.82 37.06,24.82 0,0 11.9,-0.8 12.92,-2.04 1.01,-1.25 6.46,-9.52 6.46,-9.52 0,0 14.62,-0.79 14.39,-1.59 -0.23,-0.79 -2.15,-8.84 -2.15,-8.84 0,0 6.46,-6.91 0.68,-21.98 -6.35,-12.47 -12.81,-33.67 -5.1,-44.66 0,0 -12.02,5.89 -18.48,35.48 0,0 -18.99,-31.86 -14.62,-57.24 0,0 -9.77,12.1 -12.72,57.21 0,0 -4.25,-8.42 -13.09,-16.79 -6.04,-6.42 -10.8,-21.21 -10.8,-21.21z"/>
    <path class="fil7" d="M288.88 237.47c-0.26,0.51 -3.74,9.5 -3.74,9.5l-4.95 2.32 -11.16 5.24c0,0 -20.96,6.73 -42.12,-1.34 -13.44,-5.88 -18.77,-8.69 -20.56,-12.12 -0.21,-0.39 -0.35,-0.79 -0.47,-1.19 -0.07,-0.55 -0.09,-1.22 -0.05,-1.88 0.05,-1.99 0.42,-4.11 0.42,-4.11 0,0 0.31,-2.02 1.23,-5.12 1.68,-5.9 5.49,-15.77 13.17,-22.99 11.67,-10.19 14.95,-13.88 22.89,-17.29 7.92,-3.39 15.18,0.81 24.6,6.31 6.36,4.48 11.57,7.4 13.61,10.05l0 0.01c0.37,0.48 0.61,0.92 0.77,1.38 0,0 2.67,10.43 3.57,14.45 0.4,1.8 0.93,3.34 1.41,4.69 0.61,1.69 1.15,3.06 1.38,4.26 0.39,2.16 0.25,7.32 0,7.83z"/>
    <path class="fil8" d="M288.88 237.47c-0.26,0.51 -3.74,9.5 -3.74,9.5l-4.95 2.32 -11.16 5.24c0,0 -20.96,6.73 -42.12,-1.34 -13.44,-5.88 -18.77,-8.69 -20.56,-12.12 -0.21,-0.39 -0.35,-0.79 -0.47,-1.19 -0.07,-0.55 -0.09,-1.22 -0.05,-1.88 0.05,-1.99 0.42,-4.11 0.42,-4.11 0,0 0.31,-2.02 1.23,-5.12 3.6,1.21 9.32,2.34 17.72,1.81 9.94,-1.28 11.74,-2.72 23.81,-3.32 12.06,-0.59 21.78,0.85 29.49,-14.51 1.35,-2.63 2.48,-5.65 3.25,-7.89 0.37,0.48 0.61,0.92 0.77,1.38 0,0 2.67,10.43 3.57,14.45 0.4,1.8 0.93,3.34 1.41,4.69 0.61,1.69 1.15,3.06 1.38,4.26 0.39,2.16 0.25,7.32 0,7.83z"/>
    <path class="fil9" d="M288.88 237.47c-0.26,0.51 -3.74,9.5 -3.74,9.5l-4.95 2.32 -11.16 5.24c0,0 -20.96,6.73 -42.12,-1.34 -13.44,-5.88 -18.77,-8.69 -20.56,-12.12 -0.21,-0.39 -0.35,-0.79 -0.47,-1.19 -0.07,-0.55 -0.09,-1.22 -0.05,-1.88 4.12,2.35 9.36,4.39 17.88,6.66 20.39,6.09 15.63,-14.62 15.63,-14.62 6.92,3.06 7.15,12.7 21.44,14.51 11.78,1.49 23.13,-13.81 26.72,-19.17 0.61,1.69 1.15,3.06 1.38,4.26 0.39,2.16 0.25,7.32 0,7.83z"/>
    <path class="fil10" d="M280.19 249.29l-11.16 5.24c0,0 -20.96,6.73 -42.12,-1.34 -13.44,-5.88 -18.77,-8.69 -20.56,-12.12 6.24,2.27 27.55,9.94 43.54,14.58 9.69,-2.77 19.49,-5.5 19.49,-5.5l10.81 -0.86z"/>
    <path class="fil7" d="M470.03 238.49c-0.13,0.12 -0.28,0.28 -0.45,0.44l-0.02 0c-2.62,2.46 -9.84,8.71 -25.98,13.24 -17.25,4.83 -33.75,1.11 -33.75,1.11l-13.4 -1.93 -8.5 -6.57 -1.08 -1.97 -1.65 -3.02c0,0 -0.33,-8.84 1.25,-12.47 0.44,-1.01 1.09,-2.87 1.81,-5.15 1.86,-5.9 4.2,-14.58 4.78,-18.43 0,-0.33 0.42,-0.86 1.32,-1.65 1.77,-1.56 5.5,-4.18 11.73,-8.49 14.11,-9.94 21.62,-10.82 28.53,-6.51 6.92,4.3 16.18,11.61 25.45,21.39 4.45,5.73 7,12.32 8.42,17.85 0.93,3.62 1.37,6.78 1.54,8.99 0.13,1.69 0.09,2.84 0,3.17z"/>
    <path class="fil8" d="M470.03 238.49c-0.13,0.12 -0.28,0.28 -0.45,0.44l-0.02 0c-2.62,2.46 -9.84,8.71 -25.98,13.24 -17.25,4.83 -33.75,1.11 -33.75,1.11l-13.4 -1.93 -8.5 -6.57 -1.08 -1.97 -1.65 -3.02c0,0 -0.33,-8.84 1.25,-12.47 0.44,-1.01 1.09,-2.87 1.81,-5.15 1.86,-5.9 4.2,-14.58 4.78,-18.43 0,-0.33 0.42,-0.86 1.32,-1.65 1.01,4.55 3.17,10.88 8.25,15.23 8.42,7.22 9.35,6.54 19.29,6.47 9.95,-0.09 15.81,1.08 22.36,3.14 6.1,1.9 10.95,2.99 24.23,-0.6 0.93,3.62 1.37,6.78 1.54,8.99 0.13,1.69 0.09,2.84 0,3.17z"/>
    <path class="fil9" d="M470.03 238.49c-0.13,0.12 -0.28,0.28 -0.45,0.44l-0.02 0c-2.62,2.46 -9.84,8.71 -25.98,13.24 -17.25,4.83 -33.75,1.11 -33.75,1.11l-13.4 -1.93 -8.5 -6.57 -1.08 -1.97 -1.65 -3.02c0,0 -0.33,-8.84 1.25,-12.47 0.44,-1.01 1.09,-2.87 1.81,-5.15 0.46,1.74 1.11,3.49 1.98,4.25 2.06,1.76 5.68,5.15 7.72,7.92 2.03,2.78 7.02,8.22 18.19,7.89 11.16,-0.35 14.9,-9.24 15.47,-11.12 0.58,-1.86 4.65,-4.36 4.65,-4.36 0,0 -1.19,6.4 0,10.37 1.2,3.97 4.02,7.2 12.68,5.67 7.84,-1.39 16.99,-4.74 21.08,-7.47 0.13,1.69 0.09,2.84 0,3.17z"/>
    <path class="fil10" d="M469.56 238.93c-2.62,2.46 -9.84,8.71 -25.98,13.24 -17.25,4.83 -33.75,1.11 -33.75,1.11l-13.4 -1.93 -8.5 -6.57 -1.08 -1.97c2.34,-0.83 4.92,-1.28 7.08,-0.58 5.45,1.77 31.8,11.3 31.8,11.3 5.18,-2.29 33.41,-11.3 43.83,-14.6z"/>
    <path class="fil7" d="M414.65 254.48c-0.04,0.08 -0.09,0.17 -0.14,0.26 -3.12,2.16 -18.7,11.36 -45.91,9.66 -16.57,-0.51 -30.3,-4.83 -30.3,-4.83 0,0 -0.91,0.39 -2.63,0.93 -0.25,0.09 -0.39,0.14 -0.39,0.14 -5.73,1.85 -19.22,5.34 -36.89,4.45 -19.54,-1.11 -27.88,-5.28 -30.85,-6.21 -2.97,-0.93 -6.25,-0.42 -6.71,-2.69 -0.26,-1.14 0.93,-2.15 0.93,-2.15 0,0 0.91,-0.81 2.41,-2.11 1.26,-1.11 2.98,-2.57 4.91,-4.2 1.9,-1.57 4.01,-3.29 6.19,-4.99 7.06,-6.22 15.39,-15.65 23.89,-18.37 10.8,-2.38 17.9,-4.08 17.9,-4.08 0,0 2.16,-0.55 3.58,0.6 1.41,1.14 15.32,10.57 18.61,13.27 0,0 9.47,-15.22 17.62,-15 8.17,0.23 21.08,0 30.95,9.53 9.73,9.38 14.93,13.26 18.88,16.08 0.06,0.04 0.11,0.08 0.16,0.11 1.39,1 2.97,2.2 4.34,3.45 2.41,2.17 4.22,4.51 3.45,6.15z"/>
    <path class="fil8" d="M414.65 254.48c-0.04,0.08 -0.09,0.17 -0.14,0.26 -3.12,2.16 -18.7,11.36 -45.91,9.66 -16.57,-0.51 -30.3,-4.83 -30.3,-4.83 0,0 -0.91,0.39 -2.63,0.93 -0.25,0.09 -0.39,0.14 -0.39,0.14 -5.73,1.85 -19.22,5.34 -36.89,4.45 -19.54,-1.11 -27.88,-5.28 -30.85,-6.21 -2.97,-0.93 -6.25,-0.42 -6.71,-2.69 -0.26,-1.14 0.93,-2.15 0.93,-2.15 0,0 0.91,-0.81 2.41,-2.11 1.26,-1.11 2.98,-2.57 4.91,-4.2 4.29,2.48 12.2,5.69 25.23,6.64 17.09,1.04 22.15,1.28 28.53,-5.43 3.57,-4.76 6.27,-9.89 10.12,-10.75 3.86,-0.84 8.62,-3.28 11.1,-1.76 2.5,1.55 7.43,11.74 14.86,14.36 6.87,2.4 39.77,1.31 47.78,-6.02 0.06,0.04 0.11,0.08 0.16,0.11 1.39,1 2.97,2.2 4.34,3.45 2.41,2.17 4.22,4.51 3.45,6.15z"/>
    <path class="fil9" d="M414.65 254.48c-0.04,0.08 -0.09,0.17 -0.14,0.26 -3.12,2.16 -18.7,11.36 -45.91,9.66 -16.57,-0.51 -30.3,-4.83 -30.3,-4.83 0,0 -0.91,0.39 -2.63,0.93 -0.25,0.09 -0.39,0.14 -0.39,0.14 -5.73,1.85 -19.22,5.34 -36.89,4.45 -19.54,-1.11 -27.88,-5.28 -30.85,-6.21 -2.97,-0.93 -6.25,-0.42 -6.71,-2.69 -0.26,-1.14 0.93,-2.15 0.93,-2.15 0,0 0.91,-0.81 2.41,-2.11 4.16,3.58 11.63,8.68 22.2,10.94 8.71,1.41 28.05,3.38 38.44,-5.92 7.87,-7.76 13,-13.54 13,-13.54 0,0 13.12,15.65 30.12,17.27 16.38,1.54 33.82,-0.24 43.27,-12.35 2.41,2.17 4.22,4.51 3.45,6.15z"/>
    <path class="fil10" d="M341.83 258.16c0,0 12.72,5.82 37.82,4.92 13.49,-0.49 26.16,-4.76 34.99,-8.61 -0.03,0.09 -0.08,0.18 -0.13,0.27 -3.11,2.16 -18.7,11.36 -45.91,9.66 -16.56,-0.51 -30.3,-4.83 -30.3,-4.83l3.53 -1.41z"/>
    <path class="fil11" d="M336.73 214.09c0,0 0.15,-8.25 2.16,-14.2 2.01,-5.95 2.01,-8.5 2.01,-8.5 0,0 2.21,12.15 6.03,19.29 3.83,7.15 5.87,12.16 5.87,12.16 0,0 2.72,-3.31 3.4,-10.46 0.68,-7.13 3.31,-14.28 11.47,-19.37 0,0 -1.84,12.43 0.94,19.46 2.77,7.03 8.1,20.4 -13.32,30.49 0,0 -5.13,2.53 -8.78,-2.14 -3.66,-4.68 -27.83,-21.27 -27.83,-21.27 0,0 -4.31,2.95 -7.99,-1.02 -3.68,-3.96 -4.53,-10.65 -3.51,-18.18 0.39,-6.98 0.17,-9.13 -0.91,-12.02 -1.07,-2.89 -0.91,-8.05 -0.91,-8.05 0,0 6.07,8.11 9.64,11.96 3.57,3.85 7.02,10.03 13.09,15.02 6.06,4.99 8.64,6.83 8.64,6.83z"/>
   </g>
   <path class="fil12" d="M162.41 394.72c0,1.46 -0.22,2.83 -0.64,4.1 -0.42,1.27 -1.05,2.38 -1.88,3.32 -0.83,0.94 -1.88,1.68 -3.15,2.22 -1.27,0.54 -2.75,0.81 -4.45,0.81l-4.98 0 0 13.04 -5.57 0 0 -34 10.26 0c1.6,0 3.03,0.21 4.3,0.64 1.27,0.42 2.36,1.06 3.27,1.93 0.92,0.86 1.61,1.95 2.1,3.27 0.49,1.32 0.74,2.88 0.74,4.67zm-5.52 -0.13c0,-1.68 -0.41,-2.97 -1.22,-3.86 -0.82,-0.89 -2.06,-1.34 -3.72,-1.34l-4.64 0 0 10.5 4.69 0c1.66,0 2.89,-0.48 3.69,-1.43 0.8,-0.96 1.2,-2.25 1.2,-3.87zm29.3 13.31c0,1.63 -0.25,3.1 -0.75,4.4 -0.51,1.3 -1.22,2.42 -2.15,3.35 -0.93,0.92 -2.03,1.63 -3.3,2.12 -1.27,0.49 -2.67,0.73 -4.2,0.73 -1.86,0 -3.45,-0.3 -4.79,-0.9 -1.33,-0.6 -2.42,-1.42 -3.24,-2.44 -0.84,-1.03 -1.45,-2.22 -1.84,-3.57 -0.39,-1.35 -0.58,-2.77 -0.58,-4.27l0 -12.85c0,-1.2 0.18,-2.42 0.56,-3.66 0.37,-1.24 0.98,-2.36 1.8,-3.37 0.84,-1.01 1.91,-1.84 3.23,-2.49 1.32,-0.65 2.94,-0.98 4.86,-0.98 1.79,0 3.34,0.31 4.64,0.93 1.3,0.62 2.38,1.42 3.25,2.42 0.86,0.99 1.5,2.11 1.9,3.37 0.41,1.25 0.61,2.51 0.61,3.78l0 13.43zm-5.66 -13.52c0,-0.42 -0.08,-0.92 -0.22,-1.49 -0.15,-0.57 -0.4,-1.11 -0.76,-1.64 -0.36,-0.52 -0.84,-0.97 -1.44,-1.35 -0.6,-0.37 -1.38,-0.56 -2.32,-0.56 -0.94,0 -1.73,0.17 -2.37,0.52 -0.63,0.34 -1.14,0.76 -1.51,1.27 -0.38,0.51 -0.65,1.05 -0.81,1.64 -0.16,0.59 -0.24,1.14 -0.24,1.66l0.05 13.03c0,1.63 0.37,2.99 1.12,4.11 0.75,1.1 2.02,1.66 3.81,1.66 1.27,0 2.37,-0.43 3.3,-1.3 0.92,-0.87 1.39,-2.05 1.39,-3.55l0 -14zm10.94 23.83l0 -34 5.57 0 0 28.73 13.14 0 0 5.27 -18.71 0zm22.57 0l0 -34 5.56 0 0 28.73 13.14 0 0 5.27 -18.7 0zm42.49 -10.31c0,1.63 -0.25,3.1 -0.76,4.4 -0.5,1.3 -1.22,2.42 -2.15,3.35 -0.92,0.92 -2.02,1.63 -3.29,2.12 -1.27,0.49 -2.67,0.73 -4.2,0.73 -1.86,0 -3.45,-0.3 -4.79,-0.9 -1.33,-0.6 -2.42,-1.42 -3.25,-2.44 -0.83,-1.03 -1.44,-2.22 -1.83,-3.57 -0.39,-1.35 -0.58,-2.77 -0.58,-4.27l0 -12.85c0,-1.2 0.18,-2.42 0.56,-3.66 0.37,-1.24 0.97,-2.36 1.8,-3.37 0.83,-1.01 1.91,-1.84 3.23,-2.49 1.32,-0.65 2.94,-0.98 4.86,-0.98 1.79,0 3.34,0.31 4.64,0.93 1.3,0.62 2.38,1.42 3.25,2.42 0.86,0.99 1.49,2.11 1.9,3.37 0.41,1.25 0.61,2.51 0.61,3.78l0 13.43zm-5.67 -13.52c0,-0.42 -0.07,-0.92 -0.21,-1.49 -0.15,-0.57 -0.4,-1.11 -0.76,-1.64 -0.36,-0.52 -0.84,-0.97 -1.44,-1.35 -0.61,-0.37 -1.38,-0.56 -2.32,-0.56 -0.95,0 -1.74,0.17 -2.37,0.52 -0.64,0.34 -1.14,0.76 -1.52,1.27 -0.37,0.51 -0.64,1.05 -0.8,1.64 -0.16,0.59 -0.25,1.14 -0.25,1.66l0.05 13.03c0,1.63 0.38,2.99 1.13,4.11 0.74,1.1 2.02,1.66 3.81,1.66 1.27,0 2.37,-0.43 3.29,-1.3 0.93,-0.87 1.39,-2.05 1.39,-3.55l0 -14zm31.02 14.16c0,3.09 -0.94,5.53 -2.83,7.3 -1.89,1.78 -4.56,2.66 -8.01,2.66 -2.74,0 -5,-0.53 -6.79,-1.62 -1.79,-1.08 -3.19,-2.48 -4.2,-4.19l4.59 -3.32c0.75,1.17 1.64,2.11 2.69,2.81 1.04,0.7 2.31,1.05 3.81,1.05 1.79,0 3.05,-0.43 3.78,-1.3 0.73,-0.86 1.1,-1.93 1.1,-3.2 0,-0.79 -0.15,-1.45 -0.44,-2.01 -0.29,-0.55 -0.7,-1.04 -1.22,-1.45 -0.52,-0.4 -1.16,-0.75 -1.91,-1.05 -0.74,-0.29 -1.56,-0.57 -2.44,-0.83 -1.63,-0.52 -3.01,-1.07 -4.15,-1.66 -1.14,-0.58 -2.08,-1.27 -2.81,-2.03 -0.73,-0.77 -1.26,-1.65 -1.58,-2.64 -0.33,-1 -0.49,-2.13 -0.49,-3.4 0,-1.4 0.24,-2.71 0.73,-3.89 0.49,-1.19 1.19,-2.22 2.1,-3.08 0.91,-0.87 1.99,-1.54 3.25,-2.01 1.25,-0.47 2.66,-0.71 4.22,-0.71 2.54,0 4.6,0.42 6.18,1.27 1.58,0.85 2.84,2 3.79,3.47l-4.25 3.56c-0.75,-1.04 -1.6,-1.8 -2.54,-2.29 -0.95,-0.49 -2.04,-0.73 -3.28,-0.73 -1.46,0 -2.58,0.39 -3.36,1.19 -0.79,0.8 -1.18,1.8 -1.18,3 0,0.69 0.18,1.28 0.54,1.79 0.36,0.5 0.85,0.95 1.46,1.34 0.62,0.39 1.36,0.74 2.2,1.05 0.85,0.31 1.75,0.61 2.69,0.91 1.59,0.49 2.92,1.05 3.98,1.68 1.06,0.63 1.91,1.36 2.56,2.17 0.66,0.82 1.12,1.73 1.4,2.74 0.27,1.01 0.41,2.15 0.41,3.42zm24.42 -10.06c0.36,-1.11 0.74,-2.2 1.13,-3.28 0.39,-1.07 0.78,-2.16 1.17,-3.27l2.98 -7.72 5.91 0 -8.6 20.13 0 13.87 -5.47 0 0 -13.87 -8.59 -20.17 6.05 0c0.49,1.33 0.99,2.65 1.49,3.95 0.51,1.3 0.99,2.61 1.44,3.91 0.36,1.04 0.73,2.12 1.1,3.22 0.38,1.11 0.74,2.18 1.1,3.23l0.29 0zm46.41 -3.76c0,1.46 -0.21,2.83 -0.64,4.1 -0.42,1.27 -1.05,2.38 -1.88,3.32 -0.83,0.94 -1.88,1.68 -3.15,2.22 -1.27,0.54 -2.75,0.81 -4.44,0.81l-4.98 0 0 13.04 -5.57 0 0 -34 10.25 0c1.6,0 3.03,0.21 4.3,0.64 1.27,0.42 2.36,1.06 3.27,1.93 0.92,0.86 1.62,1.95 2.11,3.27 0.48,1.32 0.73,2.88 0.73,4.67zm-5.52 -0.13c0,-1.68 -0.41,-2.97 -1.22,-3.86 -0.82,-0.89 -2.06,-1.34 -3.71,-1.34l-4.64 0 0 10.5 4.68 0c1.66,0 2.89,-0.48 3.69,-1.43 0.8,-0.96 1.2,-2.25 1.2,-3.87zm21.39 16.29l-9.42 0c-0.07,0.3 -0.2,0.78 -0.4,1.47 -0.19,0.68 -0.39,1.41 -0.61,2.2 -0.21,0.78 -0.4,1.51 -0.58,2.19 -0.18,0.69 -0.32,1.18 -0.42,1.47l-5.81 0 9.82 -34 5.37 0 9.87 34 -5.91 0 -1.91 -7.33zm-6.45 -11.82l-1.75 6.84 6.93 0 -1.71 -6.79c-0.06,-0.29 -0.17,-0.78 -0.31,-1.46 -0.15,-0.69 -0.31,-1.4 -0.49,-2.15 -0.18,-0.75 -0.35,-1.46 -0.52,-2.13 -0.16,-0.67 -0.26,-1.15 -0.29,-1.44l-0.24 0 -1.62 7.13zm32.68 19.15l-5.08 -14.16 -4.35 0 0 14.16 -5.56 0 0 -34 10.94 0c1.4,0 2.7,0.21 3.91,0.61 1.2,0.41 2.24,1.02 3.1,1.84 0.86,0.81 1.54,1.83 2.02,3.05 0.49,1.22 0.74,2.65 0.74,4.27 0,2.15 -0.46,4.01 -1.37,5.57 -0.91,1.56 -2.26,2.75 -4.05,3.57l5.81 15.09 -6.11 0zm0.25 -24.23c0,-1.59 -0.41,-2.77 -1.22,-3.54 -0.82,-0.76 -1.99,-1.15 -3.52,-1.15l-4.94 0 0 9.73 4.89 0c1.47,0 2.63,-0.43 3.49,-1.28 0.86,-0.84 1.3,-2.1 1.3,-3.76zm25.54 24.23l-5.08 -14.16 -4.35 0 0 14.16 -5.56 0 0 -34 10.94 0c1.4,0 2.7,0.21 3.91,0.61 1.2,0.41 2.24,1.02 3.1,1.84 0.86,0.81 1.54,1.83 2.02,3.05 0.49,1.22 0.74,2.65 0.74,4.27 0,2.15 -0.46,4.01 -1.37,5.57 -0.91,1.56 -2.26,2.75 -4.05,3.57l5.81 15.09 -6.11 0zm0.25 -24.23c0,-1.59 -0.41,-2.77 -1.22,-3.54 -0.82,-0.76 -1.99,-1.15 -3.52,-1.15l-4.94 0 0 9.73 4.89 0c1.47,0 2.63,-0.43 3.49,-1.28 0.87,-0.84 1.3,-2.1 1.3,-3.76zm10.6 24.23l0 -34 5.61 0 0 34 -5.61 0zm11.82 0l0 -34 5.56 0 0 28.73 13.15 0 0 5.27 -18.71 0zm22.56 0l0 -34 5.57 0 0 28.73 13.14 0 0 5.27 -18.71 0zm37.03 -7.33l-9.43 0c-0.06,0.3 -0.19,0.78 -0.39,1.47 -0.2,0.68 -0.4,1.41 -0.61,2.2 -0.21,0.78 -0.41,1.51 -0.59,2.19 -0.18,0.69 -0.31,1.18 -0.41,1.47l-5.81 0 9.81 -34 5.38 0 9.86 34 -5.91 0 -1.9 -7.33zm-6.45 -11.82l-1.76 6.84 6.94 0 -1.71 -6.79c-0.07,-0.29 -0.17,-0.78 -0.32,-1.46 -0.15,-0.69 -0.31,-1.4 -0.49,-2.15 -0.18,-0.75 -0.35,-1.46 -0.51,-2.13 -0.16,-0.67 -0.26,-1.15 -0.29,-1.44l-0.25 0 -1.61 7.13zm37.76 9.48c0,3.09 -0.95,5.53 -2.83,7.3 -1.89,1.78 -4.56,2.66 -8.01,2.66 -2.74,0 -5,-0.53 -6.8,-1.62 -1.79,-1.08 -3.19,-2.48 -4.2,-4.19l4.6 -3.32c0.75,1.17 1.64,2.11 2.68,2.81 1.05,0.7 2.31,1.05 3.81,1.05 1.79,0 3.05,-0.43 3.79,-1.3 0.73,-0.86 1.1,-1.93 1.1,-3.2 0,-0.79 -0.15,-1.45 -0.44,-2.01 -0.3,-0.55 -0.7,-1.04 -1.23,-1.45 -0.51,-0.4 -1.15,-0.75 -1.9,-1.05 -0.75,-0.29 -1.56,-0.57 -2.44,-0.83 -1.63,-0.52 -3.01,-1.07 -4.15,-1.66 -1.14,-0.58 -2.08,-1.27 -2.81,-2.03 -0.73,-0.77 -1.26,-1.65 -1.59,-2.64 -0.32,-1 -0.49,-2.13 -0.49,-3.4 0,-1.4 0.25,-2.71 0.74,-3.89 0.48,-1.19 1.18,-2.22 2.1,-3.08 0.91,-0.87 1.99,-1.54 3.24,-2.01 1.26,-0.47 2.67,-0.71 4.23,-0.71 2.54,0 4.6,0.42 6.18,1.27 1.58,0.85 2.84,2 3.78,3.47l-4.25 3.56c-0.75,-1.04 -1.59,-1.8 -2.54,-2.29 -0.94,-0.49 -2.03,-0.73 -3.27,-0.73 -1.46,0 -2.59,0.39 -3.37,1.19 -0.78,0.8 -1.17,1.8 -1.17,3 0,0.69 0.18,1.28 0.54,1.79 0.35,0.5 0.84,0.95 1.46,1.34 0.62,0.39 1.35,0.74 2.2,1.05 0.84,0.31 1.74,0.61 2.69,0.91 1.59,0.49 2.92,1.05 3.98,1.68 1.06,0.63 1.91,1.36 2.56,2.17 0.65,0.82 1.12,1.73 1.39,2.74 0.28,1.01 0.42,2.15 0.42,3.42z"/>
   <g>
    <polygon class="fil13" points="8.35,401.03 111.31,395.69 119.91,401.03 111.31,406.37 "/>
    <polygon class="fil13" points="667.57,401.03 564.61,395.69 556.02,401.03 564.61,406.37 "/>
   </g>
   <path class="fil14" d="M67.23 289.97l-0.06 1.01c3.29,-3.58 7.04,-6.28 11.26,-8.11l0.01 0 0 -0.03c4.27,-1.85 9.04,-2.77 14.3,-2.77 5.19,0 9.82,0.93 13.88,2.79 4.28,1.96 7.91,4.92 10.88,8.87 1.72,2.29 3.16,4.84 4.33,7.64 1.32,-2.55 2.84,-4.91 4.56,-7.1 3.26,-4.13 6.95,-7.23 11.06,-9.3 3.99,-2 8.35,-3 13.08,-3 1.58,0 3.11,0.11 4.58,0.34 1.53,0.25 2.96,0.61 4.28,1.09 0.82,0.3 1.63,0.66 2.43,1.07 1.04,-0.92 2.25,-1.42 3.46,-1.42l0 0 8.06 0c3.23,0.01 5.63,3.54 5.36,7.87l-1.13 19.08c0.2,-0.65 0.42,-1.3 0.64,-1.94 1.95,-5.51 4.69,-10.28 8.21,-14.32 3.45,-3.96 7.44,-6.91 11.96,-8.87 0.15,-2.01 0.85,-3.84 1.89,-5.2l0 0 11.78 -15.45 -0.01 -0.01c0.86,-1.14 1.66,-2.12 2.4,-2.94 0.87,-0.96 1.71,-1.75 2.51,-2.37 0.95,-0.73 1.91,-1.27 2.88,-1.63 0.99,-0.37 2.02,-0.55 3.09,-0.55 1.36,0 2.62,0.32 3.77,0.97 1.22,0.69 2.28,1.69 3.16,3 0.86,1.28 1.49,2.77 1.89,4.47 0.38,1.6 0.52,3.31 0.41,5.12 -0.1,1.6 -0.39,3.1 -0.87,4.51 -0.47,1.39 -1.12,2.69 -1.96,3.9l-0.03 0.05 0 0.01c-0.7,0.99 -1.51,1.92 -2.45,2.77 -0.73,0.66 -1.63,1.34 -2.7,2.03 -0.11,0.07 -0.23,0.14 -0.35,0.21 0.95,0.32 1.88,0.68 2.77,1.1 3.76,1.72 7.01,4.2 9.75,7.45l0.03 -0.4c0.26,-4.33 3.1,-7.83 6.33,-7.82l25.06 0c2.31,0.01 4.19,1.82 4.99,4.43l0.55 1.59c0.82,-3.46 3.3,-6.03 6.07,-6.02l22.25 0c3.23,0.02 5.64,3.54 5.37,7.88l-0.58 9.63c-0.26,4.33 -3.1,7.83 -6.33,7.82l-0.09 0 -3.01 50.59c-0.27,4.33 -3.11,7.83 -6.34,7.82l-17.36 0c-2.22,-0.01 -4.04,-1.67 -4.89,-4.12l-0.01 0.01 -1.92 -5.59 -0.11 1.88c-0.27,4.33 -3.11,7.83 -6.34,7.82l-22.33 0c-3.23,-0.02 -5.63,-3.54 -5.36,-7.88l0.02 -0.32c-3.16,3.26 -6.73,5.74 -10.7,7.45 -4.28,1.85 -9.06,2.77 -14.32,2.77 -5.19,0 -9.81,-0.92 -13.86,-2.79 -4.27,-1.96 -7.9,-4.92 -10.87,-8.87 -2.3,-3.07 -4.11,-6.6 -5.42,-10.6l-0.78 13.11c-0.27,4.33 -3.1,7.83 -6.33,7.82l-9.21 0c-1.45,-0.01 -2.73,-0.72 -3.68,-1.9 -1.3,0.69 -2.6,1.27 -3.9,1.75 -1.53,0.56 -3.06,0.98 -4.57,1.26 -1.53,0.28 -3.07,0.43 -4.6,0.43 -4.65,0 -8.8,-0.98 -12.44,-2.94 -3.77,-2.03 -6.98,-5.09 -9.6,-9.19 -1.34,-2.08 -2.47,-4.35 -3.41,-6.8 -1.44,2.59 -3.1,4.96 -4.99,7.11 -3.45,3.95 -7.44,6.9 -11.96,8.84 -4.28,1.85 -9.06,2.77 -14.33,2.77 -5.18,0 -9.8,-0.92 -13.85,-2.79 -4.28,-1.96 -7.9,-4.92 -10.87,-8.87 -3,-3.99 -5.15,-8.77 -6.46,-14.32 -1.15,-4.87 -1.61,-10.27 -1.38,-16.2l-3.49 0 -0.76 12.87c-0.27,4.33 -3.11,7.83 -6.34,7.82l-1.86 0c0.08,0.64 0.11,1.32 0.07,2.01l-0.58 9.64c-0.26,4.33 -3.1,7.83 -6.33,7.82l-30.1 0c-3.23,-0.02 -5.64,-3.54 -5.37,-7.88l0.57 -9.63c0.27,-4.33 3.11,-7.83 6.34,-7.82l0.77 0 1.97 -33.08 -0.81 0c-3.23,-0.01 -5.63,-3.54 -5.36,-7.87l0.57 -9.64c0.27,-4.33 3.1,-7.83 6.34,-7.82l51.45 0c3.23,0.02 5.63,3.54 5.37,7.88zm-12.29 9.81l0.12 -1.99 -1.17 0c0.34,0.57 0.67,1.18 0.97,1.83l0.08 0.16zm-28.28 -0.23c0.04,-0.61 0.13,-1.2 0.26,-1.76l-5.96 0c0.25,0.85 0.42,1.79 0.52,2.81 0.12,1.31 0.13,2.9 0.01,4.78l-2.24 37.63c-0.11,1.84 -0.32,3.44 -0.63,4.77 -0.2,0.85 -0.44,1.63 -0.73,2.35l6.72 0c-0.23,-0.81 -0.4,-1.7 -0.49,-2.68 -0.13,-1.31 -0.14,-2.98 -0.02,-4.99l0.92 -15.33c0.1,-1.65 0.57,-3.18 1.3,-4.44 -0.58,-1.27 -0.87,-2.82 -0.77,-4.48l1.11 -18.66zm64.52 6.55c-0.58,0 -1.05,0.14 -1.4,0.41 -0.33,0.25 -0.65,0.73 -0.96,1.43 -0.56,1.26 -1.06,3.11 -1.5,5.54 -0.51,2.88 -0.89,6.33 -1.13,10.35 -0.25,4.13 -0.28,7.63 -0.12,10.52 0.15,2.48 0.42,4.37 0.83,5.66l0.01 -0.01c0.24,0.72 0.49,1.2 0.76,1.44 0.29,0.25 0.74,0.38 1.34,0.38 0.63,0 1.11,-0.13 1.45,-0.4 0.28,-0.22 0.59,-0.68 0.9,-1.39 0.07,-0.15 0.13,-0.3 0.2,-0.44 0.49,-1.23 0.92,-2.92 1.31,-5.1 0.52,-2.89 0.9,-6.36 1.14,-10.4 0.24,-4.1 0.28,-7.59 0.11,-10.48 -0.14,-2.43 -0.43,-4.32 -0.86,-5.67 -0.24,-0.76 -0.49,-1.25 -0.75,-1.48 -0.28,-0.24 -0.72,-0.36 -1.33,-0.36zm-12.33 -5.4c0.38,-0.85 0.79,-1.66 1.23,-2.41 -2.4,1.21 -4.52,2.88 -6.37,4.99 -2.06,2.37 -3.68,5.22 -4.86,8.54 -1.25,3.53 -2.01,7.61 -2.29,12.22 -0.27,4.59 0,8.62 0.82,12.09 0.76,3.25 2.06,6.08 3.87,8.5 1.6,2.13 3.52,3.8 5.76,5.01 -0.35,-0.77 -0.67,-1.6 -0.95,-2.48l0.01 -0.01 -0.01 -0.02c-0.89,-2.78 -1.46,-6.23 -1.69,-10.34 -0.22,-3.69 -0.18,-8.03 0.12,-13.01 0.29,-4.92 0.76,-9.19 1.41,-12.81 0.73,-4.06 1.71,-7.49 2.95,-10.27zm22.53 46.5c-0.36,0.82 -0.75,1.59 -1.16,2.32 2.33,-1.21 4.4,-2.83 6.19,-4.88 2.08,-2.37 3.7,-5.19 4.86,-8.46 1.25,-3.52 2.01,-7.59 2.28,-12.2 0.28,-4.62 0.01,-8.68 -0.81,-12.16 -0.76,-3.27 -2.05,-6.11 -3.87,-8.52 -1.58,-2.11 -3.47,-3.77 -5.68,-4.97 0.36,0.78 0.68,1.62 0.96,2.51 0.88,2.75 1.44,6.19 1.68,10.33 0.21,3.69 0.17,8.01 -0.12,12.97 -0.29,4.92 -0.76,9.19 -1.41,12.79 -0.66,3.72 -1.54,6.9 -2.63,9.54 -0.08,0.25 -0.18,0.49 -0.29,0.73zm46.35 -31.87c1,-0.88 2.19,-1.4 3.43,-1.4l4.92 0c-0.14,-1.01 -0.3,-1.93 -0.48,-2.75 -0.33,-1.58 -0.72,-2.77 -1.17,-3.6 -0.28,-0.52 -0.58,-0.88 -0.9,-1.09 -0.41,-0.26 -0.96,-0.39 -1.63,-0.39 -0.63,0 -1.11,0.13 -1.45,0.39 -0.31,0.24 -0.62,0.71 -0.93,1.4 -0.55,1.25 -1.05,3.08 -1.48,5.5 -0.11,0.62 -0.21,1.27 -0.31,1.94zm19.61 14.3l-6.4 0c0.26,0.86 0.44,1.8 0.54,2.84 0.12,1.28 0.13,2.86 0.01,4.75l-0.31 5.2c-0.09,1.57 -0.26,2.99 -0.49,4.26 1.86,0.14 3.57,1.5 4.46,3.79l0.79 -13.3c0.11,-1.91 0.31,-3.53 0.59,-4.84 0.21,-0.98 0.48,-1.88 0.81,-2.7zm-30.59 20.85c0.58,0.31 1.19,0.58 1.83,0.82 -0.71,-1.21 -1.31,-2.59 -1.81,-4.14l0.01 -0.01 -0.01 -0.02c-0.89,-2.78 -1.45,-6.23 -1.69,-10.34 -0.22,-3.69 -0.18,-8.03 0.12,-13.01 0.29,-4.94 0.77,-9.22 1.41,-12.83 0.73,-4.1 1.72,-7.53 2.95,-10.3 0.53,-1.19 1.11,-2.28 1.75,-3.27 -0.17,0.08 -0.33,0.16 -0.5,0.24 -2.49,1.25 -4.72,3.13 -6.7,5.64 -1.99,2.52 -3.54,5.45 -4.66,8.77 -1.18,3.52 -1.91,7.52 -2.18,12.01 -0.28,4.71 -0.06,8.9 0.65,12.54 0.65,3.36 1.74,6.23 3.27,8.61 1.5,2.34 3.35,4.1 5.56,5.29zm29.65 -51.43c-0.39,0.35 -0.8,0.65 -1.23,0.87 0.36,0.9 0.7,1.86 1,2.89l0.23 -3.76zm-19.14 39.51c0.1,0.54 0.22,1.03 0.35,1.45l0.02 -0.01c0.23,0.71 0.48,1.19 0.77,1.44 0.26,0.22 0.63,0.35 1.12,0.37l0.15 -2.55 -0.05 0c-0.86,0 -1.66,-0.26 -2.36,-0.7zm63.87 -32.46c-0.59,0 -1.06,0.14 -1.4,0.41 -0.33,0.25 -0.65,0.73 -0.97,1.43 -0.56,1.26 -1.06,3.11 -1.49,5.54 -0.52,2.88 -0.9,6.33 -1.14,10.35 -0.25,4.13 -0.28,7.63 -0.12,10.52 0.15,2.48 0.43,4.37 0.84,5.66l0.01 -0.01c0.23,0.72 0.48,1.2 0.75,1.44 0.3,0.25 0.74,0.38 1.35,0.38 0.62,0 1.1,-0.13 1.44,-0.4 0.31,-0.23 0.62,-0.7 0.93,-1.39 0.55,-1.25 1.05,-3.1 1.48,-5.54 0.52,-2.89 0.9,-6.36 1.14,-10.4 0.25,-4.1 0.28,-7.59 0.11,-10.48 -0.14,-2.43 -0.43,-4.32 -0.86,-5.67 -0.24,-0.76 -0.49,-1.25 -0.75,-1.48 -0.28,-0.24 -0.72,-0.36 -1.32,-0.36zm-12.34 -5.4c0.39,-0.85 0.8,-1.66 1.23,-2.41 -2.4,1.21 -4.52,2.88 -6.37,4.99 -2.06,2.37 -3.68,5.22 -4.86,8.54 -1.25,3.53 -2.01,7.61 -2.29,12.22 -0.27,4.59 0,8.62 0.82,12.09 0.77,3.25 2.06,6.08 3.87,8.5 1.6,2.13 3.53,3.8 5.77,5.01 -0.36,-0.77 -0.68,-1.6 -0.96,-2.48l0.01 -0.01 -0.01 -0.02c-0.89,-2.78 -1.45,-6.23 -1.69,-10.34 -0.22,-3.69 -0.18,-8.03 0.12,-13.01 0.29,-4.92 0.76,-9.19 1.41,-12.81 0.73,-4.06 1.72,-7.49 2.95,-10.27zm22.51 46.5c-0.36,0.83 -0.75,1.6 -1.17,2.33 2.35,-1.2 4.42,-2.84 6.22,-4.89 2.08,-2.37 3.7,-5.19 4.86,-8.46 1.25,-3.52 2.01,-7.59 2.29,-12.2 0.27,-4.62 0,-8.68 -0.82,-12.16 -0.76,-3.27 -2.05,-6.11 -3.86,-8.52 -1.59,-2.11 -3.48,-3.77 -5.69,-4.97 0.36,0.78 0.68,1.62 0.97,2.51 0.87,2.75 1.43,6.19 1.67,10.33 0.22,3.69 0.18,8.01 -0.12,12.97 -0.29,4.92 -0.76,9.19 -1.41,12.79 -0.72,4.07 -1.7,7.5 -2.94,10.27zm56.48 -7.68l-14.47 -41.73 -10.03 0c0.26,0.86 0.43,1.8 0.54,2.84 0.06,0.66 0.09,1.39 0.09,2.2 0.22,-0.19 0.44,-0.36 0.67,-0.52 2.97,-2.07 6.44,-0.65 7.76,3.17l15.36 44.65 8.01 0 0.48 -8c-0.21,0.19 -0.43,0.37 -0.67,0.53 -2.95,2.07 -6.42,0.66 -7.74,-3.14zm-16.73 0.98l-0.09 -0.26 -0.01 0.26 0.1 0zm92.14 -58.41c5.61,0 10.48,0.79 14.61,2.36 4.48,1.7 8.17,4.32 11.07,7.86 1.67,2.04 3.07,4.36 4.2,6.98 1.49,-2.75 3.23,-5.27 5.22,-7.55 3.48,-3.99 7.46,-6.95 11.96,-8.9 4.27,-1.85 9.04,-2.77 14.3,-2.77 5.2,0 9.82,0.93 13.88,2.79 3.76,1.72 7.01,4.2 9.75,7.45l0.02 -0.4c0.27,-4.33 3.11,-7.83 6.34,-7.82l34.85 0c3.5,0 6.59,0.42 9.27,1.25 2.98,0.93 5.48,2.38 7.49,4.35 2.25,2.21 3.88,4.99 4.88,8.36 0.95,3.16 1.3,6.79 1.05,10.87 -0.17,2.89 -0.69,5.6 -1.57,8.1 -0.9,2.59 -2.15,4.91 -3.73,6.96l-0.11 0.14c0.87,2.07 1.4,4.86 1.6,8.37l0.02 0.48 2.54 0 13.89 -43.61c1.05,-3.3 3.51,-5.35 5.98,-5.27l18.19 0c2.69,0.01 4.81,2.47 5.28,5.8l7.49 43.54 1.43 -24.01 -0.8 0c-3.23,-0.01 -5.63,-3.54 -5.37,-7.87l0.58 -9.64c0.26,-4.33 3.1,-7.83 6.33,-7.82l27.53 0c5.6,0 10.47,0.79 14.6,2.36 4.49,1.7 8.18,4.32 11.08,7.86 1.67,2.04 3.07,4.36 4.2,6.98 1.49,-2.75 3.23,-5.27 5.22,-7.55 3.45,-3.96 7.43,-6.91 11.95,-8.87l0.01 0 -0.01 -0.03c4.28,-1.85 9.05,-2.77 14.31,-2.77 5.19,0 9.82,0.93 13.88,2.79 4.28,1.96 7.91,4.92 10.88,8.87 3,3.99 5.15,8.78 6.46,14.34 1.25,5.35 1.68,11.34 1.29,17.97 -0.39,6.64 -1.53,12.61 -3.41,17.9 -1.96,5.53 -4.7,10.3 -8.21,14.3 -3.46,3.95 -7.45,6.9 -11.97,8.84 -4.28,1.85 -9.06,2.77 -14.32,2.77 -5.18,0 -9.8,-0.92 -13.85,-2.79 -4.28,-1.96 -7.91,-4.92 -10.87,-8.87 -1.71,-2.27 -3.15,-4.8 -4.31,-7.58 -1.44,2.61 -3.11,4.93 -5.03,6.97 -3.31,3.53 -7.31,6.15 -12,7.86 -4.35,1.59 -9.33,2.39 -14.92,2.39l-53.26 0c-1,-0.01 -1.92,-0.35 -2.71,-0.95 -0.87,0.61 -1.85,0.95 -2.86,0.95l-22.05 0c-0.11,0.05 -0.23,0.1 -0.34,0.15 -2.21,0.98 -4.74,1.47 -7.58,1.47 -2.83,0 -5.32,-0.42 -7.46,-1.27 -2.02,-0.79 -3.75,-1.96 -5.19,-3.5 -1.18,1.91 -2.97,3.15 -4.89,3.15l-30.48 0c-3.23,-0.02 -5.63,-3.54 -5.37,-7.88l0.02 -0.32c-3.15,3.26 -6.72,5.74 -10.69,7.45 -4.28,1.85 -9.06,2.77 -14.33,2.77 -5.18,0 -9.8,-0.92 -13.85,-2.79 -4.28,-1.96 -7.9,-4.92 -10.87,-8.87 -1.71,-2.27 -3.14,-4.8 -4.3,-7.58 -1.44,2.61 -3.12,4.93 -5.03,6.97 -3.31,3.53 -7.32,6.15 -12,7.86 -4.36,1.59 -9.34,2.39 -14.93,2.39l-27.52 0c-3.23,-0.02 -5.64,-3.54 -5.37,-7.88l0.57 -9.63c0.27,-4.33 3.11,-7.83 6.34,-7.82l0.77 0 1.97 -33.08 -0.81 0c-3.23,-0.01 -5.63,-3.54 -5.36,-7.87l0.57 -9.64c0.27,-4.33 3.1,-7.83 6.34,-7.82l27.52 0zm17.42 22.21c-1.57,-1.91 -3.66,-3.4 -6.28,-4.48 0.23,0.5 0.45,1.03 0.66,1.58l-0.01 0.01 0 0.02c0.98,2.64 1.61,5.99 1.89,10.03 0.24,3.55 0.22,7.72 -0.07,12.49 -0.28,4.84 -0.75,8.99 -1.4,12.45 -0.76,4 -1.79,7.34 -3.11,10.04 -0.29,0.59 -0.6,1.15 -0.91,1.68 2.75,-1.08 5.04,-2.59 6.87,-4.54 1.81,-1.93 3.24,-4.4 4.29,-7.43 1.17,-3.38 1.89,-7.47 2.18,-12.27 0.28,-4.77 0.05,-8.83 -0.72,-12.18 -0.68,-3.01 -1.81,-5.48 -3.39,-7.4zm-37.46 45.83l6.34 0c-0.09,-0.67 -0.13,-1.38 -0.08,-2.11l2.87 -48.27c0.05,-0.68 0.15,-1.34 0.31,-1.96l-6.37 0c0.25,0.85 0.42,1.79 0.52,2.82 0.12,1.31 0.12,2.91 0.01,4.79l-2.24 37.63c-0.11,1.84 -0.32,3.43 -0.63,4.76 -0.2,0.84 -0.44,1.62 -0.73,2.34zm18.45 -10.36c0.05,-0.02 0.1,-0.05 0.14,-0.08 0.34,-0.23 0.64,-0.61 0.89,-1.13 0.5,-1.01 0.95,-2.6 1.36,-4.79 0.51,-2.73 0.89,-6.02 1.11,-9.87 0.24,-3.89 0.26,-7.17 0.08,-9.81 -0.15,-2.14 -0.42,-3.75 -0.81,-4.82l-0.01 0.01c-0.2,-0.55 -0.45,-0.93 -0.74,-1.15 -0.04,-0.03 -0.08,-0.05 -0.13,-0.08l-1.89 31.72zm61.39 -33.67c-0.58,0 -1.05,0.14 -1.4,0.41 -0.33,0.25 -0.65,0.73 -0.96,1.43 -0.56,1.26 -1.06,3.11 -1.5,5.54 -0.51,2.88 -0.89,6.33 -1.13,10.35 -0.25,4.13 -0.29,7.63 -0.12,10.52 0.15,2.48 0.42,4.37 0.83,5.66l0.01 -0.01c0.24,0.72 0.49,1.2 0.76,1.44 0.29,0.25 0.74,0.38 1.34,0.38 0.63,0 1.11,-0.13 1.45,-0.4 0.29,-0.22 0.59,-0.68 0.9,-1.39 0.07,-0.15 0.13,-0.3 0.21,-0.44 0.48,-1.23 0.91,-2.92 1.3,-5.1 0.52,-2.89 0.9,-6.36 1.14,-10.4 0.24,-4.1 0.28,-7.59 0.11,-10.48 -0.14,-2.43 -0.43,-4.32 -0.86,-5.67 -0.24,-0.76 -0.49,-1.25 -0.75,-1.48 -0.28,-0.24 -0.72,-0.36 -1.33,-0.36zm-12.33 -5.4c0.38,-0.84 0.78,-1.63 1.21,-2.37 -2.41,1.21 -4.53,2.87 -6.35,4.95 -2.06,2.37 -3.68,5.22 -4.86,8.54 -1.25,3.53 -2.02,7.61 -2.29,12.22 -0.27,4.59 0,8.62 0.82,12.09 0.76,3.25 2.05,6.08 3.87,8.5 1.6,2.13 3.52,3.8 5.76,5.01 -0.35,-0.77 -0.67,-1.6 -0.95,-2.48l0.01 -0.01 -0.01 -0.02c-0.89,-2.78 -1.46,-6.23 -1.69,-10.34 -0.22,-3.69 -0.18,-8.03 0.12,-13.01 0.29,-4.92 0.76,-9.19 1.41,-12.81 0.73,-4.06 1.72,-7.49 2.95,-10.27zm22.53 46.5c-0.36,0.82 -0.75,1.59 -1.16,2.32 2.33,-1.21 4.4,-2.83 6.19,-4.88 2.08,-2.37 3.7,-5.19 4.86,-8.46 1.25,-3.52 2.01,-7.59 2.29,-12.2 0.27,-4.62 0,-8.68 -0.82,-12.16 -0.77,-3.27 -2.06,-6.11 -3.87,-8.52 -1.58,-2.11 -3.47,-3.77 -5.68,-4.97 0.36,0.78 0.68,1.62 0.97,2.51 0.87,2.75 1.43,6.19 1.67,10.33 0.21,3.69 0.17,8.01 -0.12,12.97 -0.29,4.92 -0.76,9.19 -1.41,12.79 -0.66,3.72 -1.54,6.9 -2.63,9.54 -0.08,0.25 -0.18,0.49 -0.29,0.73zm32.51 -41.84l-2.21 37.15c-0.18,3.08 -0.68,5.62 -1.48,7.62l7.07 0c-0.25,-0.86 -0.43,-1.82 -0.52,-2.86 -0.13,-1.32 -0.13,-2.93 -0.02,-4.81l0.9 -15.23c0.11,-1.66 0.59,-3.19 1.31,-4.45 -0.67,-1.33 -1.02,-2.98 -0.91,-4.78l1.08 -18.05c0.05,-0.75 0.17,-1.48 0.36,-2.16l-6.09 0c0.24,0.84 0.4,1.77 0.5,2.78 0.12,1.31 0.13,2.91 0.01,4.79zm29.46 -6.72c-0.58,-0.18 -1.21,-0.33 -1.88,-0.46 0.62,1.25 1.07,2.7 1.37,4.34 0.36,2 0.47,4.27 0.32,6.81 -0.11,1.72 -0.33,3.3 -0.66,4.76 1.03,-0.33 1.95,-0.75 2.75,-1.27 0.76,-0.49 1.39,-1.06 1.89,-1.72 0.43,-0.55 0.76,-1.14 0.98,-1.77 0.25,-0.72 0.4,-1.54 0.45,-2.46 0.1,-1.62 -0.01,-2.97 -0.34,-4.05 -0.26,-0.88 -0.7,-1.61 -1.31,-2.22 -0.85,-0.83 -2.04,-1.48 -3.57,-1.96zm-1.35 31.1c-0.73,-0.06 -1.42,-0.3 -2.05,-0.7 0.08,0.5 0.15,1.03 0.21,1.58 0.18,1.92 0.19,4.32 0.02,7.19l-0.34 5.69c-0.12,1.92 -0.05,3.49 0.19,4.7 0.15,0.79 0.38,1.37 0.67,1.76 0.34,0.45 0.9,0.83 1.68,1.13 0.91,0.36 2.03,0.57 3.35,0.64 -0.26,-0.56 -0.47,-1.16 -0.65,-1.81l0 0 -0.01 -0.07c-0.33,-1.21 -0.51,-2.6 -0.56,-4.19 -0.03,-1.03 0.01,-2.37 0.11,-4.03 0.21,-3.61 0.26,-6.52 0.13,-8.7 -0.07,-1.33 -0.15,-2.07 -0.21,-2.21l0 -0.01c-0.03,-0.02 -0.13,-0.07 -0.29,-0.17 -0.55,-0.35 -1.31,-0.62 -2.25,-0.8zm-11.79 -19.63c0.45,-0.04 0.84,-0.12 1.19,-0.21 0.02,-0.18 0.04,-0.39 0.05,-0.62 0.03,-0.48 0.04,-0.9 0.04,-1.24 -0.34,-0.09 -0.72,-0.15 -1.15,-0.18l-0.13 2.25zm57.7 -6.6l3.3 20.16c0.18,0.84 0.25,1.75 0.19,2.7 -0.07,1.06 -0.29,2.07 -0.63,3 1.1,0.93 1.94,2.4 2.28,4.25l1.26 6.7c0.08,0.3 0.14,0.61 0.19,0.92 0.07,0.48 0.12,0.85 0.15,1.12l0 0 0 0.03c0.01,0.08 0.02,0.27 0.04,0.57 0.02,0.15 0.04,0.31 0.05,0.46 0.04,0.54 0.06,1.06 0.05,1.55 0,0.3 -0.02,0.77 -0.05,1.37 -0.09,1.37 -0.34,2.63 -0.76,3.79l7.38 0c-0.18,-0.46 -0.35,-0.96 -0.51,-1.49 -0.4,-1.34 -0.79,-3.03 -1.16,-5.07l0 0 -7.87 -45.78 -9.84 0 -0.05 0.17c2.8,-0.46 5.37,1.83 5.98,5.55zm-22.57 46.62c-0.08,-0.3 -0.15,-0.6 -0.21,-0.91 -0.17,0.32 -0.33,0.62 -0.51,0.91l0.72 0zm91.62 -45.83c-1.56,-1.91 -3.66,-3.4 -6.28,-4.48 0.24,0.5 0.46,1.03 0.66,1.58l-0.01 0.01 0.01 0.02c0.98,2.64 1.6,5.99 1.88,10.03 0.25,3.55 0.23,7.72 -0.06,12.49 -0.29,4.84 -0.76,8.99 -1.41,12.45 -0.75,4 -1.79,7.34 -3.11,10.04 -0.29,0.59 -0.59,1.15 -0.91,1.68 2.76,-1.08 5.05,-2.59 6.88,-4.54 1.8,-1.93 3.23,-4.4 4.28,-7.43 1.17,-3.38 1.9,-7.47 2.19,-12.27 0.28,-4.77 0.04,-8.83 -0.72,-12.18 -0.69,-3.01 -1.82,-5.48 -3.4,-7.4zm-37.45 45.83l6.34 0c-0.1,-0.67 -0.13,-1.38 -0.09,-2.11l2.88 -48.27c0.04,-0.68 0.15,-1.34 0.3,-1.96l-6.36 0c0.25,0.85 0.42,1.79 0.51,2.82 0.12,1.31 0.13,2.91 0.02,4.79l-2.24 37.63c-0.11,1.84 -0.32,3.43 -0.64,4.76 -0.19,0.84 -0.43,1.62 -0.72,2.34zm18.45 -10.36c0.05,-0.02 0.09,-0.05 0.13,-0.08 0.34,-0.23 0.64,-0.61 0.9,-1.13 0.49,-1.01 0.95,-2.6 1.36,-4.79 0.51,-2.73 0.88,-6.02 1.11,-9.87 0.23,-3.89 0.26,-7.17 0.08,-9.81 -0.15,-2.14 -0.42,-3.75 -0.81,-4.82l-0.02 0.01c-0.2,-0.55 -0.45,-0.93 -0.74,-1.15 -0.04,-0.03 -0.08,-0.05 -0.12,-0.08l-1.89 31.72zm61.39 -33.67c-0.59,0 -1.05,0.14 -1.4,0.41 -0.33,0.25 -0.65,0.73 -0.96,1.43 -0.56,1.26 -1.06,3.11 -1.5,5.54 -0.52,2.88 -0.9,6.33 -1.14,10.35 -0.24,4.13 -0.28,7.63 -0.11,10.52 0.14,2.48 0.42,4.37 0.83,5.66l0.01 -0.01c0.23,0.72 0.48,1.2 0.75,1.44 0.3,0.25 0.75,0.38 1.35,0.38 0.62,0 1.1,-0.13 1.44,-0.4 0.32,-0.23 0.62,-0.7 0.93,-1.39 0.55,-1.25 1.05,-3.1 1.49,-5.54 0.51,-2.89 0.89,-6.36 1.13,-10.4 0.25,-4.1 0.29,-7.59 0.12,-10.48 -0.15,-2.43 -0.43,-4.32 -0.86,-5.67 -0.24,-0.76 -0.49,-1.25 -0.76,-1.48 -0.27,-0.24 -0.71,-0.36 -1.32,-0.36zm-12.33 -5.4c0.38,-0.85 0.79,-1.66 1.22,-2.41 -2.39,1.21 -4.52,2.88 -6.36,4.99 -2.07,2.37 -3.69,5.22 -4.87,8.54 -1.25,3.53 -2.01,7.61 -2.28,12.22 -0.28,4.59 -0.01,8.62 0.81,12.09 0.77,3.25 2.06,6.08 3.87,8.5 1.61,2.13 3.53,3.8 5.77,5.01 -0.35,-0.77 -0.67,-1.6 -0.96,-2.48l0.02 -0.01 -0.01 -0.02c-0.89,-2.78 -1.46,-6.23 -1.7,-10.34 -0.21,-3.69 -0.17,-8.03 0.12,-13.01 0.3,-4.92 0.77,-9.19 1.42,-12.81 0.73,-4.06 1.71,-7.49 2.95,-10.27zm22.51 46.5c-0.37,0.83 -0.76,1.6 -1.17,2.33 2.34,-1.2 4.41,-2.84 6.22,-4.89 2.07,-2.37 3.69,-5.19 4.85,-8.46 1.25,-3.52 2.02,-7.59 2.29,-12.2 0.28,-4.62 0.01,-8.68 -0.81,-12.16 -0.77,-3.27 -2.06,-6.11 -3.87,-8.52 -1.58,-2.11 -3.48,-3.77 -5.68,-4.97 0.35,0.78 0.67,1.62 0.96,2.51 0.87,2.75 1.43,6.19 1.67,10.33 0.22,3.69 0.18,8.01 -0.12,12.97 -0.29,4.92 -0.76,9.19 -1.4,12.79 -0.73,4.07 -1.71,7.5 -2.94,10.27z"/>
   <path class="fil14" d="M61.37 289.94l-1.66 27.89 -8.22 0c0.05,-3.33 -0.05,-6.07 -0.3,-8.18 -0.25,-2.13 -0.69,-3.92 -1.32,-5.38 -0.75,-1.71 -1.8,-2.92 -3.11,-3.63 -1.32,-0.71 -3.9,-1.07 -7.75,-1.07l-6.5 0 -1.11 18.66 1.96 0c2.28,0 3.93,-0.74 4.94,-2.23 1,-1.49 1.62,-4.12 1.85,-7.93l0.04 -0.59 6.33 0 -1.84 31.03 -6.34 0c0.18,-4.75 -0.09,-7.82 -0.83,-9.23 -0.74,-1.42 -2.28,-2.13 -4.6,-2.13l-2.04 0 -0.92 15.33c-0.16,2.82 0,4.5 0.5,5.04 0.49,0.56 1.59,0.83 3.29,0.83l2.81 0 -0.58 9.63 -30.1 0 0.58 -9.63 2.53 0c1.68,0 2.8,-0.27 3.36,-0.8 0.56,-0.52 0.91,-2.06 1.06,-4.56l0.03 -0.51 2.21 -37.13c0.16,-2.63 0.01,-4.26 -0.45,-4.86 -0.45,-0.61 -1.58,-0.92 -3.36,-0.92l-2.48 0 0.57 -9.63 51.45 0zm30.3 8.32c-3.42,0 -6.03,2.02 -7.83,6.06 -1.8,4.04 -2.97,10.55 -3.5,19.49 -0.55,9.11 -0.16,15.7 1.15,19.77 1.3,4.06 3.65,6.09 7.04,6.09 3.44,0 6.06,-2.02 7.84,-6.06 1.79,-4.02 2.95,-10.52 3.49,-19.5 0.54,-9.06 0.15,-15.61 -1.15,-19.72 -1.31,-4.09 -3.65,-6.13 -7.04,-6.13zm-30.96 25.75c0.67,-11.26 3.8,-20.09 9.39,-26.5 5.58,-6.4 12.98,-9.6 22.16,-9.6 9.14,0 16.12,3.2 20.93,9.6 4.81,6.41 6.88,15.24 6.22,26.5 -0.67,11.26 -3.8,20.06 -9.39,26.43 -5.58,6.37 -12.99,9.57 -22.19,9.57 -9.12,0 -16.08,-3.2 -20.9,-9.6 -4.81,-6.41 -6.89,-15.21 -6.22,-26.4zm89.39 7.4l0.58 -9.63 27.99 0 -0.58 9.63 -1.8 0c-1.74,0 -2.89,0.29 -3.44,0.85 -0.55,0.55 -0.9,2.21 -1.06,4.93l-1.28 21.48 -9.2 0 -1.42 -4.15c-2.61,1.9 -5.2,3.34 -7.77,4.29 -2.56,0.93 -5.08,1.4 -7.57,1.4 -7.83,0 -13.81,-3.21 -17.94,-9.65 -4.13,-6.44 -5.86,-15.29 -5.19,-26.55 0.65,-10.87 3.6,-19.6 8.83,-26.24 5.24,-6.65 11.84,-9.96 19.8,-9.96 2.75,0 5.22,0.39 7.4,1.18 2.16,0.8 4.14,2.02 5.91,3.67l1.44 -3.77 8.05 0 -1.66 28.02 -8.83 0c-0.44,-6.54 -1.47,-11.27 -3.06,-14.23 -1.59,-2.96 -3.9,-4.42 -6.92,-4.42 -3.45,0 -6.05,2.01 -7.84,6.01 -1.78,4.01 -2.95,10.53 -3.49,19.54 -0.54,9.11 -0.16,15.7 1.15,19.77 1.3,4.06 3.65,6.09 7.03,6.09 2.21,0 3.74,-0.46 4.57,-1.36 0.85,-0.91 1.35,-2.89 1.53,-5.91l0.31 -5.21c0.16,-2.57 0,-4.17 -0.46,-4.81 -0.47,-0.65 -1.61,-0.97 -3.42,-0.97l-1.66 0zm61.51 -33.15c-3.42,0 -6.03,2.02 -7.83,6.06 -1.8,4.04 -2.97,10.55 -3.5,19.49 -0.54,9.11 -0.16,15.7 1.15,19.77 1.3,4.06 3.65,6.09 7.04,6.09 3.45,0 6.06,-2.02 7.84,-6.06 1.79,-4.02 2.96,-10.52 3.49,-19.5 0.54,-9.06 0.15,-15.61 -1.15,-19.72 -1.3,-4.09 -3.65,-6.13 -7.04,-6.13zm-30.96 25.75c0.67,-11.26 3.8,-20.09 9.39,-26.5 5.59,-6.4 12.98,-9.6 22.16,-9.6 9.14,0 16.12,3.2 20.93,9.6 4.81,6.41 6.89,15.24 6.22,26.5 -0.67,11.26 -3.8,20.06 -9.38,26.43 -5.59,6.37 -13,9.57 -22.2,9.57 -9.12,0 -16.08,-3.2 -20.89,-9.6 -4.82,-6.41 -6.89,-15.21 -6.23,-26.4zm23.57 -40.96l11.79 -15.49c1.45,-1.92 2.64,-3.22 3.56,-3.93 0.92,-0.71 1.88,-1.07 2.87,-1.07 1.2,0 2.17,0.54 2.9,1.64 0.73,1.08 1.05,2.44 0.96,4.06 -0.08,1.25 -0.46,2.36 -1.15,3.36 -0.68,0.98 -1.75,1.96 -3.21,2.91l-13.26 8.52 -4.46 0zm63.03 6.89l15.89 45.83 1.81 -30.4c0.16,-2.74 0,-4.39 -0.5,-4.95 -0.49,-0.56 -1.59,-0.85 -3.3,-0.85l-2.87 0 0.57 -9.63 22.26 0 -0.57 9.63 -1.8 0c-1.78,0 -2.92,0.31 -3.46,0.92 -0.54,0.6 -0.89,2.24 -1.05,4.88l-3.13 52.61 -17.37 0 -16.77 -48.76 -1.99 33.28c-0.15,2.64 0,4.27 0.47,4.9 0.46,0.62 1.59,0.95 3.35,0.95l2.25 0 -0.57 9.63 -22.33 0 0.57 -9.63 2.48 0c1.78,0 2.96,-0.33 3.51,-0.97 0.56,-0.64 0.92,-2.26 1.07,-4.88l2.21 -37.13c0.16,-2.59 0,-4.19 -0.46,-4.83 -0.47,-0.65 -1.62,-0.97 -3.43,-0.97l-2.48 0 0.58 -9.63 25.06 0zm85.46 0c10.12,0 17.46,2.79 22.03,8.37 4.57,5.57 6.52,14.11 5.83,25.6 -0.69,11.52 -3.65,20.08 -8.9,25.67 -5.25,5.59 -12.92,8.4 -23.02,8.4l-27.52 0 0.57 -9.63 2.54 0c1.68,0 2.8,-0.27 3.36,-0.8 0.56,-0.52 0.91,-2.04 1.06,-4.54l0.03 -0.51 2.21 -37.13c0.16,-2.64 0.01,-4.28 -0.45,-4.88 -0.45,-0.61 -1.58,-0.92 -3.37,-0.92l-2.47 0 0.57 -9.63 27.53 0zm-7.45 58.1l3.99 0c3.65,0 6.39,-1.84 8.21,-5.54 1.82,-3.7 2.98,-9.89 3.49,-18.57 0.52,-8.67 0.1,-14.88 -1.28,-18.59 -1.37,-3.71 -3.89,-5.56 -7.55,-5.56l-3.99 0 -2.87 48.26zm68.22 -49.78c-3.42,0 -6.03,2.02 -7.83,6.06 -1.8,4.04 -2.97,10.55 -3.5,19.49 -0.54,9.11 -0.16,15.7 1.15,19.77 1.3,4.06 3.65,6.09 7.04,6.09 3.45,0 6.05,-2.02 7.84,-6.06 1.79,-4.02 2.96,-10.52 3.49,-19.5 0.54,-9.06 0.15,-15.61 -1.15,-19.72 -1.31,-4.09 -3.65,-6.13 -7.04,-6.13zm-30.96 25.75c0.67,-11.26 3.8,-20.09 9.39,-26.5 5.58,-6.4 12.98,-9.6 22.16,-9.6 9.14,0 16.12,3.2 20.93,9.6 4.81,6.41 6.89,15.24 6.22,26.5 -0.68,11.26 -3.8,20.06 -9.39,26.43 -5.58,6.37 -12.99,9.57 -22.19,9.57 -9.12,0 -16.08,-3.2 -20.9,-9.6 -4.81,-6.41 -6.89,-15.21 -6.22,-26.4zm65.12 18.47l2.21 -37.14c0.16,-2.66 0.01,-4.28 -0.45,-4.89 -0.45,-0.61 -1.58,-0.91 -3.38,-0.91l-2.54 0 0.57 -9.6 34.86 0c6.16,0 10.67,1.4 13.53,4.21 2.86,2.8 4.13,7.05 3.79,12.74 -0.22,3.82 -1.35,7.05 -3.36,9.65 -2.03,2.62 -4.77,4.4 -8.23,5.36 3.41,0.56 5.65,1.97 6.74,4.22 1.08,2.27 1.38,7.46 0.9,15.53 -0.15,2.45 -0.1,4.14 0.15,5.07 0.25,0.95 0.73,1.42 1.45,1.42 0.68,0 1.21,-0.57 1.62,-1.74 0.4,-1.15 0.67,-2.9 0.8,-5.25 0.02,-0.24 0.03,-0.61 0.04,-1.15 0,-0.53 0.01,-0.92 0.03,-1.18l5.13 0c-0.02,0.3 -0.03,0.74 -0.04,1.37 -0.02,0.6 -0.03,1.04 -0.05,1.35 -0.38,6.33 -1.62,10.93 -3.74,13.79 -2.1,2.85 -5.32,4.27 -9.64,4.27 -4.59,0 -7.86,-1.28 -9.81,-3.85 -1.94,-2.57 -2.76,-6.66 -2.42,-12.27l0.34 -5.7c0.27,-4.54 -0.01,-7.43 -0.83,-8.67 -0.82,-1.23 -2.65,-1.85 -5.47,-1.85l-4.54 0 -0.91 15.22c-0.16,2.66 -0.01,4.29 0.46,4.92 0.47,0.62 1.58,0.95 3.33,0.95l2.88 0 -0.58 9.63 -30.48 0 0.58 -9.63 2.54 0c1.77,0 2.93,-0.33 3.47,-0.95 0.54,-0.63 0.89,-2.26 1.05,-4.92zm18.05 -24.45l4.44 0c3.11,0 5.35,-0.68 6.69,-2.01 1.35,-1.34 2.11,-3.59 2.3,-6.71 0.2,-3.45 -0.23,-5.87 -1.32,-7.25 -1.09,-1.39 -3.1,-2.08 -6.04,-2.08l-4.99 0 -1.08 18.05zm61.67 8.31l-3.38 -20.6 -5.54 20.6 8.92 0zm-3.8 31.64l0.58 -9.63 2.27 0c1.93,0 3.1,-0.14 3.55,-0.43 0.44,-0.28 0.69,-0.81 0.74,-1.6 0.03,-0.54 0.03,-1.05 0,-1.52 -0.04,-0.49 -0.08,-0.95 -0.16,-1.42l-1.37 -7.3 -13.63 0 -1.96 6.5c-0.34,1 -0.57,1.78 -0.69,2.33 -0.14,0.58 -0.22,1.09 -0.25,1.54 -0.03,0.61 0.24,1.07 0.84,1.41 0.6,0.32 1.45,0.49 2.58,0.49l2.51 0 -0.58 9.63 -22.63 0 0.57 -9.63 1.88 0c1.28,0 2.39,-0.54 3.32,-1.64 0.94,-1.1 1.8,-2.88 2.59,-5.36l16.37 -51.41 18.31 0 8.81 51.21c0.62,3.38 1.22,5.42 1.85,6.13 0.62,0.71 1.67,1.07 3.14,1.07l2.65 0 -0.57 9.63 -30.72 0zm57.31 -68.04c10.12,0 17.46,2.79 22.04,8.37 4.57,5.57 6.51,14.11 5.83,25.6 -0.69,11.52 -3.65,20.08 -8.9,25.67 -5.25,5.59 -12.92,8.4 -23.02,8.4l-27.52 0 0.57 -9.63 2.54 0c1.67,0 2.79,-0.27 3.35,-0.8 0.56,-0.52 0.92,-2.04 1.07,-4.54l0.03 -0.51 2.21 -37.13c0.15,-2.64 0,-4.28 -0.45,-4.88 -0.46,-0.61 -1.58,-0.92 -3.37,-0.92l-2.48 0 0.58 -9.63 27.52 0zm-7.44 58.1l3.98 0c3.66,0 6.4,-1.84 8.22,-5.54 1.81,-3.7 2.97,-9.89 3.49,-18.57 0.52,-8.67 0.09,-14.88 -1.28,-18.59 -1.38,-3.71 -3.9,-5.56 -7.56,-5.56l-3.98 0 -2.87 48.26zm68.21 -49.78c-3.42,0 -6.03,2.02 -7.83,6.06 -1.8,4.04 -2.97,10.55 -3.5,19.49 -0.54,9.11 -0.15,15.7 1.15,19.77 1.31,4.06 3.65,6.09 7.05,6.09 3.44,0 6.05,-2.02 7.84,-6.06 1.78,-4.02 2.95,-10.52 3.48,-19.5 0.54,-9.06 0.15,-15.61 -1.15,-19.72 -1.3,-4.09 -3.64,-6.13 -7.04,-6.13zm-30.95 25.75c0.67,-11.26 3.79,-20.09 9.38,-26.5 5.59,-6.4 12.98,-9.6 22.16,-9.6 9.14,0 16.12,3.2 20.93,9.6 4.81,6.41 6.89,15.24 6.22,26.5 -0.67,11.26 -3.8,20.06 -9.38,26.43 -5.59,6.37 -13,9.57 -22.2,9.57 -9.12,0 -16.08,-3.2 -20.89,-9.6 -4.81,-6.41 -6.89,-15.21 -6.22,-26.4z"/>
   <path class="fil15" d="M61.37 291.3l-1.66 27.88 -8.22 0c0.05,-3.33 -0.05,-6.06 -0.3,-8.18 -0.25,-2.13 -0.69,-3.92 -1.32,-5.37 -0.75,-1.71 -1.8,-2.93 -3.11,-3.63 -1.32,-0.71 -3.9,-1.07 -7.75,-1.07l-6.5 0 -1.11 18.66 1.96 0c2.28,0 3.93,-0.75 4.94,-2.23 1,-1.49 1.62,-4.12 1.85,-7.93l0.04 -0.59 6.33 0 -1.85 31.03 -6.33 0c0.18,-4.75 -0.09,-7.83 -0.83,-9.23 -0.74,-1.42 -2.28,-2.13 -4.61,-2.13l-2.03 0 -0.92 15.33c-0.16,2.82 0,4.49 0.5,5.04 0.49,0.55 1.59,0.82 3.29,0.82l2.81 0 -0.58 9.64 -30.1 0 0.58 -9.64 2.53 0c1.68,0 2.8,-0.27 3.36,-0.79 0.56,-0.53 0.91,-2.06 1.06,-4.56l0.03 -0.51 2.21 -37.13c0.16,-2.64 0.01,-4.26 -0.45,-4.87 -0.45,-0.6 -1.58,-0.91 -3.36,-0.91l-2.48 0 0.57 -9.63 51.45 0zm30.29 8.31c-3.41,0 -6.03,2.03 -7.82,6.07 -1.8,4.04 -2.97,10.55 -3.5,19.49 -0.55,9.11 -0.16,15.7 1.15,19.77 1.3,4.05 3.64,6.08 7.04,6.08 3.44,0 6.05,-2.01 7.84,-6.05 1.79,-4.02 2.95,-10.53 3.49,-19.5 0.54,-9.06 0.15,-15.62 -1.15,-19.72 -1.31,-4.09 -3.65,-6.14 -7.05,-6.14zm-30.95 25.76c0.67,-11.26 3.8,-20.1 9.39,-26.5 5.58,-6.41 12.98,-9.6 22.16,-9.6 9.14,0 16.11,3.19 20.93,9.6 4.81,6.4 6.88,15.24 6.21,26.5 -0.67,11.25 -3.8,20.06 -9.38,26.43 -5.58,6.37 -12.99,9.56 -22.2,9.56 -9.11,0 -16.08,-3.19 -20.89,-9.59 -4.81,-6.41 -6.89,-15.21 -6.22,-26.4zm89.39 7.4l0.57 -9.63 27.99 0 -0.57 9.63 -1.8 0c-1.75,0 -2.89,0.29 -3.44,0.84 -0.55,0.56 -0.9,2.22 -1.06,4.94l-1.28 21.48 -9.21 0 -1.41 -4.16c-2.62,1.91 -5.2,3.35 -7.77,4.3 -2.56,0.93 -5.08,1.4 -7.57,1.4 -7.83,0 -13.81,-3.21 -17.95,-9.65 -4.13,-6.44 -5.85,-15.3 -5.18,-26.55 0.65,-10.87 3.59,-19.61 8.83,-26.25 5.24,-6.64 11.84,-9.95 19.79,-9.95 2.76,0 5.23,0.39 7.4,1.18 2.17,0.8 4.15,2.01 5.92,3.67l1.43 -3.77 8.06 0 -1.67 28.02 -8.82 0c-0.44,-6.54 -1.47,-11.27 -3.07,-14.23 -1.58,-2.96 -3.89,-4.43 -6.91,-4.43 -3.45,0 -6.06,2.02 -7.84,6.02 -1.79,4.01 -2.96,10.53 -3.49,19.54 -0.54,9.11 -0.16,15.7 1.15,19.77 1.3,4.05 3.64,6.08 7.03,6.08 2.21,0 3.73,-0.45 4.57,-1.35 0.84,-0.91 1.35,-2.89 1.53,-5.91l0.31 -5.21c0.15,-2.57 0,-4.17 -0.47,-4.82 -0.46,-0.64 -1.6,-0.96 -3.41,-0.96l-1.66 0zm61.51 -33.16c-3.42,0 -6.04,2.03 -7.84,6.07 -1.8,4.04 -2.96,10.55 -3.49,19.49 -0.55,9.11 -0.16,15.7 1.15,19.77 1.3,4.05 3.64,6.08 7.04,6.08 3.44,0 6.05,-2.01 7.84,-6.05 1.79,-4.02 2.95,-10.53 3.49,-19.5 0.54,-9.06 0.15,-15.62 -1.15,-19.72 -1.31,-4.09 -3.65,-6.14 -7.04,-6.14zm-30.96 25.76c0.67,-11.26 3.8,-20.1 9.39,-26.5 5.58,-6.41 12.98,-9.6 22.16,-9.6 9.14,0 16.11,3.19 20.93,9.6 4.81,6.4 6.88,15.24 6.21,26.5 -0.67,11.25 -3.79,20.06 -9.38,26.43 -5.58,6.37 -12.99,9.56 -22.2,9.56 -9.11,0 -16.08,-3.19 -20.89,-9.59 -4.81,-6.41 -6.89,-15.21 -6.22,-26.4zm23.56 -40.97l11.8 -15.48c1.45,-1.92 2.63,-3.22 3.56,-3.93 0.92,-0.71 1.88,-1.07 2.86,-1.07 1.21,0 2.17,0.54 2.91,1.64 0.73,1.08 1.05,2.43 0.95,4.06 -0.07,1.25 -0.45,2.36 -1.14,3.36 -0.69,0.98 -1.75,1.96 -3.22,2.91l-13.25 8.51 -4.47 0zm63.03 6.9l15.89 45.83 1.82 -30.4c0.16,-2.74 -0.01,-4.4 -0.5,-4.95 -0.5,-0.56 -1.6,-0.85 -3.31,-0.85l-2.87 0 0.58 -9.63 22.25 0 -0.57 9.63 -1.8 0c-1.77,0 -2.92,0.31 -3.46,0.91 -0.54,0.61 -0.89,2.25 -1.04,4.89l-3.14 52.61 -17.36 0 -16.78 -48.76 -1.98 33.28c-0.15,2.63 0,4.27 0.47,4.9 0.46,0.62 1.59,0.94 3.35,0.94l2.25 0 -0.58 9.64 -22.33 0 0.58 -9.64 2.47 0c1.79,0 2.96,-0.32 3.52,-0.96 0.55,-0.64 0.91,-2.26 1.07,-4.88l2.21 -37.13c0.15,-2.59 0,-4.19 -0.47,-4.84 -0.46,-0.64 -1.61,-0.96 -3.42,-0.96l-2.48 0 0.57 -9.63 25.06 0zm85.46 0c10.12,0 17.46,2.79 22.03,8.36 4.58,5.58 6.52,14.12 5.83,25.61 -0.68,11.52 -3.64,20.07 -8.89,25.67 -5.25,5.59 -12.93,8.4 -23.02,8.4l-27.53 0 0.58 -9.64 2.54 0c1.67,0 2.79,-0.27 3.35,-0.79 0.56,-0.53 0.92,-2.04 1.06,-4.55l0.03 -0.5 2.22 -37.13c0.15,-2.64 0,-4.28 -0.45,-4.89 -0.46,-0.6 -1.59,-0.91 -3.37,-0.91l-2.48 0 0.58 -9.63 27.52 0zm-7.45 58.1l3.99 0c3.66,0 6.4,-1.84 8.21,-5.54 1.82,-3.7 2.98,-9.89 3.5,-18.58 0.51,-8.67 0.09,-14.87 -1.28,-18.59 -1.38,-3.7 -3.9,-5.55 -7.56,-5.55l-3.98 0 -2.88 48.26zm68.22 -49.79c-3.42,0 -6.03,2.03 -7.83,6.07 -1.8,4.04 -2.97,10.55 -3.5,19.49 -0.54,9.11 -0.15,15.7 1.15,19.77 1.3,4.05 3.65,6.08 7.04,6.08 3.45,0 6.06,-2.01 7.85,-6.05 1.78,-4.02 2.95,-10.53 3.48,-19.5 0.54,-9.06 0.15,-15.62 -1.15,-19.72 -1.3,-4.09 -3.64,-6.14 -7.04,-6.14zm-30.96 25.76c0.67,-11.26 3.8,-20.1 9.39,-26.5 5.59,-6.41 12.98,-9.6 22.16,-9.6 9.14,0 16.12,3.19 20.93,9.6 4.81,6.4 6.89,15.24 6.22,26.5 -0.67,11.25 -3.8,20.06 -9.39,26.43 -5.58,6.37 -12.99,9.56 -22.19,9.56 -9.12,0 -16.08,-3.19 -20.89,-9.59 -4.81,-6.41 -6.89,-15.21 -6.23,-26.4zm65.12 18.47l2.21 -37.15c0.16,-2.65 0.01,-4.27 -0.45,-4.88 -0.45,-0.61 -1.58,-0.91 -3.37,-0.91l-2.54 0 0.57 -9.6 34.85 0c6.16,0 10.67,1.4 13.53,4.21 2.87,2.8 4.13,7.04 3.8,12.74 -0.23,3.82 -1.36,7.05 -3.37,9.65 -2.03,2.62 -4.76,4.39 -8.23,5.36 3.41,0.55 5.65,1.97 6.74,4.22 1.08,2.27 1.38,7.45 0.9,15.53 -0.15,2.45 -0.1,4.14 0.15,5.07 0.26,0.95 0.73,1.42 1.45,1.42 0.68,0 1.21,-0.57 1.62,-1.74 0.4,-1.15 0.67,-2.91 0.81,-5.26 0.01,-0.23 0.02,-0.6 0.03,-1.14 0,-0.53 0.01,-0.92 0.03,-1.19l5.13 0c-0.02,0.31 -0.03,0.75 -0.04,1.37 -0.01,0.61 -0.03,1.05 -0.05,1.35 -0.37,6.34 -1.62,10.94 -3.73,13.79 -2.11,2.86 -5.33,4.28 -9.65,4.28 -4.59,0 -7.86,-1.29 -9.81,-3.85 -1.94,-2.57 -2.76,-6.66 -2.42,-12.27l0.34 -5.7c0.27,-4.54 -0.01,-7.43 -0.83,-8.67 -0.82,-1.23 -2.64,-1.86 -5.47,-1.86l-4.54 0 -0.91 15.23c-0.16,2.65 0,4.29 0.46,4.92 0.47,0.62 1.58,0.94 3.33,0.94l2.88 0 -0.58 9.64 -30.48 0 0.58 -9.64 2.54 0c1.77,0 2.94,-0.32 3.48,-0.94 0.54,-0.63 0.88,-2.27 1.04,-4.92zm18.06 -24.45l4.44 0c3.1,0 5.34,-0.68 6.68,-2.02 1.35,-1.33 2.11,-3.58 2.3,-6.7 0.2,-3.45 -0.23,-5.87 -1.32,-7.25 -1.09,-1.39 -3.09,-2.08 -6.04,-2.08l-4.99 0 -1.07 18.05zm61.66 8.31l-3.38 -20.6 -5.54 20.6 8.92 0zm-3.8 31.64l0.58 -9.64 2.27 0c1.93,0 3.1,-0.13 3.55,-0.42 0.44,-0.29 0.69,-0.81 0.74,-1.6 0.03,-0.55 0.03,-1.05 0,-1.53 -0.04,-0.49 -0.08,-0.94 -0.16,-1.42l-1.37 -7.29 -13.63 0 -1.96 6.5c-0.34,1 -0.57,1.77 -0.69,2.33 -0.14,0.58 -0.22,1.08 -0.24,1.54 -0.04,0.61 0.23,1.07 0.83,1.4 0.6,0.33 1.45,0.49 2.59,0.49l2.5 0 -0.58 9.64 -22.63 0 0.57 -9.64 1.88 0c1.28,0 2.39,-0.54 3.33,-1.64 0.93,-1.09 1.79,-2.87 2.58,-5.35l16.38 -51.41 18.3 0 8.81 51.2c0.62,3.39 1.23,5.43 1.85,6.14 0.62,0.71 1.67,1.06 3.14,1.06l2.66 0 -0.58 9.64 -30.72 0zm57.31 -68.04c10.12,0 17.46,2.79 22.03,8.36 4.58,5.58 6.52,14.12 5.84,25.61 -0.69,11.52 -3.65,20.07 -8.9,25.67 -5.25,5.59 -12.92,8.4 -23.02,8.4l-27.52 0 0.57 -9.64 2.54 0c1.67,0 2.79,-0.27 3.35,-0.79 0.56,-0.53 0.92,-2.04 1.07,-4.55l0.03 -0.5 2.21 -37.13c0.16,-2.64 0,-4.28 -0.45,-4.89 -0.46,-0.6 -1.58,-0.91 -3.37,-0.91l-2.48 0 0.58 -9.63 27.52 0zm-7.44 58.1l3.98 0c3.66,0 6.4,-1.84 8.21,-5.54 1.82,-3.7 2.98,-9.89 3.5,-18.58 0.52,-8.67 0.09,-14.87 -1.28,-18.59 -1.38,-3.7 -3.9,-5.55 -7.55,-5.55l-3.99 0 -2.87 48.26zm68.21 -49.79c-3.42,0 -6.03,2.03 -7.83,6.07 -1.8,4.04 -2.96,10.55 -3.5,19.49 -0.54,9.11 -0.15,15.7 1.15,19.77 1.31,4.05 3.65,6.08 7.05,6.08 3.44,0 6.05,-2.01 7.84,-6.05 1.78,-4.02 2.95,-10.53 3.48,-19.5 0.54,-9.06 0.15,-15.62 -1.15,-19.72 -1.3,-4.09 -3.64,-6.14 -7.04,-6.14zm-30.95 25.76c0.66,-11.26 3.8,-20.1 9.38,-26.5 5.59,-6.41 12.98,-9.6 22.16,-9.6 9.14,0 16.12,3.19 20.93,9.6 4.81,6.4 6.89,15.24 6.22,26.5 -0.67,11.25 -3.8,20.06 -9.38,26.43 -5.59,6.37 -13,9.56 -22.2,9.56 -9.12,0 -16.08,-3.19 -20.89,-9.59 -4.81,-6.41 -6.89,-15.21 -6.22,-26.4z"/>
   <path class="fil16" d="M61.37 289.94l-1.66 27.89 -8.22 0c0.05,-3.33 -0.05,-6.07 -0.3,-8.18 -0.25,-2.13 -0.69,-3.92 -1.32,-5.38 -0.75,-1.7 -1.8,-2.92 -3.11,-3.63 -1.32,-0.71 -3.9,-1.07 -7.75,-1.07l-6.5 0 -1.11 18.66 1.96 0c2.28,0 3.93,-0.74 4.94,-2.23 1,-1.49 1.62,-4.12 1.85,-7.93l0.04 -0.59 6.33 0 -1.85 31.03 -6.33 0c0.18,-4.75 -0.09,-7.82 -0.83,-9.23 -0.74,-1.42 -2.28,-2.12 -4.61,-2.12l-2.03 0 -0.92 15.32c-0.16,2.82 0,4.5 0.5,5.04 0.49,0.56 1.59,0.83 3.29,0.83l2.81 0 -0.58 9.63 -30.1 0 0.58 -9.63 2.53 0c1.68,0 2.8,-0.27 3.36,-0.8 0.56,-0.52 0.91,-2.06 1.06,-4.56l0.03 -0.51 2.21 -37.13c0.16,-2.63 0.01,-4.25 -0.45,-4.86 -0.45,-0.61 -1.58,-0.92 -3.36,-0.92l-2.48 0 0.57 -9.63 51.45 0zm30.29 8.32c-3.41,0 -6.03,2.02 -7.82,6.06 -1.8,4.04 -2.97,10.55 -3.5,19.49 -0.55,9.11 -0.16,15.7 1.15,19.77 1.3,4.06 3.64,6.09 7.04,6.09 3.44,0 6.05,-2.02 7.84,-6.06 1.79,-4.02 2.95,-10.52 3.49,-19.5 0.54,-9.05 0.15,-15.61 -1.15,-19.72 -1.31,-4.09 -3.65,-6.13 -7.05,-6.13zm-30.95 25.75c0.67,-11.25 3.8,-20.09 9.39,-26.5 5.58,-6.4 12.98,-9.6 22.16,-9.6 9.14,0 16.11,3.2 20.93,9.6 4.81,6.41 6.88,15.25 6.21,26.5 -0.67,11.26 -3.8,20.06 -9.38,26.43 -5.58,6.37 -12.99,9.57 -22.2,9.57 -9.11,0 -16.08,-3.2 -20.89,-9.6 -4.81,-6.41 -6.89,-15.21 -6.22,-26.4zm89.39 7.4l0.57 -9.63 27.99 0 -0.57 9.63 -1.8 0c-1.75,0 -2.89,0.29 -3.44,0.85 -0.55,0.55 -0.9,2.21 -1.06,4.93l-1.28 21.48 -9.21 0 -1.41 -4.15c-2.62,1.9 -5.2,3.34 -7.77,4.29 -2.56,0.93 -5.08,1.4 -7.57,1.4 -7.83,0 -13.81,-3.21 -17.95,-9.65 -4.13,-6.44 -5.85,-15.29 -5.18,-26.55 0.65,-10.87 3.59,-19.6 8.83,-26.24 5.24,-6.65 11.84,-9.96 19.79,-9.96 2.76,0 5.23,0.39 7.4,1.18 2.17,0.8 4.15,2.02 5.92,3.67l1.43 -3.77 8.06 0 -1.67 28.02 -8.82 0c-0.44,-6.54 -1.47,-11.27 -3.07,-14.23 -1.58,-2.95 -3.89,-4.42 -6.91,-4.42 -3.45,0 -6.06,2.01 -7.84,6.01 -1.79,4.01 -2.96,10.53 -3.49,19.54 -0.54,9.11 -0.16,15.7 1.15,19.77 1.3,4.06 3.64,6.09 7.03,6.09 2.21,0 3.73,-0.46 4.57,-1.36 0.84,-0.91 1.35,-2.89 1.53,-5.91l0.31 -5.21c0.15,-2.57 0,-4.17 -0.47,-4.81 -0.46,-0.65 -1.6,-0.97 -3.41,-0.97l-1.66 0zm61.51 -33.15c-3.42,0 -6.04,2.02 -7.84,6.06 -1.8,4.04 -2.96,10.55 -3.49,19.49 -0.55,9.11 -0.16,15.7 1.15,19.77 1.3,4.06 3.64,6.09 7.04,6.09 3.44,0 6.05,-2.02 7.84,-6.06 1.79,-4.02 2.95,-10.52 3.49,-19.5 0.54,-9.05 0.15,-15.61 -1.15,-19.72 -1.31,-4.09 -3.65,-6.13 -7.04,-6.13zm-30.96 25.75c0.67,-11.25 3.8,-20.09 9.39,-26.5 5.58,-6.4 12.98,-9.6 22.16,-9.6 9.14,0 16.11,3.2 20.93,9.6 4.81,6.41 6.88,15.25 6.21,26.5 -0.67,11.26 -3.79,20.06 -9.38,26.43 -5.58,6.37 -12.99,9.57 -22.2,9.57 -9.11,0 -16.08,-3.2 -20.89,-9.6 -4.81,-6.41 -6.89,-15.21 -6.22,-26.4zm23.56 -40.96l11.8 -15.48c1.45,-1.93 2.63,-3.23 3.56,-3.94 0.92,-0.71 1.88,-1.07 2.86,-1.07 1.21,0 2.17,0.55 2.91,1.64 0.73,1.08 1.05,2.44 0.95,4.06 -0.07,1.25 -0.45,2.36 -1.14,3.36 -0.69,0.98 -1.75,1.96 -3.22,2.91l-13.25 8.52 -4.47 0zm63.03 6.89l15.89 45.83 1.82 -30.4c0.16,-2.74 -0.01,-4.39 -0.5,-4.95 -0.5,-0.56 -1.6,-0.85 -3.31,-0.85l-2.87 0 0.58 -9.63 22.25 0 -0.57 9.63 -1.8 0c-1.77,0 -2.92,0.31 -3.46,0.92 -0.54,0.61 -0.89,2.24 -1.04,4.88l-3.14 52.61 -17.36 0 -16.78 -48.76 -1.98 33.28c-0.15,2.64 0,4.28 0.47,4.9 0.46,0.62 1.59,0.95 3.35,0.95l2.25 0 -0.58 9.63 -22.33 0 0.58 -9.63 2.47 0c1.79,0 2.96,-0.33 3.52,-0.97 0.55,-0.64 0.91,-2.26 1.07,-4.88l2.21 -37.13c0.15,-2.59 0,-4.19 -0.47,-4.83 -0.46,-0.64 -1.61,-0.97 -3.42,-0.97l-2.48 0 0.57 -9.63 25.06 0zm85.46 0c10.12,0 17.46,2.79 22.03,8.37 4.58,5.57 6.52,14.11 5.83,25.6 -0.68,11.52 -3.64,20.08 -8.89,25.67 -5.25,5.59 -12.93,8.4 -23.02,8.4l-27.53 0 0.58 -9.63 2.54 0c1.67,0 2.79,-0.27 3.35,-0.8 0.56,-0.52 0.92,-2.04 1.06,-4.54l0.03 -0.51 2.22 -37.13c0.15,-2.64 0,-4.27 -0.45,-4.88 -0.46,-0.61 -1.59,-0.92 -3.37,-0.92l-2.48 0 0.58 -9.63 27.52 0zm-7.45 58.1l3.99 0c3.66,0 6.4,-1.84 8.21,-5.54 1.82,-3.7 2.98,-9.89 3.5,-18.57 0.51,-8.67 0.09,-14.88 -1.28,-18.59 -1.38,-3.7 -3.9,-5.56 -7.56,-5.56l-3.98 0 -2.88 48.26zm68.22 -49.78c-3.42,0 -6.03,2.02 -7.83,6.06 -1.8,4.04 -2.97,10.55 -3.5,19.49 -0.54,9.11 -0.15,15.7 1.15,19.77 1.3,4.06 3.65,6.09 7.04,6.09 3.45,0 6.06,-2.02 7.85,-6.06 1.78,-4.02 2.95,-10.52 3.48,-19.5 0.54,-9.05 0.15,-15.61 -1.15,-19.72 -1.3,-4.09 -3.64,-6.13 -7.04,-6.13zm-30.96 25.75c0.67,-11.25 3.8,-20.09 9.39,-26.5 5.59,-6.4 12.98,-9.6 22.16,-9.6 9.14,0 16.12,3.2 20.93,9.6 4.81,6.41 6.89,15.25 6.22,26.5 -0.67,11.26 -3.8,20.06 -9.39,26.43 -5.58,6.37 -12.99,9.57 -22.19,9.57 -9.12,0 -16.08,-3.2 -20.89,-9.6 -4.81,-6.41 -6.89,-15.21 -6.23,-26.4zm65.12 18.47l2.21 -37.14c0.16,-2.66 0.01,-4.28 -0.45,-4.89 -0.45,-0.6 -1.58,-0.91 -3.37,-0.91l-2.54 0 0.57 -9.6 34.85 0c6.16,0 10.67,1.4 13.53,4.21 2.87,2.8 4.13,7.05 3.8,12.74 -0.23,3.82 -1.36,7.05 -3.37,9.65 -2.03,2.62 -4.76,4.4 -8.23,5.36 3.41,0.56 5.65,1.98 6.74,4.22 1.08,2.27 1.38,7.46 0.9,15.53 -0.15,2.46 -0.1,4.14 0.15,5.07 0.26,0.95 0.73,1.42 1.45,1.42 0.68,0 1.21,-0.57 1.62,-1.74 0.4,-1.15 0.67,-2.9 0.81,-5.25 0.01,-0.24 0.02,-0.61 0.03,-1.15 0,-0.53 0.01,-0.92 0.03,-1.18l5.13 0c-0.02,0.3 -0.03,0.74 -0.04,1.37 -0.01,0.6 -0.03,1.04 -0.05,1.35 -0.37,6.33 -1.62,10.93 -3.73,13.79 -2.11,2.85 -5.33,4.27 -9.65,4.27 -4.59,0 -7.86,-1.28 -9.81,-3.85 -1.94,-2.57 -2.76,-6.66 -2.42,-12.27l0.34 -5.7c0.27,-4.54 -0.01,-7.43 -0.83,-8.67 -0.82,-1.23 -2.64,-1.85 -5.47,-1.85l-4.54 0 -0.91 15.22c-0.16,2.66 0,4.3 0.46,4.92 0.47,0.62 1.58,0.95 3.33,0.95l2.88 0 -0.58 9.63 -30.48 0 0.58 -9.63 2.54 0c1.77,0 2.94,-0.33 3.48,-0.95 0.54,-0.62 0.88,-2.26 1.04,-4.92zm18.06 -24.45l4.44 0c3.1,0 5.34,-0.68 6.68,-2.01 1.35,-1.34 2.11,-3.58 2.3,-6.71 0.2,-3.45 -0.23,-5.86 -1.32,-7.25 -1.09,-1.39 -3.09,-2.08 -6.04,-2.08l-4.99 0 -1.07 18.05zm61.66 8.31l-3.38 -20.6 -5.54 20.6 8.92 0zm-3.8 31.64l0.58 -9.63 2.27 0c1.93,0 3.1,-0.14 3.55,-0.43 0.44,-0.28 0.69,-0.81 0.74,-1.6 0.03,-0.54 0.03,-1.05 0,-1.52 -0.04,-0.49 -0.08,-0.95 -0.16,-1.42l-1.37 -7.3 -13.63 0 -1.96 6.5c-0.34,1 -0.57,1.78 -0.69,2.34 -0.14,0.57 -0.22,1.08 -0.24,1.53 -0.04,0.61 0.23,1.07 0.83,1.41 0.6,0.32 1.45,0.49 2.59,0.49l2.5 0 -0.58 9.63 -22.63 0 0.57 -9.63 1.88 0c1.28,0 2.39,-0.54 3.33,-1.64 0.93,-1.1 1.79,-2.88 2.58,-5.36l16.38 -51.41 18.3 0 8.81 51.21c0.62,3.38 1.23,5.42 1.85,6.13 0.62,0.71 1.67,1.07 3.14,1.07l2.66 0 -0.58 9.63 -30.72 0zm57.31 -68.04c10.12,0 17.46,2.79 22.03,8.37 4.58,5.57 6.52,14.11 5.84,25.6 -0.69,11.52 -3.65,20.08 -8.9,25.67 -5.25,5.59 -12.92,8.4 -23.02,8.4l-27.52 0 0.57 -9.63 2.54 0c1.67,0 2.79,-0.27 3.35,-0.8 0.56,-0.52 0.92,-2.04 1.07,-4.54l0.03 -0.51 2.21 -37.13c0.16,-2.64 0,-4.27 -0.45,-4.88 -0.46,-0.61 -1.58,-0.92 -3.37,-0.92l-2.48 0 0.58 -9.63 27.52 0zm-7.44 58.1l3.98 0c3.66,0 6.4,-1.84 8.21,-5.54 1.82,-3.7 2.98,-9.89 3.5,-18.57 0.52,-8.67 0.09,-14.88 -1.28,-18.59 -1.38,-3.7 -3.9,-5.56 -7.55,-5.56l-3.99 0 -2.87 48.26zm68.21 -49.78c-3.42,0 -6.03,2.02 -7.83,6.06 -1.8,4.04 -2.96,10.55 -3.5,19.49 -0.54,9.11 -0.15,15.7 1.15,19.77 1.31,4.06 3.65,6.09 7.05,6.09 3.44,0 6.05,-2.02 7.84,-6.06 1.78,-4.02 2.95,-10.52 3.48,-19.5 0.54,-9.05 0.15,-15.61 -1.15,-19.72 -1.3,-4.09 -3.64,-6.13 -7.04,-6.13zm-30.95 25.75c0.66,-11.25 3.8,-20.09 9.38,-26.5 5.59,-6.4 12.98,-9.6 22.16,-9.6 9.14,0 16.12,3.2 20.93,9.6 4.81,6.41 6.89,15.25 6.22,26.5 -0.67,11.26 -3.8,20.06 -9.38,26.43 -5.59,6.37 -13,9.57 -22.2,9.57 -9.12,0 -16.08,-3.2 -20.89,-9.6 -4.81,-6.41 -6.89,-15.21 -6.22,-26.4z"/>
  </g>
 </g>
</svg>
