<?xml version="1.0" encoding="UTF-8"?>
<!DOCTYPE svg PUBLIC "-//W3C//DTD SVG 1.1//EN" "http://www.w3.org/Graphics/SVG/1.1/DTD/svg11.dtd">
<!-- Creator: CorelDRAW -->
<svg xmlns="http://www.w3.org/2000/svg" xml:space="preserve" width="540px" height="85px" version="1.1" style="shape-rendering:geometricPrecision; text-rendering:geometricPrecision; image-rendering:optimizeQuality; fill-rule:evenodd; clip-rule:evenodd"
viewBox="0 0 785.4 123.2"
 xmlns:xlink="http://www.w3.org/1999/xlink"
 xmlns:xodm="http://www.corel.com/coreldraw/odm/2003">
 <defs>
  <style type="text/css">
   <![CDATA[
    .fil0 {fill:#ED3237}
   ]]>
  </style>
 </defs>
 <g id="Capa_x0020_1">
  <metadata id="CorelCorpID_0Corel-Layer"/>
  <g id="_2246274255184">
   <path class="fil0" d="M248.53 60.63c7.49,0.29 13.37,1.76 13.51,5.43l0 13.08 -42.15 0 0 -13.08c0,-3.81 5.87,-4.69 13.66,-5.43l0 -9.55 -55.23 0 0 9.55c7.93,0.29 13.66,1.32 13.51,5.87l0 38.49c0,4.99 -6.75,6.46 -13.51,6.46l0 8.67 55.23 0 0 -8.67c-6.76,-0.14 -13.81,-1.76 -13.96,-6.46l0 -12.49 42.45 0 0 13.08c-0.29,4.55 -6.75,5.73 -13.51,5.87l0 8.67 55.23 0 0 -8.67c-6.61,-0.59 -13.66,-0.44 -13.95,-6.46l0 -38.93c0,-5.28 9.1,-3.96 13.95,-5.43l0 -9.55 -55.23 0 0 9.55zm250.29 0c5.73,0 13.81,2.2 13.81,5.58l0 37.31 -37.16 -50.09c-1.03,-1.32 -2.79,-2.35 -5.58,-2.35l-47.89 0 0 9.55c6.61,0.44 13.51,1.76 13.51,5.58l0 39.22c0,4.41 -5.43,5.88 -13.51,6.02l0 8.67 43.77 0 0 -8.67c-9.69,0 -13.51,-2.05 -13.51,-7.05l0 -34.81 37.16 48.91c1.03,1.03 1.77,1.62 3.23,1.62l36.43 0 0 -54.2c0,-2.65 6.76,-4.55 14.25,-5.29l0 -9.55 -44.51 0 0 9.55zm-136.31 49.79l-0.58 0c-13.08,0 -23.95,-6.16 -23.8,-24.38 0,-14.83 6.61,-23.5 24.38,-23.5 19.1,0 24.24,8.67 24.24,23.5 -0.29,16.01 -7.2,24.53 -24.24,24.38zm1.18 -61.54l-1.18 0c-34.96,-0.15 -56.55,14.1 -56.11,37.16 0.44,21.89 17.04,36.72 56.11,37.16l1.18 0c40.39,-0.14 55.08,-17.33 55.08,-36.57 -0.29,-21.01 -17.19,-37.75 -55.08,-37.75zm250.29 58.9l-26 0 0 -42.45 26 0c11.9,0 14.83,8.52 15.13,22.03 0.15,10.14 -3.23,20.13 -15.13,20.42zm44.36 -35.25c-5.43,-11.9 -18.66,-21.45 -40.83,-21.45l-69.04 0 0 9.55c5.14,0.88 12.63,1.03 12.48,5.87l0 39.66c0,3.97 -6.02,5.15 -13.66,5.29l0 8.67 79.03 0c16.16,-1.18 27.17,-9.99 32.02,-21.15 3.52,-8.37 3.67,-18.07 0,-26.44zm41.42 15.13l12.93 -21.45 0.44 0.59 13.36 20.86 -26.73 0zm70.22 18.36l-33.79 -52.88c-1.18,-1.62 -2.35,-2.06 -5.29,-2.06l-52.29 0 0 9.55c10.87,0.59 17.18,2.2 14.83,7.35l-23.5 39.21c-2.35,3.09 -6.61,4.26 -11.6,4.26l-2.79 0 0 8.67 44.07 0 0 -8.67c-7.2,-0.14 -13.81,-1.17 -11.17,-5.29l3.53 -6.46 42.15 0 3.97 6.61c1.62,3.97 -3.97,5.14 -12.05,5.14l0 8.67 59.35 0 0 -8.67c-7.64,0.3 -12.49,-1.32 -15.42,-5.43z"/>
   <path class="fil0" d="M27.32 100.29l8.96 8.37 38.04 -4.84 9.41 -1.18c-1.62,-1.17 -0.74,-2.5 0.88,-2.65l28.2 -4.25c7.64,-0.59 18.21,-13.52 18.07,-14.69l-56.56 10.43 -47 8.81zm146.15 -100.18c-32.02,15.72 -65.22,29.38 -99.15,43.04 -21.59,8.67 -43.47,17.33 -65.8,26.59 -6.17,3.82 -8.23,7.78 -8.52,11.45l0 1.32c0.29,4.26 2.79,7.79 3.97,9.41 9.84,11.01 22.18,19.53 24.67,27.46l14.54 0c-10.28,-11.01 -22.18,-19.97 -32.46,-30.69 -3.96,-5 -2.2,-8.52 1.62,-10.87 22.77,-8.52 42.6,-15.43 61.98,-22.19 25.27,-8.81 49.94,-17.18 79.62,-28.34 6.75,-1.76 12.92,-7.35 15.86,-14.54 3.08,-7.5 5.73,-13.66 3.67,-12.64zm-13.8 31.44c-7.94,3.67 -46.27,16.15 -85.35,28.93 -21.15,6.91 -42.59,13.96 -59.63,19.69 -6.02,2.79 -1.62,7.34 1.32,9.54l33.2 -8.52c-1.18,-1.02 -1.18,-2.35 0,-2.79l25.11 -6.75 65.07 -17.48c12.49,-2.94 14.99,-8.96 19.1,-16.16 2.79,-5.29 4.99,-8.08 1.18,-6.46zm-13.23 26.58l-72.12 18.66 -56.4 14.69 7.64 7.19 39.51 -7.49c-1.18,-1.03 -1.18,-2.49 0.44,-2.94l8.81 -1.76 55.67 -10.72c7.2,-1.47 10.14,-6.61 13.22,-10.72 3.38,-4.85 5,-7.35 3.23,-6.91zm-72.12 48.33l-36.13 3.96 9.55 8.96 62.86 0 -23.35 -14.39 -12.93 1.47z"/>
  </g>
 </g>
</svg>
