<?xml version="1.0" encoding="UTF-8"?>
<!DOCTYPE svg PUBLIC "-//W3C//DTD SVG 1.1//EN" "http://www.w3.org/Graphics/SVG/1.1/DTD/svg11.dtd">
<!-- Creator: CorelDRAW -->
<svg xmlns="http://www.w3.org/2000/svg" xml:space="preserve" width="537px" height="133px" version="1.1" style="shape-rendering:geometricPrecision; text-rendering:geometricPrecision; image-rendering:optimizeQuality; fill-rule:evenodd; clip-rule:evenodd"
viewBox="0 0 126.49 31.25"
 xmlns:xlink="http://www.w3.org/1999/xlink"
 xmlns:xodm="http://www.corel.com/coreldraw/odm/2003">
 <defs>
  <style type="text/css">
   <![CDATA[
    .fil2 {fill:none;fill-rule:nonzero}
    .fil0 {fill:#F27535}
    .fil1 {fill:#F27535;fill-rule:nonzero}
   ]]>
  </style>
 </defs>
 <g id="Capa_x0020_1">
  <metadata id="CorelCorpID_0Corel-Layer"/>
  <g id="_2246265072352">
   <path class="fil0" d="M25.75 1.93c-0.79,-0.23 -0.29,0.98 -0.54,1.6 -0.61,-0.21 -1.57,-1.28 -1.91,-0.72 -0.19,0.37 0.75,1.01 1.09,1.41 -0.87,0.08 -2.48,-0.24 -2.52,0.33 -0.11,0.72 2,0.62 2.78,0.96 0.07,0.1 -1.04,1.17 -0.9,1.87 0.05,0.22 0.23,0.39 0.53,0.38 0.62,-0.02 1.24,-1.3 1.6,-1.39 0.39,0.57 0.42,2.02 1.16,1.95 0.57,-0.06 0.17,-1.48 0.22,-1.98 0.74,0.13 1.96,0.76 2.14,0.48 0.43,-0.67 -1.53,-1.39 -1.97,-1.8 0.16,-0.31 0.54,-0.7 0.64,-1.06 0.08,-0.28 -0.15,-0.62 -0.47,-0.49 -0.33,0.07 -0.77,0.37 -1.1,0.45 -0.25,-0.55 -0.21,-1.84 -0.75,-1.99z"/>
   <path class="fil0" d="M18 8.26c1.36,-1.53 0.11,-3.74 -1.96,-3.43 -0.92,0.14 -1.51,0.79 -1.64,1.24 -0.83,2.62 2.31,3.65 3.6,2.19z"/>
   <path class="fil0" d="M19.34 13.56c-0.15,-0.69 -0.27,-1.53 0.41,-2.74 0.27,-0.49 1.11,-1.43 1.61,-2.03 0.64,-0.75 1.23,-1.45 1.38,-1.87 0.12,-0.34 -0.19,-0.87 -0.78,-0.59 -0.55,0.25 -1.24,0.93 -1.88,1.48 -0.58,0.5 -1.25,0.98 -1.84,1.26 -1.62,0.76 -3.42,0.12 -5.04,-0.36 -1.33,-0.39 -2.91,-1.42 -3.28,-0.69 -0.34,0.68 0.69,1.21 1.14,1.49 0.91,0.55 2.16,1.14 2.82,2.01 0.49,0.65 0.84,1.89 0.73,3.02 -0.07,0.73 -0.2,1.33 -0.62,2.64 -0.31,0.97 -1.1,2.89 0.46,2.84 0.73,-0.02 1.3,-1.57 1.57,-2.04 0.46,-0.81 0.65,-1.53 1.05,-2.3 0.04,-0.09 0.14,-0.24 0.31,0.02 0.49,0.78 1.08,1.88 1.54,2.57 0.3,0.45 0.94,1.47 1.55,1.34 1.23,-0.26 0.16,-2.35 -0.12,-3.04 -0.25,-0.63 -0.81,-2.1 -1.01,-3.01z"/>
   <path class="fil1" d="M13.9 23.95c0.22,-0.16 -0.11,-0.48 -0.11,-0.74 0.44,0 1.1,0.32 1.23,0.09 0.19,-0.44 -0.71,-0.45 -0.97,-0.77 0.1,-0.33 0.79,-0.59 0.45,-0.9 -0.21,-0.17 -0.57,0.31 -0.79,0.24 -0.03,-0.41 0.18,-1.19 -0.08,-1.24 -0.56,-0.11 -0.33,0.81 -0.65,1.08 -0.32,-0.19 -0.47,-0.83 -0.84,-0.68 -0.27,0.2 0.33,0.75 0.36,1.21 -0.3,0.01 -0.81,0 -0.84,0.17 -0.13,0.42 0.73,0.37 0.92,0.6 -0.06,0.38 -0.68,0.89 -0.21,1.12 0.28,0.08 0.45,-0.53 0.77,-0.71 0.28,0.14 0.5,0.69 0.76,0.53z"/>
   <path class="fil1" d="M27.05 10.92c0.64,-0.12 1.04,0.57 0.63,1.09 -0.2,0.22 -0.47,0.27 -0.61,0.24 -0.86,-0.19 -0.64,-1.21 -0.02,-1.33z"/>
   <path class="fil1" d="M25.42 9.71c0.16,0.15 0.38,0.32 0.82,0.33 0.18,0 0.57,-0.08 0.83,-0.12 0.3,-0.05 0.59,-0.1 0.73,-0.07 0.11,0.02 0.21,0.19 0.03,0.31 -0.15,0.1 -0.45,0.18 -0.71,0.27 -0.23,0.08 -0.47,0.18 -0.64,0.3 -0.47,0.31 -0.59,0.91 -0.72,1.42 -0.11,0.43 -0.08,1.02 -0.34,1.01 -0.24,-0.02 -0.22,-0.39 -0.22,-0.55 -0.01,-0.34 0.03,-0.77 -0.1,-1.09 -0.1,-0.24 -0.39,-0.53 -0.72,-0.68 -0.21,-0.1 -0.4,-0.16 -0.83,-0.26 -0.32,-0.07 -0.98,-0.16 -0.71,-0.58 0.13,-0.19 0.65,-0.1 0.82,-0.1 0.3,0.01 0.53,0.07 0.8,0.09 0.04,0 0.09,-0.01 0.05,-0.09 -0.14,-0.26 -0.34,-0.6 -0.46,-0.83 -0.08,-0.15 -0.25,-0.49 -0.12,-0.64 0.27,-0.29 0.67,0.34 0.82,0.52 0.13,0.17 0.45,0.56 0.67,0.76z"/>
   <path class="fil1" d="M22.17 14.79c0.25,-0.29 0.01,-0.7 -0.38,-0.63 -0.17,0.03 -0.28,0.16 -0.3,0.24 -0.14,0.49 0.45,0.67 0.68,0.39z"/>
   <path class="fil1" d="M22.44 15.77c-0.03,-0.13 -0.05,-0.28 0.07,-0.51 0.05,-0.09 0.2,-0.27 0.29,-0.39 0.11,-0.14 0.22,-0.27 0.25,-0.35 0.02,-0.06 -0.04,-0.16 -0.15,-0.11 -0.1,0.06 -0.22,0.18 -0.34,0.29 -0.11,0.09 -0.23,0.19 -0.34,0.24 -0.3,0.15 -0.64,0.04 -0.94,-0.04 -0.25,-0.07 -0.55,-0.26 -0.61,-0.12 -0.06,0.13 0.13,0.22 0.21,0.27 0.18,0.1 0.41,0.21 0.54,0.37 0.09,0.12 0.16,0.35 0.15,0.56 -0.01,0.13 -0.03,0.24 -0.11,0.49 -0.05,0.18 -0.19,0.54 0.1,0.53 0.14,-0.01 0.24,-0.3 0.29,-0.39 0.08,-0.16 0.11,-0.29 0.18,-0.43 0.01,-0.02 0.03,-0.05 0.06,0 0.09,0.14 0.21,0.34 0.3,0.47 0.05,0.09 0.18,0.27 0.29,0.25 0.23,-0.06 0.02,-0.45 -0.03,-0.57 -0.05,-0.12 -0.16,-0.39 -0.21,-0.56z"/>
   <path class="fil1" d="M10.72 12.03c0.25,0.34 0.02,0.67 -0.36,0.55 -0.17,-0.06 -0.23,-0.15 -0.26,-0.24 -0.15,-0.53 0.38,-0.63 0.62,-0.31z"/>
   <path class="fil1" d="M10.91 10.1c0.26,0.34 0.03,0.67 -0.35,0.55 -0.17,-0.06 -0.23,-0.15 -0.26,-0.24 -0.15,-0.53 0.37,-0.62 0.61,-0.31z"/>
   <path class="fil1" d="M10.07 10.77c0.08,0.13 0.18,0.28 0.43,0.42 0.1,0.06 0.11,0.04 0.23,0.09 0.2,0.08 0.23,0.07 0.3,0.12 0.07,0.04 0.09,0.16 -0.05,0.19 -0.12,0.03 -0.13,0.04 -0.33,0.06 -0.16,0.02 -0.33,0.02 -0.47,0.12 -0.3,0.24 -0.23,0.22 -0.4,0.53 -0.13,0.26 -0.24,0.63 -0.4,0.55 -0.15,-0.06 -0.05,-0.28 -0.02,-0.38 0.08,-0.2 0.21,-0.46 0.19,-0.68 -0.01,-0.17 -0.12,-0.41 -0.29,-0.57 -0.11,-0.12 -0.21,-0.19 -0.46,-0.35 -0.18,-0.11 -0.57,-0.32 -0.31,-0.51 0.13,-0.09 0.43,0.08 0.54,0.12 0.17,0.09 0.31,0.17 0.48,0.24 0.02,0 0.06,0.02 0.05,-0.05 -0.02,-0.18 -0.15,-0.35 -0.22,-0.53 -0.03,-0.1 -0.09,-0.32 0.01,-0.4 0.14,-0.11 0.34,0.27 0.42,0.43 0.07,0.13 0.22,0.43 0.3,0.6z"/>
   <path class="fil1" d="M1.98 5.05c0.14,0.22 0.65,-0.32 1.01,-0.4l0.28 0.86c0.23,0.42 0.13,-0.83 0.57,-1.21 0.48,0.05 0.83,0.39 0.97,0.06 -0.01,-0.31 -0.39,-0.39 -0.48,-0.62 0.42,-0.4 1.7,-0.85 1.44,-1.18 -0.41,-0.15 -0.97,0.42 -1.32,0.33 0.03,-0.33 0.52,-0.79 0.27,-0.87 -0.35,-0.11 -0.5,0.58 -0.84,0.79 -0.09,-0.22 -0.33,-0.67 -0.46,-0.62 -0.22,-0.02 -0.07,0.55 -0.15,1.02 -0.41,0.08 -0.92,-0.23 -0.95,0.26 0.02,0.22 0.46,0.36 0.54,0.59 -0.22,0.36 -1.08,0.73 -0.88,0.99z"/>
   <path class="fil1" d="M5.88 15.09c0.14,0.15 0.22,0.5 0.39,0.43 0.15,-0.08 -0.14,-0.41 -0.01,-0.55 0.09,-0.1 0.37,0.22 0.45,0.01 0.01,-0.17 -0.28,-0.16 -0.27,-0.31 0.15,-0.13 0.46,-0.19 0.37,-0.33 -0.1,-0.17 -0.38,0.09 -0.62,0.04 -0.05,-0.15 0.04,-0.29 -0.12,-0.43 -0.06,-0.06 -0.09,-0.03 -0.13,-0.01 -0.11,0.14 -0.01,0.26 -0.16,0.37 -0.2,-0.16 -0.44,-0.49 -0.55,-0.35 -0.12,0.15 0.24,0.33 0.23,0.52 -0.18,-0.02 -0.53,-0.08 -0.54,0.01 -0.04,0.19 0.41,0.15 0.6,0.31l-0.24 0.25c-0.03,0.06 -0.01,0.1 0.06,0.11 0.18,0.03 0.36,-0.19 0.54,-0.07z"/>
   <path class="fil1" d="M20.24 26.58c0.13,0.13 0.21,0.47 0.37,0.4 0.14,-0.07 -0.13,-0.38 -0.02,-0.51 0.09,-0.1 0.35,0.2 0.43,0.01 0,-0.16 -0.26,-0.16 -0.25,-0.3 0.14,-0.12 0.42,-0.17 0.34,-0.31 -0.09,-0.16 -0.36,0.09 -0.58,0.04 -0.05,-0.13 0.04,-0.27 -0.11,-0.41 -0.05,-0.04 -0.08,-0.02 -0.12,0 -0.11,0.14 -0.01,0.24 -0.15,0.34 -0.19,-0.15 -0.42,-0.45 -0.52,-0.32 -0.1,0.14 0.23,0.3 0.22,0.49 -0.17,-0.03 -0.5,-0.08 -0.51,0.01 -0.03,0.18 0.39,0.14 0.57,0.29l-0.22 0.23c-0.04,0.06 -0.02,0.1 0.05,0.1 0.17,0.03 0.33,-0.17 0.5,-0.06z"/>
   <path class="fil1" d="M8.17 3.53c0.12,0.14 0.2,0.47 0.36,0.4 0.14,-0.07 -0.13,-0.38 -0.01,-0.51 0.09,-0.1 0.35,0.2 0.42,0.01 0,-0.15 -0.26,-0.15 -0.25,-0.29 0.14,-0.13 0.43,-0.18 0.34,-0.31 -0.09,-0.16 -0.35,0.08 -0.58,0.03 -0.05,-0.13 0.05,-0.27 -0.11,-0.4 -0.05,-0.05 -0.08,-0.03 -0.11,-0.01 -0.12,0.14 -0.02,0.24 -0.16,0.35 -0.18,-0.15 -0.41,-0.46 -0.52,-0.32 -0.1,0.13 0.24,0.3 0.22,0.48 -0.17,-0.03 -0.49,-0.08 -0.5,0.01 -0.04,0.18 0.38,0.14 0.56,0.29l-0.22 0.23c-0.04,0.06 -0.02,0.1 0.05,0.11 0.17,0.02 0.34,-0.18 0.51,-0.07z"/>
   <path class="fil1" d="M8.3 21.9c-0.14,0.15 -0.23,0.51 -0.4,0.44 -0.15,-0.08 0.14,-0.42 0.01,-0.56 -0.1,-0.1 -0.38,0.22 -0.46,0.01 -0.01,-0.17 0.29,-0.17 0.27,-0.32 -0.15,-0.14 -0.46,-0.19 -0.37,-0.34 0.1,-0.17 0.39,0.1 0.63,0.04 0.06,-0.14 -0.04,-0.3 0.12,-0.44 0.06,-0.05 0.09,-0.03 0.13,-0.01 0.12,0.15 0.02,0.27 0.17,0.38 0.2,-0.16 0.45,-0.5 0.56,-0.35 0.12,0.15 -0.25,0.33 -0.24,0.53 0.19,-0.03 0.55,-0.09 0.56,0.01 0.04,0.2 -0.42,0.15 -0.62,0.32l0.24 0.25c0.05,0.06 0.02,0.1 -0.05,0.11 -0.19,0.03 -0.37,-0.19 -0.55,-0.07z"/>
   <path class="fil1" d="M25.75 22.4c0.06,-0.22 0.11,-0.46 0.13,-0.72 -0.03,-0.12 -0.09,-0.1 -0.15,-0.06 -0.18,0.19 -0.21,0.54 -0.39,0.71 -0.22,0 -0.37,-0.28 -0.49,-0.17 -0.18,0.13 0.13,0.28 0.11,0.52 -0.28,0.06 -0.77,-0.01 -0.69,0.34 0.1,0.11 0.47,0.03 0.62,0.13 -0.01,0.21 -0.28,0.34 -0.18,0.51 0.19,0.11 0.29,-0.34 0.48,-0.19 0,0.22 -0.08,0.54 0.13,0.57 0.26,-0.02 0.1,-0.57 0.28,-0.71 0.16,0.06 0.36,0.28 0.46,0.18 0.16,-0.27 -0.21,-0.33 -0.23,-0.59 0.11,-0.16 0.53,-0.21 0.43,-0.39 -0.07,-0.14 -0.45,0.01 -0.51,-0.13z"/>
   <path class="fil1" d="M25.42 0.77c-0.01,0.1 0.27,0.14 0.4,0.25 -0.09,0.15 -0.29,0.32 -0.3,0.46 0.06,0.21 0.39,-0.21 0.59,-0.24 0.11,0.1 0.16,0.47 0.28,0.32 0.07,-0.09 0.03,-0.22 0.05,-0.33 0.19,0.03 0.44,0.31 0.49,0.2 0.06,-0.11 -0.24,-0.28 -0.35,-0.42 0.1,-0.02 0.2,-0.04 0.17,-0.09 -0.09,-0.12 -0.3,-0.05 -0.37,-0.04 0,-0.13 0.01,-0.15 -0.01,-0.2 -0.07,-0.17 -0.17,-0.06 -0.29,0.02 -0.14,-0.09 -0.3,-0.27 -0.39,-0.19 -0.07,0.06 0.13,0.18 0.18,0.25 -0.14,0.01 -0.44,-0.12 -0.45,0.01z"/>
   <path class="fil1" d="M30.84 16.14c-0.22,0.38 -0.63,0.29 -0.67,-0.12 -0.01,-0.19 0.05,-0.28 0.13,-0.34 0.43,-0.37 0.75,0.1 0.54,0.46z"/>
   <path class="fil1" d="M31.78 15.01c-0.09,0.12 -0.19,0.28 -0.23,0.58 -0.01,0.12 0,0.12 0.01,0.26 0,0.21 0.02,0.24 0.01,0.34 -0.01,0.07 -0.12,0.15 -0.21,0.03 -0.07,-0.11 -0.08,-0.12 -0.18,-0.3 -0.09,-0.14 -0.16,-0.32 -0.32,-0.4 -0.34,-0.2 -0.29,-0.14 -0.66,-0.17 -0.3,-0.02 -0.7,0.02 -0.69,-0.16 0,-0.17 0.24,-0.17 0.36,-0.17 0.22,-0.02 0.52,0 0.73,-0.1 0.15,-0.07 0.34,-0.28 0.43,-0.51 0.05,-0.15 0.09,-0.28 0.14,-0.58 0.04,-0.22 0.07,-0.68 0.36,-0.51 0.14,0.09 0.1,0.45 0.1,0.57 -0.01,0.2 -0.03,0.36 -0.03,0.56 0,0.02 0.01,0.05 0.06,0.02 0.17,-0.1 0.28,-0.28 0.42,-0.42 0.08,-0.08 0.27,-0.22 0.39,-0.16 0.16,0.09 -0.12,0.44 -0.24,0.58 -0.1,0.12 -0.32,0.38 -0.45,0.54z"/>
   <path class="fil1" d="M32.13 6.42c0.3,0.39 0.03,0.79 -0.41,0.64 -0.2,-0.07 -0.27,-0.17 -0.3,-0.28 -0.19,-0.61 0.43,-0.73 0.71,-0.36z"/>
   <path class="fil1" d="M31 4.96c0.08,0.15 0.21,0.31 0.49,0.48 0.12,0.07 0.13,0.05 0.28,0.11 0.22,0.09 0.26,0.08 0.35,0.14 0.08,0.04 0.1,0.19 -0.06,0.23 -0.14,0.03 -0.16,0.03 -0.38,0.06 -0.19,0.02 -0.4,0.02 -0.56,0.15 -0.35,0.26 -0.27,0.24 -0.46,0.61 -0.16,0.29 -0.29,0.72 -0.47,0.64 -0.17,-0.07 -0.06,-0.32 -0.01,-0.44 0.07,-0.24 0.22,-0.54 0.21,-0.8 -0.01,-0.19 -0.14,-0.48 -0.34,-0.67 -0.12,-0.13 -0.24,-0.22 -0.53,-0.4 -0.21,-0.13 -0.67,-0.37 -0.36,-0.6 0.14,-0.1 0.5,0.09 0.62,0.15 0.21,0.1 0.37,0.19 0.57,0.27 0.02,0.01 0.06,0.02 0.05,-0.05 -0.03,-0.21 -0.18,-0.41 -0.25,-0.62 -0.05,-0.11 -0.11,-0.38 0.01,-0.47 0.16,-0.13 0.39,0.32 0.49,0.51 0.07,0.14 0.25,0.49 0.35,0.7z"/>
   <path class="fil1" d="M14.49 28.27c0.38,0.26 0.74,-0.01 0.59,-0.43 -0.08,-0.19 -0.18,-0.24 -0.28,-0.27 -0.59,-0.15 -0.68,0.45 -0.31,0.7z"/>
   <path class="fil1" d="M13.06 27.62c0.14,0.07 0.31,0.18 0.49,0.45 0.06,0.1 0.05,0.12 0.11,0.25 0.09,0.21 0.08,0.25 0.14,0.33 0.05,0.07 0.19,0.1 0.22,-0.06 0.03,-0.13 0.03,-0.15 0.04,-0.37 0.01,-0.18 0.01,-0.38 0.11,-0.54 0.24,-0.35 0.23,-0.27 0.57,-0.47 0.27,-0.16 0.68,-0.3 0.59,-0.48 -0.08,-0.16 -0.31,-0.04 -0.42,0.01 -0.23,0.09 -0.5,0.24 -0.75,0.24 -0.18,0 -0.46,-0.11 -0.65,-0.29 -0.13,-0.12 -0.22,-0.23 -0.41,-0.49 -0.13,-0.2 -0.38,-0.63 -0.58,-0.32 -0.09,0.14 0.11,0.47 0.16,0.59 0.11,0.19 0.2,0.34 0.29,0.52 0.01,0.02 0.02,0.06 -0.05,0.06 -0.21,-0.02 -0.39,-0.16 -0.59,-0.22 -0.12,-0.04 -0.37,-0.09 -0.46,0.03 -0.11,0.16 0.33,0.37 0.51,0.45 0.14,0.07 0.48,0.22 0.68,0.31z"/>
   <path class="fil1" d="M1.72 12.05c-0.04,-0.1 -0.29,0.01 -0.3,-0.1 -0.02,-0.17 0.27,-0.54 -0.03,-0.6 -0.08,0.13 -0.1,0.32 -0.22,0.42 -0.13,-0.04 -0.08,-0.27 -0.25,-0.28 -0.17,0.11 0.1,0.42 -0.04,0.47 -0.11,-0.04 -0.22,-0.09 -0.36,-0.1 -0.06,0.34 0.25,0.27 0.26,0.52 -0.04,0.18 -0.27,0.17 -0.22,0.43 0.21,0.03 0.22,-0.14 0.41,-0.13 0.06,0.22 -0.12,0.34 0.01,0.47 0.23,0 0.13,-0.3 0.29,-0.37 0.18,0.06 0.2,0.29 0.42,0.29 0.01,-0.32 -0.18,-0.43 -0.26,-0.65 0.12,-0.1 0.27,-0.17 0.29,-0.37z"/>
   <path class="fil1" d="M17.05 24.08c0.43,-0.87 -0.41,-1.74 -1.33,-1.34 -0.41,0.18 -0.6,0.55 -0.61,0.77 -0.05,1.31 1.52,1.39 1.94,0.57z"/>
   <path class="fil1" d="M18.27 26.49c-0.15,-0.3 -0.31,-0.68 -0.14,-1.32 0.06,-0.25 0.33,-0.79 0.49,-1.13 0.19,-0.42 0.38,-0.81 0.4,-1.03 0.02,-0.17 -0.19,-0.37 -0.43,-0.17 -0.22,0.18 -0.45,0.58 -0.68,0.91 -0.21,0.31 -0.45,0.6 -0.69,0.8 -0.65,0.56 -1.56,0.49 -2.37,0.46 -0.65,-0.01 -1.51,-0.28 -1.59,0.09 -0.07,0.35 0.47,0.47 0.71,0.54 0.48,0.15 1.13,0.26 1.54,0.58 0.3,0.24 0.62,0.77 0.71,1.3 0.06,0.34 0.07,0.63 0.08,1.29 0.01,0.49 -0.02,1.53 0.64,1.38 0.34,-0.08 0.33,-1.01 0.34,-1.26 0.05,-0.61 0.09,-0.91 0.14,-1.17 0.02,-0.05 0.09,-0.13 0.21,-0.05 0.33,0.23 0.48,0.36 0.73,0.54 0.2,0.16 0.56,0.44 0.83,0.3 0.53,-0.27 -0.1,-0.87 -0.31,-1.15 -0.19,-0.26 -0.4,-0.53 -0.61,-0.91z"/>
   <path class="fil1" d="M27.64 2.86c0.15,-0.49 -0.5,-0.88 -0.8,-0.57 -0.23,0.59 0.43,0.97 0.8,0.57z"/>
   <path class="fil1" d="M11.13 5.15c-0.32,-0.03 -0.8,-0.37 -0.93,-0.1 -0.11,0.26 0.61,0.35 0.6,0.66 0,0.23 -0.69,0.13 -0.57,0.48 0.17,0.21 0.52,-0.1 0.67,0.09 -0.04,0.32 -0.36,0.72 -0.09,0.8 0.3,0.11 0.37,-0.53 0.72,-0.71 0.22,0.11 0.25,0.4 0.61,0.4 0.12,0 0.13,-0.06 0.16,-0.13 -0.01,-0.31 -0.26,-0.33 -0.2,-0.63 0.42,-0.02 1.07,0.12 1.05,-0.18 -0.01,-0.29 -0.65,-0.13 -0.84,-0.38 0.25,-0.16 0.74,-0.47 0.65,-0.6 -0.16,-0.28 -0.66,0.26 -1.07,0.27l0.02 -0.56c-0.01,-0.12 -0.09,-0.14 -0.19,-0.07 -0.25,0.16 -0.24,0.61 -0.59,0.66z"/>
   <path class="fil1" d="M19.61 6.63c0.13,0.06 0.31,0.27 0.4,0.16 0.08,-0.1 -0.23,-0.23 -0.19,-0.36 0.03,-0.1 0.33,0.02 0.31,-0.15 -0.05,-0.11 -0.24,-0.01 -0.28,-0.12 0.05,-0.14 0.24,-0.28 0.13,-0.35 -0.12,-0.08 -0.23,0.2 -0.4,0.24 -0.08,-0.08 -0.06,-0.22 -0.22,-0.25 -0.05,-0.02 -0.07,0 -0.09,0.03 -0.03,0.14 0.07,0.18 0.01,0.31 -0.19,-0.04 -0.46,-0.19 -0.49,-0.05 -0.03,0.14 0.28,0.14 0.33,0.27 -0.13,0.04 -0.39,0.12 -0.36,0.19 0.04,0.14 0.33,-0.04 0.51,0l-0.08 0.25c-0.01,0.06 0.02,0.08 0.07,0.06 0.14,-0.04 0.19,-0.25 0.35,-0.23z"/>
   <path class="fil1" d="M24.53 14.3c0.09,0.1 0.15,0.35 0.27,0.29 0.1,-0.05 -0.1,-0.27 -0.01,-0.37 0.07,-0.07 0.26,0.15 0.31,0 0.01,-0.11 -0.19,-0.11 -0.18,-0.21 0.1,-0.09 0.31,-0.13 0.25,-0.23 -0.06,-0.11 -0.27,0.07 -0.43,0.03 -0.04,-0.1 0.04,-0.2 -0.08,-0.3 -0.04,-0.03 -0.06,-0.02 -0.08,0 -0.09,0.1 -0.02,0.17 -0.12,0.25 -0.13,-0.11 -0.31,-0.34 -0.38,-0.24 -0.08,0.1 0.17,0.22 0.16,0.35 -0.12,-0.01 -0.37,-0.05 -0.37,0.02 -0.03,0.13 0.28,0.1 0.41,0.21l-0.16 0.17c-0.02,0.05 -0.01,0.07 0.04,0.08 0.12,0.02 0.25,-0.13 0.37,-0.05z"/>
   <path class="fil1" d="M29.01 11.27c0.1,0.11 0.16,0.37 0.29,0.32 0.11,-0.06 -0.11,-0.31 -0.02,-0.4 0.08,-0.08 0.28,0.15 0.34,0 0,-0.12 -0.21,-0.12 -0.2,-0.23 0.11,-0.1 0.34,-0.14 0.27,-0.25 -0.07,-0.12 -0.28,0.08 -0.46,0.04 -0.04,-0.11 0.04,-0.22 -0.09,-0.32 -0.03,-0.04 -0.06,-0.02 -0.09,-0.01 -0.08,0.11 -0.01,0.19 -0.12,0.27 -0.15,-0.11 -0.32,-0.36 -0.41,-0.25 -0.08,0.11 0.19,0.24 0.18,0.38 -0.14,-0.02 -0.4,-0.06 -0.4,0.01 -0.03,0.14 0.3,0.11 0.44,0.23l-0.17 0.18c-0.03,0.04 -0.02,0.07 0.04,0.08 0.13,0.02 0.26,-0.13 0.4,-0.05z"/>
   <path class="fil1" d="M7.82 11.84c-0.05,-0.12 -0.46,0.05 -0.48,-0.11 0,-0.14 0.15,-0.24 0.05,-0.36 -0.11,-0.09 -0.18,0.18 -0.32,0.22 -0.04,-0.14 -0.06,-0.38 -0.12,-0.42 -0.19,-0.04 -0.1,0.51 -0.29,0.53 -0.13,-0.07 -0.31,-0.13 -0.37,0 -0.03,0.06 0.2,0.17 0.22,0.27 -0.12,0.15 -0.55,0.2 -0.46,0.38 0.09,0.11 0.32,-0.09 0.55,-0.07 -0.04,0.14 -0.2,0.32 -0.11,0.45 0.18,0.07 0.24,-0.3 0.41,-0.39 0.14,0.05 0.14,0.34 0.31,0.24 0.09,-0.09 -0.01,-0.22 0.02,-0.45 0.17,-0.12 0.65,-0.05 0.59,-0.29z"/>
   <path class="fil1" d="M22.22 10.96c-0.34,-0.52 -0.55,-1.56 -0.92,-1.38 -0.31,0.15 0.29,1.01 0.26,1.51 -0.04,0.63 -0.64,1.01 -1.25,1.64 -0.17,0.21 0.01,0.35 0.17,0.33 0.39,-0.03 0.73,-0.31 1.2,-0.46 0.13,-0.02 0.48,-0.03 0.66,0.17 0.27,0.29 0.54,1.17 0.84,1.03 0.36,-0.2 -0.25,-0.95 -0.33,-1.4 0.26,-0.1 0.7,0.09 0.8,-0.09 0.21,-0.41 -0.58,-0.47 -0.91,-0.74 -0.18,-0.14 -0.38,-0.4 -0.52,-0.61z"/>
   <path class="fil1" d="M21.22 11.54c0.49,-0.56 -0.34,-1.37 -0.82,-0.92 -0.55,0.53 0.29,1.51 0.82,0.92z"/>
   <path class="fil1" d="M9.21 25.08c0.29,0.28 0.43,1.02 0.8,0.78 0.16,-0.12 -0.08,-0.51 -0.01,-0.78 0.44,0.03 1.21,0.52 1.37,0.16 0.09,-0.3 -0.77,-0.45 -1.08,-0.68 -0.21,-0.15 -0.24,-0.48 -0.23,-0.61 0.08,-0.46 0.31,-0.82 0.29,-1.2 0,-0.14 -0.15,-0.3 -0.33,-0.12 -0.52,0.66 -0.81,1.27 -1.4,1.38 -0.47,0.09 -1.36,-0.38 -1.46,-0.07 -0.13,0.38 0.88,0.45 1.41,0.72 0.21,0.1 0.48,0.26 0.64,0.42z"/>
   <path class="fil1" d="M8.04 22.97c-0.38,0.5 0.49,1.2 0.96,0.67 0.5,-0.58 -0.52,-1.26 -0.96,-0.67z"/>
   <path class="fil1" d="M10.35 1.01c-0.36,-0.26 -0.65,-1.04 -1,-0.71 -0.17,0.16 0.16,0.55 0.14,0.85 -0.48,0.05 -1.42,-0.36 -1.52,0.07 -0.05,0.35 0.91,0.36 1.3,0.55 0.25,0.12 0.34,0.48 0.35,0.63 -0.01,0.51 -0.19,0.94 -0.11,1.35 0.03,0.16 0.22,0.31 0.38,0.08 0.46,-0.81 0.67,-1.53 1.3,-1.75 0.49,-0.18 1.54,0.17 1.61,-0.19 0.06,-0.43 -1.05,-0.33 -1.67,-0.53 -0.25,-0.08 -0.58,-0.2 -0.78,-0.35z"/>
   <path class="fil1" d="M12 3.12c0.32,-0.63 -0.75,-1.23 -1.17,-0.57 -0.45,0.72 0.79,1.29 1.17,0.57z"/>
   <path class="fil1" d="M18.94 2.53c0.29,-0.31 0.42,-1.09 0.81,-0.85 0.18,0.12 -0.06,0.54 0.02,0.82 0.46,-0.05 1.25,-0.6 1.42,-0.22 0.11,0.31 -0.78,0.49 -1.1,0.75 -0.21,0.16 -0.23,0.51 -0.22,0.65 0.11,0.48 0.36,0.84 0.36,1.24 0,0.15 -0.15,0.32 -0.35,0.13 -0.57,-0.66 -0.89,-1.29 -1.52,-1.38 -0.49,-0.07 -1.4,0.45 -1.52,0.13 -0.14,-0.39 0.9,-0.5 1.45,-0.81 0.22,-0.12 0.49,-0.29 0.65,-0.46z"/>
   <path class="fil1" d="M17.8 4.78c-0.41,-0.51 0.47,-1.27 0.98,-0.73 0.55,0.58 -0.5,1.34 -0.98,0.73z"/>
   <path class="fil1" d="M6.07 0.86c-0.23,0.09 -0.64,0 -0.62,0.23 0.01,0.12 0.28,0.08 0.39,0.17 -0.14,0.21 -0.61,0.49 -0.46,0.65 0.12,0.11 0.44,-0.29 0.64,-0.4 0.14,-0.07 0.31,-0.01 0.38,0.02 0.21,0.14 0.33,0.33 0.52,0.4 0.08,0.03 0.2,-0.01 0.16,-0.14 -0.19,-0.4 -0.41,-0.67 -0.3,-0.99 0.09,-0.26 0.5,-0.3 0.37,-0.42 -0.16,-0.14 -0.4,0.05 -0.69,0.26 -0.11,0.08 -0.27,0.18 -0.39,0.22z"/>
   <path class="fil1" d="M7.51 0.83c-0.15,-0.3 -0.75,-0.02 -0.62,0.33 0.16,0.38 0.79,0.01 0.62,-0.33z"/>
   <path class="fil1" d="M29.76 9.07c0.29,-0.03 0.77,0.24 0.81,-0.08 0.01,-0.15 -0.33,-0.2 -0.43,-0.36 0.21,-0.23 0.86,-0.43 0.73,-0.69 -0.12,-0.2 -0.61,0.21 -0.89,0.28 -0.18,0.04 -0.38,-0.1 -0.45,-0.16 -0.21,-0.27 -0.3,-0.57 -0.52,-0.74 -0.08,-0.07 -0.24,-0.06 -0.23,0.13 0.12,0.61 0.32,1.05 0.1,1.44 -0.18,0.3 -0.86,0.57 -0.73,0.78 0.14,0.24 0.66,-0.28 1.06,-0.45 0.17,-0.06 0.38,-0.14 0.55,-0.15z"/>
   <path class="fil1" d="M28.03 8.71c0.1,0.45 0.9,0.3 0.82,-0.21 -0.08,-0.56 -0.94,-0.32 -0.82,0.21z"/>
   <path class="fil1" d="M8.79 18.09c0.59,-0.07 0.44,-1.28 -0.27,-0.95 -0.53,0.23 -0.21,1 0.27,0.95z"/>
   <path class="fil1" d="M28.55 2.62c-0.02,0.06 0.16,0.15 0.22,0.25 -0.09,0.09 -0.27,0.16 -0.31,0.25 0,0.16 0.32,-0.06 0.46,-0.04 0.05,0.09 0.01,0.36 0.12,0.28 0.07,-0.05 0.07,-0.15 0.1,-0.21 0.13,0.06 0.24,0.3 0.3,0.24 0.06,-0.06 -0.11,-0.24 -0.15,-0.36 0.07,0.01 0.14,0.02 0.14,-0.03 -0.04,-0.09 -0.2,-0.1 -0.25,-0.1 0.03,-0.09 0.04,-0.1 0.04,-0.15 -0.02,-0.12 -0.11,-0.07 -0.2,-0.04 -0.08,-0.09 -0.15,-0.25 -0.23,-0.21 -0.05,0.02 0.05,0.15 0.07,0.21 -0.1,-0.02 -0.27,-0.18 -0.31,-0.09z"/>
   <path class="fil1" d="M32 7.59c-0.06,0.05 0.07,0.27 0.06,0.43 -0.16,0.02 -0.39,-0.02 -0.5,0.05 -0.11,0.17 0.38,0.16 0.53,0.28 -0.01,0.13 -0.24,0.4 -0.06,0.39 0.1,0 0.17,-0.11 0.25,-0.16 0.1,0.15 0.05,0.49 0.16,0.47 0.11,-0.03 0.04,-0.34 0.09,-0.5 0.07,0.05 0.13,0.12 0.16,0.07 0.02,-0.14 -0.15,-0.25 -0.19,-0.29 0.09,-0.08 0.11,-0.08 0.14,-0.13 0.06,-0.15 -0.07,-0.16 -0.2,-0.19 -0.01,-0.15 0.02,-0.37 -0.09,-0.39 -0.08,-0.01 -0.05,0.2 -0.07,0.28 -0.09,-0.09 -0.18,-0.38 -0.28,-0.31z"/>
   <path class="fil1" d="M22.27 19.63c0.07,-0.62 0.82,-0.8 1.19,-0.27 0.16,0.24 0.13,0.51 0.06,0.64 -0.42,0.72 -1.31,0.23 -1.25,-0.37z"/>
   <path class="fil1" d="M21.96 22.73c-0.2,-0.41 0.2,-0.8 0.63,-0.61 0.19,0.09 0.27,0.26 0.27,0.37 0.02,0.6 -0.72,0.64 -0.9,0.24z"/>
   <path class="fil1" d="M20.8 20.43c0.19,-0.11 0.4,-0.25 0.53,-0.66 0.06,-0.16 0.09,-0.55 0.12,-0.79 0.04,-0.29 0.07,-0.58 0.14,-0.7 0.05,-0.1 0.23,-0.14 0.29,0.06 0.06,0.17 0.05,0.47 0.06,0.73 0.01,0.24 0.04,0.49 0.1,0.68 0.17,0.52 0.69,0.8 1.13,1.06 0.37,0.22 0.93,0.37 0.84,0.61 -0.08,0.21 -0.41,0.09 -0.57,0.04 -0.32,-0.08 -0.71,-0.24 -1.04,-0.21 -0.25,0.02 -0.6,0.2 -0.84,0.46 -0.15,0.17 -0.25,0.32 -0.46,0.69 -0.16,0.28 -0.42,0.86 -0.74,0.49 -0.14,-0.17 0.09,-0.62 0.14,-0.78 0.08,-0.27 0.21,-0.47 0.3,-0.72 0.01,-0.02 0.02,-0.08 -0.08,-0.07 -0.27,0.06 -0.64,0.15 -0.89,0.19 -0.16,0.03 -0.53,0.1 -0.63,-0.07 -0.2,-0.33 0.5,-0.52 0.71,-0.6 0.19,-0.08 0.64,-0.26 0.89,-0.41z"/>
   <path class="fil1" d="M10.74 18.28c-0.12,-0.47 0.38,-0.8 0.79,-0.52 0.18,0.14 0.23,0.34 0.21,0.45 -0.1,0.64 -0.88,0.52 -1,0.07z"/>
   <path class="fil1" d="M9.89 19.26c0.1,-0.13 0.22,-0.29 0.2,-0.62 0,-0.14 -0.08,-0.43 -0.12,-0.61 -0.05,-0.22 -0.11,-0.44 -0.09,-0.55 0.01,-0.08 0.13,-0.16 0.23,-0.04 0.09,0.12 0.16,0.33 0.24,0.52 0.07,0.17 0.16,0.35 0.25,0.47 0.27,0.34 0.72,0.4 1.11,0.47 0.33,0.06 0.77,0.02 0.77,0.21 0,0.18 -0.27,0.18 -0.4,0.19 -0.25,0.02 -0.58,0.01 -0.82,0.12 -0.17,0.09 -0.38,0.31 -0.48,0.57 -0.06,0.15 -0.09,0.3 -0.15,0.62 -0.04,0.24 -0.08,0.73 -0.4,0.56 -0.15,-0.09 -0.11,-0.48 -0.12,-0.61 -0.01,-0.22 0.03,-0.39 0.03,-0.6 0,-0.02 -0.01,-0.07 -0.07,-0.03 -0.18,0.11 -0.43,0.28 -0.6,0.38 -0.11,0.06 -0.36,0.21 -0.48,0.12 -0.23,-0.19 0.23,-0.52 0.36,-0.64 0.12,-0.1 0.4,-0.36 0.54,-0.53z"/>
   <path class="fil1" d="M16.79 21.18c0.24,0.43 -0.16,0.89 -0.64,0.71 -0.22,-0.08 -0.32,-0.27 -0.33,-0.38 -0.06,-0.67 0.74,-0.75 0.97,-0.33z"/>
   <path class="fil1" d="M17.38 19.98c-0.07,0.16 -0.15,0.36 -0.04,0.67 0.04,0.13 0.19,0.4 0.28,0.57 0.11,0.22 0.22,0.41 0.23,0.51 0.01,0.09 -0.09,0.2 -0.22,0.11 -0.12,-0.09 -0.24,-0.29 -0.37,-0.45 -0.11,-0.15 -0.25,-0.3 -0.37,-0.4 -0.35,-0.26 -0.81,-0.2 -1.22,-0.17 -0.34,0.02 -0.76,0.19 -0.82,-0.01 -0.04,-0.17 0.23,-0.25 0.35,-0.29 0.25,-0.09 0.57,-0.16 0.78,-0.33 0.15,-0.14 0.29,-0.41 0.32,-0.68 0.02,-0.18 0.02,-0.33 -0.01,-0.66 -0.03,-0.25 -0.11,-0.75 0.25,-0.66 0.18,0.05 0.24,0.45 0.27,0.57 0.08,0.22 0.08,0.4 0.14,0.6 0,0.03 0.02,0.07 0.07,0.01 0.16,-0.16 0.35,-0.39 0.5,-0.53 0.09,-0.09 0.3,-0.3 0.43,-0.24 0.29,0.13 -0.08,0.57 -0.18,0.72 -0.09,0.13 -0.3,0.46 -0.39,0.66z"/>
   <path class="fil1" d="M11.55 13.73c0.45,-0.68 1.43,-0.43 1.54,0.41 0.04,0.38 -0.15,0.67 -0.31,0.77 -0.93,0.6 -1.66,-0.51 -1.23,-1.18z"/>
   <path class="fil1" d="M9.35 13.78c0.28,-0.02 0.62,-0.06 1.02,-0.46 0.16,-0.15 0.44,-0.58 0.62,-0.84 0.22,-0.32 0.43,-0.63 0.58,-0.74 0.12,-0.08 0.36,-0.01 0.31,0.25 -0.04,0.24 -0.23,0.58 -0.38,0.89 -0.13,0.28 -0.24,0.59 -0.29,0.85 -0.12,0.71 0.31,1.35 0.67,1.93 0.29,0.48 0.86,0.98 0.62,1.21 -0.23,0.2 -0.54,-0.14 -0.69,-0.29 -0.32,-0.3 -0.68,-0.72 -1.09,-0.89 -0.3,-0.12 -0.83,-0.13 -1.25,0.04 -0.28,0.1 -0.49,0.21 -0.96,0.52 -0.34,0.22 -1,0.73 -1.15,0.12 -0.07,-0.29 0.47,-0.67 0.63,-0.83 0.26,-0.27 0.52,-0.41 0.78,-0.65 0.03,-0.03 0.08,-0.08 -0.05,-0.12 -0.35,-0.11 -0.84,-0.22 -1.15,-0.33 -0.21,-0.07 -0.67,-0.21 -0.69,-0.46 -0.03,-0.51 0.9,-0.31 1.19,-0.28 0.27,0.04 0.91,0.09 1.28,0.08z"/>
   <path class="fil1" d="M22.79 25.63c0.45,0.01 0.58,0.52 0.18,0.87 -0.18,0.15 -0.37,0.15 -0.46,0.1 -0.54,-0.29 -0.16,-0.97 0.28,-0.97z"/>
   <path class="fil1" d="M22.4 24.74c0.1,0.15 0.22,0.13 0.33,0.15 0.14,0.01 0.31,0.03 0.52,0.05 0.25,0.02 0.33,0.04 0.44,0.09 0.08,0.04 0.12,0.19 -0.04,0.25 -0.14,0.05 -0.24,0.06 -0.46,0.07 -0.2,0.02 -0.29,0.06 -0.46,0.11 -0.43,0.16 -0.67,0.52 -0.86,1 -0.13,0.33 -0.27,0.79 -0.47,0.72 -0.19,-0.06 -0.1,-0.34 -0.06,-0.48 0.06,-0.26 0.24,-0.58 0.21,-0.88 -0.02,-0.2 -0.03,-0.21 -0.2,-0.39 -0.13,-0.14 -0.28,-0.21 -0.59,-0.38 -0.24,-0.11 -0.74,-0.32 -0.44,-0.6 0.14,-0.13 0.53,0.05 0.66,0.08 0.24,0.07 0.4,0.17 0.62,0.24 0.02,0.01 0.06,0.01 0.05,-0.07 -0.05,-0.23 -0.15,-0.54 -0.19,-0.75 -0.03,-0.14 -0.09,-0.44 0.04,-0.53 0.28,-0.19 0.46,0.4 0.54,0.58 0.07,0.16 0.23,0.53 0.36,0.74z"/>
   <path class="fil1" d="M29.26 12.81c0.31,-0.13 0.28,-0.54 -0.04,-0.64 -0.14,-0.04 -0.27,0.01 -0.32,0.07 -0.31,0.32 0.08,0.69 0.36,0.57z"/>
   <path class="fil1" d="M29.08 13.67c0.03,-0.12 0.08,-0.25 0.26,-0.37 0.07,-0.05 0.26,-0.13 0.37,-0.18 0.14,-0.06 0.28,-0.12 0.33,-0.17 0.04,-0.05 0.04,-0.14 -0.07,-0.14 -0.1,-0.01 -0.24,0.04 -0.38,0.08 -0.12,0.03 -0.24,0.05 -0.35,0.05 -0.28,0 -0.5,-0.22 -0.7,-0.41 -0.16,-0.15 -0.32,-0.41 -0.42,-0.33 -0.1,0.07 0.01,0.22 0.05,0.3 0.1,0.14 0.24,0.31 0.27,0.49 0.02,0.12 -0.01,0.33 -0.1,0.48 -0.07,0.1 -0.13,0.18 -0.28,0.34 -0.11,0.12 -0.36,0.34 -0.14,0.44 0.12,0.05 0.3,-0.14 0.37,-0.18 0.13,-0.08 0.21,-0.18 0.32,-0.26 0.01,-0.01 0.04,-0.02 0.04,0.02 0.02,0.15 0.03,0.35 0.05,0.49 0.01,0.08 0.03,0.27 0.12,0.29 0.2,0.06 0.19,-0.32 0.2,-0.44 0.01,-0.11 0.03,-0.36 0.06,-0.5z"/>
   <path class="fil1" d="M8.06 5.27c0.43,-0.41 0.12,-1.08 -0.49,-1.04 -0.27,0.03 -0.46,0.2 -0.51,0.33 -0.3,0.74 0.6,1.11 1,0.71z"/>
   <path class="fil1" d="M8.33 6.84c-0.03,-0.2 -0.05,-0.45 0.18,-0.78 0.09,-0.14 0.36,-0.39 0.52,-0.56 0.19,-0.2 0.39,-0.39 0.44,-0.51 0.04,-0.1 -0.04,-0.26 -0.22,-0.19 -0.16,0.06 -0.38,0.24 -0.57,0.39 -0.18,0.14 -0.39,0.26 -0.57,0.32 -0.49,0.19 -1,-0.03 -1.45,-0.21 -0.38,-0.15 -0.82,-0.48 -0.94,-0.27 -0.11,0.18 0.17,0.36 0.3,0.45 0.25,0.18 0.6,0.38 0.77,0.65 0.13,0.19 0.2,0.57 0.14,0.89 -0.03,0.21 -0.08,0.39 -0.23,0.75 -0.12,0.28 -0.39,0.82 0.06,0.84 0.22,0.01 0.42,-0.43 0.5,-0.56 0.16,-0.22 0.23,-0.43 0.36,-0.64 0.02,-0.03 0.05,-0.07 0.09,0.01 0.13,0.24 0.28,0.57 0.39,0.79 0.08,0.13 0.25,0.44 0.42,0.42 0.36,-0.05 0.1,-0.68 0.04,-0.89 -0.06,-0.18 -0.19,-0.63 -0.23,-0.9z"/>
   <path class="fil1" d="M31.96 10.24c0.35,-0.3 0.15,-0.81 -0.3,-0.8 -0.2,0.01 -0.35,0.14 -0.4,0.23 -0.27,0.54 0.37,0.84 0.7,0.57z"/>
   <path class="fil1" d="M32.06 11.41c0,-0.15 0,-0.34 0.19,-0.59 0.07,-0.09 0.11,-0.15 0.24,-0.27 0.16,-0.14 0.23,-0.23 0.28,-0.32 0.04,-0.07 -0.01,-0.19 -0.15,-0.14 -0.13,0.04 -0.22,0.12 -0.37,0.22 -0.14,0.09 -0.25,0.12 -0.4,0.15 -0.39,0.1 -0.61,-0.11 -0.94,-0.25 -0.27,-0.12 -0.57,-0.38 -0.68,-0.23 -0.09,0.13 0.11,0.27 0.2,0.34 0.17,0.15 0.42,0.3 0.53,0.51 0.08,0.15 0.12,0.43 0.05,0.67 -0.04,0.15 -0.09,0.28 -0.23,0.55 -0.09,0.2 -0.33,0.59 0,0.62 0.16,0.02 0.34,-0.3 0.41,-0.4 0.13,-0.16 0.2,-0.31 0.31,-0.47 0.01,-0.01 0.04,-0.04 0.06,0.02 0.08,0.17 0.17,0.43 0.25,0.59 0.04,0.1 0.15,0.34 0.28,0.33 0.28,-0.03 0.12,-0.5 0.08,-0.66 -0.03,-0.14 -0.1,-0.47 -0.11,-0.67z"/>
   <path class="fil1" d="M2.14 14.7c-0.49,-0.18 -0.47,-0.8 0.02,-0.97 0.23,-0.06 0.44,0.01 0.52,0.1 0.5,0.48 -0.08,1.06 -0.54,0.87z"/>
   <path class="fil1" d="M2.48 16.02c-0.05,-0.17 -0.12,-0.37 -0.42,-0.56 -0.12,-0.08 -0.19,-0.13 -0.37,-0.21 -0.23,-0.1 -0.34,-0.16 -0.42,-0.24 -0.08,-0.05 -0.06,-0.21 0.1,-0.21 0.15,0 0.28,0.05 0.49,0.1 0.19,0.04 0.31,0.03 0.49,0.01 0.45,-0.04 0.61,-0.35 0.92,-0.63 0.24,-0.24 0.47,-0.64 0.64,-0.51 0.16,0.1 -0.01,0.34 -0.08,0.45 -0.13,0.22 -0.34,0.48 -0.38,0.75 -0.03,0.19 0.04,0.5 0.2,0.74 0.1,0.16 0.2,0.27 0.45,0.51 0.19,0.18 0.59,0.52 0.24,0.68 -0.17,0.07 -0.48,-0.21 -0.59,-0.28 -0.21,-0.12 -0.33,-0.26 -0.51,-0.39 -0.02,-0.01 -0.06,-0.04 -0.07,0.04 -0.02,0.22 -0.01,0.53 -0.04,0.73 -0.01,0.13 -0.03,0.43 -0.18,0.47 -0.3,0.08 -0.32,-0.5 -0.34,-0.68 -0.01,-0.17 -0.07,-0.55 -0.13,-0.77z"/>
   <path class="fil1" d="M13.33 2.83c-0.25,-0.19 -0.49,-0.02 -0.4,0.26 0.04,0.12 0.11,0.17 0.17,0.19 0.4,0.11 0.47,-0.28 0.23,-0.45z"/>
   <path class="fil1" d="M14.27 3.3c-0.1,-0.05 -0.21,-0.13 -0.32,-0.31 -0.04,-0.08 -0.03,-0.08 -0.06,-0.18 -0.06,-0.14 -0.05,-0.16 -0.09,-0.22 -0.03,-0.05 -0.12,-0.07 -0.14,0.03 -0.03,0.09 -0.03,0.11 -0.05,0.25 -0.01,0.12 -0.01,0.26 -0.09,0.35 -0.17,0.23 -0.15,0.17 -0.39,0.3 -0.19,0.1 -0.46,0.18 -0.41,0.3 0.05,0.11 0.21,0.04 0.28,0.01 0.16,-0.05 0.34,-0.15 0.51,-0.14 0.12,0.01 0.31,0.09 0.43,0.22 0.08,0.08 0.14,0.16 0.26,0.34 0.08,0.14 0.23,0.43 0.37,0.23 0.07,-0.09 -0.06,-0.32 -0.09,-0.4 -0.06,-0.13 -0.12,-0.23 -0.18,-0.36 0,-0.01 -0.01,-0.04 0.04,-0.03 0.14,0.01 0.26,0.11 0.39,0.16 0.07,0.03 0.24,0.07 0.3,-0.01 0.08,-0.1 -0.2,-0.25 -0.32,-0.31 -0.09,-0.05 -0.32,-0.16 -0.44,-0.23z"/>
   <path class="fil1" d="M24.1 0.4c0.41,-0.14 0.67,0.2 0.41,0.53 -0.11,0.15 -0.22,0.18 -0.31,0.18 -0.58,-0.03 -0.49,-0.59 -0.1,-0.71z"/>
   <path class="fil1" d="M22.57 0.63c0.15,-0.03 0.28,0.01 0.53,-0.16 0.1,-0.06 0.11,-0.08 0.2,-0.19 0.14,-0.16 0.14,-0.19 0.22,-0.26 0.06,-0.05 0.18,-0.02 0.17,0.12 -0.01,0.13 -0.01,0.15 -0.06,0.34 -0.03,0.17 -0.02,0.25 -0.01,0.36 0.05,0.27 0.12,0.31 0.4,0.53 0.23,0.19 0.57,0.38 0.44,0.52 -0.11,0.12 -0.29,-0.05 -0.38,-0.12 -0.17,-0.14 -0.37,-0.26 -0.59,-0.32 -0.17,-0.05 -0.45,-0.02 -0.67,0.09 -0.14,0.07 -0.25,0.14 -0.49,0.33 -0.17,0.14 -0.51,0.46 -0.61,0.13 -0.04,-0.15 0.22,-0.39 0.31,-0.48 0.14,-0.14 0.26,-0.25 0.39,-0.4 0.01,-0.01 0.04,-0.05 -0.03,-0.06 -0.19,-0.04 -0.39,0.03 -0.59,0.03 -0.11,0.01 -0.35,-0.01 -0.4,-0.14 -0.06,-0.18 0.39,-0.24 0.57,-0.27 0.15,-0.02 0.4,-0.02 0.6,-0.05z"/>
   <path class="fil1" d="M27.18 19.57c0.27,0.89 1.41,0.93 1.78,0.06 0.17,-0.39 0.06,-0.77 -0.08,-0.92 -0.81,-0.95 -1.95,0.02 -1.7,0.86z"/>
   <path class="fil1" d="M25.61 15.37c0.27,0.89 1.4,0.93 1.78,0.06 0.16,-0.39 0.05,-0.77 -0.08,-0.93 -0.81,-0.94 -1.95,0.03 -1.7,0.87z"/>
   <path class="fil1" d="M24.85 18.83c0.3,0.1 0.65,0.26 0.95,0.81 0.12,0.22 0.28,0.76 0.39,1.1 0.13,0.41 0.26,0.81 0.39,0.97 0.09,0.13 0.37,0.13 0.41,-0.17 0.03,-0.26 -0.07,-0.69 -0.12,-1.07 -0.06,-0.33 -0.08,-0.71 -0.05,-1 0.09,-0.8 0.76,-1.35 1.33,-1.85 0.47,-0.42 1.24,-0.78 1.04,-1.1 -0.17,-0.29 -0.62,-0.02 -0.83,0.09 -0.43,0.22 -0.95,0.56 -1.45,0.6 -0.35,0.04 -0.91,-0.12 -1.32,-0.43 -0.26,-0.2 -0.46,-0.4 -0.86,-0.87 -0.3,-0.35 -0.84,-1.11 -1.19,-0.49 -0.17,0.28 0.29,0.87 0.41,1.08 0.19,0.38 0.43,0.62 0.63,0.95 0.02,0.04 0.05,0.12 -0.09,0.12 -0.41,0 -0.97,-0.03 -1.34,-0.02 -0.25,0.01 -0.79,0.01 -0.88,0.27 -0.2,0.54 0.85,0.62 1.18,0.68 0.3,0.05 1,0.19 1.4,0.33z"/>
   <path class="fil1" d="M4.95 20.72c-0.19,0.64 -1.02,0.67 -1.28,0.05 -0.13,-0.28 -0.04,-0.55 0.05,-0.67 0.58,-0.68 1.41,0.02 1.23,0.62z"/>
   <path class="fil1" d="M6.09 17.69c-0.2,0.64 -1.02,0.67 -1.29,0.04 -0.12,-0.28 -0.04,-0.55 0.06,-0.66 0.58,-0.69 1.41,0.01 1.23,0.62z"/>
   <path class="fil1" d="M6.64 20.19c-0.22,0.07 -0.47,0.18 -0.69,0.58 -0.09,0.16 -0.2,0.55 -0.28,0.79 -0.1,0.31 -0.19,0.59 -0.28,0.71 -0.08,0.09 -0.28,0.09 -0.3,-0.12 -0.02,-0.2 0.05,-0.5 0.09,-0.78 0.04,-0.24 0.05,-0.51 0.03,-0.72 -0.06,-0.58 -0.55,-0.97 -0.96,-1.34 -0.34,-0.29 -0.89,-0.56 -0.75,-0.79 0.12,-0.21 0.45,-0.01 0.6,0.06 0.3,0.16 0.69,0.41 1.04,0.45 0.26,0.01 0.67,-0.1 0.96,-0.32 0.19,-0.15 0.33,-0.28 0.62,-0.62 0.22,-0.26 0.61,-0.81 0.86,-0.36 0.12,0.2 -0.21,0.63 -0.29,0.78 -0.14,0.26 -0.31,0.44 -0.46,0.68 -0.02,0.03 -0.04,0.09 0.06,0.09 0.3,0 0.7,-0.03 0.97,-0.02 0.18,0.01 0.57,0.01 0.64,0.2 0.14,0.39 -0.62,0.45 -0.86,0.49 -0.22,0.04 -0.72,0.14 -1,0.24z"/>
   <path class="fil1" d="M2.58 10.35c-0.12,1.04 -0.99,2.58 -0.33,2.77 0.55,0.15 0.73,-1.61 1.32,-2.21 0.74,-0.76 1.91,-0.58 3.37,-0.71 0.44,-0.08 0.37,-0.46 0.14,-0.6 -0.52,-0.39 -1.26,-0.41 -2.02,-0.74 -0.19,-0.11 -0.65,-0.48 -0.66,-0.93 -0.03,-0.68 0.6,-2.08 0.06,-2.24 -0.68,-0.13 -0.72,1.49 -1.11,2.15 -0.44,-0.15 -0.78,-0.89 -1.12,-0.76 -0.7,0.29 0.23,1.22 0.36,1.92 0.07,0.39 0.04,0.93 -0.01,1.35z"/>
   <path class="fil1" d="M0.19 7.96c0.12,0.05 0.19,-0.18 0.24,-0.01 -0.05,0.14 -0.09,0.3 -0.1,0.48 0.24,-0.04 0.16,-0.38 0.34,-0.48 0.05,0.09 0.14,0.22 0.24,0.11 0.02,-0.14 -0.02,-0.23 -0.07,-0.3 0.14,-0.1 0.45,-0.04 0.47,-0.26 -0.1,-0.06 -0.25,-0.06 -0.31,-0.16 0.02,-0.19 0.22,-0.22 0.22,-0.43 -0.18,-0.01 -0.31,0.32 -0.41,0.19 0.05,-0.03 0.15,-0.36 -0.06,-0.29 -0.06,0.32 -0.15,0.49 -0.52,0.38 -0.03,0.23 0.15,0.23 0.19,0.41 -0.07,0.12 -0.22,0.18 -0.23,0.36z"/>
   <path class="fil1" d="M1.81 8.74c-1.47,-0.6 -1.78,2.07 -0.74,2.2 0.99,0.12 1.53,-1.68 0.74,-2.2z"/>
   <path class="fil1" d="M4.48 10.71c-1.23,0.17 -1.06,2.12 0.05,2.06 1.28,-0.06 1.28,-2.23 -0.05,-2.06z"/>
   <line class="fil2" x1="0" y1="12.38" x2="0" y2= "12.21" />
   <line class="fil2" x1="32.89" y1="12.38" x2="32.89" y2= "12.21" />
   <path class="fil1" d="M41.74 9.75c0.26,-1.47 1.14,-1.77 1.85,-1.77 1.4,0 1.72,0.82 2.43,3.04l1.37 4.26 0.03 0 1.37 -4.26c0.71,-2.22 1.03,-3.04 2.43,-3.04 0.71,0 1.59,0.3 1.85,1.77l1.11 6.36c0.23,1.29 0.47,2.7 0.47,3.12 0,0.62 -0.48,1.33 -1.31,1.33 -1.27,0 -1.5,-0.9 -1.63,-1.85l-0.83 -5.5 -0.04 0 -1.89 6.08c-0.28,0.91 -0.7,1.27 -1.55,1.27 -0.84,0 -1.26,-0.36 -1.54,-1.27l-1.88 -6.08 -0.04 0 -0.83 5.5c-0.14,0.95 -0.37,1.85 -1.63,1.85 -0.83,0 -1.32,-0.71 -1.32,-1.33 0,-0.42 0.24,-1.83 0.47,-3.12l1.11 -6.36z"/>
   <path class="fil1" d="M61.58 14.86c0,-0.6 -0.69,-1.63 -1.75,-1.63 -1.05,0 -1.75,1.03 -1.75,1.63l3.5 0zm-3.5 1.86c0,0.58 0.44,1.51 2.17,1.51 1.33,0 2.15,-0.85 2.77,-0.85 0.61,0 1.13,0.47 1.13,1.17 0,1.32 -2.2,2.19 -4.25,2.19 -2.91,0 -4.73,-2.18 -4.73,-4.9 0,-2.61 1.96,-4.9 4.73,-4.9 2.67,0 4.39,2.24 4.39,4.6 0,0.96 -0.45,1.18 -1.32,1.18l-4.89 0z"/>
   <path class="fil1" d="M69.56 13.54c-1.2,0 -1.86,1.05 -1.86,2.3 0,1.32 0.66,2.32 1.86,2.32 1.19,0 1.85,-1 1.85,-2.32 0,-1.25 -0.66,-2.3 -1.85,-2.3zm4.55 6.02c0,3.45 -2.25,4.76 -4.9,4.76 -1.4,0 -4.04,-0.54 -4.04,-2.02 0,-0.61 0.59,-1.18 1.13,-1.18 0.78,0 1.28,0.8 2.86,0.8 1.68,0 2.25,-0.89 2.25,-2.4l-0.04 0c-0.58,0.83 -1.56,1.04 -2.45,1.04 -2.62,0 -3.93,-2.27 -3.93,-4.72 0,-2.74 1.83,-4.91 4.18,-4.91 1.03,0 1.72,0.3 2.33,1.05 0.19,-0.42 0.6,-0.87 1.26,-0.87 0.8,0 1.35,0.62 1.35,1.41l0 7.04z"/>
   <path class="fil1" d="M77.94 15.84c0,1.25 0.66,2.29 1.85,2.29 1.2,0 1.85,-1.04 1.85,-2.29 0,-1.25 -0.65,-2.3 -1.85,-2.3 -1.19,0 -1.85,1.05 -1.85,2.3zm6.41 3.31c0,0.79 -0.56,1.41 -1.35,1.41 -0.66,0 -1.08,-0.45 -1.27,-0.87 -0.6,0.75 -1.3,1.05 -2.32,1.05 -2.36,0 -4.18,-2.18 -4.18,-4.9 0,-2.74 1.82,-4.91 4.18,-4.91 1.02,0 1.72,0.3 2.32,1.05 0.19,-0.42 0.61,-0.87 1.27,-0.87 0.79,0 1.35,0.62 1.35,1.41l0 6.63z"/>
   <path class="fil1" d="M88.4 13.98l1.51 0c1.2,0 1.86,-0.82 1.86,-1.69 0,-1.11 -0.75,-1.7 -1.86,-1.7l-1.51 0 0 3.39zm-2.81 -4.49c0,-0.9 0.68,-1.4 1.41,-1.4l3.45 0c2.17,0 4.23,1.4 4.23,4.2 0,2.41 -1.47,4.19 -4.15,4.19l-2.13 0 0 2.59c0,0.99 -0.59,1.49 -1.4,1.49 -0.81,0 -1.41,-0.5 -1.41,-1.49l0 -9.58z"/>
   <path class="fil1" d="M95.59 8.48c0,-0.78 0.56,-1.4 1.36,-1.4 0.79,0 1.35,0.62 1.35,1.4l0 10.68c0,0.78 -0.56,1.4 -1.35,1.4 -0.8,0 -1.36,-0.62 -1.36,-1.4l0 -10.68z"/>
   <path class="fil1" d="M101.9 15.84c0,1.25 0.66,2.29 1.86,2.29 1.19,0 1.85,-1.04 1.85,-2.29 0,-1.25 -0.66,-2.3 -1.85,-2.3 -1.2,0 -1.86,1.05 -1.86,2.3zm6.41 3.31c0,0.79 -0.55,1.41 -1.35,1.41 -0.66,0 -1.08,-0.45 -1.27,-0.87 -0.6,0.75 -1.29,1.05 -2.32,1.05 -2.35,0 -4.17,-2.18 -4.17,-4.9 0,-2.74 1.82,-4.91 4.17,-4.91 1.03,0 1.72,0.3 2.32,1.05 0.19,-0.42 0.61,-0.87 1.27,-0.87 0.8,0 1.35,0.62 1.35,1.41l0 6.63z"/>
   <path class="fil1" d="M112.97 13.72l-2.37 0c-0.86,0 -1.42,-0.38 -1.42,-1.26 0,-0.87 0.56,-1.25 1.42,-1.25l5.2 0c0.51,0 0.76,0.07 1.03,0.33 0.17,0.18 0.24,0.4 0.24,0.65 0,0.24 -0.12,0.46 -0.35,0.78l-3.71 4.98 2.86 0c0.87,0 1.42,0.39 1.42,1.26 0,0.87 -0.55,1.25 -1.42,1.25l-5.48 0c-0.5,0 -0.65,-0.05 -0.9,-0.19 -0.34,-0.23 -0.4,-0.59 -0.4,-0.77 0,-0.21 0.02,-0.45 0.42,-1.01l3.46 -4.77z"/>
   <path class="fil1" d="M120.01 15.84c0,1.25 0.66,2.29 1.86,2.29 1.19,0 1.85,-1.04 1.85,-2.29 0,-1.25 -0.66,-2.3 -1.85,-2.3 -1.2,0 -1.86,1.05 -1.86,2.3zm6.42 3.31c0,0.79 -0.56,1.41 -1.36,1.41 -0.66,0 -1.07,-0.45 -1.26,-0.87 -0.61,0.75 -1.3,1.05 -2.32,1.05 -2.36,0 -4.18,-2.18 -4.18,-4.9 0,-2.74 1.82,-4.91 4.18,-4.91 1.02,0 1.71,0.3 2.32,1.05 0.19,-0.42 0.6,-0.87 1.26,-0.87 0.8,0 1.36,0.62 1.36,1.41l0 6.63z"/>
   <line class="fil2" x1="126.49" y1="19.3" x2="126.49" y2= "19.47" />
   <line class="fil2" x1="40.03" y1="19.3" x2="40.03" y2= "19.47" />
   <path class="fil1" d="M107.09 23.68l0 5.11c0,0.89 -0.22,1.52 -0.67,1.9 -0.45,0.37 -0.99,0.56 -1.63,0.56 -0.53,0 -1.01,-0.1 -1.46,-0.32 -0.45,-0.21 -0.67,-0.54 -0.67,-1 0,-0.18 0.06,-0.34 0.18,-0.49 0.13,-0.15 0.28,-0.22 0.47,-0.22 0.12,0 0.34,0.07 0.66,0.22 0.32,0.14 0.56,0.21 0.73,0.21 0.27,0 0.45,-0.09 0.53,-0.27 0.07,-0.18 0.11,-0.42 0.11,-0.7l0 -5c0,-0.28 0.09,-0.51 0.25,-0.66 0.17,-0.16 0.38,-0.24 0.63,-0.24 0.25,0 0.46,0.07 0.62,0.23 0.17,0.15 0.25,0.38 0.25,0.67z"/>
   <path class="fil1" d="M110.79 29.72c0.41,0 0.72,-0.17 0.95,-0.51 0.22,-0.34 0.33,-0.73 0.33,-1.17 0,-0.44 -0.11,-0.83 -0.33,-1.18 -0.23,-0.35 -0.54,-0.53 -0.95,-0.53 -0.44,0 -0.77,0.17 -0.99,0.52 -0.23,0.34 -0.35,0.74 -0.35,1.19 0,0.44 0.12,0.83 0.35,1.17 0.22,0.34 0.55,0.51 0.99,0.51zm2.95 -3.76l0 4.13c0,0.32 -0.05,0.58 -0.13,0.79 -0.09,0.2 -0.31,0.3 -0.67,0.3 -0.22,0 -0.4,-0.06 -0.52,-0.18 -0.12,-0.12 -0.22,-0.29 -0.28,-0.53 -0.42,0.52 -0.95,0.78 -1.59,0.78 -0.79,0 -1.45,-0.3 -1.98,-0.9 -0.52,-0.6 -0.78,-1.37 -0.78,-2.31 0,-0.92 0.26,-1.69 0.8,-2.31 0.53,-0.62 1.18,-0.93 1.96,-0.93 0.33,0 0.63,0.06 0.91,0.19 0.28,0.13 0.5,0.32 0.68,0.57 0.02,-0.2 0.11,-0.36 0.27,-0.5 0.15,-0.13 0.33,-0.19 0.53,-0.19 0.35,0 0.57,0.1 0.66,0.3 0.09,0.21 0.14,0.47 0.14,0.79z"/>
   <path class="fil1" d="M116.02 27.47l2.66 0c-0.04,-0.38 -0.18,-0.69 -0.41,-0.93 -0.22,-0.23 -0.53,-0.35 -0.92,-0.35 -0.36,0 -0.66,0.12 -0.91,0.37 -0.24,0.24 -0.38,0.54 -0.42,0.91zm0.28 -4.66l1.37 -0.55c0.18,-0.08 0.33,-0.12 0.44,-0.12 0.16,0 0.31,0.08 0.45,0.23 0.12,0.17 0.18,0.34 0.18,0.49 0,0.35 -0.16,0.58 -0.47,0.69l-1.32 0.52 -0.27 0.1 -0.2 0c-0.17,0 -0.3,-0.09 -0.41,-0.27 -0.13,-0.15 -0.19,-0.34 -0.19,-0.58 0,-0.2 0.11,-0.35 0.31,-0.46l0.11 -0.05zm3.32 5.77l-3.56 0c0.06,0.41 0.23,0.71 0.52,0.91 0.29,0.2 0.65,0.3 1.06,0.3 0.26,0 0.64,-0.11 1.14,-0.34l0.75 -0.33c0.18,0 0.34,0.07 0.47,0.22 0.14,0.15 0.21,0.32 0.21,0.5 0,0.35 -0.29,0.68 -0.88,0.97 -0.59,0.3 -1.21,0.44 -1.84,0.44 -0.93,0 -1.69,-0.3 -2.27,-0.9 -0.58,-0.61 -0.87,-1.38 -0.87,-2.31 0,-0.88 0.29,-1.64 0.86,-2.28 0.57,-0.64 1.29,-0.96 2.14,-0.96 0.87,0 1.58,0.32 2.15,0.96 0.57,0.63 0.85,1.33 0.85,2.08 0,0.49 -0.24,0.74 -0.73,0.74z"/>
   <path class="fil1" d="M120.97 30.25l0 -4.45c0,-0.27 0.07,-0.5 0.22,-0.67 0.15,-0.18 0.35,-0.26 0.61,-0.26 0.45,0 0.7,0.2 0.76,0.61 0.17,-0.23 0.38,-0.4 0.64,-0.52 0.28,-0.11 0.61,-0.16 0.98,-0.16 0.68,0 1.22,0.2 1.65,0.6 0.42,0.4 0.64,0.95 0.64,1.65l0 3.2c0,0.28 -0.08,0.5 -0.23,0.67 -0.15,0.18 -0.35,0.26 -0.61,0.26 -0.25,0 -0.45,-0.08 -0.61,-0.26 -0.15,-0.17 -0.22,-0.39 -0.22,-0.67l0 -2.91c0,-0.37 -0.1,-0.66 -0.3,-0.85 -0.2,-0.2 -0.47,-0.3 -0.79,-0.3 -0.34,0 -0.6,0.11 -0.79,0.32 -0.19,0.21 -0.29,0.49 -0.29,0.83l0 2.91c0,0.28 -0.07,0.5 -0.22,0.67 -0.15,0.18 -0.36,0.26 -0.61,0.26 -0.26,0 -0.46,-0.08 -0.61,-0.26 -0.15,-0.17 -0.22,-0.39 -0.22,-0.67z"/>
  </g>
 </g>
</svg>
