<?xml version="1.0" encoding="UTF-8"?>
<!DOCTYPE svg PUBLIC "-//W3C//DTD SVG 1.1//EN" "http://www.w3.org/Graphics/SVG/1.1/DTD/svg11.dtd">
<!-- Creator: CorelDRAW -->
<svg xmlns="http://www.w3.org/2000/svg" xml:space="preserve" width="633px" height="179px" version="1.1" style="shape-rendering:geometricPrecision; text-rendering:geometricPrecision; image-rendering:optimizeQuality; fill-rule:evenodd; clip-rule:evenodd"
viewBox="0 0 84.78 23.93"
 xmlns:xlink="http://www.w3.org/1999/xlink"
 xmlns:xodm="http://www.corel.com/coreldraw/odm/2003">
 <defs>
  <style type="text/css">
   <![CDATA[
    .fil1 {fill:#ED323E;fill-rule:nonzero}
    .fil0 {fill:#006CB5;fill-rule:nonzero}
   ]]>
  </style>
 </defs>
 <g id="Capa_x0020_1">
  <metadata id="CorelCorpID_0Corel-Layer"/>
  <path class="fil0" d="M0 0l7.59 0 4.29 14.38 0.06 0 4.36 -14.38 7.39 0 0 23.42 -4.89 0 0 -16.56 -0.06 0 -4.69 16.56 -4.48 0 -4.62 -16.56 -0.07 0 0 16.56 -4.88 0 0 -23.42zm84.78 2.34l-0.46 0 0 -1.95 0 0 -0.44 1.95 -0.48 0 -0.43 -1.95 0 0 0 1.95 -0.46 0 0 -2.34 0.71 0 0.43 1.85 0 0 0.42 -1.85 0.71 0 0 2.34zm-3.25 0l-0.49 0 0 -1.93 -0.7 0 0 -0.41 1.9 0 0 0.41 -0.71 0 0 1.93zm-35.83 21.08l0 -23.42 4.89 0 0 7.59c1.35,-1.16 2.9,-1.72 4.68,-1.72 4.95,0 8.64,4.19 8.64,9.01 0,4.82 -3.72,8.94 -8.64,8.94 -1.85,0 -3.43,-0.53 -4.68,-1.91l0 1.51 -4.89 0zm9.1 -4.41c2.3,0 4.17,-1.86 4.17,-4.16 0,-2.3 -1.87,-4.16 -4.17,-4.16 -2.3,0 -4.16,1.86 -4.16,4.16 0,2.3 1.86,4.16 4.16,4.16zm18.75 -19.01l4.88 0 0 23.42 -4.88 0 0 -23.42zm-7.59 6.27l4.88 0 0 17.15 -4.88 0 0 -17.15zm0 -6.27l4.88 0 0 4.62 -4.88 0 0 -4.62z"/>
  <path class="fil1" d="M25.49 14.85c0,-5.02 4.07,-9.09 9.08,-9.09 5.02,0 9.09,4.07 9.09,9.09 0,5.01 -4.07,9.08 -9.09,9.08 -5.01,0 -9.08,-4.07 -9.08,-9.08zm9.07 4.16c2.3,0 4.17,-1.86 4.17,-4.16 0,-2.3 -1.87,-4.16 -4.17,-4.16 -2.29,0 -4.16,1.86 -4.16,4.16 0,2.3 1.87,4.16 4.16,4.16z"/>
 </g>
</svg>
