<?xml version="1.0" encoding="UTF-8"?>
<!DOCTYPE svg PUBLIC "-//W3C//DTD SVG 1.1//EN" "http://www.w3.org/Graphics/SVG/1.1/DTD/svg11.dtd">
<!-- Creator: CorelDRAW -->
<svg xmlns="http://www.w3.org/2000/svg" xml:space="preserve" width="607px" height="260px" version="1.1" style="shape-rendering:geometricPrecision; text-rendering:geometricPrecision; image-rendering:optimizeQuality; fill-rule:evenodd; clip-rule:evenodd"
viewBox="0 0 167.76 71.83"
 xmlns:xlink="http://www.w3.org/1999/xlink"
 xmlns:xodm="http://www.corel.com/coreldraw/odm/2003">
 <defs>
  <style type="text/css">
   <![CDATA[
    .fil1 {fill:none}
    .fil4 {fill:#DF3338}
    .fil2 {fill:#2F3462}
    .fil3 {fill:red}
    .fil0 {fill:white}
   ]]>
  </style>
    <clipPath id="id0">
     <path d="M84.83 10.33c21.8,0 39.47,12.13 39.47,27.08 0,14.96 -17.67,27.09 -39.47,27.09 -21.8,0 -39.47,-12.13 -39.47,-27.09 0,-14.95 17.67,-27.08 39.47,-27.08z"/>
    </clipPath>
    <clipPath id="id1">
     <path d="M85.02 12.04c20.44,0 37.02,11.35 37.02,25.35 0,14 -16.58,25.34 -37.02,25.34 -20.45,0 -37.02,-11.34 -37.02,-25.34 0,-14 16.57,-25.35 37.02,-25.35z"/>
    </clipPath>
    <clipPath id="id2">
     <path d="M84.83 10.33c21.8,0 39.47,12.13 39.47,27.08 0,14.96 -17.67,27.09 -39.47,27.09 -21.8,0 -39.47,-12.13 -39.47,-27.09 0,-14.95 17.67,-27.08 39.47,-27.08z"/>
    </clipPath>
    <clipPath id="id3">
     <path d="M85.02 12.04c20.44,0 37.02,11.35 37.02,25.35 0,14 -16.58,25.34 -37.02,25.34 -20.45,0 -37.02,-11.34 -37.02,-25.34 0,-14 16.57,-25.35 37.02,-25.35z"/>
    </clipPath>
 </defs>
 <g id="Capa_x0020_1">
  <metadata id="CorelCorpID_0Corel-Layer"/>
  <g id="_2246265206848">
   <polygon class="fil0" points="0,28.16 53.85,28.16 53.85,32.47 4.58,32.47 "/>
   <polygon class="fil0" points="6.85,34.51 60.7,34.51 60.7,38.82 11.43,38.82 "/>
   <polygon class="fil0" points="13.66,40.82 67.51,40.82 67.51,45.13 18.24,45.13 "/>
   <polygon class="fil0" points="20.91,47.35 74.76,47.35 74.76,51.66 25.5,51.66 "/>
   <polygon class="fil0" points="167.76,28.21 113.91,28.21 113.91,32.52 163.18,32.52 "/>
   <polygon class="fil0" points="160.91,34.56 107.06,34.56 107.06,38.87 156.33,38.87 "/>
   <polygon class="fil0" points="154.11,40.86 100.26,40.86 100.26,45.17 149.53,45.17 "/>
   <polygon class="fil0" points="146.85,47.4 93,47.4 93,51.71 142.27,51.71 "/>
   <path class="fil1" d="M84.83 10.33c21.8,0 39.47,12.13 39.47,27.08 0,14.96 -17.67,27.09 -39.47,27.09 -21.8,0 -39.47,-12.13 -39.47,-27.09 0,-14.95 17.67,-27.08 39.47,-27.08z"/>
   <path id="_1" class="fil2" d="M84.83 10.33c21.8,0 39.47,12.13 39.47,27.08 0,14.96 -17.67,27.09 -39.47,27.09 -21.8,0 -39.47,-12.13 -39.47,-27.09 0,-14.95 17.67,-27.08 39.47,-27.08z"/>
   <g style="clip-path:url(#id0)">
    <g>
     <ellipse class="fil0" cx="84.83" cy="37.41" rx="38.08" ry="26.13"/>
    </g>
   </g>
   <path class="fil1" d="M85.02 12.04c20.44,0 37.02,11.35 37.02,25.35 0,14 -16.58,25.34 -37.02,25.34 -20.45,0 -37.02,-11.34 -37.02,-25.34 0,-14 16.57,-25.35 37.02,-25.35z"/>
   <path id="_1_0" class="fil0" d="M85.02 12.04c20.44,0 37.02,11.35 37.02,25.35 0,14 -16.58,25.34 -37.02,25.34 -20.45,0 -37.02,-11.34 -37.02,-25.34 0,-14 16.57,-25.35 37.02,-25.35z"/>
   <g style="clip-path:url(#id1)">
    <g>
     <polygon id="_2" class="fil0" points="53.55,20.55 70.21,20.55 84.41,41.39 98.52,20.74 116.11,20.74 116.11,60.2 104.09,60.2 104.09,32.24 91.29,52.88 78.14,52.88 65.85,33.37 65.85,60.11 53.66,60.11 "/>
     <rect class="fil3" x="51.31" y="28.84" width="65.94" height="6.71"/>
    </g>
   </g>
   <path class="fil2" d="M50.07 56.04l0.47 0.47 -1.07 1.06c0,0 -0.88,-0.81 -0.41,-2.14 0.48,-1.33 1.64,-1.34 1.76,-1.28 0.13,0.06 2.14,2.03 2.14,2.03l0.73 -1.28 -1.88 -1.86c0,0 -1.35,-1 -2.46,-0.32 -1.11,0.68 -2.41,2.47 -1.95,4.29 0,0 0.99,2.11 2.15,2.7l3.04 -3 -1.59 -1.58 -0.93 0.91z"/>
   <path class="fil2" d="M56.45 59.01l-2.81 3.79c0,0 -2.16,-1.48 -2.23,-2.51 -0.06,-1.03 0.29,-2.6 1.84,-3.03 1.24,-0.25 3.2,1.75 3.2,1.75zm-1.88 0.14l-1.38 1.73c0,0 -0.36,-0.34 -0.4,-0.84 -0.03,-0.5 0.06,-1.14 0.81,-1.35 0.6,-0.12 0.97,0.46 0.97,0.46z"/>
   <path class="fil2" d="M63.09 62.48l-2.1 4.22c0,0 -2.38,-1.07 -2.63,-2.07 -0.25,-1 -0.18,-2.61 1.27,-3.3 1.18,-0.47 3.46,1.15 3.46,1.15zm-1.83 0.47l-1.04 1.94c0,0 -0.43,-0.27 -0.55,-0.75 -0.12,-0.49 -0.14,-1.14 0.56,-1.47 0.57,-0.23 1.03,0.28 1.03,0.28z"/>
   <path class="fil2" d="M76.84 66.25l-0.63 4.67c0,0 -2.6,-0.24 -3.16,-1.11 -0.56,-0.87 -1.01,-2.41 0.14,-3.54 0.96,-0.82 3.65,-0.02 3.65,-0.02zm-1.58 1.03l-0.36 2.18c0,0 -0.49,-0.12 -0.76,-0.54 -0.27,-0.42 -0.5,-1.03 0.05,-1.57 0.46,-0.4 1.07,-0.07 1.07,-0.07z"/>
   <path class="fil2" d="M120.61 52.68l3.6 3.06c0,0 -1.62,2.06 -2.65,2.05 -1.04,0 -2.58,-0.45 -2.9,-2.03 -0.17,-1.25 1.95,-3.08 1.95,-3.08zm0.01 1.89l1.64 1.49c0,0 -0.37,0.34 -0.87,0.34 -0.49,0 -1.13,-0.13 -1.29,-0.89 -0.08,-0.61 0.52,-0.94 0.52,-0.94z"/>
   <path class="fil2" d="M110.91 60.53l2.06 4.25c0,0 -2.3,1.23 -3.25,0.81 -0.94,-0.41 -2.17,-1.45 -1.84,-3.02 0.35,-1.22 3.03,-2.04 3.03,-2.04zm-0.75 1.74l0.9 2.02c0,0 -0.47,0.16 -0.93,-0.04 -0.45,-0.2 -0.98,-0.57 -0.82,-1.34 0.17,-0.58 0.85,-0.64 0.85,-0.64z"/>
   <path class="fil2" d="M54.51 63.26l2.49 -4.03 1.24 0.73 0.06 0.27c0,0 0.77,0.21 0.81,0.24 0.05,0.03 -0.68,1.03 -0.68,1.03 0,0 -0.71,-0.37 -0.93,-0.1 -0.23,0.27 -1.74,2.68 -1.74,2.68l-1.25 -0.82z"/>
   <path class="fil2" d="M63.49 62.75l-1.62 4.32 1.36 0.52 1.25 -3.16c0,0 0.96,0.15 0.85,0.62 -0.12,0.48 -1.11,3.01 -1.11,3.01l1.36 0.46c0,0 1.19,-3.21 1.22,-3.5 0.04,-0.3 0.58,-1.32 -3.31,-2.27z"/>
   <path class="fil2" d="M68 64.18l0.23 -0.69 1.54 -0.03 -0.34 1.1 0.72 0.29 -0.31 1.15 -0.72 -0.18c0,0 -0.67,2 -0.61,2.12 0.06,0.11 0.84,0.36 0.84,0.36l-0.74 1.11c0,0 -1.78,-0.6 -1.64,-1.26 0.13,-0.65 0.69,-2.8 0.69,-2.8l-0.46 -0.11 0.38 -1.22 0.42 0.16z"/>
   <polygon class="fil2" points="71.24,64.65 71.85,64.8 73.34,64.07 72.21,63.83 "/>
   <polygon class="fil2" points="70.97,65.11 69.79,69.64 71.28,70 72.4,65.46 "/>
   <path class="fil2" d="M97.69 65.52l1.11 4.48 1.42 -0.34 -0.77 -3.32c0,0 0.88,-0.42 1.06,0.03 0.17,0.46 0.78,3.11 0.78,3.11l1.39 -0.39c0,0 -0.84,-3.32 -0.98,-3.58 -0.14,-0.26 -0.27,-1.41 -4.01,0.01z"/>
   <path class="fil2" d="M111.41 60.32l2.51 3.88 1.23 -0.79 -1.8 -2.88c0,0 0.69,-0.69 1.01,-0.31 0.31,0.37 1.75,2.68 1.75,2.68l1.18 -0.82c0,0 -1.86,-2.87 -2.08,-3.07 -0.22,-0.2 -0.71,-1.25 -3.8,1.31z"/>
   <polygon class="fil2" points="116.8,57.88 115.87,58.76 115.33,57.58 117.78,55.57 118.79,59.23 119.86,58.28 120.52,59.46 117.89,61.6 "/>
   <polygon class="fil2" points="104.89,61.52 105.36,62.58 106.71,62.02 106.23,60.95 "/>
   <polygon class="fil2" points="105.52,63.03 107.31,67.37 108.68,66.75 106.88,62.41 "/>
   <path class="fil2" d="M104.06 63.5l0.74 -0.24 0.46 1.09 -0.72 0.37 1.17 3.14 -1.45 0.59 -1.23 -3.3 -0.39 0.17 -0.34 -1.07 0.38 -0.16c0,0 -0.57,-1.39 0.14,-1.77 0.7,-0.39 1.34,-0.53 1.34,-0.53l0.66 0.82c0,0 -1.05,0.36 -0.76,0.89z"/>
   <path class="fil2" d="M92.53 66.05l-0.5 -1.29c0,0 -2.29,-0.12 -3,0.9 -0.7,1.02 -0.79,2.62 0.45,4.16 1.23,1.54 3.3,1.18 3.3,1.18l0.28 -1.39c0,0 -2.37,0.26 -2.71,-1.39 -0.34,-1.66 0.1,-2.19 2.18,-2.17z"/>
   <path class="fil2" d="M95.18 65.79c0.39,-0.07 1.53,-0.26 1.95,0.31 0.43,0.57 1.09,2.45 -0.15,3.99 -1.23,1.54 -2.77,-0.12 -2.77,-0.12 0,0 -2.59,-3.59 0.97,-4.18zm0.21 3.39c0,0 0.38,0.35 0.61,0.03 0.22,-0.32 0.46,-1.16 0.33,-1.56 -0.13,-0.4 -0.45,-0.75 -0.88,-0.66 -0.42,0.09 -0.69,0.59 -0.69,0.83 0,0.43 0.26,1.15 0.63,1.36z"/>
   <path class="fil2" d="M85.35 69.04l-0.97 -0.32 -0.34 0.6 -0.81 -1.19c0,0 1.21,-0.49 1.25,-1.36 0.05,-0.88 -0.75,-1.61 -1.62,-1.6 -0.87,0.01 -1.82,0.43 -1.75,1.37 0.07,0.94 0.46,1.33 0.46,1.33 0,0 -1.93,0.76 -1.56,2.31 0.38,1.55 3.04,1.74 3.88,0.87l0.99 0.78 0.75 -0.82 -0.91 -0.8 0.63 -1.17zm-3.21 -0.46l1.1 1.57c0,0 -0.9,0.87 -1.62,0.28 -0.71,-0.59 -0.37,-1.33 0.52,-1.85zm0.66 -1.16c0.39,-0.16 0.79,-0.55 0.63,-1 -0.24,-0.65 -1,-0.39 -1.15,-0.19 -0.15,0.21 -0.35,0.63 0.52,1.19z"/>
   <polygon class="fil4" points="0,28.16 53.85,28.16 53.85,32.47 4.58,32.47 "/>
   <polygon class="fil4" points="6.85,34.51 60.7,34.51 60.7,38.82 11.43,38.82 "/>
   <polygon class="fil4" points="13.66,40.82 67.5,40.82 67.5,45.13 18.24,45.13 "/>
   <polygon class="fil4" points="20.91,47.35 74.76,47.35 74.76,51.66 25.5,51.66 "/>
   <polygon class="fil4" points="167.76,28.21 113.91,28.21 113.91,32.52 163.18,32.52 "/>
   <polygon class="fil4" points="160.91,34.56 107.06,34.56 107.06,38.87 156.33,38.87 "/>
   <polygon class="fil4" points="154.11,40.86 100.26,40.86 100.26,45.17 149.53,45.17 "/>
   <polygon class="fil4" points="146.85,47.4 93,47.4 93,51.71 142.27,51.71 "/>
   <path class="fil2" d="M84.83 10.33c21.8,0 39.47,12.13 39.47,27.08 0,14.96 -17.67,27.09 -39.47,27.09 -21.8,0 -39.47,-12.13 -39.47,-27.09 0,-14.95 17.67,-27.08 39.47,-27.08z"/>
   <g style="clip-path:url(#id2)">
    <g>
     <ellipse class="fil0" cx="84.83" cy="37.41" rx="38.08" ry="26.13"/>
    </g>
   </g>
   <path class="fil1" d="M84.83 10.33c21.8,0 39.47,12.13 39.47,27.08 0,14.96 -17.67,27.09 -39.47,27.09 -21.8,0 -39.47,-12.13 -39.47,-27.09 0,-14.95 17.67,-27.08 39.47,-27.08z"/>
   <path class="fil4" d="M85.02 12.04c20.44,0 37.02,11.35 37.02,25.35 0,14 -16.58,25.34 -37.02,25.34 -20.45,0 -37.02,-11.34 -37.02,-25.34 0,-14 16.57,-25.35 37.02,-25.35z"/>
   <g style="clip-path:url(#id3)">
    <g>
     <polygon id="_1_1" class="fil0" points="53.55,20.55 70.21,20.55 84.41,41.39 98.52,20.74 116.11,20.74 116.11,60.2 104.09,60.2 104.09,32.24 91.29,52.88 78.14,52.88 65.85,33.37 65.85,60.11 53.66,60.11 "/>
     <rect class="fil4" x="51.31" y="28.84" width="65.94" height="6.71"/>
    </g>
   </g>
   <path class="fil1" d="M85.02 12.04c20.44,0 37.02,11.35 37.02,25.35 0,14 -16.58,25.34 -37.02,25.34 -20.45,0 -37.02,-11.34 -37.02,-25.34 0,-14 16.57,-25.35 37.02,-25.35z"/>
   <path class="fil2" d="M83.24 0.87l-0.17 0.95 4.14 0.11c0.19,1.23 -0.86,1.64 -1.74,2.15 0.35,1.56 2.02,3.67 3.07,4.87l1.69 -0.99c-0.3,-1.07 -1.61,-2.06 -2.04,-3.37 0,0 2.89,-2.48 0.88,-4.01 -1.07,-0.81 -4.28,-0.57 -5.63,-0.46l-0.2 0.75z"/>
   <path class="fil2" d="M94.16 8.54l2.16 0.44 0.9 -4.28 0.97 2.15 2.02 -1.4 -0.95 4.28 2.14 0.44c0.24,-1.67 1.81,-6.56 1.61,-7.77 -3.17,-0.81 -2.1,0.67 -4.04,1.55 -0.98,-2.07 -0.2,-2.85 -2.93,-3.04l-1.88 7.63z"/>
   <path class="fil2" d="M43.58 20.59l-3.01 -0.19 -1.06 1.53 6.15 4.68 1.33 -1.6 -3.61 -2.71 2.58 0 -0.67 -2.43 3.49 2.56 1.36 -1.49 -6.21 -4.8c-2.37,2.19 -0.21,2.51 -0.35,4.45z"/>
   <path class="fil2" d="M112.97 6.73l-3.66 6.48 1.88 1.05 2.34 -3.74c1.09,3.95 0.19,2.21 -0.44,4.9l1.47 0.77c0.83,-0.16 4.01,-5.88 4.13,-6.76l-1.74 -0.73 -1.31 1.9c-0.39,-0.77 -0.13,-2.01 -0.52,-2.9 -0.32,-0.71 -1.6,-1.16 -2.15,-0.97z"/>
   <path class="fil2" d="M75.38 3.7c-0.34,2.89 0.04,2.57 0.82,4.92l0.35 0.71c0.75,-0.02 1.44,-0.45 1.81,-1.07 -0.25,-0.99 -0.72,-1.13 -0.79,-2.35l2.02 -0.14 0.23 2.27 2.07 -0.04 -0.38 -5.7 -2.18 0.07 0.01 1.54 -1.72 0.06c0.32,-1.84 2.42,-1.91 3.95,-1.99 0.13,-0.93 -0.09,-1.51 -0.91,-1.82 -2.57,0.09 -4.57,0.93 -5.28,3.54z"/>
   <path class="fil2" d="M52.63 16.66c-1.41,0.42 -4.34,-1.86 -3.04,-3.22 1.92,-2.02 3.55,1.58 3.04,3.22zm-2.64 -5.81c-4.81,2.91 -3.53,5.26 0.65,7.7 3.02,0.4 4.84,-0.76 4.03,-4.07 -0.61,-2.5 -1.96,-4.12 -4.68,-3.63z"/>
   <path class="fil2" d="M62.95 6.08c2.91,-2.61 3.8,2.4 2.37,3.49 -1.29,0.19 -2.43,-2.25 -2.37,-3.49zm1.13 -2.57c-6.85,1.74 -1.69,7.95 0.85,8.03 4.49,0.13 4.24,-9.33 -0.85,-8.03z"/>
   <path class="fil2" d="M105.76 3.85c-0.89,1.61 -2.89,2.4 -2.72,5.14 0.15,2.35 2.81,2.69 4.59,3.49 0.91,-0.03 0.93,-0.48 1.3,-1.45 0.23,-0.62 0.46,-1.25 0.7,-1.87 0.41,-1.06 1.24,-2.8 1.34,-3.9l-1.93 -0.51c-0.87,1.74 -1,3.69 -2.2,5.34 -0.64,-0.15 -1.04,-0.28 -1.35,-0.85 -0.66,-2.14 2.37,-3.63 2.69,-5.07 -1.12,-0.26 -1.27,-0.71 -2.42,-0.32z"/>
   <path class="fil2" d="M120.68 14.48c1.05,-1.08 3.96,1.47 0.68,3.18 -3.44,1.79 -1.84,-1.98 -0.68,-3.18zm-0.74 -2.15l-0.27 0.09c-0.43,0.88 -1.11,1.2 -1.71,2.34 -0.61,1.19 -0.81,2.03 -0.56,3.4 0.11,0.78 0.76,1.44 1.49,1.74 2.38,0.39 5.51,-0.73 6.12,-3.27 0.61,-2.52 -2.51,-4.95 -5.07,-4.3z"/>
   <path class="fil2" d="M126.74 19.61l0.97 1.39 -6.3 1.1 0.76 1.51 2.03 2.79c0.79,-0.1 1.25,-0.15 1.77,-0.57l-1.17 -1.95c1.6,-0.72 4.77,-0.53 6.12,-1.34 -0.24,-0.87 -2.02,-3.35 -2.65,-3.97 -0.94,0.17 -1.44,0.23 -1.53,1.04z"/>
   <path class="fil2" d="M53.47 8.44l0.25 1.74 2.03 -0.8 2.75 5.06c0.66,-0.03 1.41,-0.44 1.86,-0.88l-2.69 -5.25 1.78 -0.95c-0.19,-0.59 -0.6,-0.95 -1.1,-1.39 -1.2,0.24 -3.6,1.84 -4.88,2.47z"/>
   <path class="fil2" d="M70.53 1.74c-1.53,0.83 -1.94,1.34 -1.9,3.17 0.74,1.94 1.72,4.22 4.72,4.17 1.68,-0.04 1.34,-0.55 1.33,-2.01 -1.66,0.09 -2.97,0.11 -3.62,-1.64 -0.77,-2.06 0.95,-2.11 2.47,-2.48l-0.75 -1.64 -2.25 0.43z"/>
   <polygon class="fil2" points="83.39,7.88 85.48,7.95 85.53,2.15 83.37,2.16 "/>
   <path class="fil2" d="M115.09 6.59l0.55 0.4c0,0 0.75,-0.6 1.19,0.08 0.45,0.68 1.31,1.79 2.88,0.47l-0.41 -0.62c0,0 -0.7,0.7 -1.33,-0.02 -0.63,-0.72 -1.69,-1.55 -2.88,-0.31z"/>
   <path class="fil2" d="M50.07 56.04l0.47 0.47 -1.07 1.06c0,0 -0.88,-0.81 -0.41,-2.14 0.48,-1.33 1.64,-1.34 1.76,-1.28 0.13,0.06 2.14,2.03 2.14,2.03l0.73 -1.28 -1.88 -1.86c0,0 -1.35,-1 -2.46,-0.32 -1.11,0.68 -2.41,2.47 -1.95,4.29 0,0 0.99,2.11 2.15,2.7l3.04 -3 -1.59 -1.58 -0.93 0.91z"/>
   <path class="fil2" d="M56.45 59.01l-2.81 3.79c0,0 -2.16,-1.48 -2.23,-2.51 -0.07,-1.03 0.29,-2.6 1.84,-3.03 1.24,-0.25 3.2,1.75 3.2,1.75zm-1.88 0.14l-1.38 1.73c0,0 -0.36,-0.34 -0.4,-0.84 -0.03,-0.5 0.06,-1.14 0.81,-1.35 0.6,-0.12 0.97,0.46 0.97,0.46z"/>
   <path class="fil2" d="M63.09 62.48l-2.1 4.22c0,0 -2.38,-1.07 -2.63,-2.07 -0.25,-1 -0.18,-2.61 1.27,-3.3 1.18,-0.47 3.46,1.15 3.46,1.15zm-1.83 0.47l-1.05 1.94c0,0 -0.42,-0.27 -0.54,-0.75 -0.12,-0.49 -0.14,-1.14 0.56,-1.47 0.57,-0.23 1.03,0.28 1.03,0.28z"/>
   <path class="fil2" d="M76.84 66.25l-0.63 4.67c0,0 -2.6,-0.24 -3.16,-1.11 -0.56,-0.87 -1.01,-2.41 0.14,-3.54 0.96,-0.82 3.65,-0.02 3.65,-0.02zm-1.58 1.03l-0.36 2.18c0,0 -0.49,-0.12 -0.76,-0.54 -0.27,-0.42 -0.51,-1.03 0.05,-1.57 0.46,-0.4 1.07,-0.07 1.07,-0.07z"/>
   <path class="fil2" d="M120.61 52.68l3.6 3.06c0,0 -1.62,2.06 -2.66,2.05 -1.03,0 -2.57,-0.45 -2.89,-2.03 -0.17,-1.25 1.95,-3.08 1.95,-3.08zm0.01 1.89l1.64 1.49c0,0 -0.37,0.34 -0.87,0.34 -0.49,0 -1.13,-0.13 -1.29,-0.89 -0.08,-0.61 0.52,-0.94 0.52,-0.94z"/>
   <path class="fil2" d="M110.91 60.53l2.06 4.25c0,0 -2.3,1.23 -3.25,0.81 -0.95,-0.41 -2.17,-1.45 -1.84,-3.02 0.35,-1.22 3.03,-2.04 3.03,-2.04zm-0.75 1.74l0.9 2.02c0,0 -0.47,0.16 -0.93,-0.04 -0.45,-0.2 -0.98,-0.57 -0.82,-1.34 0.17,-0.58 0.85,-0.64 0.85,-0.64z"/>
   <path class="fil2" d="M54.51 63.26l2.49 -4.03 1.24 0.73 0.06 0.27c0,0 0.77,0.21 0.81,0.24 0.05,0.03 -0.68,1.03 -0.68,1.03 0,0 -0.71,-0.37 -0.94,-0.1 -0.22,0.27 -1.74,2.68 -1.74,2.68l-1.24 -0.82z"/>
   <path class="fil2" d="M63.49 62.75l-1.62 4.32 1.36 0.52 1.25 -3.16c0,0 0.96,0.15 0.85,0.62 -0.12,0.48 -1.11,3.01 -1.11,3.01l1.36 0.46c0,0 1.19,-3.21 1.22,-3.5 0.04,-0.3 0.58,-1.32 -3.31,-2.27z"/>
   <path class="fil2" d="M68 64.18l0.23 -0.69 1.54 -0.03 -0.34 1.1 0.72 0.29 -0.31 1.15 -0.73 -0.18c0,0 -0.66,2 -0.6,2.12 0.05,0.11 0.84,0.36 0.84,0.36l-0.74 1.11c0,0 -1.78,-0.6 -1.64,-1.26 0.13,-0.65 0.69,-2.8 0.69,-2.8l-0.46 -0.11 0.38 -1.22 0.42 0.16z"/>
   <polygon class="fil2" points="71.24,64.65 71.85,64.8 73.34,64.07 72.21,63.83 "/>
   <polygon class="fil2" points="70.97,65.11 69.79,69.64 71.28,70 72.4,65.46 "/>
   <path class="fil2" d="M97.69 65.52l1.11 4.48 1.42 -0.34 -0.77 -3.32c0,0 0.88,-0.42 1.06,0.03 0.17,0.46 0.78,3.11 0.78,3.11l1.39 -0.39c0,0 -0.84,-3.32 -0.98,-3.58 -0.14,-0.26 -0.27,-1.41 -4.01,0.01z"/>
   <path class="fil2" d="M111.41 60.32l2.51 3.88 1.23 -0.79 -1.8 -2.88c0,0 0.69,-0.69 1.01,-0.31 0.31,0.37 1.75,2.68 1.75,2.68l1.18 -0.82c0,0 -1.86,-2.87 -2.08,-3.07 -0.22,-0.2 -0.71,-1.25 -3.8,1.31z"/>
   <polygon class="fil2" points="116.8,57.88 115.87,58.76 115.33,57.58 117.78,55.57 118.79,59.23 119.86,58.28 120.52,59.46 117.89,61.6 "/>
   <polygon class="fil2" points="104.89,61.52 105.36,62.58 106.71,62.02 106.23,60.95 "/>
   <polygon class="fil2" points="105.52,63.03 107.31,67.37 108.68,66.75 106.88,62.41 "/>
   <path class="fil2" d="M104.06 63.5l0.74 -0.24 0.46 1.09 -0.72 0.37 1.17 3.14 -1.45 0.59 -1.23 -3.3 -0.39 0.17 -0.34 -1.07 0.38 -0.16c0,0 -0.57,-1.39 0.14,-1.77 0.7,-0.39 1.34,-0.53 1.34,-0.53l0.66 0.82c0,0 -1.05,0.36 -0.76,0.89z"/>
   <path class="fil2" d="M92.53 66.05l-0.5 -1.29c0,0 -2.29,-0.12 -3,0.9 -0.7,1.02 -0.79,2.62 0.45,4.16 1.23,1.54 3.3,1.18 3.3,1.18l0.28 -1.39c0,0 -2.37,0.26 -2.71,-1.39 -0.34,-1.66 0.1,-2.19 2.18,-2.17z"/>
   <path class="fil2" d="M95.18 65.79c0.39,-0.07 1.53,-0.26 1.95,0.31 0.43,0.57 1.09,2.45 -0.15,3.99 -1.23,1.54 -2.77,-0.12 -2.77,-0.12 0,0 -2.59,-3.59 0.97,-4.18zm0.2 3.39c0,0 0.39,0.35 0.62,0.03 0.22,-0.32 0.46,-1.16 0.33,-1.56 -0.13,-0.4 -0.45,-0.75 -0.88,-0.66 -0.42,0.09 -0.69,0.59 -0.69,0.83 0,0.43 0.26,1.15 0.62,1.36z"/>
   <path class="fil2" d="M85.35 69.04l-0.97 -0.32 -0.34 0.6 -0.81 -1.19c0,0 1.2,-0.49 1.25,-1.36 0.05,-0.88 -0.75,-1.61 -1.62,-1.6 -0.87,0.01 -1.82,0.43 -1.75,1.37 0.07,0.94 0.46,1.33 0.46,1.33 0,0 -1.93,0.76 -1.56,2.31 0.38,1.55 3.04,1.74 3.88,0.87l0.99 0.78 0.75 -0.82 -0.91 -0.8 0.63 -1.17zm-3.21 -0.46l1.1 1.57c0,0 -0.9,0.87 -1.62,0.28 -0.71,-0.59 -0.37,-1.33 0.52,-1.85zm0.66 -1.16c0.39,-0.16 0.79,-0.55 0.63,-1 -0.24,-0.65 -1,-0.39 -1.15,-0.19 -0.15,0.21 -0.35,0.63 0.52,1.19z"/>
  </g>
 </g>
</svg>
