<?xml version="1.0" encoding="UTF-8"?>
<!DOCTYPE svg PUBLIC "-//W3C//DTD SVG 1.1//EN" "http://www.w3.org/Graphics/SVG/1.1/DTD/svg11.dtd">
<!-- Creator: CorelDRAW -->
<svg xmlns="http://www.w3.org/2000/svg" xml:space="preserve" width="540px" height="234px" version="1.1" style="shape-rendering:geometricPrecision; text-rendering:geometricPrecision; image-rendering:optimizeQuality; fill-rule:evenodd; clip-rule:evenodd"
viewBox="0 0 269.43 116.77"
 xmlns:xlink="http://www.w3.org/1999/xlink"
 xmlns:xodm="http://www.corel.com/coreldraw/odm/2003">
 <defs>
  <style type="text/css">
   <![CDATA[
    .fil0 {fill:#11573F}
    .fil1 {fill:#76980C}
   ]]>
  </style>
 </defs>
 <g id="Capa_x0020_1">
  <metadata id="CorelCorpID_0Corel-Layer"/>
  <g id="_2246265187744">
   <path class="fil0" d="M199.25 51.5c-0.04,-5.14 0.8,-10.71 1.59,-15.62 0.4,-2.55 0.79,-4.97 1.23,-7.45 0.34,-1.85 1.63,-5.51 1.02,-7.09 -2.46,-0.61 -5.61,0.87 -6.39,2.33 -2.22,4.13 -3.68,18 -4.27,22.81 -0.32,2.6 -0.77,5.25 -1.1,7.89 -0.26,2.03 -0.07,2.28 -1.42,3.03 -4.42,2.46 -11.04,4.84 -13.54,8.34 -0.69,-4.06 -4.2,-15.96 -3.18,-18.94 1.54,-4.47 5.59,-6.51 7.94,-8.79 4.53,-4.36 -4.97,-5.98 -12.81,3.91 -7.2,9.09 -0.51,17.59 -0.1,24.93 0.27,4.66 -0.97,4.98 -3.06,7.28 -1.89,2.1 -3.17,3.07 -5.33,4.97 -1.31,1.16 -5.44,4.16 -2.58,5.84 2.11,0.79 4.57,-1.29 6.18,-2.25 6.63,-4 11.09,-6.19 12.57,-14.14 3.81,0.33 2.69,0.95 6.8,-0.57 1.87,-0.69 4.45,-1.68 5.26,-3.2l-2.76 -0.5c0.67,-0.73 3.92,-2.5 4.98,-2.82 -0.2,3.81 -2.17,19.26 -1.35,21.24 2.39,0.58 4.65,-0.18 6.27,-1.36 1.87,-1.37 1.71,-3.85 1.73,-6.44 0.05,-5.12 0.61,-9.76 1.24,-14.75 0.49,-3.83 0.12,-3.34 2.95,-5.04l14.57 -9.08c1.31,5.9 0.8,11.55 0.35,17.61 -0.21,2.79 -1.25,15.88 -0.81,17.61 1.84,1.4 4.4,0.3 5.96,-0.92 3.25,-2.53 2.14,-16.93 11.04,-29.16 3.35,-4.6 7.11,-4.57 9.94,-6.14l-0.03 -2.02c-3.51,-0.84 -8.6,1.49 -10.99,3.22 -5.38,3.91 -4.59,5.23 -7.27,7.36 -0.46,-2.57 -0.31,-9.11 -1.05,-10.84 -0.74,-1.73 -7.24,-3.48 -11.24,0.65l-4.99 3.68c-1.66,1.1 -5.39,3.97 -7.35,4.42z"/>
   <path class="fil1" d="M58.6 12.2c0.88,-0.73 1.57,-1.69 2.52,-2.56 5.23,-4.77 7.54,-4.95 9.3,-6.35 -1.11,-1.26 -1.42,-0.57 -2.88,-0.58 -1.23,0 -1.91,-0.35 -3.14,0.25 -1.78,0.87 -0.64,0.67 -2.95,0.93 -1.38,0.15 -1.6,0.33 -2.81,0.7 -2.2,0.67 -4.73,-0.07 -6.41,0.98 -3.77,2.37 -10.46,3.88 -15.11,7.4 -3.11,2.34 -3.48,1.78 -4.73,2.66 -1.46,1.04 -0.75,1.3 -4.31,2.9 0.06,-1.3 1.33,-2.9 -0.29,-2.84 -0.01,0 -0.45,0.08 -0.56,0.09 -1.12,0.06 0.19,0.05 -1.02,-0.13 -0.66,-0.09 -1.78,-0.01 -2.4,0.43 -0.81,0.58 -1.88,3.47 -2.11,4.59 -0.85,4.1 -0.1,3.61 -5.49,7.45 -0.12,-2.44 1.35,-11.26 0.5,-12.71 -0.81,-0.35 -1.82,0.06 -2.38,0.83 -0.8,1.1 -0.15,1.45 -0.32,2.86 -1.25,-0.44 -1.71,0.31 -2.28,0.93 0.11,0.81 0.38,0.97 0.74,1.49 -2.14,1.26 -2.37,-1.23 -1.24,2.9 -0.8,0.31 0.61,-0.23 -0.4,0.1 -0.39,0.12 -0.28,0.08 -0.53,0.22 -0.21,1.73 -0.25,0.95 -0.01,2.55 0.25,1.63 -0.02,0.27 -0.56,1.53 1.99,1.55 1.24,1.68 0.23,3.62 -0.38,0.73 -0.46,1.25 -0.88,2.03 -0.89,1.67 -0.28,0.11 -0.46,1.84 -0.07,0.69 -1.18,3.19 -1.97,3.77 -1.33,0.98 -0.58,-0.42 -1.41,1.49 -0.32,0.73 -0.52,1.31 -0.91,1.94 -1.14,1.88 -0.85,1.99 -1.64,4.11 -0.7,1.87 -2.09,1.84 -2.55,3.31 -0.54,1.72 0.61,3.13 1,4.52 0.91,3.2 -0.19,1.33 1.57,3.89 1.09,1.6 0.53,2.97 0.74,4.97 0.26,2.56 0.69,-0.15 1.74,4.15 1.63,6.65 2.02,3.89 2.7,5.93 0.32,0.95 0.03,1.11 0.58,2.34 0.82,1.8 1.64,1.93 2.53,3.26 1.2,1.81 0.71,1.97 2.48,3.3 1.72,1.29 0.83,2.34 2.13,3.66 0.76,0.78 2.34,1.74 3.55,1.61 1.1,-1.34 1.68,-5.29 0.92,-7.23l-0.79 -0.33c-0.61,-0.25 -0.98,-0.28 -1.34,-0.89 -0.59,-1.03 -0.14,-1.13 -0.9,-2.32 -0.79,-1.23 -1.5,-2.54 -2.16,-3.95 -1.75,-3.78 -1.59,-1.11 -4.27,-8.27 -0.56,-1.5 -1.42,-3.14 -1.9,-4.52 -0.7,-2 -2.19,-13.03 1.26,-15.46l0.98 2.62c0.89,1.97 0.08,4.43 2.63,7.33 0.93,1.05 4.27,6.35 6.88,6.06 1.26,-2.65 -0.68,-0.72 -0.14,-3.71 0.35,-1.97 0.39,-1.9 -0.61,-3.05 -0.28,-0.33 -0.06,0.06 -0.56,-0.7 -2.69,-4.1 -3.4,-8.03 -3.71,-12.68 -0.2,-2.97 -0.11,-3.84 3.71,-7.23 0.92,-0.81 1.67,-2.16 2.56,-2.26 2.01,9.05 -0.11,13.09 6.63,10.83 -0.06,-1.02 -0.04,-1.05 -0.41,-1.92 -0.59,-1.36 -0.27,0.5 -0.46,-1.44 -0.11,-1.22 -0.34,-1.99 -0.6,-3.33 -0.38,-1.9 -1.31,-5.12 -1.04,-7.13 0.28,-2.12 0.79,-1.37 1.75,-2.38 1.7,-1.76 0.35,-1.35 3.35,-3.1 1.95,-1.15 -0.41,-1.17 3.79,-2.27 1.88,-0.5 6.35,-3.21 8.36,-4.22 1.18,-0.59 1.79,-0.57 2.96,-1.21 5.74,-3.15 8.07,-1.49 9.62,-2.25 1.33,-0.65 0.71,-1.55 2.93,-1.35z"/>
   <path class="fil1" d="M53.77 46.44l-0.71 -2.88c-0.58,0.95 0.17,0.09 -0.9,0.47l-5.83 2.91c-1.22,0.97 -0.88,0.29 -2.07,0.83 -1.39,0.63 -0.31,0.37 -1.34,1.22 -0.51,0.42 -2.38,1.44 -3.15,2l-8.3 7.78c-0.86,1.15 -1.23,2.3 -1.88,3.13 -0.8,-0.91 0.09,-1.7 0.45,-2.65 0.61,-1.65 0.06,-1.94 0.13,-3.65 0.06,-1.48 0.5,-1.89 0.85,-3.07 0.22,-0.76 0.14,-0.96 0.34,-1.6 0.47,-1.58 6.64,-16.68 7.42,-17.66 1.11,-1.4 2.03,-3.08 3.13,-4.57 0.54,-0.74 1.02,-1.71 1.5,-2.37 0.73,-1 1.43,-0.94 1.8,-2.04 0.41,-1.18 0,-5.46 -0.31,-6.16 -3.21,0.81 -2.8,2.5 -2.62,3.88 -0.65,-0.11 -0.58,-0.2 -1.55,-0.35 -0.06,1.77 -0.18,0.82 -0.82,1.82l-0.67 1.96c-1.13,-0.32 -0.58,-0.35 -1.62,-0.65 -0.82,1.41 -0.83,0.41 -1.69,2.14l-0.63 1.25c-1.73,3.07 -0.68,2.1 -1.35,4.12 -0.43,1.28 -0.8,0.82 -1.73,1.76 -0.16,1.15 -0.05,1.56 -0.31,2.68 -0.5,2.15 -0.74,1.48 -1.53,3.29l-0.75 1.12c-0.03,0.03 -0.15,0.21 -0.17,0.15l0.01 2.28c-0.56,1.38 -2.44,2.88 -2.14,4.33 0.17,0.8 0.06,-0.54 0.33,0.91 -1.43,0.76 -1.19,0.95 -1.38,2.35 -0.33,2.42 -1.06,0.05 -0.56,2.44 0.73,3.41 -1.24,2.62 -1.7,5.47 -0.14,0.88 0,2.24 -0.17,3.12l-0.49 2.58c-1.44,3.34 0.78,3.01 0.63,5.84 -1.88,1.29 -1.86,0.54 -1.14,3.03l0.21 1.12c0.17,1.37 0.28,0.37 -0.16,1.48 -0.35,0.92 -0.47,-0.15 -0.53,1.86 -0.14,4.75 1.77,1.68 -0.1,4.83 0.4,0.99 0.5,0.5 0.78,1.44 0.4,1.39 -0.05,0.8 0.06,1.7 0.22,1.86 0.71,0.65 0.12,3.29 0.65,0.83 -0.08,0.36 1.14,0.77 -0.62,1.58 -0.44,-0.21 -0.28,1.84 0.13,1.73 -0.3,1.07 0.38,2.51l2.01 3.56c-0.71,1.2 -1.2,0.97 -0.57,3.02 0.51,1.66 2.07,3.61 2.81,4.93 0.91,1.65 -0.25,1.11 1.89,2.02l0.01 2.3c1.48,1.06 1.81,1.96 3.65,2.99 0.68,0.38 1.58,0.69 2.14,1.07 0.66,0.45 1.15,1.83 1.15,1.82 0.03,-0.05 0.08,0.18 0.15,0.25 2.03,1.39 8.36,-2.05 9.31,-5.27 -2.14,-0.93 -4.86,-1.52 -6.67,-2.99 -1.08,-0.88 -2.42,-2.85 -3.44,-3.95 -0.56,-0.59 -0.51,-0.47 -1.04,-1.21 -2.52,-3.54 -5.86,-7.59 -5.63,-13.69 2.32,-1.21 1.4,-1.28 2.64,-3.43 1.23,-2.1 2.57,-3.28 4.02,-4.98 0.83,-0.98 0.7,-0.4 1.51,-1.4 1.64,-2.03 2.09,-1.68 2.98,-2.8 1.41,-1.77 1.96,-1.32 3.69,-2.42 1,-0.64 0.63,-0.96 1.4,-1.5l0.88 -0.42c1.68,-0.93 1.71,-1.69 2.6,-3.16 0.49,-0.8 0.38,-0.01 0.51,-1.11 0.15,-1.27 -0.48,-0.53 -0.02,-2.29 0.11,-0.44 1.1,-2.29 -0.1,-2.22l-2.67 0.78c-1.18,0.32 -1.75,0.98 -2.47,1.69 -0.42,0.41 -0.81,0.75 -1.14,1.11 -0.08,0.09 -0.44,0.51 -0.45,0.52 -0.88,0.87 -2.18,1.3 -3.12,2.01 -1.47,1.09 -0.44,0.46 -1.09,1.16l-3.26 2.87c-0.63,0.66 -1.4,1.54 -1.92,2.27 -1.07,1.51 -0.42,1.23 -0.3,2.88 -1.19,-0.25 1.18,-0.47 -1.12,-0.75 -0.65,0.84 -0.3,0.55 -0.78,1.41l-1.98 2.55c-0.71,0.97 0.5,0.62 -1.1,0.84 -0.91,-1.15 -0.45,-4.26 -0.74,-6.02 -0.54,-3.33 0.39,-3.25 2.43,-3.86 1.68,-5.35 5.66,-8.33 8.77,-12.48 0.08,-0.11 0.56,-0.79 0.64,-0.94 0.17,-0.29 0.32,-0.62 0.45,-0.83 0.93,-1.52 1.32,-0.74 2.31,-2.86 0.04,-0.07 0.07,-0.16 0.1,-0.23l0.25 -0.41c0.05,-0.08 0.23,-0.29 0.28,-0.36 0.04,-0.05 0.11,-0.12 0.15,-0.17 0.06,-0.08 0.23,-0.28 0.28,-0.35l1.37 -1.48c0.4,-0.33 0.37,-0.26 0.8,-0.52 1.37,-0.84 2.11,-1.89 3.51,-2.59 1.16,-0.58 1.64,-0.47 2.26,-1.61l0.39 -1.49c1.31,0.44 0.63,0.52 1.57,-0.31z"/>
   <path class="fil0" d="M70.42 3.29c-1.76,1.4 -4.07,1.58 -9.3,6.35 -0.95,0.87 -1.64,1.83 -2.52,2.56 -0.66,1.16 -1.42,1.87 -2.23,2.99 -2.3,3.17 -3.9,6.5 -4.91,10.5 -0.55,2.17 -0.86,7.29 -0.42,9.43 0.56,2.68 1.73,5.88 2.02,8.44l0.71 2.88c1.05,1.79 3.67,13.14 4.05,15.96 1.01,7.46 -1.2,10.96 -4.72,15.1 -1.63,1.92 -2.89,3.74 -4.73,5.24 -2.24,1.84 -14.73,12.99 -15.18,14.35 1.19,1.49 1.32,1.03 3.21,0.06 1.04,-0.53 2.07,-1.17 3.08,-1.75 17.72,-10.13 32.21,-17.14 27.72,-40.76 -3.76,-19.83 -13.53,-31.18 6.08,-47.31 2.51,-2.07 8.16,-5.66 6.77,-7 -1.03,-0.99 -3.96,0.52 -5.05,1.01 -1.46,0.65 -2.95,1.44 -4.58,1.95z"/>
   <path class="fil0" d="M242.5 58.09c1.33,-5.33 7.21,-9.19 12.93,-9.9 -0.57,2.29 -3.94,4.67 -5.81,5.91 -1.66,1.08 -5.14,3.46 -7.12,3.99zm26.92 8.14c-3.01,-0.5 -8.22,3.27 -10.25,4.49 -2.82,1.68 -6.24,3.61 -9.71,4.75 -4.54,1.49 -8.29,0.28 -10.5,-2.54 -2.83,-3.6 2.42,-6.06 5.14,-7.96 5.92,-4.13 7.18,-4.96 12.49,-9.38 1.56,-1.3 2.19,-2.04 3.42,-3.66 2.41,-3.19 4.34,-6.2 0.89,-9.94 -6.13,-6.64 -20.2,5.28 -25.26,14.85 -4.27,8.08 -7.36,20.16 2.5,25.59 6.2,3.41 12.09,0.22 16.49,-2.1 2.9,-1.53 6.41,-3.66 8.96,-5.51 2.79,-2.02 6.09,-3.79 5.83,-8.59z"/>
   <path class="fil0" d="M136.09 57.85c1.4,-4.69 6.82,-9.5 12.97,-9.81 -0.44,2.33 -3.52,4.37 -5.55,5.73 -1.51,1.01 -5.7,3.8 -7.42,4.08zm26.85 8.14c-3.8,-0.42 -12.68,6.82 -19.8,9.29 -7.5,2.6 -14.81,-3.76 -9.58,-7.66 6.63,-4.95 29.02,-17.35 20.99,-25.71 -9.64,-10.03 -37.73,20.91 -26.92,36.56 4.99,7.21 13.16,5.97 20.69,1.65 3.05,-1.76 6.35,-3.56 8.96,-5.51 2.28,-1.71 6.53,-4.22 5.66,-8.62z"/>
   <path class="fil0" d="M113.84 63.36c-1.05,-3.66 -4.01,-18.42 -6.15,-19.63 -2.71,-1.53 -6.62,2.96 -7.1,5.14 -0.72,3.35 5.83,27.3 6.86,31.45 0.62,2.5 1.35,2.97 3.15,1.33 1.07,-0.98 2.39,-1.94 3.57,-2.88 3.48,-2.78 3.4,-2.2 5.31,-7.23 2.06,-5.41 13.66,-33.88 13.28,-37.81 -0.21,-2.25 -3.1,-0.95 -4.14,-0.32 -5.31,3.25 -12.93,27.74 -14.78,29.95z"/>
   <path class="fil0" d="M94.01 83.94c1.84,-2.9 0.89,-14.8 1.08,-19.33 0.25,-6.05 1.29,-12.87 2.16,-18.81 0.72,-4.95 3.81,-24.1 1.48,-28.46 -0.63,-1.18 -1.34,-2.33 -2.43,-2.72 -6.68,-2.37 -4,6.95 -3.69,9.82 0.96,9.05 -7.05,47.9 -5.61,56.37 0.32,1.87 0.81,2.05 2.49,2.68 1.55,0.58 2.93,0.75 4.52,0.45z"/>
   <path class="fil0" d="M82.77 43.39c0.32,-2.19 0.42,-4.31 -2.07,-4.53 -2.43,-0.22 -3.36,1.16 -4.12,2.96 -1.11,2.61 -1.6,8.68 -2.19,11.98 -0.98,5.58 -5.8,28.42 2.14,28.56 2.09,0.04 4.26,-0.99 4.89,-2.26 1.48,-2.99 -1.98,-7.74 -2.04,-11.62 -0.05,-3.39 2.68,-20.29 3.39,-25.09z"/>
   <path class="fil0" d="M84.54 16.92c-4.43,2.14 -3.4,12.42 1.09,9.86 5.34,-3.05 4.02,-12.33 -1.09,-9.86z"/>
  </g>
 </g>
</svg>
