<?xml version="1.0" encoding="UTF-8"?>
<!DOCTYPE svg PUBLIC "-//W3C//DTD SVG 1.1//EN" "http://www.w3.org/Graphics/SVG/1.1/DTD/svg11.dtd">
<!-- Creator: CorelDRAW -->
<svg xmlns="http://www.w3.org/2000/svg" xml:space="preserve" width="347px" height="345px" version="1.1" style="shape-rendering:geometricPrecision; text-rendering:geometricPrecision; image-rendering:optimizeQuality; fill-rule:evenodd; clip-rule:evenodd"
viewBox="0 0 675.35 672.02"
 xmlns:xlink="http://www.w3.org/1999/xlink"
 xmlns:xodm="http://www.corel.com/coreldraw/odm/2003">
 <defs>
  <style type="text/css">
   <![CDATA[
    .fil6 {fill:#E6E7E8}
    .fil4 {fill:#F6BC71}
    .fil3 {fill:#F1A758}
    .fil8 {fill:#F6DA75}
    .fil0 {fill:#E64E46}
    .fil10 {fill:#E3343A}
    .fil7 {fill:#D8813A}
    .fil2 {fill:#7A5237}
    .fil9 {fill:#A8CF45}
    .fil11 {fill:#A44170}
    .fil5 {fill:#DE9F91}
    .fil1 {fill:#FEFEFE;fill-rule:nonzero}
    .fil12 {fill:#E64E46;fill-rule:nonzero}
    .fil13 {fill:#623C84;fill-rule:nonzero}
   ]]>
  </style>
 </defs>
 <g id="Capa_x0020_1">
  <metadata id="CorelCorpID_0Corel-Layer"/>
  <g id="_2246265233632">
   <path class="fil0" d="M259.7 348.47c0.07,0.42 0.11,0.77 0.13,1.04 0.03,0.38 0.05,0.72 0.05,1.04l0 249.85c0,2.24 -0.53,4.35 -1.5,6.24 -0.99,1.9 -2.42,3.55 -4.23,4.88 -1.8,1.32 -3.78,2.18 -5.86,2.59 -2.07,0.41 -4.24,0.35 -6.41,-0.17l-121.84 -29.3c-6.39,-1.53 -10.87,-5.01 -13.84,-9.59 -3.36,-5.17 -4.7,-11.66 -4.7,-18.26l0 -156.77c0,-1.75 1.34,-3.18 3.06,-3.31l1.42 -0.23c11.96,-1.94 21.78,-5.7 29.76,-11.76 7.96,-6.05 14.16,-14.45 18.91,-25.68l1.27 -3c0.71,-1.69 2.65,-2.48 4.33,-1.77 0.55,0.23 1,0.59 1.34,1.03l2.01 2.39c1.68,2 3.34,3.94 5.17,5.86 1.71,1.8 3.52,3.49 5.55,5.06 1.51,1.16 3.12,2.26 4.81,3.27 1.72,1.04 3.45,1.96 5.2,2.76 2.62,1.2 5.43,2.13 8.3,2.77 2.91,0.66 5.87,1.01 8.77,1.05 2.51,0.04 5.1,-0.17 7.61,-0.7 2.18,-0.47 4.27,-1.18 6.16,-2.19 0.76,-0.41 1.51,-0.89 2.24,-1.47 0.69,-0.54 1.31,-1.12 1.85,-1.74 1.46,-1.67 2.27,-3.28 2.66,-4.96 0.41,-1.8 0.38,-3.81 0.13,-6.14l-0.24 -2.22c-0.19,-1.82 1.13,-3.45 2.95,-3.65 0.19,-0.02 0.37,-0.02 0.56,-0.01l6 0.03c4.11,0.01 7.55,-0.76 10.6,-2.31 3.06,-1.56 5.79,-3.97 8.42,-7.19l2.84 -3.46c1.16,-1.42 3.25,-1.63 4.67,-0.47 0.73,0.6 1.14,1.45 1.21,2.33l0.64 4.16z"/>
   <path class="fil1" d="M158.33 438.86c-0.85,0.97 -2.3,1.77 -4.33,2.4 -2.03,0.63 -4.06,0.94 -6.11,0.94 -3.27,0 -6.29,-0.85 -9.08,-2.56 -2.79,-1.71 -4.97,-3.97 -6.54,-6.76 -1.56,-2.79 -2.35,-5.79 -2.35,-8.98 0,-4.94 1.74,-9.23 5.2,-12.86 3.46,-3.63 7.72,-5.45 12.77,-5.45 4.06,0 7.66,1.23 10.79,3.68l-0.94 8.33c-3.04,-3 -6.16,-4.5 -9.36,-4.5 -2.63,0 -4.94,1.02 -6.9,3.05 -1.96,2.03 -2.94,4.61 -2.94,7.75 0,3.1 0.99,5.66 2.96,7.67 1.98,2.02 4.31,3.03 6.98,3.03 1.69,0 3.5,-0.43 5.45,-1.28 1.95,-0.86 3.53,-1.93 4.75,-3.22l-0.35 8.76zm39.33 -14.96c0,4.9 -1.76,9.18 -5.27,12.83 -3.52,3.65 -7.75,5.47 -12.7,5.47 -3.27,0 -6.3,-0.85 -9.08,-2.56 -2.79,-1.71 -4.97,-3.97 -6.54,-6.76 -1.56,-2.79 -2.35,-5.79 -2.35,-8.98 0,-4.94 1.73,-9.23 5.2,-12.86 3.46,-3.63 7.72,-5.45 12.77,-5.45 5.01,0 9.26,1.84 12.75,5.52 3.48,3.68 5.22,7.94 5.22,12.79zm-8.62 0c0,-3 -0.94,-5.54 -2.82,-7.61 -1.88,-2.06 -4.04,-3.1 -6.48,-3.1 -2.64,0 -4.87,1.01 -6.68,3.01 -1.82,2 -2.72,4.56 -2.72,7.7 0,3.07 0.93,5.61 2.82,7.65 1.88,2.03 4.05,3.05 6.53,3.05 2.41,0 4.57,-1.02 6.48,-3.05 1.92,-2.04 2.87,-4.58 2.87,-7.65zm39.38 14.96c-0.86,0.97 -2.31,1.77 -4.34,2.4 -2.03,0.63 -4.06,0.94 -6.11,0.94 -3.27,0 -6.29,-0.85 -9.08,-2.56 -2.79,-1.71 -4.97,-3.97 -6.54,-6.76 -1.56,-2.79 -2.35,-5.79 -2.35,-8.98 0,-4.94 1.74,-9.23 5.2,-12.86 3.47,-3.63 7.72,-5.45 12.77,-5.45 4.06,0 7.66,1.23 10.79,3.68l-0.94 8.33c-3.03,-3 -6.15,-4.5 -9.36,-4.5 -2.63,0 -4.94,1.02 -6.9,3.05 -1.96,2.03 -2.94,4.61 -2.94,7.75 0,3.1 0.99,5.66 2.97,7.67 1.98,2.02 4.3,3.03 6.97,3.03 1.69,0 3.5,-0.43 5.45,-1.28 1.95,-0.86 3.53,-1.93 4.75,-3.22l-0.34 8.76zm5.71 1.99l0 -33.9 8.22 0 0 33.9 -8.22 0z"/>
   <path class="fil1" d="M203.96 483.23l-22.32 -19.86 0 18.55 -7.77 0 0 -35.2 0.37 0 22.4 19.92 0 -18.62 7.77 0 0 35.21 -0.45 0zm29.62 -1.31l-2.18 -5.03 -14.35 0 -2.28 5.03 -8.16 0 17.81 -34.77 0.5 0 17.42 34.77 -8.76 0zm-9.2 -21.45l-4.76 10.56 9.31 0 -4.55 -10.56z"/>
   <path class="fil1" d="M150.81 508.24c0,3.26 -1.16,5.9 -3.49,7.92 -2.33,2.02 -5.78,3.03 -10.37,3.03 -1.25,0 -2.03,-0.04 -2.33,-0.1l0 12.64 -8.12 0 0 -33.9 11.69 0c3.73,0 6.76,0.99 9.1,2.98 2.35,1.98 3.52,4.46 3.52,7.43zm-8.17 0.34c0,-1.22 -0.42,-2.28 -1.26,-3.17 -0.84,-0.89 -2.2,-1.33 -4.08,-1.33l-2.68 0 0 9.01 2.97 0c1.72,0 2.99,-0.46 3.82,-1.36 0.82,-0.9 1.23,-1.95 1.23,-3.15zm12.5 23.15l0 -33.9 21.48 0 0 7.07 -13.27 0 0 6.1 11.44 0 0 6.88 -11.44 0 0 6.68 13.57 0 0 7.17 -21.78 0zm46.45 0l-9.41 -13.27 -1.38 0 0 13.27 -8.12 0 0 -33.9 11.48 0c3.7,0 6.75,0.97 9.16,2.91 2.41,1.93 3.61,4.32 3.61,7.17 0,2.12 -0.58,4.02 -1.75,5.69 -1.18,1.66 -2.9,2.84 -5.18,3.55l10.89 14.58 -9.3 0zm-2.73 -23.15c0,-1.26 -0.41,-2.32 -1.23,-3.19 -0.83,-0.88 -2.21,-1.31 -4.16,-1.31l-2.67 0 0 9.25 2.97 0c1.71,0 2.99,-0.49 3.83,-1.45 0.84,-0.97 1.26,-2.07 1.26,-3.3zm43.48 9.83c0,4.23 -1.26,7.74 -3.78,10.51 -2.52,2.78 -6.07,4.17 -10.62,4.17 -4.59,0 -8.2,-1.34 -10.84,-4.02 -2.64,-2.68 -3.96,-6.23 -3.96,-10.66l0 -20.58 8.22 0 0 19.86c0,2.42 0.55,4.36 1.65,5.83 1.11,1.47 2.84,2.21 5.18,2.21 2.34,0 4.08,-0.7 5.22,-2.09 1.14,-1.39 1.71,-3.27 1.71,-5.66l0 -20.15 7.22 0 0 20.58z"/>
   <path class="fil1" d="M162.76 572.81l-2.18 -5.04 -14.35 0 -2.28 5.04 -8.17 0 17.82 -34.77 0.5 0 17.42 34.77 -8.76 0zm-9.21 -21.46l-4.75 10.56 9.31 0 -4.56 -10.56zm50.41 22.77l-22.32 -19.86 0 18.55 -7.77 0 0 -35.21 0.37 0 22.4 19.92 0 -18.61 7.77 0 0 35.21 -0.45 0zm29.62 -1.31l-2.18 -5.04 -14.35 0 -2.28 5.04 -8.16 0 17.81 -34.77 0.5 0 17.42 34.77 -8.76 0zm-9.2 -21.46l-4.76 10.56 9.31 0 -4.55 -10.56z"/>
   <path class="fil2" d="M462.55 46.56c0.3,5.84 -3.39,6.62 -6.19,7.8 6.24,7.14 10.24,5.69 13.66,12.89 3.38,8.63 -1.54,7.04 -3.9,12.36 -1.37,3.1 1.47,2.34 3.8,3.79l8.56 4.41c6.19,3.11 7.4,5.67 7.94,13.85l-15.02 3.05c4.27,4.89 1.5,4.78 14.2,10.85l4.57 1.97c3.14,1.37 12.06,4.71 8.36,8.12 -1.54,1.43 -2.76,1.13 -4.66,2.06 -3.86,1.87 -1.66,0.29 -3.36,3.31 -4.8,8.58 -6.36,4.47 -15.99,4.52 -6.78,0.03 -3.68,1.86 -10.56,-1.59 0.36,5.32 1.34,11.28 1.49,13.25 0.24,3.2 0.04,7.75 -2.3,10.49 -17.98,21.12 -128.63,53.48 -160.82,57.45 -11.57,1.43 -20,2.11 -30.02,1.4 -9.2,-0.66 -21,-2.39 -34.32,-7.29 -34.72,-12.76 -70.42,-34.08 -80.5,-51 -3.29,-5.51 -3.67,-17.75 -0.26,-24.05 1.04,-3.66 5.53,-1.6 5.56,-3.62 -2.31,-3.13 -11.52,-6.46 -10.24,-11.17 0.95,-3.47 1.22,-1.14 1.76,-4.44 0.97,-5.91 -2.84,-4.71 5.95,-9.41 5.05,-2.69 1.21,-1.53 8.99,-1.47 1.09,-5.6 2.45,-2.31 0.36,-7.87 -3.03,-8.03 -7.3,-6.35 -11.53,-9.49 -4.98,-3.71 -6.52,-11.93 -5.89,-30.43 6.16,-27.79 88.61,-39.14 147.8,-49.37 29.11,-5.04 78.28,-12.56 120.11,-0.23 28.64,8.44 36.95,14.15 42.45,39.86z"/>
   <path class="fil3" d="M158.93 51.35c10.56,7.08 38.5,14.04 47.38,14.96 -8.29,0.16 -39.24,-5.89 -48.49,-11.9 -1.82,4.22 -1,16.87 0.02,21.36 1.51,6.72 3.54,5.69 9.71,7.81 9.58,3.29 18.06,5.03 28.1,7.55 24.72,6.19 36.96,7.1 64.38,5.9l0.61 -1.51c0.07,-0.21 0.19,-0.53 0.26,-0.77l0.99 -3.98c0.92,4.65 1.19,4.41 2.81,5.98 36.9,-2.73 102.56,-21.25 141.81,-31.39 7.93,-2.05 14.66,-3.66 22.71,-6 7.52,-2.18 15.03,-5.93 20.95,-7.55 10.93,-4.03 8.28,-8.98 2.7,-19.81 -3.51,-6.75 -16.29,-15.64 -25.69,-18.8 -16.64,-5.59 -45.26,-9.42 -75.03,-7.93 -18.69,0.94 -36.57,5.14 -56.18,8.74 -6.89,1.26 -13.88,2.56 -20.86,3.88 -16.38,3.09 -34.02,4.84 -49.15,8.11 -24.38,5.26 -44.27,12.12 -56.93,17.25 -10.61,4.28 -10.92,8.45 -10.1,8.1z"/>
   <path class="fil4" d="M431.45 14.92c-1.47,-0.68 -2.91,-1.26 -4.27,-1.72 -16.64,-5.59 -45.26,-9.42 -75.03,-7.93 -1.09,0.06 -2.18,0.12 -3.27,0.2 0.12,0.12 0.32,0.23 0.61,0.32 6.17,2.02 23.38,12.89 12.78,13.91 -10.6,1.03 -49.24,-9.87 -54.64,-4.65 -5.4,5.22 26.43,13.64 30.52,18.47 4.08,4.83 -4.81,5.16 -27.17,-3.65 -22.35,-8.81 -48.58,-3.67 -48.58,-3.67 0,0 14.86,11.1 15.09,18.91 0.23,7.81 -30.01,-8.07 -39.93,-11.81 -9.92,-3.74 -19.22,3.94 -12.73,9.06 6.49,5.12 51.19,17 64.53,19.36 13.34,2.37 29.78,0.26 53.87,-2.58 24.1,-2.85 46.58,-9.72 71.04,-20.43 9.31,-4.08 14.42,-13.59 17.18,-23.79z"/>
   <path class="fil5" d="M464.95 73.21c4.5,-6.46 -6.81,-14.71 -13.96,-15.24 5.39,3.36 2.8,2.64 6.57,7.24 -3.91,-1.22 -2.29,-3.75 -10.18,-5.01 -1.94,3.55 1.57,0 0.21,2.75l-6.57 -0.78c0.62,3.41 1.95,0.87 0.83,3.01 -5.46,-1.89 -5.62,-0.87 -11.22,0.53l5.44 3.92c-5.7,-2.2 -8.17,-3.53 -15.1,-1.55 -1.39,2.5 0.44,0.99 0.18,2.71 -4.7,-1.24 -6.5,-1.45 -11.98,-0.04 -7.34,1.9 -3.65,2.43 -7.48,2.99 -2.05,0.3 -2.04,-0.43 -5.3,0.62 -5.76,1.84 0.65,0.37 -2.91,1.86 -3.05,1.27 -3.52,-1.61 -5.74,2.9 -1.89,-0.34 -5.34,-1.5 -6.82,-0.26 -1.7,1.42 -0.38,0.61 3.03,2.77l-10.04 -1.21c2.91,1.75 11.57,4.72 13.93,6.61 -7.78,-2.37 -11.09,-4.68 -21.01,-4.93 4.57,1.42 3.3,2.02 8.01,3.82l22.77 8.81c-1.79,-8.33 -1.46,-11.31 4.37,-16.06 4.51,-3.67 11.43,-6.17 19.24,-6.61 23.16,-1.31 35.44,8.61 43.73,1.15z"/>
   <path class="fil6" d="M175.25 94.1c-1.75,-2.82 -0.83,-2.53 -3.91,-3.12l1.53 6.63c3.3,-1.48 4.93,-2.62 6.86,-4.61l-3.7 -1.15 -0.78 2.25z"/>
   <path class="fil5" d="M461.79 78.45c-7.5,3.12 -30.56,-8.94 -51.82,-2.05 -3.16,1.03 -7.53,3.59 -9.11,6.27 -2.49,4.84 -0.84,9.72 1.04,12.56 5.75,8.72 21.87,5.47 26.17,-5.83 -18.6,24.09 -40.73,-12.71 5.22,-10.69 11.71,0.51 17.6,4.06 27.94,2.67 -5.76,0.02 -5.38,0.24 -8.25,-1.48 3.22,-0.3 8.31,-1.45 8.81,-1.45z"/>
   <path class="fil5" d="M381.29 93.57c-2,-1.74 -0.37,-0.72 -3.36,-2.23l-20.26 -6.49c-0.83,2.91 2.75,-1.11 0.18,2.61 -2.96,-0.63 -3.33,-0.37 -8.36,1.18 -10.99,3.39 -10.38,2 -17.79,4.18 -10.23,3 5.58,2.04 -9.52,1.75 -7.17,-0.14 -0.16,2.66 -10.64,0.9 -1.8,2.94 0.82,-1.05 -0.23,1.64 -0.98,2.49 1.81,-0.94 -1.21,1.98 -3.69,-1.6 -3.45,-2.34 -8.12,-1 0.06,-0.01 0.38,-0.89 2.4,0.11 4.44,2.2 0.19,-0.83 0.69,0.98l-0.11 3.07c-2.88,-1.7 -2.27,-1.9 -6.87,-1.23 5.27,4.05 8.29,6.16 13.14,10.92 -3.67,-1.43 -11.17,-7.76 -13.45,-9.01 -3.41,-1.87 1.93,-1.78 -6.34,-1.31 1.62,3.16 -0.63,0.95 2.98,3.69l22.82 14.31c-0.05,-10.53 11.59,-20.59 21.49,-24.37 16.91,-6.44 26.17,-2.5 42.56,-1.68z"/>
   <path class="fil7" d="M184.54 96.92c-2.88,-1.64 -7.41,0.79 -9.56,2.77 -2.97,2.74 -3.31,5.81 -1.7,10.61l2.11 -5.81c0.22,0.85 2.09,6.29 2.09,6.31 0.23,4.15 0.13,0.34 -0.75,1.84 -0.65,1.09 -0.47,-2.27 -1.17,1.81 3.86,1.55 1.94,1.21 3.05,2.04 0.25,0.2 0.95,0.83 1.23,1.01l8.54 2.39c5.7,0.44 11.16,-0.23 14.97,-3.24 -2.37,-1.33 -1.84,-2.17 -4.54,-2.94 -3.2,-0.9 -13.85,1.05 -18.84,-7.25l5.41 -2.87 -6.89 -1.14c1.83,-4.72 1.93,-1.68 6.05,-5.53z"/>
   <path class="fil5" d="M412.11 92.34l5.73 -0.77 0.18 2.76c5.74,-2.59 6.3,-6.76 9.74,-10.35l-2.9 -0.66c-1.37,-0.21 -0.83,-0.26 -2.15,-0.09 -15.66,2.05 -12.1,4.3 -10.6,9.11z"/>
   <path class="fil5" d="M247.95 141.95c-4.14,-13.35 0.07,-20.2 9.49,-26.54 12.96,-8.73 21.57,-5.56 35.73,-7.27l-8.43 -6.26c-2.75,5.14 2.48,-1.02 0.5,3.23 -2.59,-1.12 -2.39,-1.12 -5.51,-0.97 -0.05,0.01 -4.76,0.53 -6.19,0.73l-14.15 1.88c-18.57,2.02 -12.05,-1.96 -24.15,-2.45 3.83,4.94 9.04,8.82 12.68,10.83 -4.37,-2.68 -9.06,-5.76 -14.09,-8.16 -1.99,-0.95 -1.67,-0.95 -3.84,-1.14l-9.24 -0.59c-1.75,0.1 -2,0.42 -2.24,0.5 -5.01,1.53 -4.21,-3.84 -13.27,-5.79l2.7 2.47c1.24,1.35 1.87,2.28 3.1,4.14 -5.99,-1.55 -5.06,-3.45 -9.88,-4.67 3.34,5.1 11.18,9.38 14.79,13.4 -19.99,-11.63 -22.34,-17.6 -24.98,-19.18 -0.52,1.01 -0.64,0.66 -0.6,2.42 0.15,6.9 11.64,11.07 18.61,17.09 10.1,8.7 14.55,9.55 19.19,13.5 6.94,5.93 10.17,7.97 19.78,12.83z"/>
   <path class="fil8" d="M467.25 88.98c-3.14,-0.83 -5.1,-2.1 -7.77,-2.25 -7.98,-0.42 -14.86,-2.59 -19.64,-1.6l4.61 1.59c-3.31,0.93 -2.91,0.86 -6.92,1.69l0.13 0.8c-0.08,2.06 0.33,1.03 -6.9,4.77l-0.67 5.8c-5.13,1.55 -9.45,4.2 -15.86,4.28 -7.18,0.08 -9.88,-0.31 -16.89,1.96 -7.12,0.79 5.02,0.06 -1.94,-0.84 -0.12,-0.01 -0.46,-0.06 -0.59,-0.06 -1.3,-0.04 -3.91,0.67 -5.02,0.98 -3.81,1.08 -7.08,2.19 -10.99,2.94 2.14,-2.14 3.61,-2.72 6.53,-3.13l-7.52 -1.22c-0.42,2.9 0.18,0.42 -0.65,2.44l-7.8 7.72 4.02 1.09c0.14,-0.26 0.65,0.2 0.85,0.08l-6.25 2.75c17.47,-1.87 37.13,-9 55.7,-9.41 -5.6,0.98 -62.84,12.15 -67.95,16.95 23.96,-3.42 70.77,-13.98 97.33,-19.99 9.22,-2.09 25.04,-4.08 28.56,-8.45 -1.11,-0.45 0.38,-1.25 -5.73,0.19 -9.68,2.28 -34.87,8.34 -41.78,8.87 6.9,-2.69 43.25,-11.99 45.64,-14.07 -1.86,-2.8 -13.42,-8.4 -16.16,-8.62 0.17,2.54 -0.39,0.04 1.23,2.09l2.43 2.65z"/>
   <path class="fil9" d="M167.6 106.95c-4.47,0.1 -8,1.07 -9.48,4.2 -6.27,13.24 -1.23,12.27 5.69,15.92 7.9,4.17 -0.53,4.85 13.76,8.9 -0.66,-3.32 1.72,-3.92 4.28,-4.84 -2.44,-3.11 -3.66,-3.61 -5.4,-6.92l-5.6 1.81 3.71 -4.81 -1.86 -4.56 -6.8 0.16c2.48,-2.69 3.84,-2.04 4.5,-4.42 -2.11,-2.63 -1.59,-2.58 -6.49,-3.28l3.69 -2.16z"/>
   <path class="fil5" d="M388.61 97.28c-0.3,-0.02 -0.63,-0.02 -0.96,-0.02 -23.86,-0.27 -34.79,-6.6 -54.87,4.92 -2.85,1.64 -11.67,9.16 -12.11,13.57 -1.28,12.52 15.04,14.88 27.05,10.3l-7.21 -0.24c-16.21,-0.46 -17.74,-17.31 3.42,-25.64 17.95,-7.05 44.12,7.19 51.51,-1.2 -8.87,0.97 -7.74,1.91 -17.83,0.83 2.22,-1.35 -1.62,-0.43 3.98,-1.32 2.35,-0.37 5.15,0.38 9.37,-0.79l-2.35 -0.41z"/>
   <path class="fil5" d="M357.51 101.28c-10.97,0.35 -18.53,3.59 -23.26,9.73l8.69 -3.31c-5.26,5.18 -3.3,2.35 -10.87,7.37l7.2 -0.07c-1.29,1.51 -0.85,1.18 -2.94,2.56 -0.03,0.03 -1.92,0.78 -2.03,0.81 6.49,-0.14 7.98,-1.29 13.34,-3.28 -2.93,2.4 -2.11,2.7 -6.06,5.52l10.51 -4.3 -3.63 4.08c-1.79,1.24 -1.97,1.07 -3.05,1.22 3.19,-0.52 12.52,-7.43 15.94,-9.96 1.85,-1.36 3.22,-2.75 4.77,-4.13 -1.35,-1.09 -0.71,-1.94 -2.41,-2.42 -2.01,-0.58 -1.11,-0.39 -4.01,0.47l3.36 -3.81 -10.14 4.19 4.59 -4.67z"/>
   <path class="fil7" d="M206.55 119.27c-8.77,3.42 -7.73,4.06 -19.8,4.26 2.32,3 2.72,1.44 4.04,4.38 0.11,0.25 0.38,1.13 0.49,1.37 0.08,0.21 0.3,0.61 0.38,0.78 1.5,3.32 17.88,-0.63 22.48,-6.97 -4.41,2.18 -5.67,3.35 -11.39,4.13 7.93,-2.59 6.66,-5.09 6.59,-4.35l-2.79 -3.6z"/>
   <path class="fil7" d="M190.84 130.25c-4,-7.56 -9.98,-8.51 -10.34,-8.73 0.89,6.56 5.12,7.88 10.34,8.73z"/>
   <path class="fil5" d="M259.27 125.32c-4.3,3.07 1.39,-4.3 -1.46,1.78l-0.29 1.06c-0.05,0.12 -0.08,0.4 -0.12,0.52l-1.33 2.54c2.44,2.32 -0.85,1.48 4.13,1.26 -0.21,0.26 -0.6,0.31 -0.69,0.75 -0.56,2.84 -0.37,-0.95 -2.48,3.06l4.44 -0.27 4.19 -1.57c-0.95,2.1 2.55,-0.24 -2.42,2.9 -0.89,0.56 -2.51,1.04 -3.9,1.64 0.47,0.28 -0.75,3.34 7.63,-0.68 4.49,-2.15 2.9,-0.76 6.51,-4.14 -2.19,3.75 -5.38,5.22 -9.51,8.56 3.02,-0.93 2.17,-0.03 6.2,-1.98 7.18,-3.49 5.53,-1.88 5.39,-4.28 3.64,-2.49 0.93,-0.61 3.54,-3.57 1.3,-1.47 2,-2.29 3.02,-3.43 3.44,-3.84 3.64,-3.09 7.47,-6.11 -4.73,4.44 -10.98,15.49 -16.74,18.71 3.76,-1.03 4.6,-2.68 6.86,-5.68 2.93,-3.91 3.64,-4.14 6.87,-7.39 7.69,-7.7 7.3,-5.15 19.71,-9.3 -6.52,-2.46 -7.76,-1.58 -11.97,-1.25l-0.07 -1.13c-0.15,-3.35 2.09,2.28 -0.06,-0.8l-12.7 5.06c2.21,-2.83 3.07,-3.41 6.5,-5.58 -5.01,-0.11 -12.01,4.28 -14.89,6.54 2.41,-0.98 2.32,-1.7 4.6,-3.32 -0.74,-0.52 0.15,-5.2 -10.86,-0.46 -4.58,1.97 -6.67,3.3 -7.57,6.56z"/>
   <path class="fil6" d="M470.23 104.78l-0.33 0.33c0.03,-0.02 0.46,-0.23 0.33,-0.33z"/>
   <path class="fil5" d="M259.02 118.92c-18.26,10.07 -8.12,33.54 10.5,31.61 5.27,-0.55 6.5,-1.14 10.45,-3.66 10.38,-6.6 5.72,-10.81 24.43,-22.92 -19.49,2.25 -18.56,19.03 -31.7,21.84 -19.7,4.22 -23.57,-13.98 -16.97,-21.9 3.28,-3.93 1.5,-0.19 3.29,-4.97z"/>
   <path class="fil10" d="M446.96 110.77c-20.68,5.76 -10.38,7.3 -20.14,10.41 -1.99,-2.01 -2.29,-3.83 -5.06,-5.6 -0.97,2.1 0.04,4.63 0.08,6.46 -11.99,3.98 -12.88,-0.63 -15.04,-2.55 -0.38,1.1 -0.82,2.48 -2.09,3.75 -7.15,-0.56 -9.87,-1.68 -17.52,-0.3 5.67,9.04 37.47,7.97 50.93,-0.97 5.13,-3.41 5.75,-7.06 8.84,-11.2z"/>
   <path class="fil9" d="M468.8 109.5c-2.46,-2.34 -8.21,-3.4 -9.97,0.06l-2.76 6.43c2.32,1.87 6.82,3.9 9.11,4.78l-10.3 -1.96 -3.41 5.62c9.2,6.55 17.67,7.79 29.65,8.08l-13.58 -6.71 18.46 5.47c1.71,-1.44 0.76,-0.22 2.62,-2.66 2.17,-2.83 1.53,-1.6 2.74,-4.94 -16.01,-3.01 -15.36,-4.98 -23.37,-7.12l14.99 3.03c-3.12,-3.64 -1.75,-2.92 -7.04,-5.25 -6.61,-2.91 -2.35,-3.32 -7.14,-4.83z"/>
   <path class="fil9" d="M191.95 133.97c-5.22,-0.51 -15.31,-4.85 -9.73,3.79 7.57,11.73 1.33,2.88 14.62,11.71l2.59 -4.73c-1.38,6.8 7.07,17.83 15.75,11.76 -3.56,-2.45 -6.42,-4.84 -10.48,-6.92 -1.16,-6.14 0.14,-8.02 0.72,-13.94l-9.06 3.26c1.51,-2.33 2.96,-3.13 5.18,-4.96l-11.47 2.76 1.88 -2.73z"/>
   <path class="fil11" d="M231.85 136.58c-3.51,-2.34 -1.3,-2.38 -6.4,-3.6 -3.33,-0.8 -5.53,-1.05 -8.44,-1.83 -0.35,4.31 -0.59,3.2 6,4.24 3.37,0.52 5.43,1.16 8.84,1.19z"/>
   <path class="fil4" d="M253.88 208.59c8.46,-1.92 2.95,-10.06 6.74,-15.43l0.31 15.99c5.07,1.78 10.65,2.23 15.61,2.35 -0.93,-3.07 0.08,-6.64 -0.04,-9.28 1.26,4.65 0.95,7.09 4.01,8.5l2.4 -9.13c1.35,3.64 0.54,6.28 3.5,9.73 36.43,-1.54 100.15,-22.55 159.02,-48.74 10.06,-4.47 16.2,-6.32 14.94,-14.87 -3.78,1.06 -0.9,-0.26 -2.72,2 -0.12,0.15 -1.41,2.91 -1.44,2.96l-6.72 -9.27c-4.17,1.18 -1.25,-1.5 -3.02,2.86 -1.33,-3.57 -2.85,-4.01 -8.36,-2.94 -4.67,0.9 -5.66,3.03 -8.35,5.2l0.21 8.81c-1.02,-3.9 -2.23,-6.4 -4.07,-8.99l-0.14 4.76c-0.24,-0.15 -0.64,-0.65 -0.74,-0.43l-2.25 -0.81c-13.18,-2.39 -0.87,-0.05 -8.26,-3.31 1.93,8.02 5.27,2.05 9.48,8.07 6.25,8.92 -7.63,21.66 -26.99,2.95 -3.76,1.25 -0.59,2.74 -4.4,-0.81 -2.97,1.54 -0.19,1.06 -2.12,1.67 -0.08,0.03 -0.4,0.09 -0.49,0.1 -0.22,0.04 -0.89,-0.02 -1.13,0 -5.63,0.36 -4.35,3.12 -4.62,9.28l-2.1 -6.51c-17.38,3.97 -14.27,5.74 -17.95,8.75 -1.42,1.16 -4.02,2.46 -5.83,3.77l-2.54 -1.12c-2.27,0.68 -0.93,0.87 -2.21,3.8l-2 -6.09c-7.77,0.06 -5.2,1.44 -9.9,5.49 -13.96,2.64 -19.82,-6.06 -22.07,5.55l-0.77 2.47c-0.06,0.18 -0.26,0.49 -0.43,0.7 -0.42,-6 -1.31,-4.45 -7.09,-5.31 -2.99,3.72 -2.93,7.13 -14.93,4.32 -1.6,3.45 -1.26,10.58 -11.07,6.13 -4.5,-2.05 -0.17,-3.19 -14.42,-4.63l-1.79 -0.64c-5.14,-0.9 -4.48,0.21 -8.98,-1.2 -13.76,-4.29 -10.56,-9.47 -23.92,-12.71 2.59,1.98 3.3,1.55 6.18,3.21 2.61,1.51 3.9,3.65 6.04,5.34l-3.92 -1.05c-1.5,-1.12 -3.39,-2.9 -5.2,-3.52 -4.54,-1.57 -2.44,-1.09 -4.07,1.99 -0.46,-3.22 -0.64,-4.6 -3.18,-5.67 -4.1,-1.71 -1.57,-1.72 -2.77,3 -0.51,-5.82 -2.77,-10.69 -5.89,-13.82 -2.96,1.55 0.02,-0.6 -3.49,3.87l-0.3 -4.35c-7.25,0.08 -8.08,1.11 -13.97,-1.27l-1.53 -0.64c-4.98,-2.19 -4.22,-2.11 -4.79,-6.89 -7.52,0.05 -2.8,-2.07 -9.15,-5.23 -8.41,-1.58 -9.81,-6.02 -12.04,-9.59 -0.31,-0.48 -3.54,-0.34 -7.21,-1.27 -2.3,-0.58 -5.81,-3.55 -7.64,-4.37 -0.54,0.05 -2.79,1.43 -3.21,2.66 -0.02,0.35 -1.97,11.24 -0.61,15.69 2.86,16.23 28.44,27.41 54.08,41.54 18.78,10.35 39.85,16.66 40.31,16.38z"/>
   <path class="fil3" d="M253.88 208.59c8.46,-1.93 2.95,-10.06 6.74,-15.43l0.31 15.99c5.07,1.78 10.65,2.23 15.61,2.35 -0.93,-3.07 0.08,-6.64 -0.04,-9.28 1.26,4.65 0.95,7.09 4.01,8.5l2.4 -9.13c1.35,3.64 0.54,6.28 3.5,9.73 36.43,-1.54 100.15,-22.55 159.02,-48.74 7.26,-3.23 12.47,-5.09 14.35,-9.09 -11.59,0.55 -22.27,5.7 -34.49,11.96 -0.04,0.01 -0.58,0.19 -1.55,0.48 -2.01,2.37 -5.63,3.82 -10.35,3.09 -27.98,8.33 -95.68,28.35 -96.04,28.38 -15.77,1.52 -34.02,6.84 -48.17,0.36 -10.64,-4.88 -2.24,1.83 -9.42,-7.6 -3.67,-4.82 -8.04,5.82 -21.23,-12.62 -0.4,-0.57 -0.81,-1.12 -1.22,-1.68 -1.81,-0.56 -0.74,0.24 -2.03,2.69 -0.47,-3.22 -0.65,-4.6 -3.19,-5.67 -4.1,-1.71 -1.57,-1.72 -2.77,3 -0.5,-5.82 -2.77,-10.69 -5.89,-13.82 -2.96,1.55 0.02,-0.6 -3.49,3.87l-0.3 -4.35c-7.25,0.08 -8.08,1.11 -13.97,-1.27l-1.53 -0.64c-4.98,-2.19 -4.22,-2.11 -4.79,-6.89 -7.52,0.05 -2.8,-2.07 -9.15,-5.23 -8.41,-1.58 -9.81,-6.02 -12.04,-9.59 -0.31,-0.48 -3.54,-0.34 -7.21,-1.27 -1.17,-0.29 -2.64,-1.2 -4.05,-2.13 -2.03,-0.23 -4.09,-0.41 -6.18,-0.53 -0.29,0.31 -0.52,0.64 -0.62,0.95 -0.02,0.35 -1.97,11.24 -0.61,15.69 2.86,16.23 28.44,27.41 54.08,41.54 18.78,10.35 39.85,16.66 40.31,16.38z"/>
   <path class="fil8" d="M300.4 131.92l11.33 2.18 20.81 3.01c-7.69,0.59 -36.49,-0.81 -39.98,1.97 2.9,1.39 78.17,0.69 86.31,-0.41 9.11,-1.23 3.62,-0.01 5.93,-2.58l-3.89 -0.54c-10.16,-0.3 -5.2,1.23 -12.67,-0.48 -0.3,-0.07 -0.72,-0.18 -1.06,-0.32l16.54 -1.73c-1.4,-3.25 -2.14,-6.54 -5.35,-7.67l1.17 5.71c-1.94,-1.78 -1.28,-2.12 -2.8,-3.74 -3.73,-3.99 -1.24,-0.43 -2.61,-0.11 -0.07,0.01 -0.34,0.1 -0.43,0.11 -0.09,0.01 -0.41,0.01 -0.53,0.01 -19.52,0.16 -17.01,3.34 -34.69,4.68 -12.12,0.92 -14.14,-4.73 -20.48,-5.49 -3.88,-0.47 -9.08,0.55 -12.25,1.86 -8.87,3.66 7.19,0.56 -5.35,3.54z"/>
   <path class="fil10" d="M444.39 121.22c-3.53,3.39 -11.91,6.51 -18.58,7.99l1.73 7.57c12.24,-2.63 13.3,-5.59 18.78,-12.4 0.49,-1.73 -2.51,-1.5 -1.93,-3.16z"/>
   <path class="fil11" d="M227.73 146.44l-6.63 -2.05 7.41 -0.27c0.39,-4.94 -1.82,-7.44 -10.84,-6.81l-3.9 2.1 -2.95 -5.92c-1.1,3.89 1.35,8.01 4.44,10.64 1.94,1.64 3.33,2.52 5.73,3.08 6.46,1.51 6.7,-0.75 6.74,-0.77z"/>
   <path class="fil10" d="M399.26 133.75l-11.19 -2.23c2.26,4.43 3.54,2.89 8.18,5.74l-6.69 -0.9c0.7,2.1 -0.82,0.26 1.66,1.78 0.22,0.13 3.34,1.3 3.92,1.44 3.35,0.86 7.01,1.03 10.71,1.01 1.63,-2.28 0.74,-0.37 1.28,-3.85 0.06,-0.35 -0.12,-2.25 0.06,-3.58l1.77 4.49c0.89,1.72 0.78,1.61 1.55,2.51 6.47,-1.23 8.33,0.87 8.99,-4.42 2.6,3.57 -0.2,3.75 6.75,1.31 0.02,-3.08 -0.65,-4.56 -2.36,-7.03 -13.38,1.01 -32.8,2.49 -39.43,-4.55 6.1,5.31 8.04,4.76 14.8,8.28z"/>
   <path class="fil9" d="M452.35 135.6c-2.49,-2.12 -2.68,-1.97 -6.08,-3.59 -2.9,0.98 -1.09,0.78 -1.96,1.44 -1.92,1.43 0.9,0.3 -2.06,1.31l-19.98 6.21c-0.77,1.59 0.01,-0.17 -0.32,1.66l-6.13 -0.65c2.93,3.09 1.97,3.68 4.62,6.63 5.35,-4.78 5.11,-1.96 8.9,-4.45 4.35,-2.87 -2.21,-0.27 7.95,-6.32 0.04,0.19 0.11,0.49 0.15,0.56 0.04,0.06 0.21,0.37 0.26,0.44 0.06,0.1 0.35,0.47 0.41,0.56 0.07,0.11 0.33,0.43 0.5,0.65 14.57,-1.9 14.03,2.17 21.94,3.49 -1.12,-6.11 -6.87,-17.68 -13,-14.51 2.41,3.67 3.2,1.16 4.8,6.57z"/>
   <path class="fil11" d="M228.2 152.57c-2.75,-2.68 0.34,-1.05 -5.02,-2.24 -10.69,-2.36 -9.83,-1.35 -14.67,-7.47 -0.13,-0.16 -0.38,-0.47 -0.58,-0.7 -0.37,9.83 14.38,12.59 16.59,12.42 5.62,-0.44 1.91,0.32 3.68,-2.01z"/>
   <path class="fil10" d="M241.9 145.33c-4.02,-3.14 -2.89,-6.28 -5.93,-1.21l-2.14 -4.11 -2.53 5.17c1.26,8.87 3.46,14.8 17.85,17.59 12.68,2.45 20.59,1.76 34.04,-0.29 20.02,-3.06 40.41,-10.17 52.97,-19.72 -6.1,0.88 -6.05,3.95 -14.15,5.75l6.62 -5.28c-6.69,0.34 -5.89,3.11 -12.69,4.92l5.17 -5.2c-6.19,2.28 -10.31,6.69 -19.43,6.24l-4.68 -5.12 0.05 6.53c-2.56,1.95 -6.48,3.62 -10.88,4.5 -8.72,1.73 -7.66,1.17 -12.97,-1.89 -2.84,3.12 0.03,4.31 -7.75,4.98 -24.99,2.18 -23.37,-17.63 -23.55,-12.86z"/>
   <path class="fil10" d="M230.41 154.64c0.74,6.7 2,11.17 7.26,14.43 5.47,3.4 10.7,3.19 16.98,4.58 31.99,-0.18 81.26,-7.72 99.01,-31.71 -4.65,0.71 -5.56,6.4 -13.05,8.82 1.34,-2.33 0.19,-0.52 1.63,-2.26l5.6 -6.25c-1.78,0.59 -13,13.19 -26.69,15.9l12.58 -7.59c4.84,-3.05 6.49,-5.77 9.54,-8.08 -14.75,11.66 -35.46,18.3 -56.88,22.09 -17.21,3.04 -45.09,4.86 -55.98,-9.93z"/>
   <path class="fil10" d="M293.39 143.71c-0.34,0.12 -1.14,1.13 -1.36,1.37l-1.65 1.91c-2.38,2.04 -2.74,-0.15 -2.25,4.7l6.81 -1.51 -1.55 -6.47z"/>
   <path class="fil9" d="M403.5 150.23c-2.77,-1.39 -3.67,-3.21 -5.58,-3.04 -0.91,2.87 1.01,4.25 2.06,7.33l-5.15 -3.62 -5.95 3.65c13.44,1.46 12.4,3.98 18.41,7.86 2.79,1.81 2.52,2.28 5.08,1.8 0.6,-3.47 -5.84,-8.94 -7.89,-12.87 4.91,1.85 11.47,11.93 14.55,13.86 2.7,-2.17 2.09,-2.2 2,-6.06 -5.24,-3.79 -6.95,-2.73 -10.11,-6.96 -3.39,-4.55 -3.59,-7.93 -10.61,-7.94l3.19 5.99z"/>
   <path class="fil9" d="M385.86 146.71l-6.77 0.5 0.14 4.63c3.61,-1.51 4.41,-2.95 6.63,-5.13z"/>
   <path class="fil9" d="M353.99 155.27c-2.01,-2.48 -1.43,-2.98 -1.55,-6.53l-5.4 4.44c-0.2,0.16 -0.44,0.38 -0.63,0.54 -4.86,3.86 -9.46,3.36 -12.14,10l-3.09 -1.31c-5.87,2.95 -6.68,1.55 -8.33,6.97l-4.83 -1.53c-4.68,0.5 -12.58,5.32 -14.61,5.35 -21.1,0.34 -17.43,2.99 -21.41,6.9l-1.45 -4.25 -8.16 0.61 -2.54 4.24 -1.98 -4.29 -12.15 2.76c-0.19,0.09 -0.6,0.24 -0.86,0.42 4.41,1.04 5.19,2.38 7.97,3.18l14.5 2.58c13.34,2.87 7.07,6.03 14.11,4.61 1.28,-0.22 3.68,-11.63 3.94,-12.87l1.43 2.81c1.53,2.32 -0.53,0.63 1.58,2.01 1.96,1.29 5.21,0.58 7.68,0.45 2.76,-5.01 1.54,-7.86 8.92,-9.37 -1.08,2.71 -1.93,0.86 -4.22,4.94 7.31,2.49 7.44,-4.03 18.34,-3.43 13.92,0.77 8.54,1.94 12.06,-8.7 1.49,3.46 -1.4,2.31 2.25,5.58 3.15,-2.22 3.56,-2.68 4.57,-7.01 3.61,4.19 -2.59,-4.55 0.92,2.06 2.17,4.07 1.93,1.97 4.67,5.01 0.23,-0.25 0.47,-0.96 0.58,-0.79 1.39,2.05 5.75,-16.24 5.77,-16.28 3.63,7.92 -1.46,11.98 -0.66,16.73l3.94 -2.71c2.97,-2.91 1.38,-3.76 6.53,-4.84l-6.66 -13.23c2.64,1.94 4.03,4.09 5.16,6.87l2.28 -7.28 3.51 10.64c4.35,-0.28 6.56,-1.38 8.84,-4.37 2.05,-2.69 0.45,0.03 1.85,-3.11 -4.42,2.32 -3,2.26 -8.55,2.11 -1.76,-6.73 -2.66,-18.55 -16.32,-11.23l-2.77 0.31 -3.09 11.01z"/>
   <path class="fil2" d="M341.87 12.65c6.61,0.54 10.8,1.26 24.04,5.03 12.26,3.49 25.15,11.67 26.73,15.82 0.64,1.69 -3.41,-0.13 -8.96,-2.26 -7.23,-2.78 -17.25,-6.66 -25.02,-9.72 -2.37,-0.94 -7.48,-3.03 -14.24,-4.71 -7.61,-1.89 -16.78,-3.34 -16.02,-3.69 2.03,-0.94 13.47,-0.47 13.47,-0.47z"/>
   <path class="fil2" d="M332.04 37.45c-4.94,-3.83 -9.06,-6.33 -21.61,-11.57 -10.55,-4.4 -21.84,-4.99 -25.52,-5.1 -4.68,-0.15 13.27,7.27 27.17,12.32 2.41,0.87 7.65,2.7 13.65,5.86 6.77,3.56 12.19,8.29 14.01,7.69 2.14,-0.71 -7.7,-9.2 -7.7,-9.2z"/>
   <path class="fil2" d="M278.34 44.08c-4.93,-3.84 -8.16,-5.8 -20.71,-11.03 -6.65,-2.78 -13.52,-3.22 -18.66,-3.8 -3.02,-0.33 -6.05,-0.31 -6.09,0.39 -0.08,1.27 0.52,0.84 7.56,3.82 5.37,2.26 12.83,4.62 18.84,6.81 2.4,0.87 7.64,2.69 13.65,5.85 6.77,3.57 10.92,8.53 14,7.69 2.19,-0.59 -7.33,-9.02 -8.59,-9.73z"/>
   <path class="fil2" d="M292.76 97.23c8.18,4.35 23.58,12.61 25.16,12.48 -0.43,-0.97 -15.44,-9.85 -25.49,-15.58l0.33 3.1z"/>
   <path class="fil2" d="M214.53 103.62c8.18,4.36 23.58,12.61 25.17,12.48 -0.43,-0.96 -15.45,-9.84 -25.5,-15.57l0.33 3.09z"/>
   <path class="fil2" d="M199.64 101.12c7.81,4.84 22.51,14.02 24.1,13.99 -0.35,-1 -14.62,-10.77 -24.18,-17.11l0.08 3.12z"/>
   <path class="fil2" d="M367.78 80.06c8.47,3.17 24.44,9.2 25.93,8.89 -0.56,-0.87 -16.25,-7.53 -26.72,-11.79l0.79 2.9z"/>
   <path class="fil2" d="M200.35 187.98c-0.57,-4.5 1.36,-17.27 1,-18.03 -0.82,-0.19 -1.44,2.01 -2.06,4.4 -1,3.86 -1.6,7.59 -0.92,12.57l1.98 1.06z"/>
   <path class="fil2" d="M166.18 56.94c-0.62,4.23 1.04,15.14 0.68,15.86 -0.77,0.19 -1.31,-1.88 -1.85,-4.11 -0.86,-3.6 -1.35,-7.1 -0.63,-11.79l1.8 0.04z"/>
   <path class="fil2" d="M257.35 77.32c6.04,-0.12 9.68,-0.36 22.43,-2.06 6.75,-0.89 12.32,-2.56 16.64,-3.74 2.53,-0.68 4.86,-1.48 4.49,-1.71 -0.68,-0.42 -0.9,-0.13 -8.07,0.81 -5.47,0.71 -12.61,1.95 -18.53,2.86 -2.36,0.36 -7.48,1.18 -13.96,1.79 -7.31,0.68 -13.39,0.24 -15.3,1.31 -1.34,0.76 10.91,0.85 12.3,0.74z"/>
   <path class="fil2" d="M235.25 73.17c-0.58,-4.5 1.35,-17.27 1,-18.03 -0.82,-0.19 -1.44,2.02 -2.07,4.4 -1,3.86 -1.6,7.59 -0.92,12.58l1.99 1.05z"/>
   <path class="fil2" d="M192.56 73.11c0.32,-1.9 -0.8,-3.21 -0.14,-2.47 -0.34,-0.08 -1.23,-0.4 -2.04,0.42 -0.35,0.34 -0.53,-0.7 -0.16,1.38 0.21,1.2 0.79,0.75 2.34,0.67z"/>
   <path class="fil2" d="M222.37 87.73c0.32,-1.9 -0.8,-3.21 -0.14,-2.48 -0.34,-0.07 -1.23,-0.39 -2.04,0.42 -0.35,0.35 -0.53,-0.69 -0.16,1.39 0.21,1.19 0.79,0.75 2.34,0.67z"/>
   <path class="fil2" d="M282.3 67.85c0.32,-1.9 -0.8,-3.21 -0.14,-2.48 -0.34,-0.08 -1.22,-0.4 -2.04,0.43 -0.35,0.34 -0.52,-0.71 -0.16,1.38 0.21,1.2 0.8,0.74 2.34,0.67z"/>
   <path class="fil2" d="M282.17 67.99c0.31,-1.9 -0.8,-3.21 -0.14,-2.47 -0.34,-0.08 -1.23,-0.4 -2.05,0.42 -0.34,0.34 -0.52,-0.7 -0.15,1.39 0.21,1.19 0.79,0.74 2.34,0.66z"/>
   <path class="fil2" d="M434.15 49.42c0.68,-0.31 1.92,-0.77 2.59,-1.36 0.83,-0.73 1.35,-1.69 -0.24,-1.84 -0.51,-0.04 -0.82,-0.46 -2.57,1.03 -0.99,0.84 -1,1.83 0.22,2.17z"/>
   <path class="fil4" d="M319.92 41.29c3.9,-1.61 15.83,-3.71 16.43,-4.17 -0.03,-0.62 -2.16,-0.45 -4.46,-0.24 -3.7,0.34 -7.2,0.94 -11.51,2.75l-0.46 1.66z"/>
   <path class="fil4" d="M309.4 39.43c3.9,-1.62 15.83,-3.72 16.42,-4.17 -0.02,-0.63 -2.16,-0.46 -4.45,-0.25 -3.71,0.35 -7.2,0.94 -11.51,2.75l-0.46 1.67z"/>
   <path class="fil4" d="M375.3 34.72c3.9,-1.62 15.83,-3.72 16.43,-4.18 -0.03,-0.62 -2.16,-0.45 -4.45,-0.24 -3.71,0.35 -7.2,0.94 -11.52,2.75l-0.46 1.67z"/>
   <path class="fil1" d="M461.27 352.39l3.88 0.36c18.78,1.75 30.66,-6.51 42.87,-19.12 6.28,18.02 20.61,29.79 40.01,30.98 10.03,0.62 20.44,-2.49 24.49,-12.46l2.31 -5.7 2.88 3.28c13.41,15.28 30.24,19.95 44.85,18.58 6.52,-0.62 12.54,-2.42 17.55,-5.01 4.7,-2.43 8.46,-5.51 10.78,-8.87 2.7,-3.92 3.47,-8.42 1.48,-12.87 -2.41,-4.3 -6.68,-7.49 -10.93,-10.65 -6.83,-5.1 -13.61,-10.15 -13.84,-20.07 -0.59,-24.46 8.96,-71.14 -4.2,-91.98 -5.13,-8.13 -13.21,-14.01 -25.01,-15.51 -2.81,-0.36 -5.59,-0.39 -8.31,-0.08 -2.63,0.29 -5.22,0.9 -7.73,1.83 -3.38,1.25 -6.43,3.02 -9.21,5.18 -2.8,2.18 -5.34,4.78 -7.64,7.69l-2.36 2.98 -1.96 -1.56c-4.24,-3.38 -9.63,-5.27 -15.26,-5.97 -6.37,-0.8 -12.99,-0.08 -18.56,1.7 -2.36,0.75 -4.41,1.77 -6.2,2.99 -1.74,1.2 -3.25,2.61 -4.56,4.18l-2.49 3.01 -1.85 -1.77c-0.55,-0.54 -1.11,-1.05 -1.67,-1.55 -0.54,-0.48 -1.12,-0.97 -1.74,-1.47l-2.38 -1.93 3.67 -2.81c3.1,-2.37 5.75,-5.18 7.61,-8.4l0 0c1.7,-2.96 2.79,-6.31 3.01,-10.07 0.13,-2.11 -0.02,-4.25 -0.42,-6.38 -0.41,-2.19 -1.08,-4.34 -1.99,-6.4 -2.42,-5.47 -5.94,-9.96 -10.39,-12.77 -21.66,-13.61 -55.21,26.76 -55.06,37.08 0.02,0.24 0.05,0.56 0.1,0.94l-0.01 0.02c0.04,0.28 0.09,0.61 0.16,0.98l0.5 2.58 -3 1.61c-1.3,0.7 -2.55,1.44 -3.76,2.23 -1.22,0.81 -2.4,1.65 -3.5,2.53l-3.27 2.6 -0.73 -2.9 -0.21 -0.81 -0.24 -0.79c-2.07,-6.65 -6.62,-11.46 -12.34,-14.47 -3.99,-2.1 -8.54,-3.33 -13.19,-3.69 -4.59,-0.36 -9.28,0.12 -13.62,1.43 -6.5,1.95 -12.14,5.78 -15.18,11.37 -0.35,0.63 -0.69,1.31 -1.02,2.04 -0.31,0.69 -0.61,1.41 -0.88,2.14l-1.72 4.62 -3.14 -1.76c-27.72,-15.55 -54.55,1.33 -69.53,25.89 -6.01,-2.53 -10.12,-3.65 -16.62,-4.17 -2.72,-21.05 -22.7,-24.33 -34.25,-26.82 2.65,-7.45 3.56,-14.62 2.92,-22.54 -0.44,-5.43 -1.76,-10.25 -4.44,-12.34 -1.32,-1.04 -3.79,-1.26 -5.28,-0.4 -4.77,2.75 -11.23,5.03 -17.82,6.72 -7.86,2 -15.36,3.14 -23.45,3.44 3.13,-9.13 7.44,-25.84 4.41,-31.67 -6.34,-12.19 -46.58,-11.84 -58.98,3.35 -24.88,-29.39 -71.06,-35.32 -105.69,-20.17 -9.65,4.23 -18.4,10.26 -25.21,18.29 -5.85,6.92 -9.75,14.71 -11.9,23.01 -2.34,9.03 -2.65,18.7 -1.19,28.58 3.72,25.12 21.04,42.3 38.31,59.45l0.72 0.71c12.98,12.88 29.51,28.47 28.63,48.27 -0.62,14.02 -9.23,28.13 -23.18,32.7 -6.94,2.27 -14.65,2.26 -22.02,0.98 -3.95,-0.69 -6.98,-0.09 -9.09,1.35 -2.08,1.4 -3.44,3.91 -4.01,6.9 -1.65,8.74 3.02,16.5 11.53,22.58 6.89,4.93 16.26,8.7 26.86,10.97 10.63,2.29 22.45,3.07 34.19,2.03 31.98,-2.84 53.29,-15.25 65.67,-44.58 3.94,4.67 7.4,8.7 12.34,12.52 3.54,2.73 7.46,5.12 11.81,7.11 6.08,2.79 13.35,4.5 20.54,4.6 6.25,0.09 12.38,-1.04 17.46,-3.76 2.28,-1.21 4.32,-2.8 5.98,-4.7 4.72,-5.42 4.94,-10.68 4.35,-16.2l4.25 0.01c11.07,0.05 18.73,-4.43 25.59,-13.27l3.03 -3.9 1.68 2.84c1.6,2.7 3.41,5.21 5.43,7.48 1.95,2.18 4.1,4.16 6.48,5.89 11.84,8.62 29.34,9.04 43.12,3.62l0.96 0.73c9.6,7.25 21.81,9.7 33.53,8.09 15.47,-2.12 23.97,-8.74 33.34,-20.14 7.19,18.25 29.32,29.52 48.8,29.38 17.25,-0.59 24.62,-9.99 24.15,-19.94z"/>
   <path class="fil0" d="M652.2 351.81c11.82,9.03 31.01,29.84 19.72,64.34l-0.31 -0.47c0.48,-3.16 0.64,-6.47 0.44,-9.95 -1.19,-21.29 -12.52,-35.57 -28.22,-44.89 2.95,-1.99 5.35,-4.25 7,-6.65 0.54,-0.78 0.99,-1.57 1.37,-2.38z"/>
   <path class="fil12" d="M465.59 360.23c-5.07,38.75 -61.66,25.92 -80.21,-5.72 -16.73,23.9 -50.2,20.2 -69.19,0.94 1.42,-0.41 2.81,-0.89 4.16,-1.42l0.97 0.73c9.6,7.25 21.82,9.7 33.54,8.09 15.47,-2.12 23.97,-8.74 33.34,-20.14 7.2,18.26 29.34,29.52 48.82,29.38 17.25,-0.59 24.62,-9.99 24.16,-19.94l3.87 0.36c18.79,1.75 30.67,-6.51 42.88,-19.12 2.67,7.64 6.78,14.16 12.12,19.22 -1.85,0.54 -3.69,1.12 -5.5,1.72 -3.77,-4.57 -6.64,-9.5 -8.49,-14.12 -8.57,13.85 -25.6,20.46 -40.47,20.02zm178.24 0.61c2.95,-1.99 5.35,-4.25 7,-6.65 2.71,-3.92 3.48,-8.43 1.49,-12.88 -2.41,-4.3 -6.68,-7.48 -10.93,-10.65 -6.84,-5.1 -13.62,-10.15 -13.85,-20.07 -0.59,-24.47 8.97,-71.16 -4.2,-92 -5.13,-8.14 -13.22,-14.02 -25.01,-15.52 -2.81,-0.35 -5.6,-0.38 -8.31,-0.08 -2.63,0.29 -5.23,0.9 -7.74,1.84 -3.37,1.25 -6.43,3.01 -9.21,5.17 -2.8,2.18 -5.34,4.79 -7.64,7.7l-2.36 2.97 -1.96 -1.55c-4.24,-3.39 -9.64,-5.27 -15.26,-5.98 -6.37,-0.79 -13,-0.07 -18.58,1.71 -2.35,0.75 -4.4,1.76 -6.19,2.99 -1.74,1.19 -3.25,2.6 -4.56,4.18l-2.5 3.01 -1.84 -1.78c-0.55,-0.53 -1.11,-1.05 -1.67,-1.54 -0.55,-0.48 -1.13,-0.98 -1.74,-1.47l-2.39 -1.93 3.68 -2.82c3.09,-2.36 5.75,-5.17 7.61,-8.39l-0.01 -0.01c1.71,-2.96 2.8,-6.31 3.02,-10.07 0.12,-2.1 -0.02,-4.25 -0.42,-6.38 -0.41,-2.19 -1.08,-4.34 -1.99,-6.4 -2.42,-5.47 -5.94,-9.97 -10.4,-12.77 -15.85,-9.97 -38.08,8.99 -48.8,23.93 5.68,-13.15 16.57,-28.62 36.44,-32.55 6.45,-0.91 12.08,0.43 16.76,3.4 4.99,3.16 8.9,8.16 11.56,14.22 1.03,2.33 1.79,4.78 2.25,7.28 0.46,2.45 0.62,5 0.47,7.59 -0.29,4.93 -1.76,9.42 -4.07,13.45l-0.01 0c-1.21,2.11 -2.63,4.07 -4.23,5.89 0.38,-0.29 0.77,-0.57 1.17,-0.85 2.5,-1.72 5.3,-3.12 8.45,-4.13 6.36,-2.05 13.83,-2.89 20.94,-1.99 5.41,0.68 10.64,2.37 15.04,5.3 2.18,-2.45 4.53,-4.71 7.07,-6.7 3.53,-2.76 7.39,-5.01 11.63,-6.59 3.03,-1.14 6.14,-1.88 9.29,-2.23 3.15,-0.35 6.31,-0.32 9.45,0.08 12.92,1.65 21.78,8.12 27.39,17.07 15.19,24.21 6.56,61.78 6.34,89.16 0.32,13.67 20.37,17.76 26.66,29.06 2.98,6.77 -0.81,17.58 -4.89,23.54 -1.78,2.59 -4.53,5.37 -7.66,7.89 -1.7,-1.22 -3.46,-2.37 -5.29,-3.45zm-331.69 -4.37c-15.84,12.79 -42.19,13.17 -52.63,0.41 -7.8,4.63 -18.87,3.18 -23.06,1.85 -0.2,1.27 -0.51,2.54 -0.92,3.76 -4.93,14.73 -20.21,19.9 -35.04,19.69 -21.18,-2.25 -35.58,-17.67 -40.85,-28.77 3.39,4 6.6,7.53 10.97,10.9 3.54,2.73 7.46,5.12 11.81,7.11 6.08,2.79 13.35,4.51 20.54,4.61 6.26,0.08 12.38,-1.04 17.47,-3.76 2.27,-1.22 4.32,-2.81 5.97,-4.71 4.73,-5.42 4.95,-10.68 4.36,-16.21l4.25 0.02c11.07,0.05 18.73,-4.43 25.6,-13.27l3.03 -3.9 1.68 2.84c1.6,2.69 3.41,5.2 5.43,7.47 1.95,2.19 4.1,4.17 6.47,5.89 9.6,6.99 22.89,8.59 34.92,6.07zm-154.1 -4.17c-8.14,25.94 -16.45,57.41 -66.72,63.04 -42.32,2.56 -87.17,-23.23 -80.8,-55.79 2.17,-13.64 15.93,-13.18 25.71,-11.47 28.27,4.93 45.45,-22.61 32.33,-46.61 -11.58,-21.17 -34.69,-33.16 -51.74,-55.47 -34.03,-44.53 -12.9,-95.95 31.94,-110.88 19.24,-8.48 43.21,-7.33 64.92,0.55 -21.25,-5.61 -44.9,-3.86 -64.75,4.83 -9.66,4.23 -18.41,10.26 -25.21,18.29 -5.86,6.93 -9.76,14.71 -11.91,23.02 -2.35,9.03 -2.65,18.71 -1.19,28.59 3.72,25.12 21.04,42.31 38.32,59.46l0.72 0.71c12.98,12.89 29.52,28.47 28.64,48.29 -0.63,14.02 -9.24,28.12 -23.19,32.7 -6.94,2.27 -14.65,2.25 -22.02,0.98 -3.96,-0.69 -6.98,-0.09 -9.1,1.34 -2.08,1.41 -3.44,3.92 -4.01,6.91 -1.65,8.75 3.03,16.51 11.53,22.59 6.9,4.93 16.27,8.69 26.87,10.97 10.63,2.28 22.46,3.07 34.2,2.02 31.79,-2.82 53.04,-15.1 65.46,-44.07zm5.16 -198.16c14.2,-10.22 40.86,-18.35 55.8,-5.27 9.02,8.15 5.03,21.97 3.73,27.78 5.1,-0.85 11.83,-3.04 18.29,-5.46 7.67,-2.87 15.02,-5.75 19.52,-2.86 10.42,6.7 11.18,33.81 8.96,42.3 13.26,4.35 22.07,12.26 24.55,27.15 7.72,3.27 10.71,5 12.17,6.54 -5,-1.97 -8.88,-2.91 -14.66,-3.37 -2.71,-21.05 -22.7,-24.33 -34.25,-26.82 2.64,-7.46 3.55,-14.63 2.91,-22.55 -0.43,-5.44 -1.76,-10.25 -4.43,-12.34 -1.33,-1.05 -3.8,-1.26 -5.28,-0.41 -4.77,2.76 -11.24,5.04 -17.83,6.73 -7.86,2 -15.36,3.14 -23.45,3.44 3.13,-9.14 7.43,-25.85 4.4,-31.68 -5.24,-10.09 -33.74,-11.59 -50.43,-3.18zm149.06 84.89c7.59,-14.5 21.33,-33.6 52.52,-30.55 4.96,0.68 9.81,2.12 14.29,4.24l0.5 -0.96c7.01,-12.96 22.49,-20.44 36.71,-19.33 15.09,1.86 22.43,12.15 26.63,27.32l-2.89 2.3 -0.73 -2.9 -0.22 -0.81 -0.23 -0.79c-2.07,-6.65 -6.63,-11.46 -12.34,-14.47 -4,-2.11 -8.55,-3.34 -13.2,-3.7 -4.59,-0.36 -9.28,0.13 -13.62,1.43 -6.5,1.95 -12.14,5.78 -15.19,11.38 -0.34,0.63 -0.68,1.31 -1.01,2.04 -0.31,0.68 -0.61,1.4 -0.88,2.14l-1.73 4.62 -3.13 -1.76c-25.37,-14.23 -49.99,-1.31 -65.48,19.8z"/>
   <path class="fil13" d="M321.72 541.17c-22.03,-13.35 -37.38,-30.46 -38.49,-57.23 -2.6,-62.06 65.6,-81.84 116.02,-82.71 17.59,-0.3 38.85,1.75 57.32,8.39 -1.2,5.64 -1.72,11.71 -1.45,18.25 1.12,26.77 16.46,43.88 38.49,57.23 -54.26,24.86 -63.38,86.17 -12.61,114.98 9.88,5.61 22.24,9.68 35.93,12.29 -4.85,13 -13.78,24.13 -26.79,33.35 -41.71,29.66 -136.44,35.75 -181.04,10.43 -50.77,-28.81 -41.65,-90.12 12.62,-114.98zm40.26 19.24c-14.09,8.22 -27.68,20.75 -26.94,38.41 1.28,30.83 36.91,39.25 62.11,38.19 14.01,-0.58 34.39,-3.72 42.16,-16.28 7.24,-11.71 3.4,-21.24 -4.57,-28.71 -14.86,-13.91 -52.72,-24.55 -72.76,-31.61zm57.73 -64.96c41.8,-22.92 19.92,-58.75 -22.18,-57 -14.46,0.61 -42.85,6.71 -39.45,26.67 3.23,19 45.95,25.99 61.63,30.33z"/>
   <path class="fil12" d="M591.61 439.38c41.79,-22.93 19.92,-58.76 -22.18,-57 -14.46,0.6 -42.85,6.71 -39.46,26.67 3.24,19 45.96,25.99 61.64,30.33z"/>
   <path class="fil12" d="M533.87 504.34c-14.08,8.22 -27.67,20.75 -26.94,38.41 1.29,30.83 36.92,39.25 62.11,38.19 14.02,-0.58 34.4,-3.72 42.17,-16.28 7.24,-11.71 3.4,-21.25 -4.57,-28.7 -14.87,-13.92 -52.72,-24.56 -72.77,-31.62z"/>
   <path class="fil13" d="M249.42 192.99c-17.07,16.58 -77.96,6.74 -100.3,4.41 -20.94,-2.19 -45.3,4.3 -46.44,27.33 -0.03,0.61 -0.07,2.34 0.27,3.36 0.29,0.88 1.07,0.98 1.98,0.22 7.84,-6.52 27.13,-6.97 36.34,-6.01 27.63,2.88 64.81,21 91.39,7.11 14.24,-7.44 20.41,-22.67 19.69,-35.87 -0.08,-1.36 -0.87,-1.86 -1.55,-1.67 -0.55,0.15 -0.77,0.58 -1.38,1.12z"/>
   <path class="fil13" d="M615.32 309.56c0.23,-18.79 1.46,-37.52 2.96,-56.11 1.25,-15.92 -2.38,-35.08 -21.45,-37.45 -39.18,-4.92 -48.07,83.53 -45.2,107.88 0.05,0.48 -0.21,0.65 -0.91,0.39 -8.05,-24.44 3.41,-74.51 5.54,-90.15 0.3,-1.86 -0.22,-3.16 -1.47,-4.33 -5.58,-5.19 -16.91,-4.84 -23.75,-2.68 -7.83,2.46 -10.44,10.21 -12.21,17.48 0.59,1.66 1.12,3.39 1.56,5.21 3.75,15.41 0.55,35.4 -7.16,52.82 0.85,17.22 4.89,46.5 24.43,50.39 7.18,1.43 26.04,0.83 23.49,-9.99 -5.74,-13.54 5.29,-88.03 27.37,-114.48 3.25,-1.52 4.99,0.3 4.46,3.09 -3.42,17.98 -16.51,68.62 -12.37,98.85 3.24,23.64 18.2,27.86 39.95,24.65 17.43,-3 15.82,-10.17 15.34,-10.93 -2.72,-4.31 -9.45,-6.46 -12.88,-10.65 -5.7,-6.94 -7.8,-15.98 -7.7,-23.99z"/>
   <path class="fil13" d="M474.37 324.72c-3.98,2.77 -8.27,3.54 -11.68,-1.35 -5.77,-8.16 -3.39,-23.71 -0.89,-30.03 0.31,-0.8 0.44,-1.1 0.62,-1.03 1.56,0.58 4.87,1.2 8.44,-0.02 9.15,-3.14 14.79,-12.76 11.95,-23.34 -0.1,-0.42 -0.21,-1.01 -0.91,-0.84 -0.23,0.08 -0.55,0.37 -0.58,0.58 -0.88,5.11 -4.41,7.58 -8.84,9.21 -10.63,3.93 -19.38,-5.53 -18.98,-15.86 0.63,-14.55 14.05,-32.12 30.12,-24.39 10.01,4.81 14.11,14.37 15.16,24.55 1.94,18.91 -8.09,51.17 -24.41,62.52zm42.39 -71.82c-13.44,-45.91 -76.52,-40.17 -81.4,6.85 -0.44,4.24 -0.3,7.07 0.42,11.23 0.04,0.2 0.02,0.38 -0.1,0.67 -1.31,3.65 -3.05,8.65 -3.73,12.69 -2.62,14.86 -0.81,31.33 8.68,43.31 11.39,14.36 31.19,17.29 46.41,7.89 23.47,-14.53 37.57,-55.84 29.72,-82.64z"/>
   <path class="fil13" d="M487.41 182.32c7.4,-9.39 21.99,1.73 21.29,13.39 -0.45,7.62 -8.78,13.84 -18.23,16.67 -12.56,3.76 -24.33,3.52 -26.99,-0.97 -4.83,-8.15 15.1,-17.89 23.93,-29.09z"/>
   <path class="fil13" d="M426.56 260.95c1.92,-10.59 -23.55,-7.6 -29.5,-6.31 -8.92,2 -12.19,15.14 -13.74,29.39 -2.05,18.76 3.23,45.03 20.02,60.16 18.26,16.45 51.79,14.47 46.19,6.82 -0.37,-0.52 -1.06,-0.71 -1.66,-1.06 -27.14,-16.08 -26.18,-62.25 -21.31,-89z"/>
   <path class="fil13" d="M362.2 268.24c-1.68,-0.93 -2.39,-4.11 -2.55,-5.98 -0.03,-0.47 -0.1,-0.94 -0.74,-0.81 -0.21,0.1 -0.5,0.42 -0.52,0.68 -0.72,4.77 1.24,10 5.85,11.64 15.15,5.45 24.36,-14.95 22.15,-27.25 -2.73,-14.95 -20.88,-23.14 -35.97,-19.36 -35.9,8.94 -46.95,57.14 -39.43,88.63 3.86,16.22 14.14,33.26 31.96,35.28 8.43,0.96 17.16,-0.84 24.6,-4.89 6.94,-3.8 13.42,-10.65 15.15,-19.18 0.32,-1.67 -0.8,-2.85 -2.3,-3.27 -1.37,-0.38 -2.88,0.37 -3.47,1.92 -1.22,3.12 -3.08,7.01 -5.36,8.73 -12,9.12 -20.94,-14.43 -22.27,-23.92 -2.33,-13.27 -1.44,-30.03 0.54,-40.69 1.52,-8.38 4.96,-21.79 13.77,-26.89 3.02,-1.77 6.23,-1.62 8.5,0.19 4.86,3.86 2.77,11.35 0.42,16.04 -1.22,2.56 -6.8,11.11 -10.33,9.13z"/>
   <path class="fil13" d="M307.23 260.08c0.44,-2.26 0.05,-3.24 -1.98,-4.24 -8.63,-4.23 -27.11,-4.6 -30.39,6.38 -3.47,11.63 -7.28,23.14 -11.79,34.42 -4.23,10.56 -9.12,23.52 -14.96,30.26 -0.74,0.86 -2.02,1.32 -2.48,0.39 -7.75,-15.82 -3.29,-59.41 15.14,-79.2 3.4,-3.69 9.17,-8.55 14.77,-6 1.54,0.72 4.94,2.44 6.35,0.88 0.87,-0.96 0.65,-2.05 0.01,-3.01 -4.9,-7.89 -15.42,-12.54 -24.44,-13.29 -8.86,-0.76 -16.45,1.92 -23.07,7.25 -10.88,8.79 -19.2,21.9 -23.95,36.32 -6.79,20.58 -9.66,61.08 19.13,68.57 6.94,1.81 13.84,0.66 18.26,-2.66 10.66,-8.02 17.81,-27.36 21.9,-38.46 -2,15.11 2.61,34.42 14.92,43.26 7.23,5.19 21.82,6.92 30.03,2.94 0.82,-0.56 1.54,-2.98 -1.47,-4.63 -19.79,-10.87 -8.74,-64.81 -5.98,-79.18z"/>
   <path class="fil13" d="M203.38 174.96c0.76,-4.55 0.81,-7.41 -3.64,-9.06 -7.56,-2.8 -17.31,-3.6 -25.33,-1.67 -17.58,4.24 -22.37,72.15 -22.62,92.93 -0.44,36.33 1.8,87.29 36.88,103.13 12.07,5.46 23.32,3.45 28.1,0.92 6.1,-3.22 6.48,-8.98 4.81,-9.4 -28.94,-7.31 -27.84,-66.49 -28.02,-87.8 -0.24,-28.59 5.06,-60.49 9.82,-89.05z"/>
   <path class="fil13" d="M25.45 212.08c5.19,34.56 44.41,53.05 60.96,82.68 17.84,31.97 1.43,78.71 -48.44,70.19 -3.48,-0.6 -3.64,4.71 2.46,7.93 30.76,16.24 75.73,15.31 98.03,-6.7 17.35,-17.13 19.68,-44.54 2.06,-69.27 -15.71,-22.03 -39.6,-34.61 -54.56,-56.86 -12.81,-19.03 -7.89,-41.24 5.93,-54.1 13.64,-12.68 36.57,-14.4 55.67,-6.25 3.79,1.62 6.57,-1.99 5.6,-3.79 -25.07,-46.54 -138.81,-37.74 -127.71,36.17z"/>
   <path class="fil13" d="M394.69 220.42c5.87,-10.62 30.24,-11.31 34.25,1.41 2.62,8.31 -0.63,23.05 -11.62,25.5 -25.32,5.64 -29.23,-14.95 -22.63,-26.91z"/>
   <path class="fil0" d="M571.33 353.83c4.68,3.96 14.57,12.19 38.82,13.85 -16.37,-3.39 -27.99,-11.48 -35.51,-21.88 -0.98,2.99 -2.1,5.62 -3.31,8.03z"/>
   <path class="fil0" d="M507.91 333.41c0.36,0.11 5.87,21.94 26.35,25.77 -15.67,3.12 -25.12,-5.44 -29.41,-17.42l3.06 -8.35z"/>
  </g>
 </g>
</svg>
