<?xml version="1.0" encoding="UTF-8"?>
<!DOCTYPE svg PUBLIC "-//W3C//DTD SVG 1.1//EN" "http://www.w3.org/Graphics/SVG/1.1/DTD/svg11.dtd">
<!-- Creator: CorelDRAW -->
<svg xmlns="http://www.w3.org/2000/svg" xml:space="preserve" width="540px" height="80px" version="1.1" style="shape-rendering:geometricPrecision; text-rendering:geometricPrecision; image-rendering:optimizeQuality; fill-rule:evenodd; clip-rule:evenodd"
viewBox="0 0 269.43 39.71"
 xmlns:xlink="http://www.w3.org/1999/xlink"
 xmlns:xodm="http://www.corel.com/coreldraw/odm/2003">
 <defs>
  <style type="text/css">
   <![CDATA[
    .fil0 {fill:#ED3237}
   ]]>
  </style>
 </defs>
 <g id="Capa_x0020_1">
  <metadata id="CorelCorpID_0Corel-Layer"/>
  <g id="_2246269158320">
   <g>
    <path class="fil0" d="M0 0.26c0,0 3.06,2.65 10.17,4.8 7.11,2.15 16.79,5.87 16.79,5.87l-12.9 15.96 9.26 4.06 -3.22 1.65 -11.75 -4.47 12.82 -15.05c0,0 -9.43,-3.22 -12.07,-3.97 -2.65,-0.82 -7.61,-4.21 -8.19,-5.62 -0.66,-1.41 -0.91,-3.23 -0.91,-3.23z"/>
   </g>
   <g>
    <path class="fil0" d="M3.22 7.05c0,0 2.82,2.06 4.8,2.81 1.99,0.74 11.5,3.72 11.5,3.72l-1.24 1.82 -8.85 -2.57c0,0 -1.99,-0.49 -3.23,-1.15 -1.24,-0.58 -2.48,-1.82 -2.98,-2.73 -0.49,-0.99 0,-1.9 0,-1.9z"/>
   </g>
   <g>
    <path class="fil0" d="M5.04 12.34c0,0 1.74,1.07 3.15,1.4 1.4,0.34 9.09,2.65 9.09,2.65l-1.32 1.82c0,0 -5.79,-1.24 -7.03,-1.74 -1.24,-0.41 -2.15,-0.91 -2.89,-1.98 -0.83,-1.08 -1,-2.15 -1,-2.15z"/>
   </g>
   <g>
    <polygon class="fil0" points="17.28,24.41 15.3,26.56 25.06,30.78 28.28,29.04 "/>
   </g>
   <g>
    <polygon class="fil0" points="16.87,35.74 42.75,24.74 44.74,26.56 19.02,37.56 "/>
   </g>
   <g>
    <path class="fil0" d="M20.43 38.22l2.64 1.49 28.45 -12.07 -12.82 -14.72 9.26 -3.06c0,0 4.55,-1.57 6.21,-2.48 1.73,-0.91 4.55,-2.48 5.46,-5.46 0.91,-2.9 0.33,-1.66 0.33,-1.66 0,0 -1.57,1.25 -3.73,2.16 -2.23,0.9 -4.21,1.9 -7.02,2.81 -2.73,0.91 -15.8,5.87 -15.8,5.87l13.07 15.63 -26.05 11.49z"/>
   </g>
   <g>
    <polygon class="fil0" points="31.76,37.56 36.22,39.63 39.78,38.06 34.98,35.99 "/>
   </g>
   <g>
    <polygon class="fil0" points="36.97,35.25 41.35,37.15 44.41,35.74 39.94,33.84 "/>
   </g>
   <g>
    <path class="fil0" d="M41.02 13.74c0,0 6.04,-2.31 7.28,-2.64 1.24,-0.33 4.05,-1.57 5.12,-1.99 1.08,-0.49 3.72,-2.06 3.72,-2.06 0,0 -0.82,2.64 -2.15,3.55 -1.4,0.99 -3.88,1.9 -5.78,2.48 -1.82,0.66 -6.79,2.07 -6.79,2.07l-1.4 -1.41z"/>
   </g>
   <g>
    <path class="fil0" d="M43.33 16.23c0,0 3.56,-0.91 4.97,-1.41 1.4,-0.5 2.15,-0.83 3.22,-1.24 1.08,-0.5 3.14,-1.24 3.14,-1.24 0,0 0.17,1.82 -2.48,3.06 -2.64,1.24 -4.79,1.9 -4.79,1.9l-2.82 0.58 -1.24 -1.65z"/>
   </g>
   <g>
    <polygon class="fil0" points="66.9,12.92 87.08,12.92 86.42,14.82 68.31,27.97 81.79,27.97 81.13,29.79 60.87,29.79 61.53,27.97 79.72,14.82 66.24,14.82 "/>
   </g>
   <g>
    <path class="fil0" d="M100.31 12.92l6.78 0c1.82,0 3.23,0.41 4.14,1.16 0.99,0.66 1.24,1.57 0.66,2.56l-4.71 9.43c-0.5,0.99 -1.66,1.9 -3.31,2.64 -1.41,0.58 -2.9,1 -4.47,1.08l0 -2.73c0.5,-0.33 0.83,-0.66 1.08,-0.99l4.71 -9.43c0.25,-0.5 0.17,-0.91 -0.33,-1.32 -0.49,-0.33 -1.16,-0.5 -2.07,-0.5 -0.99,0 -1.82,0.17 -2.73,0.5 -0.24,0.16 -0.41,0.24 -0.66,0.33l0 -2.73c0.33,0 0.66,0 0.91,0zm-0.91 16.87l0 0c-0.24,0 -0.58,0 -0.82,0l-6.78 0c-1.82,0 -3.23,-0.33 -4.22,-1.08 -0.91,-0.74 -1.16,-1.65 -0.58,-2.64l4.71 -9.43c0.5,-0.99 1.57,-1.9 3.31,-2.56 1.41,-0.67 2.89,-1 4.38,-1.16l0 2.73c-0.41,0.33 -0.74,0.66 -0.99,0.99l-4.71 9.43c-0.25,0.49 -0.17,0.91 0.33,1.32 0.49,0.33 1.16,0.58 2.07,0.58 0.99,0 1.81,-0.25 2.72,-0.58 0.25,-0.08 0.42,-0.25 0.58,-0.33l0 2.73z"/>
   </g>
   <g>
    <path class="fil0" d="M152.33 20.44l10.09 0 -1.99 5.63c-0.41,1.24 -1.48,2.15 -3.14,2.81 -1.65,0.58 -3.31,0.91 -4.88,0.91l-11.41 0c-3.14,0.33 -4.55,-0.42 -2.31,-3.72l5.62 -10.18c0.33,-0.99 2.31,-2.97 4.22,-2.97l9.84 0c4.22,0 7.28,0 7.28,0l-0.25 1.9c0,0 -5.71,0 -7.69,0l-3.39 0c-0.91,0 -1.74,0.17 -2.57,0.5 -0.83,0.41 -1.24,0.82 -1.49,1.32l-3.3 9.43c-0.17,0.49 0,0.99 0.49,1.32 0.58,0.33 1.32,0.58 2.23,0.58 2.15,-0.08 3.48,-0.75 4.06,-1.9l1.32 -3.81 -3.39 0 0.66 -1.82z"/>
   </g>
   <g>
    <path class="fil0" d="M187.73 12.92l0 1.9c-3.39,0 -4.55,0 -6.37,0 -1.16,0 -2.07,0.17 -2.81,0.41 -0.75,0.33 -1.16,0.83 -1.41,1.49 -0.17,0.42 0,0.91 0.5,1.32l5.62 4.39c0.99,0.82 1.32,1.73 0.99,2.73l-0.33 0.91c-0.33,0.99 -1.32,1.9 -2.89,2.64 -1.57,0.75 -3.31,1.08 -5.13,1.08l-3.39 0c-2.23,0 -2.23,0.33 -5.05,0.16 -1.81,0.17 -4.13,0.17 -4.13,0.17l0 -2.07c0,0 1.9,0.17 5.29,0 1.41,0.17 3.72,-0.08 4.55,-0.08 1.16,0 2.07,-0.17 2.73,-0.5 0.66,-0.33 1.07,-0.82 1.32,-1.4 0.17,-0.5 0,-0.91 -0.58,-1.33l-5.54 -4.46c-0.99,-0.83 -1.32,-1.74 -0.99,-2.65l0.33 -0.99c0.33,-0.99 1.32,-1.9 2.9,-2.56 1.57,-0.75 3.3,-1.16 5.12,-1.16l3.39 0c4.22,0 5.88,0 5.88,0z"/>
   </g>
   <g>
    <polygon class="fil0" points="189.13,29.79 196.82,12.92 203.6,12.92 200.13,20.44 206.91,20.44 210.3,12.92 217.08,12.92 209.39,29.79 202.61,29.79 206.08,22.26 199.3,22.26 195.91,29.79 "/>
   </g>
   <g>
    <polygon class="fil0" points="216.01,29.79 224.36,12.92 241.23,12.92 240.24,14.82 230.15,14.82 227.34,20.44 234.12,20.44 233.21,22.26 226.43,22.26 223.7,27.97 233.79,27.97 232.88,29.79 "/>
   </g>
   <g>
    <polygon class="fil0" points="239.91,29.79 245.86,12.92 247.43,12.92 262.73,22.26 266.04,12.92 269.43,12.92 263.48,29.79 261.91,29.79 246.61,20.44 243.22,29.79 "/>
   </g>
   <g>
    <polygon class="fil0" points="109.16,29.79 116.27,12.92 117.85,12.92 132.57,22.26 136.54,12.92 139.93,12.92 132.73,29.79 131.16,29.79 116.52,20.44 112.55,29.79 "/>
   </g>
  </g>
 </g>
</svg>
